<?xml version="1.0" encoding="UTF-8" standalone="no"?>
<svg xmlns:svg="http://www.w3.org/2000/svg" xmlns="http://www.w3.org/2000/svg" xmlns:xlink="http://www.w3.org/1999/xlink" version="1.0" width="512" height="295" id="svg2">
<defs id="defs4">
<marker refX="0" refY="0" orient="auto" style="overflow:visible" id="Arrow2Mend">
<path d="M 8.7185878,4.0337352 L -2.2072895,0.016013256 L 8.7185884,-4.0017078 C 6.97309,-1.6296469 6.9831476,1.6157441 8.7185878,4.0337352 z " transform="scale(-0.6,-0.6)" style="font-size:12px;fill-rule:evenodd;stroke-width:0.625;stroke-linejoin:round" id="path15525" />
</marker>
<marker refX="0" refY="0" orient="auto" style="overflow:visible" id="Tail">
<g transform="scale(-1.2,-1.2)" id="g15504">
<path d="M -3.8048674,-3.9585227 L 0.54352094,0" style="fill:none;fill-rule:evenodd;stroke:black;stroke-width:0.80000001;stroke-linecap:round;marker-start:none;marker-end:none" id="path15506" />
<path d="M -1.2866832,-3.9585227 L 3.0617053,0" style="fill:none;fill-rule:evenodd;stroke:black;stroke-width:0.80000001;stroke-linecap:round;marker-start:none;marker-end:none" id="path15508" />
<path d="M 1.3053582,-3.9585227 L 5.6537466,0" style="fill:none;fill-rule:evenodd;stroke:black;stroke-width:0.80000001;stroke-linecap:round;marker-start:none;marker-end:none" id="path15510" />
<path d="M -3.8048674,4.1775838 L 0.54352094,0.21974226" style="fill:none;fill-rule:evenodd;stroke:black;stroke-width:0.80000001;stroke-linecap:round;marker-start:none;marker-end:none" id="path15512" />
<path d="M -1.2866832,4.1775838 L 3.0617053,0.21974226" style="fill:none;fill-rule:evenodd;stroke:black;stroke-width:0.80000001;stroke-linecap:round;marker-start:none;marker-end:none" id="path15514" />
<path d="M 1.3053582,4.1775838 L 5.6537466,0.21974226" style="fill:none;fill-rule:evenodd;stroke:black;stroke-width:0.80000001;stroke-linecap:round;marker-start:none;marker-end:none" id="path15516" />
</g>
</marker>
<marker refX="0" refY="0" orient="auto" style="overflow:visible" id="Arrow1Lend">
<path d="M 0,0 L 5,-5 L -12.5,0 L 5,5 L 0,0 z " transform="matrix(-0.8,0,0,-0.8,-10,0)" style="fill-rule:evenodd;stroke:black;stroke-width:1pt;marker-start:none" id="path15549" />
</marker>
<marker refX="0" refY="0" orient="auto" style="overflow:visible" id="Arrow1Lstart">
<path d="M 0,0 L 5,-5 L -12.5,0 L 5,5 L 0,0 z " transform="matrix(0.8,0,0,0.8,10,0)" style="fill-rule:evenodd;stroke:black;stroke-width:1pt;marker-start:none" id="path15552" />
</marker>
<linearGradient id="linearGradient13591">
<stop style="stop-color:white;stop-opacity:1" offset="0" id="stop13593" />
<stop style="stop-color:white;stop-opacity:0.5" offset="0.37037036" id="stop13595" />
<stop style="stop-color:white;stop-opacity:0" offset="1" id="stop13597" />
</linearGradient>
<linearGradient id="linearGradient6338">
<stop style="stop-color:white;stop-opacity:1" offset="0" id="stop6342" />
<stop style="stop-color:white;stop-opacity:0.5" offset="0.37037036" id="stop7317" />
<stop style="stop-color:white;stop-opacity:0" offset="1" id="stop6340" />
</linearGradient>
<pattern xlink:href="#pattern2786" id="pattern4564" patternTransform="translate(535.5,103.4055)" />
<pattern patternUnits="userSpaceOnUse" width="78" height="72" patternTransform="translate(550,122)" id="pattern2786">
<g id="g4546">
<rect style="fill:black;fill-opacity:1;fill-rule:evenodd;stroke:none;stroke-width:1px;stroke-linecap:butt;stroke-linejoin:miter;stroke-opacity:1" id="rect2772" width="38" height="35" x="-85" y="69.594482" />
<rect style="fill:white;fill-opacity:0.38888891;fill-rule:evenodd;stroke:none;stroke-width:1px;stroke-linecap:butt;stroke-linejoin:miter;stroke-opacity:1" id="rect2774" width="38" height="35" x="-46.5" y="70.094482" />
<rect style="fill:white;fill-opacity:0.38888891;fill-rule:evenodd;stroke:none;stroke-width:1px;stroke-linecap:butt;stroke-linejoin:miter;stroke-opacity:1" id="rect2776" width="38" height="35" x="-85" y="105.59448" />
<rect style="fill:black;fill-opacity:1;fill-rule:evenodd;stroke:none;stroke-width:1px;stroke-linecap:butt;stroke-linejoin:miter;stroke-opacity:1" id="rect2778" width="38" height="35" x="-46" y="105.09448" />
</g>
</pattern>
<linearGradient x1="29.5" y1="167.09448" x2="272.5" y2="167.09448" id="linearGradient8204" xlink:href="#linearGradient6338" gradientUnits="userSpaceOnUse" spreadMethod="reflect" />
<linearGradient x1="269" y1="29.594481" x2="272.5" y2="167.09448" id="linearGradient12704" xlink:href="#linearGradient13591" gradientUnits="userSpaceOnUse" gradientTransform="translate(-14.5,-18.59448)" spreadMethod="reflect" />
<linearGradient x1="29.5" y1="167.09448" x2="272.5" y2="167.09448" id="linearGradient1985" xlink:href="#linearGradient6338" gradientUnits="userSpaceOnUse" gradientTransform="translate(-14.5,-18.59448)" spreadMethod="reflect" />
</defs>
<g id="layer2">
<rect width="491" height="274" x="12.5" y="11.5" style="fill:url(#pattern4564);fill-opacity:1;fill-rule:evenodd;stroke:none;stroke-width:1;stroke-linecap:butt;stroke-linejoin:miter;stroke-miterlimit:4;stroke-dasharray:8, 8;stroke-dashoffset:0;stroke-opacity:1" id="rect4562" />
</g>
<g id="layer3">
<rect width="491" height="274" x="12.5" y="11.5" style="fill:url(#linearGradient12704);fill-opacity:1;fill-rule:evenodd;stroke:black;stroke-width:1;stroke-linecap:butt;stroke-linejoin:miter;stroke-miterlimit:4;stroke-dasharray:8, 8;stroke-dashoffset:0;stroke-opacity:1" id="rect12702" />
</g>
<path d="M 12.5,11.500002 L 503.5,11.500002 L 503.5,285.5 L 12.5,285.5 L 12.5,11.500002 z " style="fill:url(#linearGradient1985);fill-opacity:1;fill-rule:evenodd;stroke:black;stroke-width:1;stroke-linecap:butt;stroke-linejoin:miter;stroke-miterlimit:4;stroke-dasharray:8, 8;stroke-dashoffset:0;stroke-opacity:1" id="rect1876" />
<path d="M 30,31.999999 L 481,31.999999 L 481,266.5 L 30,266.5 L 30,31.999999 z " style="fill:#00f800;fill-opacity:0.19191918;fill-rule:evenodd;stroke:none;stroke-width:1px;stroke-linecap:butt;stroke-linejoin:miter;stroke-opacity:1" id="rect20210" />
<path d="M 48.352348,49.500002 L 459.35235,49.500002 L 459.35235,247.5 L 48.352348,247.5 L 48.352348,49.500002 z " style="fill:#ffd52a;fill-opacity:0.99494952;fill-rule:evenodd;stroke:#a5480c;stroke-width:16.29921341;stroke-linecap:butt;stroke-linejoin:miter;stroke-miterlimit:4;stroke-opacity:1" id="rect1872" />
<path d="M 91.42618,99 L 420.42618,99 L 420.42618,198 L 91.42618,198 L 91.42618,99 z " style="fill:#9a9a9b;fill-opacity:0.28787878;fill-rule:evenodd;stroke:none;stroke-width:0.99921262;stroke-linecap:butt;stroke-linejoin:miter;stroke-miterlimit:4;stroke-opacity:1" id="rect1874" />
<path d="M 213.90625,146.97266 L 216.55859,147.64258 C 216.00259,149.82097 215.00226,151.4821 213.55762,152.62598 C 212.11294,153.76986 210.34699,154.3418 208.25977,154.3418 C 206.0996,154.3418 204.34277,153.90202 202.98926,153.02246 C 201.63574,152.14291 200.60579,150.86915 199.89941,149.20117 C 199.19303,147.53321 198.83984,145.7422 198.83984,143.82813 C 198.83984,141.7409 199.2386,139.92026 200.03613,138.36621 C 200.83366,136.81219 201.96842,135.63186 203.44043,134.8252 C 204.91243,134.01858 206.53254,133.61526 208.30078,133.61524 C 210.30598,133.61526 211.99217,134.12567 213.35938,135.14649 C 214.72655,136.16734 215.67902,137.60288 216.2168,139.45313 L 213.60547,140.06836 C 213.14061,138.61004 212.46613,137.5482 211.58203,136.88281 C 210.6979,136.21747 209.58593,135.88479 208.24609,135.88477 C 206.70572,135.88479 205.41829,136.25393 204.38379,136.99219 C 203.34928,137.73049 202.62239,138.7217 202.20313,139.96582 C 201.78385,141.20998 201.57421,142.49285 201.57422,143.81446 C 201.57421,145.51889 201.82259,147.00685 202.31934,148.27832 C 202.81608,149.54981 203.58854,150.50001 204.63672,151.12891 C 205.68489,151.75782 206.81965,152.07227 208.04102,152.07227 C 209.52668,152.07227 210.78449,151.64388 211.81445,150.78711 C 212.84439,149.93035 213.54165,148.65886 213.90625,146.97266 L 213.90625,146.97266 z M 218.60938,146.74024 C 218.60937,144.05144 219.35677,142.05991 220.85156,140.76563 C 222.10026,139.69012 223.62239,139.15236 225.41797,139.15235 C 227.41405,139.15236 229.04556,139.80633 230.3125,141.11426 C 231.57941,142.42221 232.21288,144.22918 232.21289,146.53516 C 232.21288,148.40365 231.9326,149.87338 231.37207,150.94434 C 230.81151,152.0153 229.99576,152.84701 228.9248,153.43946 C 227.85383,154.0319 226.68489,154.32813 225.41797,154.32813 C 223.38541,154.32813 221.74251,153.67644 220.48926,152.37305 C 219.236,151.06967 218.60937,149.19206 218.60938,146.74024 L 218.60938,146.74024 z M 221.13867,146.74024 C 221.13867,148.59962 221.54427,149.99187 222.35547,150.91699 C 223.16666,151.84213 224.18749,152.30469 225.41797,152.30469 C 226.63931,152.30469 227.65559,151.83985 228.4668,150.91016 C 229.27798,149.98048 229.68358,148.56316 229.68359,146.65821 C 229.68358,144.86264 229.2757,143.50229 228.45996,142.57715 C 227.6442,141.65203 226.6302,141.18947 225.41797,141.18946 C 224.18749,141.18947 223.16666,141.64975 222.35547,142.57031 C 221.54427,143.4909 221.13867,144.88087 221.13867,146.74024 L 221.13867,146.74024 z M 235.11133,154 L 235.11133,139.48047 L 237.32617,139.48047 L 237.32617,141.54492 C 238.39257,139.94989 239.93294,139.15236 241.94727,139.15235 C 242.82226,139.15236 243.62662,139.30959 244.36035,139.62403 C 245.09406,139.93849 245.64322,140.35093 246.00781,140.86133 C 246.37238,141.37176 246.62759,141.97788 246.77344,142.67969 C 246.86457,143.13543 246.91014,143.93296 246.91016,145.07227 L 246.91016,154 L 244.44922,154 L 244.44922,145.16797 C 244.44921,144.16538 244.3535,143.4157 244.16211,142.91895 C 243.97069,142.42221 243.63117,142.02573 243.14355,141.72949 C 242.65592,141.43328 242.08398,141.28517 241.42773,141.28516 C 240.37955,141.28517 239.47493,141.61785 238.71387,142.28321 C 237.95279,142.94858 237.57226,144.21095 237.57227,146.07031 L 237.57227,154 L 235.11133,154 z M 256.07031,151.79883 L 256.42578,153.97266 C 255.73307,154.11849 255.11327,154.19141 254.56641,154.19141 C 253.67317,154.19141 252.98046,154.05013 252.48828,153.76758 C 251.99609,153.48503 251.64974,153.11361 251.44922,152.65332 C 251.2487,152.19304 251.14844,151.22461 251.14844,149.74805 L 251.14844,141.39453 L 249.34375,141.39453 L 249.34375,139.48047 L 251.14844,139.48047 L 251.14844,135.88477 L 253.5957,134.40821 L 253.5957,139.48047 L 256.07031,139.48047 L 256.07031,141.39453 L 253.5957,141.39453 L 253.5957,149.88477 C 253.5957,150.58659 253.63899,151.03777 253.72559,151.23828 C 253.81217,151.43881 253.95345,151.59831 254.14941,151.7168 C 254.34537,151.83529 254.62565,151.89454 254.99023,151.89453 C 255.26367,151.89454 255.62369,151.86263 256.07031,151.79883 L 256.07031,151.79883 z M 268.40234,149.32422 L 270.94531,149.63867 C 270.54426,151.12435 269.80142,152.27735 268.7168,153.09766 C 267.63215,153.91797 266.24674,154.32813 264.56055,154.32813 C 262.43684,154.32813 260.75293,153.67416 259.50879,152.36621 C 258.26465,151.05827 257.64258,149.22397 257.64258,146.86328 C 257.64258,144.42058 258.27148,142.52475 259.5293,141.17578 C 260.78711,139.82684 262.41861,139.15236 264.42383,139.15235 C 266.36522,139.15236 267.95116,139.81317 269.18164,141.13477 C 270.4121,142.45639 271.02733,144.31577 271.02734,146.71289 C 271.02733,146.85873 271.02277,147.07748 271.01367,147.36914 L 260.18555,147.36914 C 260.27669,148.9642 260.72786,150.18555 261.53906,151.03321 C 262.35025,151.88086 263.36197,152.30469 264.57422,152.30469 C 265.47655,152.30469 266.24674,152.06771 266.88477,151.59375 C 267.52278,151.1198 268.02863,150.36329 268.40234,149.32422 L 268.40234,149.32422 z M 260.32227,145.34571 L 268.42969,145.34571 C 268.3203,144.12436 268.01041,143.20835 267.5,142.59766 C 266.71614,141.64975 265.69986,141.1758 264.45117,141.17578 C 263.32096,141.1758 262.37076,141.55405 261.60059,142.31055 C 260.8304,143.06707 260.40429,144.07879 260.32227,145.34571 L 260.32227,145.34571 z M 274.04883,154 L 274.04883,139.48047 L 276.26367,139.48047 L 276.26367,141.54492 C 277.33007,139.94989 278.87044,139.15236 280.88477,139.15235 C 281.75976,139.15236 282.56412,139.30959 283.29785,139.62403 C 284.03156,139.93849 284.58072,140.35093 284.94531,140.86133 C 285.30988,141.37176 285.56509,141.97788 285.71094,142.67969 C 285.80207,143.13543 285.84764,143.93296 285.84766,145.07227 L 285.84766,154 L 283.38672,154 L 283.38672,145.16797 C 283.38671,144.16538 283.291,143.4157 283.09961,142.91895 C 282.90819,142.42221 282.56867,142.02573 282.08105,141.72949 C 281.59342,141.43328 281.02148,141.28517 280.36523,141.28516 C 279.31705,141.28517 278.41243,141.61785 277.65137,142.28321 C 276.89029,142.94858 276.50976,144.21095 276.50977,146.07031 L 276.50977,154 L 274.04883,154 z M 295.00781,151.79883 L 295.36328,153.97266 C 294.67057,154.11849 294.05077,154.19141 293.50391,154.19141 C 292.61067,154.19141 291.91796,154.05013 291.42578,153.76758 C 290.93359,153.48503 290.58724,153.11361 290.38672,152.65332 C 290.1862,152.19304 290.08594,151.22461 290.08594,149.74805 L 290.08594,141.39453 L 288.28125,141.39453 L 288.28125,139.48047 L 290.08594,139.48047 L 290.08594,135.88477 L 292.5332,134.40821 L 292.5332,139.48047 L 295.00781,139.48047 L 295.00781,141.39453 L 292.5332,141.39453 L 292.5332,149.88477 C 292.5332,150.58659 292.57649,151.03777 292.66309,151.23828 C 292.74967,151.43881 292.89095,151.59831 293.08691,151.7168 C 293.28287,151.83529 293.56315,151.89454 293.92773,151.89453 C 294.20117,151.89454 294.56119,151.86263 295.00781,151.79883 L 295.00781,151.79883 z " style="font-size:18px;font-style:italic;font-weight:normal;text-align:center;text-anchor:middle;fill:black;fill-opacity:1;stroke:none;stroke-width:1px;stroke-linecap:butt;stroke-linejoin:miter;stroke-opacity:1;font-family:Comic Sans MS" id="text2764" />
<path d="M 214.77734,34.021483 L 214.77734,19.705077 L 217.62891,19.705077 L 221.01758,29.841795 C 221.33007,30.785809 221.55793,31.492189 221.70117,31.960936 C 221.86392,31.440105 222.11783,30.675132 222.46289,29.666014 L 225.89063,19.705077 L 228.43945,19.705077 L 228.43945,34.021483 L 226.61328,34.021483 L 226.61328,22.039061 L 222.45313,34.021483 L 220.74414,34.021483 L 216.60352,21.833983 L 216.60352,34.021483 L 214.77734,34.021483 z M 238.05859,32.742186 C 237.40754,33.295572 236.78092,33.686197 236.17871,33.914061 C 235.57649,34.141926 234.93033,34.255858 234.24023,34.255858 C 233.10091,34.255858 232.22526,33.977538 231.61328,33.420897 C 231.0013,32.864258 230.69531,32.152995 230.69531,31.287108 C 230.69531,30.779299 230.81087,30.315432 231.04199,29.895506 C 231.27311,29.475589 231.57584,29.138675 231.9502,28.884764 C 232.32454,28.630863 232.74609,28.438806 233.21484,28.308592 C 233.55989,28.217452 234.08073,28.129562 234.77734,28.04492 C 236.19661,27.875656 237.24153,27.673833 237.91211,27.439452 C 237.91861,27.198573 237.92187,27.045578 237.92188,26.980467 C 237.92187,26.264329 237.75585,25.759772 237.42383,25.466795 C 236.9746,25.069669 236.30729,24.871102 235.42188,24.871092 C 234.59505,24.871102 233.9847,25.015958 233.59082,25.305663 C 233.19694,25.595385 232.9056,26.108079 232.7168,26.843749 L 230.99805,26.609374 C 231.1543,25.873705 231.41146,25.27963 231.76953,24.827147 C 232.1276,24.374683 232.64518,24.026376 233.32227,23.782225 C 233.99934,23.538095 234.78385,23.416025 235.67578,23.416014 C 236.56119,23.416025 237.28059,23.520191 237.83398,23.728514 C 238.38736,23.936858 238.79426,24.198902 239.05469,24.514647 C 239.31509,24.830411 239.49739,25.229174 239.60156,25.710936 C 239.66015,26.010423 239.68944,26.550787 239.68945,27.33203 L 239.68945,29.67578 C 239.68944,31.309897 239.72688,32.343425 239.80176,32.776366 C 239.87662,33.209309 240.02473,33.624348 240.24609,34.021483 L 238.41016,34.021483 C 238.22786,33.6569 238.11067,33.230468 238.05859,32.742186 L 238.05859,32.742186 z M 237.91211,28.816405 C 237.27408,29.076826 236.31705,29.29818 235.04102,29.480467 C 234.31836,29.584638 233.80729,29.701826 233.50781,29.83203 C 233.20833,29.962242 232.97721,30.152672 232.81445,30.403319 C 232.65169,30.653973 232.57031,30.932293 232.57031,31.23828 C 232.57031,31.707032 232.74772,32.097657 233.10254,32.410155 C 233.45735,32.722656 233.97656,32.878906 234.66016,32.878905 C 235.33723,32.878906 235.93945,32.730794 236.4668,32.434569 C 236.99413,32.138347 237.3815,31.733074 237.62891,31.218749 C 237.8177,30.821616 237.9121,30.235679 237.91211,29.460936 L 237.91211,28.816405 z M 242.4043,34.021483 L 242.4043,23.650389 L 243.98633,23.650389 L 243.98633,25.222655 C 244.38997,24.486987 244.76269,24.001962 245.10449,23.767577 C 245.44628,23.533212 245.82226,23.416025 246.23242,23.416014 C 246.82486,23.416025 247.42708,23.604827 248.03906,23.98242 L 247.43359,25.61328 C 247.0039,25.359382 246.57421,25.232429 246.14453,25.23242 C 245.76041,25.232429 245.41536,25.347989 245.10938,25.5791 C 244.80338,25.810228 244.58528,26.130866 244.45508,26.541014 C 244.25976,27.166021 244.16211,27.849614 244.16211,28.591795 L 244.16211,34.021483 L 242.4043,34.021483 z M 248.78125,34.880858 L 250.49023,35.134764 C 250.56185,35.662106 250.76041,36.046221 251.08594,36.287108 C 251.52213,36.612626 252.11783,36.775386 252.87305,36.775389 C 253.68684,36.775386 254.3151,36.612626 254.75781,36.287108 C 255.20051,35.961585 255.49999,35.505856 255.65625,34.91992 C 255.74739,34.561847 255.78971,33.809895 255.7832,32.664061 C 255.01497,33.569009 254.05794,34.021483 252.91211,34.021483 C 251.48632,34.021483 250.38281,33.507161 249.60156,32.478514 C 248.82031,31.449871 248.42969,30.216148 248.42969,28.777342 C 248.42969,27.787765 248.60872,26.87468 248.9668,26.038085 C 249.32487,25.201505 249.84407,24.555347 250.52441,24.099608 C 251.20475,23.643889 252.0039,23.416025 252.92188,23.416014 C 254.14583,23.416025 255.15494,23.910816 255.94922,24.900389 L 255.94922,23.650389 L 257.57031,23.650389 L 257.57031,32.615233 C 257.5703,34.229816 257.40591,35.374021 257.07715,36.04785 C 256.74836,36.721676 256.22753,37.253902 255.51465,37.64453 C 254.80175,38.035151 253.92447,38.230463 252.88281,38.230467 C 251.64583,38.230463 250.64648,37.952143 249.88477,37.395506 C 249.12305,36.838863 248.75521,36.000648 248.78125,34.880858 L 248.78125,34.880858 z M 250.23633,28.650389 C 250.23633,30.01107 250.50651,31.003908 251.04688,31.628905 C 251.58724,32.253907 252.26432,32.566406 253.07813,32.566405 C 253.88541,32.566406 254.56249,32.255534 255.10938,31.633788 C 255.65624,31.012046 255.92968,30.037112 255.92969,28.708983 C 255.92968,27.439458 255.6481,26.482428 255.08496,25.837889 C 254.5218,25.193367 253.84309,24.871102 253.04883,24.871092 C 252.26757,24.871102 251.60351,25.188484 251.05664,25.823241 C 250.50976,26.458014 250.23633,27.400396 250.23633,28.650389 L 250.23633,28.650389 z M 260.24609,21.726561 L 260.24609,19.705077 L 262.00391,19.705077 L 262.00391,21.726561 L 260.24609,21.726561 z M 260.24609,34.021483 L 260.24609,23.650389 L 262.00391,23.650389 L 262.00391,34.021483 L 260.24609,34.021483 z M 264.68945,34.021483 L 264.68945,23.650389 L 266.27148,23.650389 L 266.27148,25.124999 C 267.0332,23.985686 268.13346,23.416025 269.57227,23.416014 C 270.19726,23.416025 270.7718,23.528329 271.2959,23.752928 C 271.81998,23.977548 272.21223,24.272144 272.47266,24.636717 C 272.73306,25.00131 272.91536,25.434252 273.01953,25.935545 C 273.08463,26.261074 273.11718,26.830735 273.11719,27.64453 L 273.11719,34.021483 L 271.35938,34.021483 L 271.35938,27.712889 C 271.35937,26.99675 271.29101,26.461269 271.1543,26.106444 C 271.01757,25.751634 270.77506,25.468432 270.42676,25.256835 C 270.07844,25.045255 269.66992,24.939461 269.20117,24.939452 C 268.45247,24.939461 267.80631,25.177091 267.2627,25.652342 C 266.71907,26.127611 266.44726,27.029302 266.44727,28.35742 L 266.44727,34.021483 L 264.68945,34.021483 z " style="font-size:18px;font-style:italic;font-weight:normal;text-align:center;text-anchor:middle;fill:black;fill-opacity:1;stroke:none;stroke-width:1px;stroke-linecap:butt;stroke-linejoin:miter;stroke-opacity:1;font-family:Comic Sans MS" id="text2768" />
<path d="M 235.46094,222.55371 L 232.9917,213.24805 L 234.25488,213.24805 L 235.67041,219.34815 C 235.82275,219.98715 235.95394,220.62191 236.06396,221.25244 C 236.30094,220.25798 236.44059,219.68458 236.48291,219.53223 L 238.25391,213.24805 L 239.73926,213.24805 L 241.07227,217.95801 C 241.40657,219.12598 241.64778,220.22413 241.7959,221.25244 C 241.91438,220.66423 242.06884,219.98926 242.25928,219.22754 L 243.71924,213.24805 L 244.95703,213.24805 L 242.40527,222.55371 L 241.21826,222.55371 L 239.25684,215.46338 C 239.09179,214.87094 238.99446,214.50701 238.96484,214.37158 C 238.86751,214.799 238.77652,215.16293 238.69189,215.46338 L 236.71777,222.55371 L 235.46094,222.55371 z M 245.95996,214.56201 L 245.95996,213.24805 L 247.10254,213.24805 L 247.10254,214.56201 L 245.95996,214.56201 z M 245.95996,222.55371 L 245.95996,215.8125 L 247.10254,215.8125 L 247.10254,222.55371 L 245.95996,222.55371 z M 253.22168,222.55371 L 253.22168,221.70313 C 252.79427,222.37175 252.16585,222.70606 251.33643,222.70606 C 250.79899,222.70606 250.30493,222.55795 249.85425,222.26172 C 249.40356,221.9655 249.05444,221.55184 248.80688,221.02075 C 248.55933,220.48967 248.43555,219.87924 248.43555,219.18946 C 248.43555,218.51661 248.54769,217.90618 248.77197,217.35816 C 248.99626,216.81015 249.33268,216.39015 249.78125,216.09815 C 250.22982,215.80616 250.73128,215.66017 251.28564,215.66016 C 251.69189,215.66017 252.05371,215.74586 252.37109,215.91724 C 252.68847,216.08863 252.94661,216.31186 253.14551,216.58692 L 253.14551,213.24805 L 254.28174,213.24805 L 254.28174,222.55371 L 253.22168,222.55371 z M 249.60986,219.18946 C 249.60986,220.05274 249.79183,220.69808 250.15576,221.12549 C 250.51969,221.5529 250.94922,221.7666 251.44434,221.7666 C 251.94368,221.7666 252.36792,221.56242 252.71704,221.15406 C 253.06616,220.74569 253.24072,220.12256 253.24072,219.28467 C 253.24072,218.36215 253.06298,217.68507 252.70752,217.25342 C 252.35205,216.82179 251.91406,216.60597 251.39355,216.60596 C 250.88574,216.60597 250.4615,216.81332 250.12085,217.22803 C 249.78019,217.64275 249.60986,218.29656 249.60986,219.18946 L 249.60986,219.18946 z M 258.5791,221.53174 L 258.74414,222.54102 C 258.42252,222.60873 258.13476,222.64258 257.88086,222.64258 C 257.46614,222.64258 257.14453,222.57699 256.91602,222.4458 C 256.6875,222.31462 256.52669,222.14217 256.43359,221.92847 C 256.34049,221.71477 256.29394,221.26514 256.29395,220.57959 L 256.29395,216.70117 L 255.45605,216.70117 L 255.45605,215.8125 L 256.29395,215.8125 L 256.29395,214.14307 L 257.43018,213.45752 L 257.43018,215.8125 L 258.5791,215.8125 L 258.5791,216.70117 L 257.43018,216.70117 L 257.43018,220.64307 C 257.43017,220.96892 257.45027,221.17839 257.49048,221.27149 C 257.53068,221.36459 257.59627,221.43864 257.68726,221.49365 C 257.77824,221.54867 257.90836,221.57618 258.07764,221.57617 C 258.20459,221.57618 258.37174,221.56136 258.5791,221.53174 L 258.5791,221.53174 z M 259.68994,222.55371 L 259.68994,213.24805 L 260.83252,213.24805 L 260.83252,216.58692 C 261.36572,215.96908 262.03857,215.66017 262.85107,215.66016 C 263.35042,215.66017 263.78417,215.75855 264.15234,215.95532 C 264.5205,216.15211 264.78393,216.424 264.94263,216.771 C 265.10131,217.11801 265.18066,217.62159 265.18066,218.28174 L 265.18066,222.55371 L 264.03809,222.55371 L 264.03809,218.28174 C 264.03808,217.71046 263.9143,217.29469 263.66675,217.03443 C 263.41918,216.77418 263.06901,216.64405 262.61621,216.64405 C 262.27767,216.64405 261.95923,216.73186 261.66089,216.90747 C 261.36255,217.0831 261.1499,217.32113 261.02295,217.62158 C 260.89599,217.92204 260.83252,218.33676 260.83252,218.86573 L 260.83252,222.55371 L 259.68994,222.55371 z " style="font-size:13px;font-style:italic;font-weight:normal;text-align:center;text-anchor:middle;fill:#280b0b;fill-opacity:1;stroke:none;stroke-width:1px;stroke-linecap:butt;stroke-linejoin:miter;stroke-opacity:1;font-family:Comic Sans MS" id="text14484" />
<g transform="matrix(1.040945,0,0,1,-23.46299,-106.5945)" id="g15569">
<path d="M 110,341.67522 L 110,301.15147" style="fill:none;fill-rule:evenodd;stroke:black;stroke-width:0.98013586px;stroke-linecap:butt;stroke-linejoin:miter;stroke-opacity:1" id="path14488" />
<path d="M 426,301.96194 L 426,346.53807" style="fill:none;fill-rule:evenodd;stroke:black;stroke-width:0.98013586px;stroke-linecap:butt;stroke-linejoin:miter;stroke-opacity:1" id="path14490" />
<path d="M 109.5,331.59448 L 425.5,332.59448" style="fill:none;fill-rule:evenodd;stroke:black;stroke-width:0.98013556;stroke-linecap:butt;stroke-linejoin:miter;marker-start:url(#Arrow1Lstart);marker-mid:none;marker-end:url(#Arrow1Lend);stroke-miterlimit:4;stroke-dasharray:0.98013553, 0.98013553;stroke-dashoffset:0;stroke-opacity:1" id="path14492" />
</g>
<g transform="matrix(0,0.313833,-1,0,405.8448,63.97114)" id="g15574">
<path d="M 110,341.67522 L 110,301.15147" style="fill:none;fill-rule:evenodd;stroke:black;stroke-width:1.7850517px;stroke-linecap:butt;stroke-linejoin:miter;stroke-opacity:1" id="path15576" />
<path d="M 426,301.96194 L 426,346.53807" style="fill:none;fill-rule:evenodd;stroke:black;stroke-width:1.7850517px;stroke-linecap:butt;stroke-linejoin:miter;stroke-opacity:1" id="path15578" />
<path d="M 109.5,331.59448 L 425.5,332.59448" style="fill:none;fill-rule:evenodd;stroke:black;stroke-width:1.78505111;stroke-linecap:butt;stroke-linejoin:miter;marker-start:url(#Arrow1Lstart);marker-mid:none;marker-end:url(#Arrow1Lend);stroke-miterlimit:4;stroke-dasharray:1.78505112, 1.78505112;stroke-dashoffset:0;stroke-opacity:1" id="path15580" />
</g>
<path d="M 78.011369,129.08126 L 87.316909,129.12834 L 87.310679,130.35978 L 83.489441,130.34044 L 83.464971,135.17729 L 87.286208,135.19662 L 87.279978,136.42805 L 77.974438,136.38097 L 77.980668,135.14954 L 82.36684,135.17174 L 82.391311,130.33489 L 78.005139,130.3127 L 78.011369,129.08126 z M 80.112296,142.91726 L 79.960328,144.09717 C 79.271499,143.90748 78.737933,143.55988 78.359627,143.05439 C 77.98132,142.54888 77.794147,141.9047 77.798108,141.12184 C 77.803096,140.13585 78.110677,139.35558 78.720851,138.78102 C 79.331022,138.20646 80.184115,137.92196 81.280132,137.9275 C 82.414227,137.93324 83.292945,138.22968 83.91629,138.81682 C 84.539623,139.40397 84.848942,140.16303 84.844232,141.09401 C 84.839672,141.99536 84.529143,142.73012 83.912661,143.29831 C 83.296166,143.86648 82.431453,144.14776 81.318516,144.14212 C 81.250805,144.14178 81.149255,144.13915 81.013865,144.13423 L 81.039299,139.10696 C 80.298531,139.14553 79.730423,139.35213 79.33497,139.72676 C 78.939514,140.10139 78.740363,140.57012 78.737516,141.13294 C 78.735396,141.55187 78.843611,141.91001 79.062163,142.20735 C 79.280712,142.50467 79.630756,142.74131 80.112296,142.91726 L 80.112296,142.91726 z M 81.978418,139.17519 L 81.959374,142.9393 C 82.526677,142.89138 82.952692,142.74965 83.23742,142.51412 C 83.679354,142.15241 83.90179,141.68169 83.904729,141.10195 C 83.907378,140.57722 83.733994,140.13517 83.384577,139.77581 C 83.035148,139.41646 82.566429,139.21625 81.978418,139.17519 L 81.978418,139.17519 z M 85.919728,145.5746 L 87.233671,145.58125 L 87.22789,146.72381 L 85.913948,146.71717 L 85.919728,145.5746 z M 77.928131,145.53417 L 84.669252,145.56827 L 84.663472,146.71084 L 77.92235,146.67673 L 77.928131,145.53417 z M 77.355992,148.21002 L 77.185336,149.32001 C 76.842332,149.36482 76.592009,149.49263 76.434363,149.70343 C 76.221345,149.98588 76.113593,150.37254 76.111108,150.86342 C 76.108434,151.39239 76.21216,151.80128 76.422289,152.09011 C 76.63242,152.37893 76.927655,152.57509 77.307995,152.67858 C 77.540439,152.739 78.029062,152.76898 78.773866,152.76852 C 78.188184,152.2662 77.897227,151.64265 77.900995,150.89787 C 77.905684,149.97112 78.243617,149.25554 78.914797,148.75112 C 79.585976,148.24669 80.38917,147.99685 81.324382,148.00158 C 81.967598,148.00484 82.560507,148.12421 83.103109,148.35971 C 83.645702,148.59519 84.063991,148.9348 84.35798,149.37852 C 84.651953,149.82223 84.797443,150.34242 84.794424,150.9391 C 84.790399,151.73465 84.465466,152.38894 83.819641,152.90196 L 84.632129,152.90607 L 84.626798,153.95977 L 78.799727,153.93028 C 77.750262,153.92498 77.00708,153.81435 76.570178,153.59845 C 76.133278,153.38253 75.789048,153.04223 75.537487,152.57758 C 75.285931,152.11293 75.161864,151.54206 75.165288,150.86499 C 75.169358,150.06096 75.35355,149.4123 75.717864,148.91903 C 76.082182,148.42575 76.628224,148.18941 77.355992,148.21002 L 77.355992,148.21002 z M 81.400959,149.17629 C 80.516528,149.17182 79.870303,149.34417 79.462283,149.69335 C 79.054261,150.04252 78.848913,150.4816 78.846238,151.01056 C 78.843582,151.5353 79.043419,151.97641 79.445751,152.33392 C 79.84808,152.69143 80.480879,152.87237 81.344151,152.87674 C 82.169331,152.88091 82.792319,152.70104 83.213116,152.33711 C 83.633901,151.97319 83.845603,151.53309 83.848221,151.01683 C 83.850784,150.50902 83.646672,150.07634 83.235883,149.71879 C 82.825085,149.36124 82.213444,149.18041 81.400959,149.17629 L 81.400959,149.17629 z M 77.87691,155.65855 L 87.18245,155.70563 L 87.17667,156.84819 L 83.837848,156.8313 C 84.452973,157.36762 84.758489,158.04202 84.754379,158.85451 C 84.751853,159.35386 84.65127,159.7871 84.452636,160.15427 C 84.253992,160.52143 83.980772,160.78348 83.632975,160.94043 C 83.285166,161.09735 82.781191,161.17415 82.121048,161.17081 L 77.849132,161.1492 L 77.854912,160.00663 L 82.126829,160.02824 C 82.698105,160.03113 83.114497,159.90946 83.376005,159.66323 C 83.637502,159.41698 83.769399,159.06747 83.771696,158.61468 C 83.773403,158.27614 83.687206,157.95725 83.513104,157.65804 C 83.338992,157.35881 83.102034,157.14496 82.80223,157.01649 C 82.502415,156.88801 82.088029,156.82245 81.559069,156.81977 L 77.87113,156.80111 L 77.87691,155.65855 z M 78.849639,165.39455 L 77.83954,165.55447 C 77.77346,165.23253 77.741062,164.9446 77.742347,164.69069 C 77.744445,164.27599 77.811663,163.9547 77.944002,163.72686 C 78.076342,163.49901 78.249597,163.33908 78.46377,163.24706 C 78.677943,163.15505 79.127797,163.11077 79.813336,163.11424 L 83.691703,163.13386 L 83.695942,162.29598 L 84.584601,162.30048 L 84.580362,163.13836 L 86.249773,163.1468 L 86.929565,164.28649 L 84.574614,164.27457 L 84.568802,165.42349 L 83.680142,165.41899 L 83.685955,164.27008 L 79.744112,164.25013 C 79.418268,164.24848 79.208697,164.26752 79.115397,164.30725 C 79.022095,164.34698 78.947708,164.4122 78.892236,164.50291 C 78.836763,164.59361 78.808599,164.7236 78.807743,164.89286 C 78.8071,165.01981 78.821065,165.18704 78.849639,165.39455 L 78.849639,165.39455 z " style="font-size:12.99999714px;font-style:italic;font-weight:normal;text-align:center;text-anchor:middle;fill:#280b0b;fill-opacity:1;stroke:none;stroke-width:1px;stroke-linecap:butt;stroke-linejoin:miter;stroke-opacity:1;font-family:Comic Sans MS" id="text15582" />
<path d="M 207.25586,81.053713 L 207.25586,66.737307 L 212.65625,66.737307 C 213.60676,66.737321 214.33267,66.782894 214.83398,66.874026 C 215.5371,66.991227 216.12629,67.214209 216.60156,67.542971 C 217.07681,67.87176 217.4593,68.332372 217.74902,68.924807 C 218.03872,69.517267 218.18358,70.168308 218.18359,70.877932 C 218.18358,72.095389 217.79621,73.125661 217.02148,73.968752 C 216.24673,74.811858 214.847,75.233407 212.82227,75.233401 L 209.15039,75.233401 L 209.15039,81.053713 L 207.25586,81.053713 z M 209.15039,73.543948 L 212.85156,73.543948 C 214.07551,73.543955 214.94465,73.316091 215.45898,72.860354 C 215.9733,72.404633 216.23046,71.763358 216.23047,70.936526 C 216.23046,70.337578 216.07909,69.824883 215.77637,69.39844 C 215.47362,68.97202 215.07486,68.690444 214.58008,68.553713 C 214.26106,68.469091 213.67187,68.426773 212.8125,68.42676 L 209.15039,68.42676 L 209.15039,73.543948 z M 227.1582,79.774416 C 226.50715,80.327803 225.88053,80.718427 225.27832,80.946291 C 224.6761,81.174156 224.02994,81.288088 223.33984,81.288088 C 222.20052,81.288088 221.32487,81.009768 220.71289,80.453127 C 220.10091,79.896488 219.79492,79.185226 219.79492,78.319338 C 219.79492,77.811529 219.91048,77.347662 220.1416,76.927737 C 220.37272,76.507819 220.67545,76.170906 221.0498,75.916995 C 221.42415,75.663094 221.8457,75.471037 222.31445,75.340823 C 222.6595,75.249683 223.18033,75.161792 223.87695,75.077151 C 225.29622,74.907886 226.34114,74.706063 227.01172,74.471682 C 227.01822,74.230804 227.02148,74.077809 227.02148,74.012698 C 227.02148,73.29656 226.85546,72.792003 226.52344,72.499026 C 226.07421,72.101899 225.40689,71.903332 224.52148,71.903323 C 223.69466,71.903332 223.08431,72.048189 222.69043,72.337893 C 222.29655,72.627615 222.00521,73.14031 221.81641,73.875979 L 220.09766,73.641604 C 220.25391,72.905935 220.51107,72.31186 220.86914,71.859377 C 221.22721,71.406913 221.74479,71.058606 222.42188,70.814456 C 223.09895,70.570325 223.88346,70.448255 224.77539,70.448245 C 225.6608,70.448255 226.3802,70.552422 226.93359,70.760745 C 227.48697,70.969088 227.89387,71.231132 228.1543,71.546877 C 228.4147,71.862642 228.597,72.261404 228.70117,72.743166 C 228.75976,73.042654 228.78905,73.583018 228.78906,74.36426 L 228.78906,76.70801 C 228.78905,78.342128 228.82649,79.375655 228.90137,79.808596 C 228.97623,80.24154 229.12434,80.656578 229.3457,81.053713 L 227.50977,81.053713 C 227.32747,80.68913 227.21028,80.262699 227.1582,79.774416 L 227.1582,79.774416 z M 227.01172,75.848635 C 226.37369,76.109057 225.41666,76.330411 224.14063,76.512698 C 223.41796,76.616869 222.9069,76.734056 222.60742,76.86426 C 222.30794,76.994473 222.07682,77.184902 221.91406,77.435549 C 221.7513,77.686204 221.66992,77.964524 221.66992,78.27051 C 221.66992,78.739263 221.84733,79.129887 222.20215,79.442385 C 222.55696,79.754887 223.07617,79.911136 223.75977,79.911135 C 224.43684,79.911136 225.03906,79.763025 225.56641,79.466799 C 226.09374,79.170577 226.48111,78.765304 226.72852,78.250979 C 226.91731,77.853847 227.01171,77.26791 227.01172,76.493166 L 227.01172,75.848635 z M 238.25195,81.053713 L 238.25195,79.74512 C 237.59439,80.773766 236.6276,81.288088 235.35156,81.288088 C 234.52474,81.288088 233.76464,81.060224 233.07129,80.604495 C 232.37793,80.148766 231.84082,79.512374 231.45996,78.695315 C 231.0791,77.878261 230.88867,76.939134 230.88867,75.877932 C 230.88867,74.842782 231.0612,73.903655 231.40625,73.060549 C 231.7513,72.217459 232.26888,71.571301 232.95898,71.122073 C 233.64909,70.672864 234.42057,70.448255 235.27344,70.448245 C 235.89843,70.448255 236.45507,70.580091 236.94336,70.843752 C 237.43163,71.107434 237.82877,71.450858 238.13477,71.874026 L 238.13477,66.737307 L 239.88281,66.737307 L 239.88281,81.053713 L 238.25195,81.053713 z M 232.69531,75.877932 C 232.69531,77.206061 232.97526,78.198899 233.53516,78.856448 C 234.09505,79.514001 234.75585,79.842777 235.51758,79.842776 C 236.2858,79.842777 236.93847,79.52865 237.47559,78.900393 C 238.01269,78.272141 238.28124,77.313483 238.28125,76.024416 C 238.28124,74.605152 238.0078,73.563486 237.46094,72.899416 C 236.91406,72.235363 236.24023,71.903332 235.43945,71.903323 C 234.6582,71.903332 234.00553,72.222342 233.48145,72.860354 C 232.95735,73.498382 232.69531,74.504241 232.69531,75.877932 L 232.69531,75.877932 z M 249.38477,81.053713 L 249.38477,79.74512 C 248.72721,80.773766 247.76041,81.288088 246.48438,81.288088 C 245.65755,81.288088 244.89746,81.060224 244.2041,80.604495 C 243.51074,80.148766 242.97363,79.512374 242.59277,78.695315 C 242.21191,77.878261 242.02148,76.939134 242.02148,75.877932 C 242.02148,74.842782 242.19401,73.903655 242.53906,73.060549 C 242.88411,72.217459 243.40169,71.571301 244.0918,71.122073 C 244.7819,70.672864 245.55338,70.448255 246.40625,70.448245 C 247.03124,70.448255 247.58788,70.580091 248.07617,70.843752 C 248.56445,71.107434 248.96158,71.450858 249.26758,71.874026 L 249.26758,66.737307 L 251.01563,66.737307 L 251.01563,81.053713 L 249.38477,81.053713 z M 243.82813,75.877932 C 243.82812,77.206061 244.10807,78.198899 244.66797,78.856448 C 245.22786,79.514001 245.88867,79.842777 246.65039,79.842776 C 247.41861,79.842777 248.07128,79.52865 248.6084,78.900393 C 249.1455,78.272141 249.41405,77.313483 249.41406,76.024416 C 249.41405,74.605152 249.14062,73.563486 248.59375,72.899416 C 248.04687,72.235363 247.37304,71.903332 246.57227,71.903323 C 245.79101,71.903332 245.13834,72.222342 244.61426,72.860354 C 244.09017,73.498382 243.82812,74.504241 243.82813,75.877932 L 243.82813,75.877932 z M 253.79883,68.758791 L 253.79883,66.737307 L 255.55664,66.737307 L 255.55664,68.758791 L 253.79883,68.758791 z M 253.79883,81.053713 L 253.79883,70.68262 L 255.55664,70.68262 L 255.55664,81.053713 L 253.79883,81.053713 z M 258.24219,81.053713 L 258.24219,70.68262 L 259.82422,70.68262 L 259.82422,72.157229 C 260.58593,71.017916 261.68619,70.448255 263.125,70.448245 C 263.74999,70.448255 264.32454,70.56056 264.84863,70.785159 C 265.37271,71.009778 265.76497,71.304374 266.02539,71.668948 C 266.2858,72.03354 266.46809,72.466482 266.57227,72.967776 C 266.63736,73.293304 266.66991,73.862965 266.66992,74.67676 L 266.66992,81.053713 L 264.91211,81.053713 L 264.91211,74.74512 C 264.9121,74.028981 264.84374,73.4935 264.70703,73.138674 C 264.5703,72.783865 264.32779,72.500662 263.97949,72.289065 C 263.63118,72.077485 263.22265,71.971691 262.75391,71.971682 C 262.0052,71.971691 261.35905,72.209321 260.81543,72.684573 C 260.27181,73.159841 260,74.061533 260,75.389651 L 260,81.053713 L 258.24219,81.053713 z M 269.05273,81.91309 L 270.76172,82.16699 C 270.83333,82.69434 271.0319,83.07845 271.35742,83.31934 C 271.79362,83.64486 272.38932,83.80762 273.14453,83.80762 C 273.95833,83.80762 274.58658,83.64486 275.0293,83.31934 C 275.472,82.99382 275.77148,82.53809 275.92773,81.95215 C 276.01887,81.59408 276.06119,80.842125 276.05469,79.696291 C 275.28645,80.60124 274.32942,81.053713 273.18359,81.053713 C 271.75781,81.053713 270.65429,80.539391 269.87305,79.510745 C 269.0918,78.482101 268.70117,77.248379 268.70117,75.809573 C 268.70117,74.819996 268.88021,73.906911 269.23828,73.070315 C 269.59635,72.233735 270.11556,71.587577 270.7959,71.131838 C 271.47623,70.67612 272.27539,70.448255 273.19336,70.448245 C 274.41731,70.448255 275.42642,70.943046 276.2207,71.93262 L 276.2207,70.68262 L 277.8418,70.68262 L 277.8418,79.647463 C 277.84179,81.262046 277.6774,82.40625 277.34863,83.08008 C 277.01985,83.75391 276.49901,84.28613 275.78613,84.67676 C 275.07324,85.06738 274.19596,85.26269 273.1543,85.2627 C 271.91731,85.26269 270.91797,84.98437 270.15625,84.42774 C 269.39453,83.87109 269.02669,83.03288 269.05273,81.91309 L 269.05273,81.91309 z M 270.50781,75.68262 C 270.50781,77.043301 270.77799,78.036138 271.31836,78.661135 C 271.85872,79.286137 272.5358,79.598637 273.34961,79.598635 C 274.15689,79.598637 274.83398,79.287765 275.38086,78.666018 C 275.92773,78.044276 276.20116,77.069342 276.20117,75.741213 C 276.20116,74.471689 275.91959,73.514658 275.35645,72.87012 C 274.79329,72.225597 274.11458,71.903332 273.32031,71.903323 C 272.53906,71.903332 271.875,72.220714 271.32813,72.855471 C 270.78125,73.490244 270.50781,74.432626 270.50781,75.68262 L 270.50781,75.68262 z " style="font-size:18px;font-style:italic;font-weight:normal;text-align:center;text-anchor:middle;fill:black;fill-opacity:1;stroke:none;stroke-width:1px;stroke-linecap:butt;stroke-linejoin:miter;stroke-opacity:1;font-family:Comic Sans MS" id="text15586" />
<path d="M 128.85744,55.602075 L 128.85744,44.23734 L 133.13436,44.23734 C 134.0053,44.237352 134.70386,44.352343 135.23006,44.582313 C 135.75625,44.812306 136.16838,45.166323 136.46649,45.644365 C 136.76457,46.122428 136.91361,46.622445 136.91362,47.144417 C 136.91361,47.63023 136.78141,48.08761 136.51702,48.516558 C 136.25262,48.945519 135.85345,49.291784 135.31949,49.555353 C 136.00897,49.756916 136.53905,50.100597 136.90973,50.586397 C 137.28038,51.072207 137.46572,51.645869 137.46573,52.307386 C 137.46572,52.839708 137.35297,53.334556 137.12747,53.791934 C 136.90194,54.249315 136.6233,54.60204 136.29151,54.85011 C 135.95972,55.098181 135.5437,55.285526 135.04343,55.412145 C 134.54315,55.538765 133.93012,55.602075 133.20435,55.602075 L 128.85744,55.602075 z M 130.36602,49.012698 L 132.83109,49.012698 C 133.49985,49.012705 133.97938,48.968776 134.2697,48.880912 C 134.65332,48.76722 134.94233,48.578583 135.13675,48.315001 C 135.33115,48.051433 135.42835,47.720672 135.42836,47.322718 C 135.42835,46.945452 135.33763,46.613401 135.15619,46.32656 C 134.97474,46.039738 134.71553,45.843349 134.37857,45.737392 C 134.04159,45.631455 133.46355,45.578482 132.64446,45.578472 L 130.36602,45.578472 L 130.36602,49.012698 z M 130.36602,54.260942 L 133.20435,54.260942 C 133.69165,54.260944 134.03381,54.242855 134.23082,54.206677 C 134.57814,54.144661 134.86846,54.041298 135.10175,53.896588 C 135.33504,53.751882 135.52684,53.541281 135.67719,53.264784 C 135.82753,52.988291 135.90269,52.669159 135.9027,52.307386 C 135.90269,51.883603 135.79384,51.515373 135.57611,51.202697 C 135.35836,50.89003 135.05638,50.670384 134.67017,50.54376 C 134.28395,50.417146 133.72795,50.353836 133.00217,50.353831 L 130.36602,50.353831 L 130.36602,54.260942 z M 138.85767,51.485652 C 138.85767,49.961058 139.28277,48.831821 140.13298,48.097939 C 140.8432,47.488106 141.70896,47.183186 142.73024,47.183178 C 143.86557,47.183186 144.79353,47.554 145.51414,48.29562 C 146.23472,49.037254 146.59502,50.061836 146.59503,51.369369 C 146.59502,52.428841 146.43561,53.262203 146.11679,53.869456 C 145.79796,54.476713 145.33398,54.948305 144.72485,55.284234 C 144.11571,55.620163 143.45084,55.788126 142.73024,55.788127 C 141.57417,55.788126 140.63973,55.418606 139.92691,54.679562 C 139.21408,53.940519 138.85767,52.875885 138.85767,51.485652 L 138.85767,51.485652 z M 140.29628,51.485652 C 140.29628,52.539956 140.52698,53.329388 140.98837,53.853951 C 141.44975,54.378519 142.03038,54.640801 142.73024,54.640801 C 143.42492,54.640801 144.00295,54.377227 144.46434,53.850075 C 144.92573,53.322928 145.15642,52.519283 145.15643,51.439139 C 145.15642,50.421022 144.92443,49.649678 144.46045,49.125105 C 143.99646,48.600547 143.41973,48.338264 142.73024,48.338257 C 142.03038,48.338264 141.44975,48.599255 140.98837,49.121229 C 140.52698,49.643217 140.29628,50.431358 140.29628,51.485652 L 140.29628,51.485652 z M 148.22804,55.602075 L 148.22804,47.369231 L 149.48779,47.369231 L 149.48779,48.617337 C 149.8092,48.033345 150.106,47.648319 150.37817,47.462258 C 150.65033,47.276213 150.94972,47.183186 151.27632,47.183178 C 151.74808,47.183186 152.22761,47.333062 152.71493,47.632806 L 152.2328,48.927425 C 151.89064,48.725875 151.54849,48.625096 151.20634,48.625089 C 150.90047,48.625096 150.62571,48.71683 150.38206,48.900292 C 150.1384,49.083767 149.96473,49.338297 149.86105,49.663884 C 149.70552,50.160031 149.62776,50.702685 149.62776,51.291847 L 149.62776,55.602075 L 148.22804,55.602075 z M 158.92036,55.602075 L 158.92036,54.563278 C 158.39676,55.379845 157.62691,55.788126 156.61082,55.788127 C 155.95243,55.788126 155.34719,55.607243 154.79507,55.245473 C 154.24296,54.883704 153.81527,54.378519 153.512,53.729916 C 153.20872,53.081318 153.05708,52.335815 153.05708,51.493404 C 153.05708,50.671676 153.19447,49.926173 153.46922,49.256893 C 153.74399,48.587627 154.15612,48.07469 154.70564,47.71808 C 155.25516,47.361487 155.86948,47.183186 156.54861,47.183178 C 157.04628,47.183186 157.48953,47.287841 157.87835,47.497142 C 158.26715,47.70646 158.58339,47.979079 158.82705,48.315001 L 158.82705,44.23734 L 160.219,44.23734 L 160.219,55.602075 L 158.92036,55.602075 z M 154.49569,51.493404 C 154.49569,52.547708 154.7186,53.335849 155.16444,53.857827 C 155.61027,54.379811 156.13647,54.640801 156.74302,54.640801 C 157.35474,54.640801 157.87446,54.391439 158.30216,53.892712 C 158.72984,53.393989 158.94369,52.632982 158.9437,51.609688 C 158.94369,50.483039 158.72595,49.656138 158.29049,49.128982 C 157.85502,48.601839 157.31846,48.338264 156.68081,48.338257 C 156.05871,48.338264 155.53899,48.591503 155.12168,49.097973 C 154.70435,49.604456 154.49569,50.402933 154.49569,51.493404 L 154.49569,51.493404 z M 168.08077,52.95082 L 169.52715,53.129121 C 169.29904,53.971528 168.87653,54.625297 168.25963,55.090429 C 167.6427,55.555561 166.85471,55.788126 165.89565,55.788127 C 164.68773,55.788126 163.72996,55.417314 163.02233,54.675685 C 162.31469,53.934059 161.96088,52.893973 161.96088,51.555422 C 161.96088,50.170367 162.31858,49.095395 163.03399,48.330505 C 163.7494,47.565628 164.67737,47.183186 165.81789,47.183178 C 166.92211,47.183186 167.82415,47.557876 168.52402,48.307248 C 169.22387,49.056634 169.5738,50.110934 169.57381,51.470148 C 169.5738,51.552842 169.57121,51.676877 169.56604,51.842254 L 163.40725,51.842254 C 163.45909,52.746681 163.71571,53.43921 164.1771,53.919845 C 164.63849,54.400483 165.21393,54.640801 165.90342,54.640801 C 166.41666,54.640801 166.85471,54.50643 167.21761,54.237686 C 167.5805,53.968944 167.86821,53.539989 168.08077,52.95082 L 168.08077,52.95082 z M 163.48501,50.694928 L 168.09632,50.694928 C 168.03411,50.002403 167.85785,49.483005 167.56754,49.136734 C 167.1217,48.599255 166.54366,48.330512 165.83343,48.330505 C 165.1906,48.330512 164.65015,48.54499 164.2121,48.973937 C 163.77403,49.402899 163.53167,49.976562 163.48501,50.694928 L 163.48501,50.694928 z M 171.2768,55.602075 L 171.2768,47.369231 L 172.53655,47.369231 L 172.53655,48.617337 C 172.85797,48.033345 173.15477,47.648319 173.42694,47.462258 C 173.6991,47.276213 173.99848,47.183186 174.32509,47.183178 C 174.79685,47.183186 175.27638,47.333062 175.76369,47.632806 L 175.28157,48.927425 C 174.93941,48.725875 174.59726,48.625096 174.2551,48.625089 C 173.94924,48.625096 173.67447,48.71683 173.43082,48.900292 C 173.18717,49.083767 173.0135,49.338297 172.90982,49.663884 C 172.75429,50.160031 172.67653,50.702685 172.67653,51.291847 L 172.67653,55.602075 L 171.2768,55.602075 z " style="font-size:14.31099033px;font-style:italic;font-weight:normal;text-align:center;text-anchor:middle;fill:red;fill-opacity:1;stroke:none;stroke-width:1px;stroke-linecap:butt;stroke-linejoin:miter;stroke-opacity:1;font-family:Comic Sans MS" id="text15590" />
<path d="M 202.96754,278.255 L 202.96754,268.94934 L 204.19898,268.94934 L 204.19898,278.255 L 202.96754,278.255 z M 206.38892,278.255 L 206.38892,268.94934 L 213.11744,268.94934 L 213.11744,270.04748 L 207.62037,270.04748 L 207.62037,272.89758 L 212.76832,272.89758 L 212.76832,273.98938 L 207.62037,273.98938 L 207.62037,277.15686 L 213.33326,277.15686 L 213.33326,278.255 L 206.38892,278.255 z M 241.26505,278.414 L 238.79581,269.10834 L 240.05899,269.10834 L 241.47452,275.20844 C 241.62686,275.84744 241.75804,276.4822 241.86807,277.11273 C 242.10505,276.11827 242.2447,275.54487 242.28702,275.39252 L 244.05801,269.10834 L 245.54337,269.10834 L 246.87637,273.8183 C 247.21067,274.98627 247.45189,276.08442 247.60001,277.11273 C 247.71849,276.52452 247.87295,275.84955 248.06339,275.08783 L 249.52335,269.10834 L 250.76114,269.10834 L 248.20938,278.414 L 247.02237,278.414 L 245.06094,271.32367 C 244.8959,270.73123 244.79857,270.3673 244.76895,270.23187 C 244.67161,270.65929 244.58063,271.02322 244.496,271.32367 L 242.52188,278.414 L 241.26505,278.414 z M 251.76407,270.4223 L 251.76407,269.10834 L 252.90665,269.10834 L 252.90665,270.4223 L 251.76407,270.4223 z M 251.76407,278.414 L 251.76407,271.67279 L 252.90665,271.67279 L 252.90665,278.414 L 251.76407,278.414 z M 259.02579,278.414 L 259.02579,277.56342 C 258.59837,278.23204 257.96996,278.56635 257.14053,278.56635 C 256.6031,278.56635 256.10904,278.41824 255.65836,278.12201 C 255.20767,277.82579 254.85855,277.41213 254.61099,276.88104 C 254.36343,276.34996 254.23965,275.73953 254.23965,275.04975 C 254.23965,274.3769 254.3518,273.76647 254.57608,273.21845 C 254.80036,272.67044 255.13679,272.25044 255.58536,271.95844 C 256.03392,271.66645 256.53539,271.52046 257.08975,271.52045 C 257.496,271.52046 257.85781,271.60615 258.1752,271.77753 C 258.49258,271.94892 258.75072,272.17215 258.94962,272.44721 L 258.94962,269.10834 L 260.08585,269.10834 L 260.08585,278.414 L 259.02579,278.414 z M 255.41397,275.04975 C 255.41397,275.91303 255.59594,276.55837 255.95987,276.98578 C 256.3238,277.41319 256.75332,277.6269 257.24844,277.62689 C 257.74779,277.6269 258.17202,277.42271 258.52115,277.01435 C 258.87026,276.60598 259.04483,275.98285 259.04483,275.14496 C 259.04483,274.22244 258.86709,273.54536 258.51163,273.11371 C 258.15615,272.68208 257.71817,272.46626 257.19766,272.46625 C 256.68985,272.46626 256.26561,272.67361 255.92496,273.08832 C 255.5843,273.50304 255.41397,274.15685 255.41397,275.04975 L 255.41397,275.04975 z M 264.38321,277.39203 L 264.54825,278.40131 C 264.22663,278.46902 263.93887,278.50287 263.68497,278.50287 C 263.27025,278.50287 262.94864,278.43728 262.72012,278.30609 C 262.49161,278.17491 262.3308,278.00246 262.2377,277.78876 C 262.1446,277.57506 262.09805,277.12543 262.09805,276.43988 L 262.09805,272.56146 L 261.26016,272.56146 L 261.26016,271.67279 L 262.09805,271.67279 L 262.09805,270.00336 L 263.23428,269.31781 L 263.23428,271.67279 L 264.38321,271.67279 L 264.38321,272.56146 L 263.23428,272.56146 L 263.23428,276.50336 C 263.23428,276.82921 263.25438,277.03868 263.29459,277.13178 C 263.33479,277.22488 263.40038,277.29893 263.49136,277.35395 C 263.58234,277.40896 263.71247,277.43647 263.88174,277.43646 C 264.00869,277.43647 264.17585,277.42165 264.38321,277.39203 L 264.38321,277.39203 z M 265.49405,278.414 L 265.49405,269.10834 L 266.63663,269.10834 L 266.63663,272.44721 C 267.16983,271.82938 267.84268,271.52046 268.65518,271.52045 C 269.15453,271.52046 269.58828,271.61884 269.95645,271.81562 C 270.32461,272.0124 270.58804,272.28429 270.74673,272.63129 C 270.90542,272.9783 270.98477,273.48188 270.98477,274.14203 L 270.98477,278.414 L 269.84219,278.414 L 269.84219,274.14203 C 269.84219,273.57075 269.71841,273.15498 269.47086,272.89472 C 269.22329,272.63447 268.87311,272.50434 268.42032,272.50434 C 268.08177,272.50434 267.76333,272.59215 267.465,272.76776 C 267.16665,272.94339 266.95401,273.18142 266.82706,273.48187 C 266.7001,273.78234 266.63663,274.19705 266.63663,274.72602 L 266.63663,278.414 L 265.49405,278.414 z " style="font-size:13px;font-style:italic;font-weight:normal;text-align:center;text-anchor:middle;fill:blue;fill-opacity:1;stroke:none;stroke-width:1px;stroke-linecap:butt;stroke-linejoin:miter;stroke-opacity:1;font-family:Comic Sans MS" id="text16479" />
<path d="M 40.69893,292.44101 L 40.69893,251.91726" style="fill:none;fill-rule:evenodd;stroke:blue;stroke-width:1.0000006px;stroke-linecap:butt;stroke-linejoin:miter;stroke-opacity:1" id="path16485" />
<path d="M 466.68905,252.72773 L 466.68905,297.30386" style="fill:none;fill-rule:evenodd;stroke:blue;stroke-width:1.0000006px;stroke-linecap:butt;stroke-linejoin:miter;stroke-opacity:1" id="path16487" />
<path d="M 40.024895,282.36027 L 466.01502,283.36027" style="fill:none;fill-rule:evenodd;stroke:blue;stroke-width:1;stroke-linecap:butt;stroke-linejoin:miter;marker-start:url(#Arrow1Lstart);marker-mid:none;marker-end:url(#Arrow1Lend);stroke-miterlimit:4;stroke-dasharray:1, 1;stroke-dashoffset:0;stroke-opacity:1" id="path16489" />
<g transform="matrix(0,0.673561,-1,0,355.2016,-32.48562)" style="fill:none;stroke:#0000fe;stroke-opacity:1" id="g16491">
<path d="M 110,341.67522 L 110,301.15147" style="fill:none;fill-rule:evenodd;stroke:#0000fe;stroke-width:1.21846139px;stroke-linecap:butt;stroke-linejoin:miter;stroke-opacity:1" id="path16493" />
<path d="M 426,301.96194 L 426,346.53807" style="fill:none;fill-rule:evenodd;stroke:#0000fe;stroke-width:1.21846139px;stroke-linecap:butt;stroke-linejoin:miter;stroke-opacity:1" id="path16495" />
<path d="M 109.5,331.59448 L 425.5,332.59448" style="fill:none;fill-rule:evenodd;stroke:#0000fe;stroke-width:1.21846104;stroke-linecap:butt;stroke-linejoin:miter;marker-start:url(#Arrow1Lstart);marker-mid:none;marker-end:url(#Arrow1Lend);stroke-miterlimit:4;stroke-dasharray:1.21846105, 1.21846105;stroke-dashoffset:0;stroke-opacity:1" id="path16497" />
</g>
<path d="M 26.907516,100.88853 L 36.213051,100.93561 L 36.206821,102.16704 L 26.901286,102.11996 L 26.907516,100.88853 z M 26.890207,104.30987 L 36.195742,104.35695 L 36.161701,111.08537 L 35.063572,111.07981 L 35.091382,105.58282 L 32.241324,105.5684 L 32.21528,110.71628 L 31.123498,110.71076 L 31.149542,105.56287 L 27.982106,105.54685 L 27.953204,111.25966 L 26.855075,111.25411 L 26.890207,104.30987 z M 26.827971,138.38861 L 36.133506,138.43569 L 36.127276,139.66711 L 32.30604,139.64778 L 32.281569,144.48463 L 36.102805,144.50396 L 36.096575,145.73539 L 26.79104,145.68831 L 26.79727,144.45688 L 31.18344,144.47907 L 31.207911,139.64222 L 26.821741,139.62003 L 26.827971,138.38861 z M 28.928897,152.22459 L 28.77693,153.4045 C 28.088101,153.21481 27.554534,152.86722 27.176229,152.36173 C 26.797923,151.85622 26.61075,151.21203 26.61471,150.42917 C 26.619699,149.44318 26.927279,148.66291 27.537452,148.08835 C 28.147624,147.5138 29.000716,147.22929 30.096732,147.23484 C 31.230826,147.24058 32.109545,147.53701 32.732888,148.12416 C 33.356221,148.71131 33.665535,149.47036 33.660832,150.40134 C 33.656265,151.3027 33.345741,152.03746 32.729259,152.60564 C 32.112766,153.17381 31.248052,153.45508 30.135116,153.44946 C 30.067405,153.44911 29.965855,153.44648 29.830465,153.44157 L 29.855899,148.41429 C 29.115133,148.45287 28.547024,148.65947 28.151571,149.0341 C 27.756116,149.40872 27.556965,149.87745 27.554118,150.44027 C 27.551998,150.85921 27.660214,151.21734 27.878765,151.51468 C 28.097314,151.81201 28.447357,152.04864 28.928897,152.22459 L 28.928897,152.22459 z M 30.795018,148.48253 L 30.775974,152.24663 C 31.343276,152.19872 31.76929,152.05699 32.05402,151.82145 C 32.495953,151.45975 32.718388,150.98903 32.721327,150.40929 C 32.723976,149.88455 32.550592,149.44251 32.201175,149.08315 C 31.851747,148.7238 31.383028,148.52358 30.795018,148.48253 L 30.795018,148.48253 z M 34.736321,154.88194 L 36.050268,154.88858 L 36.044488,156.03114 L 34.730541,156.02449 L 34.736321,154.88194 z M 26.744733,154.84151 L 33.48585,154.87561 L 33.48007,156.01817 L 26.738953,155.98406 L 26.744733,154.84151 z M 26.172595,157.51735 L 26.001939,158.62735 C 25.658936,158.67215 25.408612,158.79996 25.250967,159.01075 C 25.037948,159.29321 24.930196,159.67987 24.927712,160.17075 C 24.925037,160.69971 25.028764,161.1086 25.238892,161.39744 C 25.449023,161.68626 25.744258,161.88242 26.124597,161.98591 C 26.357042,162.04632 26.845665,162.07631 27.590468,162.07585 C 27.004786,161.57353 26.713829,160.94998 26.717597,160.2052 C 26.722286,159.27845 27.060219,158.56287 27.7314,158.05845 C 28.402577,157.55403 29.20577,157.30418 30.140981,157.30891 C 30.784198,157.31216 31.377106,157.43153 31.919708,157.66703 C 32.4623,157.90253 32.880589,158.24213 33.174578,158.68584 C 33.468554,159.12956 33.614036,159.64975 33.611024,160.24642 C 33.606993,161.04198 33.282064,161.69626 32.636239,162.20928 L 33.448727,162.21339 L 33.443396,163.26709 L 27.616329,163.23761 C 26.566865,163.2323 25.823682,163.12168 25.386781,162.90578 C 24.949881,162.68985 24.605652,162.34956 24.354092,161.88491 C 24.102535,161.42025 23.978469,160.84939 23.981892,160.17232 C 23.985962,159.36829 24.170154,158.71964 24.534468,158.22636 C 24.898786,157.73307 25.444828,157.49674 26.172595,157.51735 L 26.172595,157.51735 z M 30.217559,158.48363 C 29.333128,158.47916 28.686904,158.6515 28.278885,159.00068 C 27.870863,159.34986 27.665514,159.78893 27.662839,160.31789 C 27.660183,160.84262 27.860021,161.28374 28.262353,161.64125 C 28.66468,161.99876 29.29748,162.17969 30.160751,162.18407 C 30.985931,162.18823 31.608917,162.00836 32.029714,161.64445 C 32.4505,161.28051 32.662201,160.84042 32.664819,160.32415 C 32.667382,159.81635 32.46327,159.38367 32.052482,159.02612 C 31.641684,158.66857 31.030043,158.48774 30.217559,158.48363 L 30.217559,158.48363 z M 26.693512,164.96587 L 35.999047,165.01295 L 35.993267,166.15552 L 32.654446,166.13863 C 33.269572,166.67494 33.575083,167.34935 33.570979,168.16184 C 33.568446,168.66117 33.467864,169.09443 33.269234,169.4616 C 33.07059,169.82876 32.797371,170.0908 32.449573,170.24774 C 32.101764,170.40467 31.59779,170.48146 30.937648,170.47813 L 26.665734,170.45652 L 26.671515,169.31396 L 30.943428,169.33557 C 31.514705,169.33846 31.931095,169.21678 32.192603,168.97054 C 32.4541,168.7243 32.585997,168.37479 32.588294,167.922 C 32.590001,167.58346 32.503804,167.26458 32.329703,166.96536 C 32.155591,166.66613 31.918633,166.45229 31.618829,166.32382 C 31.319015,166.19534 30.904629,166.12976 30.375669,166.1271 L 26.687732,166.10844 L 26.693512,164.96587 z M 27.666241,174.70187 L 26.656142,174.8618 C 26.590062,174.53984 26.557664,174.25191 26.558949,173.99802 C 26.561047,173.5833 26.628265,173.26203 26.760605,173.03418 C 26.892944,172.80633 27.066199,172.6464 27.280373,172.55438 C 27.494544,172.46236 27.944398,172.4181 28.629936,172.42156 L 32.508301,172.44119 L 32.51254,171.60331 L 33.401199,171.6078 L 33.396961,172.44568 L 35.066371,172.45413 L 35.74616,173.59381 L 33.391212,173.5819 L 33.3854,174.7308 L 32.49674,174.72631 L 32.502553,173.5774 L 28.560713,173.55746 C 28.234869,173.5558 28.025298,173.57484 27.931999,173.61458 C 27.838696,173.65431 27.76431,173.71952 27.708838,173.81023 C 27.653365,173.90093 27.6252,174.03091 27.624345,174.20019 C 27.623701,174.32714 27.637667,174.49436 27.666241,174.70187 L 27.666241,174.70187 z " style="font-size:12.99998856px;font-style:italic;font-weight:normal;text-align:center;text-anchor:middle;fill:blue;fill-opacity:1;stroke:none;stroke-width:1px;stroke-linecap:butt;stroke-linejoin:miter;stroke-opacity:1;font-family:Comic Sans MS" id="text16499" />
<path d="M 284.50007,76.5 L 334.50011,76.5" style="fill:none;fill-rule:evenodd;stroke:black;stroke-width:1.40000045;stroke-linecap:butt;stroke-linejoin:miter;marker-end:url(#Arrow1Lend);stroke-miterlimit:4;stroke-opacity:1" id="path21097" />
<path d="M 201.74742,75.590487 L 137.25261,76.40951" style="fill:none;fill-rule:evenodd;stroke:black;stroke-width:1.4000001;stroke-linecap:butt;stroke-linejoin:miter;marker-end:url(#Arrow1Lend);stroke-miterlimit:4;stroke-opacity:1" id="path21984" />
<path d="M 194.89241,137.94949 L 177.60761,125.05044" style="fill:none;fill-rule:evenodd;stroke:black;stroke-width:1.39999819;stroke-linecap:butt;stroke-linejoin:miter;marker-end:url(#Arrow2Mend);stroke-miterlimit:4;stroke-opacity:1" id="path21986" />
<path d="M 196.9665,159.20324 L 183.45971,176.01742" style="fill:none;fill-rule:evenodd;stroke:black;stroke-width:1.39999831;stroke-linecap:butt;stroke-linejoin:miter;marker-end:url(#Arrow2Mend);stroke-miterlimit:4;stroke-opacity:1" id="path22875" />
<path d="M 299.20283,135.46589 L 316.20374,122.19492" style="fill:none;fill-rule:evenodd;stroke:black;stroke-width:1.39999783;stroke-linecap:butt;stroke-linejoin:miter;marker-end:url(#Arrow2Mend);stroke-miterlimit:4;stroke-opacity:1" id="path22877" />
<path d="M 304.43555,161.24983 L 320.79947,175.29874" style="fill:none;fill-rule:evenodd;stroke:black;stroke-width:1.39999819;stroke-linecap:butt;stroke-linejoin:miter;marker-end:url(#Arrow2Mend);stroke-miterlimit:4;stroke-opacity:1" id="path22879" />
<path d="M 281.99998,26.5 L 332.00002,26.5" style="fill:none;fill-rule:evenodd;stroke:black;stroke-width:1.40000045;stroke-linecap:butt;stroke-linejoin:miter;marker-end:url(#Arrow1Lend);stroke-miterlimit:4;stroke-opacity:1" id="path22881" />
<path d="M 208.00001,26.950396 L 158.00007,27.049613" style="fill:none;fill-rule:evenodd;stroke:black;stroke-width:1.40000045;stroke-linecap:butt;stroke-linejoin:miter;marker-end:url(#Arrow1Lend);stroke-miterlimit:4;stroke-opacity:1" id="path22883" />
<path d="M 178.49996,51.749995 L 212.99998,51.749995" style="fill:none;fill-rule:evenodd;stroke:black;stroke-width:1.40000021;stroke-linecap:butt;stroke-linejoin:miter;marker-end:url(#Arrow1Lend);stroke-miterlimit:4;stroke-opacity:1" id="path22885" />
<path d="M 484.22578,86.65035 L 473.34989,68.026043" style="fill:none;fill-rule:evenodd;stroke:black;stroke-width:1.39999819;stroke-linecap:butt;stroke-linejoin:miter;marker-end:url(#Arrow2Mend);stroke-miterlimit:4;stroke-opacity:1" id="path22887" />
<path d="M 486.02332,87.412518 C 487.92393,87.372179 489.42271,87.850894 490.51966,88.848683 C 491.61659,89.846461 492.18219,91.152454 492.21646,92.766681 C 492.23888,93.823733 492.00655,94.781999 491.51949,95.641497 C 491.0324,96.500967 490.34186,97.162909 489.44787,97.627303 C 488.55387,98.091678 487.53409,98.336032 486.38853,98.360355 C 485.22732,98.384991 484.18352,98.172711 483.25712,97.723538 C 482.33071,97.274334 481.62276,96.62514 481.13328,95.775975 C 480.64379,94.92679 480.38851,94.00491 480.3674,93.010354 C 480.34452,91.932466 480.58443,90.963617 481.08713,90.103796 C 481.58983,89.243976 482.28695,88.585805 483.17852,88.129294 C 484.07007,87.672773 485.01834,87.433848 486.02332,87.412518 L 486.02332,87.412518 z M 486.03305,88.975164 C 484.65314,89.004441 483.57402,89.398528 482.79569,90.157404 C 482.01733,90.916271 481.64005,91.855479 481.66381,92.975027 C 481.68801,94.11538 482.10888,95.045459 482.92643,95.765264 C 483.74397,96.485048 484.88955,96.829307 486.36318,96.798041 C 487.29525,96.778249 488.10552,96.603466 488.794,96.273683 C 489.48247,95.94389 490.01163,95.471615 490.38149,94.856868 C 490.75132,94.242102 490.92824,93.557204 490.91223,92.802173 C 490.88945,91.729495 490.50145,90.814352 489.74824,90.056724 C 488.995,89.299096 487.75661,88.938573 486.03305,88.975164 L 486.03305,88.975164 z M 480.83172,105.68305 L 482.05019,105.65719 C 481.0992,105.03138 480.61193,104.16392 480.58839,103.0548 C 480.578,102.56533 480.66204,102.10641 480.84049,101.67805 C 481.01894,101.24968 481.24787,100.92964 481.5273,100.71795 C 481.80672,100.50624 482.15123,100.35437 482.56083,100.26231 C 482.83559,100.19918 483.27239,100.16126 483.87121,100.14855 L 489.01068,100.03947 L 489.04052,101.44541 L 484.43999,101.54305 C 483.70578,101.55862 483.21171,101.59776 482.95778,101.66046 C 482.58994,101.75682 482.30363,101.95044 482.09881,102.24131 C 481.894,102.53219 481.79607,102.8885 481.80503,103.31029 C 481.81397,103.73206 481.93042,104.12552 482.15436,104.49064 C 482.37831,104.85576 482.67807,105.11118 483.05364,105.25689 C 483.42921,105.4026 483.97108,105.46793 484.67926,105.45291 L 489.12357,105.35859 L 489.15341,106.76452 L 480.85841,106.94057 L 480.83172,105.68305 z M 482.228,112.19395 L 480.9904,112.42338 C 480.89869,112.02941 480.84951,111.6762 480.84288,111.36377 C 480.83205,110.85346 480.90436,110.45601 481.05982,110.1714 C 481.21527,109.88678 481.42327,109.68442 481.6838,109.56427 C 481.94432,109.44414 482.49636,109.37512 483.33993,109.35721 L 488.11229,109.25592 L 488.09041,108.22491 L 489.18391,108.2017 L 489.20579,109.23271 L 491.26002,109.18912 L 492.13326,110.56934 L 489.23547,110.63084 L 489.26547,112.04458 L 488.17197,112.06779 L 488.14196,110.65405 L 483.2915,110.75699 C 482.89055,110.76549 482.63331,110.7957 482.51981,110.8476 C 482.4063,110.8995 482.31688,110.98215 482.25158,111.09554 C 482.18626,111.20893 482.1558,111.36976 482.16022,111.57805 C 482.16354,111.73427 482.18613,111.93957 482.228,112.19395 L 482.228,112.19395 z M 480.99882,113.55627 L 492.44936,113.31325 L 492.4792,114.71918 L 481.02866,114.96221 L 480.99882,113.55627 z M 490.90897,116.94831 L 492.52578,116.914 L 492.55562,118.31993 L 490.93881,118.35425 L 490.90897,116.94831 z M 481.07524,117.15702 L 489.37024,116.98097 L 489.40008,118.3869 L 481.10508,118.56296 L 481.07524,117.15702 z M 481.15067,120.71091 L 489.44567,120.53486 L 489.47253,121.8002 L 488.29311,121.82523 C 489.21729,122.41512 489.69158,123.28546 489.71602,124.43625 C 489.72662,124.93613 489.64655,125.39757 489.47581,125.82056 C 489.30505,126.24355 489.07609,126.56228 488.78891,126.77676 C 488.50173,126.99123 488.15854,127.14438 487.75937,127.23621 C 487.50011,127.2938 487.04504,127.32951 486.39414,127.34333 L 481.29373,127.45158 L 481.26389,126.04564 L 486.30963,125.93855 C 486.88241,125.9264 487.30954,125.86263 487.59102,125.74726 C 487.87248,125.63188 488.09487,125.43311 488.2582,125.15094 C 488.42151,124.86876 488.4992,124.54022 488.49124,124.1653 C 488.47853,123.56648 488.2775,123.0537 487.88815,122.62697 C 487.4988,122.20024 486.77299,121.99814 485.71074,122.0207 L 481.18051,122.11685 L 481.15067,120.71091 z M 484.13144,135.23687 L 483.98263,136.69348 C 483.129,136.48237 482.46128,136.07197 481.97949,135.46227 C 481.49769,134.85256 481.24658,134.06605 481.22613,133.10272 C 481.20038,131.88946 481.55358,130.9195 482.28571,130.19287 C 483.01786,129.46623 484.05825,129.08861 485.40691,129.05998 C 486.80242,129.03036 487.89314,129.36666 488.67905,130.0689 C 489.46496,130.77113 489.87007,131.69503 489.89439,132.84061 C 489.91792,133.94973 489.55964,134.86378 488.81953,135.58279 C 488.07941,136.30176 487.0246,136.6758 485.65512,136.70487 C 485.5718,136.70664 485.44677,136.70668 485.28004,136.70502 L 485.14875,130.51891 C 484.2386,130.59032 483.54631,130.86288 483.07188,131.3366 C 482.59745,131.81032 482.36759,132.39344 482.38229,133.086 C 482.39323,133.6015 482.53795,134.03864 482.81646,134.3974 C 483.09497,134.75614 483.53329,135.03597 484.13144,135.23687 L 484.13144,135.23687 z M 486.3064,130.57249 L 486.4047,135.20425 C 487.10113,135.12695 487.62069,134.9388 487.96338,134.6398 C 488.49542,134.18049 488.75387,133.59414 488.73873,132.88076 C 488.72503,132.23507 488.49741,131.69682 488.05588,131.26598 C 487.61434,130.83515 487.03118,130.60398 486.3064,130.57249 L 486.3064,130.57249 z " style="font-size:16px;font-style:italic;font-weight:normal;text-align:center;text-anchor:middle;fill:green;fill-opacity:1;stroke:none;stroke-width:1px;stroke-linecap:butt;stroke-linejoin:miter;stroke-opacity:1;font-family:Comic Sans MS" id="text22889" />
<path d="M 217.87077,275.716 L 219.16277,275.60663 C 219.25847,276.23554 219.48063,276.70836 219.82927,277.02509 C 220.1779,277.34182 220.59831,277.50018 221.0905,277.50018 C 221.68294,277.50018 222.18424,277.27688 222.59441,276.83026 C 223.00456,276.38365 223.20963,275.7912 223.20964,275.05292 C 223.20963,274.3511 223.01253,273.79739 222.61833,273.39178 C 222.22412,272.98619 221.70801,272.78339 221.06999,272.78339 C 220.6735,272.78339 220.31576,272.8734 219.99675,273.05341 C 219.67774,273.23342 219.42709,273.46698 219.2448,273.75409 L 218.08952,273.6037 L 219.06023,268.45624 L 224.04362,268.45624 L 224.04362,269.63202 L 220.0446,269.63202 L 219.50456,272.32538 C 220.10612,271.90611 220.73731,271.69648 221.39812,271.69647 C 222.27311,271.69648 223.01139,271.99954 223.61296,272.60565 C 224.21452,273.21178 224.5153,273.99107 224.5153,274.94354 C 224.5153,275.85045 224.25097,276.6343 223.72234,277.2951 C 223.07975,278.1063 222.20247,278.5119 221.0905,278.5119 C 220.17904,278.5119 219.43506,278.25669 218.85857,277.74628 C 218.28207,277.23586 217.9528,276.5591 217.87077,275.716 L 217.87077,275.716 z M 226.35417,278.341 L 226.35417,276.93964 L 227.75554,276.93964 L 227.75554,278.341 L 226.35417,278.341 z M 229.06804,278.341 L 231.72038,274.56757 L 229.26628,271.08124 L 230.80437,271.08124 L 231.91862,272.78339 C 232.12826,273.10696 232.29688,273.37812 232.42448,273.59686 C 232.625,273.29609 232.80957,273.02949 232.9782,272.79706 L 234.20183,271.08124 L 235.67155,271.08124 L 233.16277,274.49921 L 235.86296,278.341 L 234.35222,278.341 L 232.86198,276.08514 L 232.4655,275.47675 L 230.55827,278.341 L 229.06804,278.341 z " style="font-size:14px;font-style:normal;font-weight:normal;text-align:center;text-anchor:middle;fill:blue;fill-opacity:1;stroke:none;stroke-width:1px;stroke-linecap:butt;stroke-linejoin:miter;stroke-opacity:1;font-family:Arial" id="text1943" />
<path d="M 115.67337,-29.487732 L 116.96536,-29.597107 C 117.06106,-28.968199 117.28323,-28.49538 117.63187,-28.17865 C 117.9805,-27.861917 118.40091,-27.703551 118.8931,-27.703552 C 119.48554,-27.703551 119.98684,-27.926858 120.397,-28.373474 C 120.80715,-28.820087 121.01223,-29.412534 121.01224,-30.150818 C 121.01223,-30.852637 120.81513,-31.406347 120.42093,-31.811951 C 120.02672,-32.217544 119.51061,-32.420344 118.87259,-32.420349 C 118.4761,-32.420344 118.11835,-32.330337 117.79935,-32.15033 C 117.48033,-31.970311 117.22968,-31.73675 117.04739,-31.449646 L 115.89212,-31.600037 L 116.86282,-36.747498 L 121.84622,-36.747498 L 121.84622,-35.571716 L 117.8472,-35.571716 L 117.30716,-32.878357 C 117.90872,-33.297621 118.5399,-33.507257 119.20071,-33.507263 C 120.07571,-33.507257 120.81399,-33.204197 121.41556,-32.598083 C 122.01711,-31.991959 122.31789,-31.212662 122.3179,-30.260193 C 122.31789,-29.353289 122.05357,-28.569436 121.52493,-27.90863 C 120.88235,-27.097432 120.00507,-26.691834 118.8931,-26.691833 C 117.98164,-26.691834 117.23766,-26.947042 116.66116,-27.457458 C 116.08466,-27.967874 115.7554,-28.644631 115.67337,-29.487732 L 115.67337,-29.487732 z M 124.15677,-26.862732 L 124.15677,-28.264099 L 125.55814,-28.264099 L 125.55814,-26.862732 L 124.15677,-26.862732 z M 126.87064,-26.862732 L 129.52298,-30.636169 L 127.06888,-34.122498 L 128.60696,-34.122498 L 129.72122,-32.420349 C 129.93085,-32.096776 130.09947,-31.825618 130.22708,-31.606873 C 130.4276,-31.907649 130.61217,-32.17425 130.78079,-32.406677 L 132.00443,-34.122498 L 133.47415,-34.122498 L 130.96536,-30.704529 L 133.66556,-26.862732 L 132.15482,-26.862732 L 130.66458,-29.118591 L 130.2681,-29.72699 L 128.36087,-26.862732 L 126.87064,-26.862732 z " transform="matrix(0,1,-1,0,0,0)" style="font-size:14px;font-style:normal;font-weight:normal;text-align:center;text-anchor:middle;fill:blue;fill-opacity:1;stroke:none;stroke-width:1px;stroke-linecap:butt;stroke-linejoin:miter;stroke-opacity:1;font-family:Arial" id="text1987" />
</svg>
