<?xml version="1.0" encoding="UTF-8" standalone="no"?>
<!-- Created with Inkscape (http://www.inkscape.org/) -->

<svg xmlns:dc="http://purl.org/dc/elements/1.1/" xmlns:cc="http://creativecommons.org/ns#" xmlns:rdf="http://www.w3.org/1999/02/22-rdf-syntax-ns#" xmlns:svg="http://www.w3.org/2000/svg" xmlns="http://www.w3.org/2000/svg" xmlns:xlink="http://www.w3.org/1999/xlink" xmlns:sodipodi="http://sodipodi.sourceforge.net/DTD/sodipodi-0.dtd" xmlns:inkscape="http://www.inkscape.org/namespaces/inkscape" width="211.76668mm" height="140.85834mm" viewBox="0 0 211.76668 140.85834" version="1.1" id="svg8" inkscape:version="0.92.1 r15371" sodipodi:docname="javacript-tools.svg" inkscape:export-filename="/home/kuba/projects/jcubic/www/blog/repo/img/javacript-tools.png" inkscape:export-xdpi="203" inkscape:export-ydpi="203">
  <defs id="defs2">
    <linearGradient inkscape:collect="always" id="linearGradient4661">
      <stop style="stop-color:#ffffff;stop-opacity:1" offset="0" id="stop4657" />
      <stop style="stop-color:#0378ff;stop-opacity:1" offset="1" id="stop4659" />
    </linearGradient>
    <path d="m 718.6,257.8 c -8,27.6 -20.8,47.6 -35.2,63.6 V 181 c 0,-9.6 -8.4,-17.6 -21.6,-17.6 -5.6,0 -10.4,2.8 -10.4,6.8 0,2.8 1.6,5.2 1.6,12.8 v 64.4 c -4.8,28 -16.8,54 -32.8,54 -11.6,0 -18.4,-11.6 -18.4,-33.2 0,-33.6 4.4,-51.2 11.6,-80.8 1.6,-6 13.2,-22 -6.4,-22 -21.2,0 -18.4,8 -21.2,14.8 0,0 -13.4,47.6 -13.4,90 0,34.8 14.6,57.6 41.4,57.6 17.2,0 29.6,-11.6 39.2,-27.6 V 351 c -26.4,23.2 -49.6,43.6 -49.6,84 0,25.6 16,46 38.4,46 20.4,0 41.6,-14.8 41.6,-56.8 V 355 c 21.6,-18.8 44.8,-42.4 58.4,-88.8 0.4,-1.6 0.4,-3.6 0.4,-4 0,-7.6 -7.6,-16.4 -14,-16.4 -4,0 -7.2,3.6 -9.6,12 z m -76.8,198 c -6.4,0 -10.4,-9.6 -10.4,-22 0,-24 8.8,-39.2 21.6,-52.4 v 42.8 c 0,7.6 1.6,31.6 -11.2,31.6 z M 833.4,301 c -9.6,0 -13.6,-9.6 -13.6,-18.4 v -66 c 0,-9.6 -8.4,-17.6 -21.6,-17.6 -5.6,0 -10.4,2.8 -10.4,6.8 0,2.8 1.6,5.2 1.6,12.8 v 61.6 C 785,291.4 777.8,301 767,301 c -14,0 -22.8,-12 -22.8,-32.8 0,-57.6 35.6,-83.6 66,-83.6 4,0 8,0.8 11.6,0.8 4,0 5.2,-2.4 5.2,-9.2 0,-10.4 -7.6,-16.8 -18.4,-16.8 -48.8,0 -95.2,40.8 -95.2,107.6 0,34 16.4,60.4 47.6,60.4 15.2,0 26.4,-7.2 34.4,-16.4 6,9.6 16.8,16.4 30.8,16.4 34.4,0 50.4,-36 57.2,-62.4 0.4,-1.6 0.4,-2.4 0.4,-2.8 0,-7.6 -7.6,-16.4 -14,-16.4 -4,0 -8,3.6 -9.6,12 -3.6,17.6 -10.8,43.2 -26.8,43.2 z M 949,327.4 c 34.4,0 50,-36 57.2,-62.4 0,-0.8 0.4,-1.6 0.4,-2.8 0,-7.6 -7.6,-16.4 -14,-16.4 -4,0 -8,3.6 -9.6,12 -3.6,17.6 -10.4,43.2 -28.8,43.2 -10.8,0 -16,-10.4 -16,-21.6 0,-40 18,-87.2 18,-92 C 957.8,178.2 941.8,165 937,165 h -20.8 c -4,0 -8,0 -21.2,-1.6 -4.4,-16.4 -15.6,-21.2 -25.2,-21.2 -10.4,0 -20,7.2 -20,18.4 0,11.6 7.2,20 17.2,25.6 -0.4,20.4 -2,53.6 -6.4,69.6 -3.6,13.6 17.2,28 22.4,11.2 7.2,-23.2 9.6,-58 10,-73.6 h 34.8 c -12.8,34.4 -20,62.8 -20,88.4 0,35.2 22.4,45.6 41.2,45.6 z m 35.6,-17.6 c 0,14.8 11.2,17.6 19.2,17.6 11.6,0 11.2,-9.6 11.2,-17.2 v -58.4 c 2.8,-31.6 27.6,-66 39.2,-66 7.6,0 8.4,10.4 8.4,22.8 v 81.2 c 0,20.4 12.4,37.6 33.6,37.6 34.4,0 51.4,-36 58.2,-62.4 0.4,-1.6 0.4,-2.4 0.4,-2.8 0,-7.6 -7.6,-16.4 -14,-16.4 -4,0 -8,3.6 -9.6,12 -3.6,17.6 -11.8,43.2 -27.8,43.2 -10.4,0 -10.4,-14.8 -10.4,-18.4 v -82.8 c 0,-18.4 -6.4,-40.4 -33.2,-40.4 -19.6,0 -34,17.2 -44.8,39.6 v -18 c 0,-9.6 -8.4,-17.6 -21.6,-17.6 -5.6,0 -10.4,2.8 -10.4,6.8 0,2.8 1.6,5.2 1.6,12.8 z M 259,0 C 402,0 518,116 518,259 518,402 402,518 259,518 116,518 0,402 0,259 0,116 116,0 259,0 Z" id="main" inkscape:connector-curvature="0" />
    <clipPath id="clipPath18">
      <path id="path20" inkscape:connector-curvature="0" d="M 0,1500 V 0 h 5455.74 v 1500 z" />
    </clipPath>
    <linearGradient inkscape:collect="always" xlink:href="#linearGradient4661" id="linearGradient4663" x1="115.61071" y1="-3.6678514" x2="401.36072" y2="158.86191" gradientUnits="userSpaceOnUse" />
  </defs>
  <sodipodi:namedview id="base" pagecolor="#ffffff" bordercolor="#666666" borderopacity="1.0" inkscape:pageopacity="0.0" inkscape:pageshadow="2" inkscape:zoom="0.35" inkscape:cx="574.24163" inkscape:cy="-66.48472" inkscape:document-units="mm" inkscape:current-layer="layer1" showgrid="false" inkscape:snap-global="false" fit-margin-top="0" fit-margin-left="0" fit-margin-right="0" fit-margin-bottom="0" inkscape:window-width="1366" inkscape:window-height="688" inkscape:window-x="0" inkscape:window-y="31" inkscape:window-maximized="1" />
  <metadata id="metadata5">
    <rdf:RDF>
      <cc:Work rdf:about="">
        <dc:format>image/svg+xml</dc:format>
        <dc:type rdf:resource="http://purl.org/dc/dcmitype/StillImage" />
        <dc:title></dc:title>
      </cc:Work>
    </rdf:RDF>
  </metadata>
  <g inkscape:label="Layer 1" inkscape:groupmode="layer" id="layer1" transform="translate(-51.354762,62.883336)">
    <rect style="color:#000000;clip-rule:nonzero;display:inline;overflow:visible;visibility:visible;opacity:1;isolation:auto;mix-blend-mode:normal;color-interpolation:sRGB;color-interpolation-filters:linearRGB;solid-color:#000000;solid-opacity:1;fill:url(#linearGradient4663);fill-opacity:1;fill-rule:nonzero;stroke:none;stroke-width:0.1;stroke-linecap:butt;stroke-linejoin:miter;stroke-miterlimit:4;stroke-dasharray:none;stroke-dashoffset:0;stroke-opacity:1;marker:none;color-rendering:auto;image-rendering:auto;shape-rendering:auto;text-rendering:auto;enable-background:accumulate" id="rect4571" width="211.66667" height="140.75833" x="51.404762" y="-62.833336" />
    <image sodipodi:absref="/home/kuba/projects/jcubic/www/blog/repo/_drafts/npm-logo-simplifed-with-white-space.png" y="-1.2808425" x="84.355766" id="image4495" xlink:href="file:///home/kuba/projects/jcubic/www/blog/repo/_drafts/npm-logo-simplifed-with-white-space.png" preserveAspectRatio="none" height="56.43185" width="94.367638" />
    <g id="g4535" transform="matrix(0.10891561,0,0,0.10891561,40.450124,-28.946279)">
      <path id="path4498" style="fill:#99425b;stroke:#ffffff;stroke-width:20" d="m 465.391,381.102 c -0.54,0.328 -18.349,-2.66 -40.665,-4.171 -18.225,-1.235 -39.456,-1.188 -56.744,-0.017 -14.019,0.949 -32.438,-6.098 -34.639,2.277 -8.238,31.351 -25.963,58.655 -48.511,79.928 -16.963,16.003 -36.377,28.138 -57.375,35.615 -24.999,-12.842 -36.805,-41.404 -26.152,-66.447 8.449,-19.863 18.28,-41.74 0.13,-46.745 -13.213,-3.644 -20.468,9.013 -25.547,22.545 -9.73,25.923 -28.219,52.748 -33.488,84.521 -5.562,33.542 -0.018,69.147 28.992,89.253 67.562,46.826 140.9,-29.028 218.225,-48.096 28.024,-6.911 58.785,-5.797 83.475,-20.097 18.541,-10.739 30.764,-28.535 34.233,-48.516 5.58,-32.137 -11.139,-64.066 -41.934,-80.05 z" inkscape:connector-curvature="0" />
      <path id="path4500" d="m 333.343,379.191 c -8.238,31.351 -25.963,58.655 -48.511,79.928 -16.963,16.003 -36.377,28.138 -57.376,35.615 -24.999,-12.842 -36.805,-41.404 -26.152,-66.447 8.449,-19.863 18.28,-41.74 0.13,-46.745 -13.213,-3.644 -20.468,9.013 -25.547,22.545 -9.73,25.923 -28.219,52.748 -33.488,84.521 -5.562,33.542 -0.018,69.147 28.992,89.253 67.562,46.826 140.9,-29.028 218.226,-48.096 28.024,-6.911 58.785,-5.797 83.475,-20.097 18.541,-10.739 30.764,-28.535 34.233,-48.515 5.58,-32.137 -11.139,-64.066 -41.934,-80.05" inkscape:connector-curvature="0" style="fill:none;stroke:#ffffff;stroke-width:20" />
      <polygon id="polygon4502" style="fill:#99425b" points="340.732,364.641 395.364,254.17 449.685,364.982 514.778,173 275.789,173 " />
      <polygon id="polygon4504" points="340.732,364.641 395.364,254.17 449.685,364.982 514.777,173 275.789,173 " style="fill:none;stroke:#ffffff;stroke-width:20" />
      <circle id="circle4506" style="fill:#99425b" r="40.945" cy="379.58301" cx="329.45999" />
      <circle id="circle4508" r="40.945" cy="379.58301" cx="329.45999" style="fill:none;stroke:#ffffff;stroke-width:20" />
      <circle id="circle4510" style="fill:#99425b;stroke:#ffffff;stroke-width:20" r="40.945" cy="379.58301" cx="462.84399" />
      <circle id="circle4512" r="40.945" cy="379.58301" cx="462.84399" style="fill:none;stroke:#ffffff;stroke-width:20" />
      <circle id="circle4514" style="fill:#99425b" r="40.945" cy="379.87701" cx="195.571" />
      <circle id="circle4516" r="40.945" cy="379.87701" cx="195.571" style="fill:none;stroke:#ffffff;stroke-width:20" />
    </g>
    <image sodipodi:absref="/home/kuba/projects/jcubic/www/blog/repo/_drafts/TravisCI-Full-Color.png" y="-48.953449" x="147.47937" id="image4545" xlink:href="file:///home/kuba/projects/jcubic/www/blog/repo/_drafts/TravisCI-Full-Color.png" preserveAspectRatio="none" height="33.526489" width="107.08461" />
    <g id="g4558" transform="matrix(0.07486555,0,0,0.07486555,68.309515,35.801571)">
      <use style="fill:#2c8ebf;fill-opacity:0.97191013" id="use5" y="0" x="0" xlink:href="#main" class="logo-primary" width="100%" height="100%" />
      <path style="fill:#ffffff" id="path7" d="m 435.2,337.5 c -1.8,-14.2 -13.8,-24 -29.2,-23.8 -23,0.3 -42.3,12.2 -55.1,20.1 -5,3.1 -9.3,5.4 -13,7.1 0.8,-11.6 0.1,-26.8 -5.9,-43.5 -7.3,-20 -17.1,-32.3 -24.1,-39.4 8.1,-11.8 19.2,-29 24.4,-55.6 4.5,-22.7 3.1,-58 -7.2,-77.8 -2.1,-4 -5.6,-6.9 -10,-8.1 -1.8,-0.5 -5.2,-1.5 -11.9,0.4 C 293.1,96 289.6,93.8 286.9,92 c -5.6,-3.6 -12.2,-4.4 -18.4,-2.1 -8.3,3 -15.4,11 -22.1,25.2 -1,2.1 -1.9,4.1 -2.7,6.1 -12.7,0.9 -32.7,5.5 -49.6,23.8 -2.1,2.3 -6.2,4 -10.5,5.6 h 0.1 c -8.8,3.1 -12.8,10.3 -17.7,23.3 -6.8,18.2 0.2,36.1 7.1,47.7 -9.4,8.4 -21.9,21.8 -28.5,37.5 -8.2,19.4 -9.1,38.4 -8.8,48.7 -7,7.4 -17.8,21.3 -19,36.9 -1.6,21.8 6.3,36.6 9.8,42 1,1.6 2.1,2.9 3.3,4.2 -0.4,2.7 -0.5,5.6 0.1,8.6 1.3,7 5.7,12.7 12.4,16.3 13.2,7 31.6,10 45.8,2.9 5.1,5.4 14.4,10.6 31.3,10.6 h 1 c 4.3,0 58.9,-2.9 74.8,-6.8 7.1,-1.7 12,-4.7 15.2,-7.4 10.2,-3.2 38.4,-12.8 65,-30 18.8,-12.2 25.3,-14.8 39.3,-18.2 13.6,-3.3 22.1,-15.7 20.4,-29.4 z m -23.8,14.7 c -16,3.8 -24.1,7.3 -43.9,20.2 -30.9,20 -64.7,29.3 -64.7,29.3 0,0 -2.8,4.2 -10.9,6.1 -14,3.4 -66.7,6.3 -71.5,6.4 -12.9,0.1 -20.8,-3.3 -23,-8.6 -6.7,-16 9.6,-23 9.6,-23 0,0 -3.6,-2.2 -5.7,-4.2 -1.9,-1.9 -3.9,-5.7 -4.5,-4.3 -2.5,6.1 -3.8,21 -10.5,27.7 -9.2,9.3 -26.6,6.2 -36.9,0.8 -11.3,-6 0.8,-20.1 0.8,-20.1 0,0 -6.1,3.6 -11,-3.8 -4.4,-6.8 -8.5,-18.4 -7.4,-32.7 1.2,-16.3 19.4,-32.1 19.4,-32.1 0,0 -3.2,-24.1 7.3,-48.8 9.5,-22.5 35.1,-40.6 35.1,-40.6 0,0 -21.5,-23.8 -13.5,-45.2 5.2,-14 7.3,-13.9 9,-14.5 6,-2.3 11.8,-4.8 16.1,-9.5 21.5,-23.2 48.9,-18.8 48.9,-18.8 0,0 13,-39.5 25,-31.8 3.7,2.4 17,32 17,32 0,0 14.2,-8.3 15.8,-5.2 8.6,16.7 9.6,48.6 5.8,68 -6.4,32 -22.4,49.2 -28.8,60 -1.5,2.5 17.2,10.4 29,43.1 10.9,29.9 1.2,55 2.9,57.8 0.3,0.5 0.4,0.7 0.4,0.7 0,0 12.5,1 37.6,-14.5 13.4,-8.3 29.3,-17.6 47.4,-17.8 17.5,-0.3 18.4,20.2 5.2,23.4 z" class="logo-secondary" inkscape:connector-curvature="0" />
    </g>
    <image sodipodi:absref="/home/kuba/projects/jcubic/www/blog/repo/_drafts/GitHub_Logo.png" y="22.438095" x="157.2381" id="image4568" xlink:href="file:///home/kuba/projects/jcubic/www/blog/repo/_drafts/GitHub_Logo.png" preserveAspectRatio="none" height="44.37439" width="108.23025" />
    <g id="g10" transform="matrix(0.21460339,0,0,-0.21460339,137.77378,18.273839)">
      <g id="g12" transform="scale(0.1)">
        <g id="g14">
          <g id="g16" clip-path="url(#clipPath18)">
            <path style="fill:#8a4182;fill-opacity:1;fill-rule:nonzero;stroke:none" id="path22" inkscape:connector-curvature="0" d="m 1544,599.434 c 0.92,-40.352 25.68,-81.602 71.53,-81.602 27.51,0 47.68,12.832 61.44,35.754 12.83,22.93 12.83,56.852 12.83,82.527 v 329.184 h -71.52 v 104.543 h 266.83 V 965.297 h -70.6 v -344.77 c 0,-58.691 -3.68,-104.531 -44.93,-152.218 -36.68,-42.18 -96.28,-66.02 -153.14,-66.02 -117.37,0 -207.24,77.941 -202.64,197.145 H 1544" />
            <path style="fill:#8a4182;fill-opacity:1;fill-rule:nonzero;stroke:none" id="path24" inkscape:connector-curvature="0" d="m 2301.4,662.695 c 0,80.703 -66.94,145.813 -147.63,145.813 -83.44,0 -147.63,-68.781 -147.63,-151.301 0,-79.785 66.94,-145.801 145.8,-145.801 84.35,0 149.46,67.852 149.46,151.289 z m -1.83,-181.547 c -35.77,-54.097 -93.53,-78.859 -157.72,-78.859 -140.3,0 -251.24,116.449 -251.24,254.918 0,142.129 113.7,260.41 256.74,260.41 63.27,0 118.29,-29.336 152.22,-82.523 v 69.687 h 175.14 V 800.254 h -61.44 V 519.656 h 61.44 V 415.129 h -175.14 v 66.019" />
            <path style="fill:#8a4182;fill-opacity:1;fill-rule:nonzero;stroke:none" id="path26" inkscape:connector-curvature="0" d="m 2622.33,557.258 c 3.67,-44.016 33.01,-73.348 78.86,-73.348 33.93,0 66.93,23.824 66.93,60.504 0,48.606 -45.84,56.856 -83.44,66.941 -85.28,22.004 -178.81,48.606 -178.81,155.879 0,93.536 78.86,147.633 165.98,147.633 44,0 83.43,-9.176 110.94,-44.008 v 33.922 h 82.53 V 771.816 h -108.21 c -1.83,34.856 -28.42,57.774 -63.26,57.774 -30.26,0 -62.35,-17.422 -62.35,-51.348 0,-45.847 44.93,-55.93 80.69,-64.18 88.02,-20.175 182.47,-47.695 182.47,-157.734 0,-99.027 -83.44,-154.039 -175.13,-154.039 -49.53,0 -94.46,15.582 -126.55,53.18 v -40.34 h -85.27 v 142.129 h 114.62" />
            <path style="fill:#8a4182;fill-opacity:1;fill-rule:nonzero;stroke:none" id="path28" inkscape:connector-curvature="0" d="m 2988.18,800.254 h -63.26 v 104.527 h 165.05 v -73.355 c 31.18,51.347 78.86,85.277 141.21,85.277 67.85,0 124.71,-41.258 152.21,-102.699 26.6,62.351 92.62,102.699 160.47,102.699 53.19,0 105.46,-22 141.21,-62.351 38.52,-44.938 38.52,-93.532 38.52,-149.457 V 519.656 h 63.27 V 415.129 h -238.42 v 104.527 h 63.28 v 157.715 c 0,32.102 0,60.527 -14.67,88.957 -18.34,26.582 -48.61,40.344 -79.77,40.344 -30.26,0 -63.28,-12.844 -82.53,-36.672 -22.93,-29.355 -22.93,-56.863 -22.93,-92.629 V 519.656 h 63.27 V 415.129 h -238.41 v 104.527 h 63.28 v 150.383 c 0,29.348 0,66.023 -14.67,91.699 -15.59,29.336 -47.69,44.934 -80.7,44.934 -31.18,0 -57.77,-11.008 -77.94,-35.774 -24.77,-30.253 -26.6,-62.343 -26.6,-99.941 V 519.656 h 63.27 V 415.129 h -238.4 v 104.527 h 63.26 v 280.598" />
            <path style="fill:#8a4182;fill-opacity:1;fill-rule:nonzero;stroke:none" id="path30" inkscape:connector-curvature="0" d="m 3998.66,951.547 h -111.87 v 118.293 h 111.87 z m 0,-431.891 h 63.27 V 415.129 H 3822.6 v 104.527 h 64.19 v 280.598 h -63.27 v 104.527 h 175.14 V 519.656" />
            <path style="fill:#8a4182;fill-opacity:1;fill-rule:nonzero;stroke:none" id="path32" inkscape:connector-curvature="0" d="m 4159.12,800.254 h -63.27 v 104.527 h 175.14 v -69.687 c 29.35,54.101 84.36,80.699 144.87,80.699 53.19,0 105.45,-22.016 141.22,-60.527 40.34,-44.934 41.26,-88.032 41.26,-143.957 V 519.656 h 63.27 V 415.129 h -238.4 v 104.527 h 63.26 v 158.637 c 0,30.262 0,61.434 -19.26,88.035 -20.17,26.582 -53.18,39.414 -86.19,39.414 -33.93,0 -68.77,-13.75 -88.94,-41.25 -21.09,-27.5 -21.09,-69.687 -21.09,-102.707 V 519.656 h 63.26 V 415.129 h -238.4 v 104.527 h 63.27 v 280.598" />
            <path style="fill:#8a4182;fill-opacity:1;fill-rule:nonzero;stroke:none" id="path34" inkscape:connector-curvature="0" d="m 5082.48,703.965 c -19.24,70.605 -81.6,115.547 -154.04,115.547 -66.04,0 -129.3,-51.348 -143.05,-115.547 z m 85.27,-144.883 c -38.51,-93.523 -129.27,-156.793 -231.05,-156.793 -143.07,0 -257.68,111.871 -257.68,255.836 0,144.883 109.12,261.328 254.91,261.328 67.87,0 135.72,-30.258 183.39,-78.863 48.62,-51.344 68.79,-113.695 68.79,-183.383 l -3.67,-39.434 h -396.13 c 14.67,-67.863 77.03,-117.363 146.72,-117.363 48.59,0 90.76,18.328 118.28,58.672 h 116.44" />
            <path style="fill:#8a4182;fill-opacity:1;fill-rule:nonzero;stroke:none" id="path36" inkscape:connector-curvature="0" d="m 690.895,850.703 h 90.75 l 22.543,31.035 V 1124.86 H 668.359 V 881.719 l 22.536,-31.016" />
            <path style="fill:#8a4182;fill-opacity:1;fill-rule:nonzero;stroke:none" id="path38" inkscape:connector-curvature="0" d="m 632.395,742.258 28.039,86.304 -22.551,31.04 -231.223,75.128 -41.976,-129.183 231.257,-75.137 36.454,11.848" />
            <path style="fill:#8a4182;fill-opacity:1;fill-rule:nonzero;stroke:none" id="path40" inkscape:connector-curvature="0" d="m 717.449,653.105 -73.41,53.36 L 607.551,694.59 464.648,497.898 574.531,418.07 717.449,614.773 v 38.332" />
            <path style="fill:#8a4182;fill-opacity:1;fill-rule:nonzero;stroke:none" id="path42" inkscape:connector-curvature="0" d="m 828.52,706.465 -73.426,-53.34 0.011,-38.359 L 898.004,418.07 1007.9,497.898 864.973,694.609 828.52,706.465" />
            <path style="fill:#8a4182;fill-opacity:1;fill-rule:nonzero;stroke:none" id="path44" inkscape:connector-curvature="0" d="m 812.086,828.586 28.055,-86.32 36.484,-11.836 231.225,75.117 -41.97,129.183 -231.239,-75.14 -22.555,-31.004" />
            <path style="fill:#8a4182;fill-opacity:1;fill-rule:nonzero;stroke:none" id="path46" inkscape:connector-curvature="0" d="m 736.301,1335.88 c -323.047,0 -585.875,-262.78 -585.875,-585.782 0,-323.118 262.828,-585.977 585.875,-585.977 323.019,0 585.809,262.859 585.809,585.977 0,323.002 -262.79,585.782 -585.809,585.782 z m 0,-118.61 c 257.972,0 467.189,-209.13 467.189,-467.172 0,-258.129 -209.217,-467.348 -467.189,-467.348 -258.074,0 -467.254,209.219 -467.254,467.348 0,258.042 209.18,467.172 467.254,467.172" />
            <path style="fill:#8a4182;fill-opacity:1;fill-rule:nonzero;stroke:none" id="path48" inkscape:connector-curvature="0" d="m 1091.13,619.883 -175.771,57.121 11.629,35.808 175.762,-57.121 -11.62,-35.808" />
            <path style="fill:#8a4182;fill-opacity:1;fill-rule:nonzero;stroke:none" id="path50" inkscape:connector-curvature="0" d="M 866.957,902.074 836.5,924.199 945.121,1073.73 975.586,1051.61 866.957,902.074" />
            <path style="fill:#8a4182;fill-opacity:1;fill-rule:nonzero;stroke:none" id="path52" inkscape:connector-curvature="0" d="M 607.465,903.445 498.855,1052.97 529.32,1075.1 637.93,925.566 607.465,903.445" />
            <path style="fill:#8a4182;fill-opacity:1;fill-rule:nonzero;stroke:none" id="path54" inkscape:connector-curvature="0" d="m 380.688,622.129 -11.626,35.801 175.758,57.09 11.621,-35.801 -175.753,-57.09" />
            <path style="fill:#8a4182;fill-opacity:1;fill-rule:nonzero;stroke:none" id="path56" inkscape:connector-curvature="0" d="m 716.289,376.59 h 37.6406 V 561.406 H 716.289 Z" />
          </g>
        </g>
      </g>
    </g>
    <g id="g4637" transform="matrix(0.10807759,0,0,0.10807759,88.748804,-61.775015)">
      <g id="leaf">
        <path id="path4626" d="m 434.625,63.496 c -67.822,0 -118.399,71.68 -95.018,123.167 95.989,10e-4 56.911,-88.605 95.018,-123.167 z" inkscape:connector-curvature="0" style="fill:#00acee" />
      </g>
      <path d="m 456.534,256.992 c 0,-22.79 -108.627,-34.129 -169.139,-37.663 -60.511,-3.533 -281.592,38.389 -255.42,93.813 26.173,55.426 92.581,114.358 167.313,114.358 38.716,0 83.584,-27.284 86.053,-77.38 44.78,-14.957 171.193,-15.749 171.193,-93.128 z" id="body" inkscape:connector-curvature="0" style="fill:#ffcc2f" />
      <path d="m 400.981,272.143 c 7.02,7.104 -15.222,26.295 -34.606,17.262 8.731,19.688 -29.676,36.064 -48.336,22.026 1.998,15.865 -36.122,24.996 -48.285,7.292 3.136,8.441 5.757,14.898 8.229,20.209 -0.029,-0.09 -0.046,-0.149 -0.046,-0.149 6.324,8.279 14.929,14.939 52.394,14.939 57.727,0 150.97,-43.849 150.97,-76.039 0,-26.643 -9.992,-29.14 -27.196,-27.198 -17.208,1.942 -107.17,11.291 -126.306,7.534 10.383,2.21 62.741,12.24 73.182,14.124 z" id="wing_tip" inkscape:connector-curvature="0" style="fill:#2baf2b" />
      <path d="m 198.51,48.82 c -110.382,0 -221.179,109.721 -168.451,261.056 35.817,21.53 83.576,12.995 94.278,1.532 16.178,5.171 30.612,7.347 43.513,7.347 67.047,0 124.34,-71.235 124.34,-160.257 C 292.189,67.196 231.93,48.82 198.51,48.82 Z" id="head" inkscape:connector-curvature="0" style="fill:#ef5734" />
      <path d="m 153.308,146.522 c 0,24.632 19.969,44.603 44.603,44.603 24.633,0 44.603,-19.971 44.603,-44.603 0,-24.633 -19.97,-44.603 -44.603,-44.603 -24.634,0.001 -44.603,19.971 -44.603,44.603 z" id="eye_rim" inkscape:connector-curvature="0" style="fill:#ffcc2f" />
      <path d="m 171.207,146.522 c 0,14.747 11.956,26.704 26.704,26.704 14.748,0 26.703,-11.957 26.703,-26.704 0,-14.748 -11.955,-26.704 -26.703,-26.704 -14.748,0.001 -26.704,11.956 -26.704,26.704 z" id="eye" inkscape:connector-curvature="0" style="fill:#543729" />
      <ellipse ry="9.6750002" rx="15.56" cy="134.674" cx="197.91" id="pupil_highlight" style="fill:#ffffff" />
      <path d="m 289.401,123.675 c -20.275,11.807 -19.604,50.03 -10.595,68.681 17.445,-6.466 41.752,-19.291 45.527,-21.585 3.773,-2.293 -2.088,-10.989 12.559,-10.989 20.315,0 38.684,6.348 43.956,8.634 -3.337,-6.869 -45.09,-44.741 -91.447,-44.741 z" id="beak" inkscape:connector-curvature="0" style="fill:#cecece" />
      <path d="m 502.214,250.797 c -26.335,-25.305 -158.017,-41.1 -199.568,-45.698 2.014,-4.754 3.726,-9.669 5.142,-14.731 5.665,-2.481 11.776,-4.789 18.101,-6.716 0.77,2.272 4.397,10.98 6.465,15.112 83.553,2.305 87.844,-62.09 91.24,-79.732 3.323,-17.25 3.154,-33.917 31.812,-64.388 -42.697,-12.443 -104.096,19.284 -124.664,66.506 -7.728,-2.896 -15.474,-5.035 -23.136,-6.357 -5.488,-22.146 -34.077,-83.845 -109.097,-83.845 -48.585,0 -97.581,20.063 -134.421,55.045 -19.852,18.85 -35.445,41.234 -46.344,66.53 C 5.97,179.851 0,209.94 0,241.957 0,353.462 76.126,451.18 119.139,451.18 c 18.784,0 34.943,-14.067 38.736,-26.675 3.181,8.645 12.938,35.522 16.142,42.364 4.737,10.117 26.642,18.872 36.229,8.373 12.326,6.849 34.943,10.973 47.27,-7.289 23.739,5.022 44.728,-9.135 45.184,-26.026 11.649,-0.622 17.363,-16.978 14.819,-30.001 -1.875,-9.591 -21.904,-44 -29.719,-55.877 15.468,12.58 54.644,16.142 59.401,0.008 24.936,19.571 63.797,9.301 66.879,-6.619 30.301,7.874 65.054,-9.417 59.348,-30.359 48.674,-3.368 42.444,-55.158 28.786,-68.282 z M 375.456,164.958 c -12.821,-5.033 -29.084,-8.217 -40.482,-8.217 -16.164,0 -26.009,9.16 -41.218,9.16 -3.193,0 -10.812,0.016 -16.926,-2.162 4.021,4.217 9.025,6.505 18.725,6.505 5.793,0 17.263,-2.958 26.553,-5.752 0.129,1.956 0.334,3.898 0.61,5.826 -17.402,4.161 -35.664,15.231 -40.949,18.105 -11.755,-25.958 -1.65,-50.505 7.697,-61.837 41.865,0.1 75.678,28.847 85.99,38.372 z m 18.101,-1.957 -6.406,-5.979 c -6.575,-6.159 -13.43,-11.731 -20.469,-16.678 10.483,-20.801 23.658,-43.514 40.298,-57.565 -18.314,7.381 -36.397,29.445 -47.089,53.03 -5.448,-3.464 -10.98,-6.554 -16.561,-9.255 14.913,-31.834 49.568,-58.42 87.762,-60.497 -25.583,23.2 -15.978,69.506 -37.535,96.944 z M 341.006,184.7 c -2.821,-6.114 -5.677,-16.27 -5.328,-22.239 4.753,-0.112 13.868,1.67 15.335,2.016 -0.557,2.803 -0.855,8.944 -0.866,9.739 0.903,-1.556 3.41,-6.922 4.43,-9.029 9.127,1.744 21.126,4.659 28.161,7.938 -8.26,5.348 -22.299,11.168 -41.732,11.575 z m -57.035,-71.789 c -33.381,33.832 -20.199,76.63 -8.046,95.976 -17.29,28.761 -51.28,48.437 -90.765,57.389 44.328,0 70.397,-11.409 85.563,-22.586 9.677,-7.131 14.928,-14.17 17.608,-18.088 65.72,4.251 169.783,25.423 179.935,32.281 4.074,2.753 8.278,8.842 8.895,14.668 -49.387,-6.914 -138.407,-14.188 -161.719,-15.424 16.549,2.347 137.241,25.202 158.163,30.552 -6.368,10.384 -20.872,17.715 -42.733,12.621 11.812,16.093 -11.125,35.399 -43.071,24.766 7.032,15.799 -21.413,30.021 -53.741,13.555 0.411,15.805 -40.105,17.626 -56.123,0.162 0.306,2.082 2.207,6.066 3.028,7.809 -5.162,46.15 -42.961,74.783 -81.677,74.783 -94.794,0 -177.375,-76.989 -177.375,-179.417 0,-108.292 80.03,-189.096 176.597,-189.096 55.332,-0.001 80.326,43.55 85.461,60.049 z" id="outline" inkscape:connector-curvature="0" style="fill:#543729" />
    </g>
  </g>
</svg>
