<?xml version="1.0" encoding="UTF-8" standalone="no"?>
<!-- Created with Inkscape (http://www.inkscape.org/) -->

<svg xmlns:dc="http://purl.org/dc/elements/1.1/" xmlns:cc="http://creativecommons.org/ns#" xmlns:rdf="http://www.w3.org/1999/02/22-rdf-syntax-ns#" xmlns:svg="http://www.w3.org/2000/svg" xmlns="http://www.w3.org/2000/svg" xmlns:sodipodi="http://sodipodi.sourceforge.net/DTD/sodipodi-0.dtd" xmlns:inkscape="http://www.inkscape.org/namespaces/inkscape" width="211.66667mm" height="132.29167mm" viewBox="0 0 211.66667 132.29167" version="1.1" id="svg8" inkscape:version="0.92.4 (unknown)" sodipodi:docname="lisp-alien.svg" inkscape:export-filename="/home/kuba/projects/jcubic/www/blog/repo/img/lisp-alien.png" inkscape:export-xdpi="96" inkscape:export-ydpi="96">
  <defs id="defs2">
    <clipPath clipPathUnits="userSpaceOnUse" id="clipPath4772">
      <rect style="opacity:1;vector-effect:none;fill:#e7b800;fill-opacity:1;stroke:none;stroke-width:29.61765671;stroke-linecap:butt;stroke-linejoin:round;stroke-miterlimit:4;stroke-dasharray:none;stroke-dashoffset:0;stroke-opacity:1" id="rect4774" width="605.75629" height="605.75629" x="-2.8863487" y="261.34875" />
    </clipPath>
  </defs>
  <sodipodi:namedview id="base" pagecolor="#ffffff" bordercolor="#666666" borderopacity="1.0" inkscape:pageopacity="0.0" inkscape:pageshadow="2" inkscape:zoom="0.7" inkscape:cx="430.53049" inkscape:cy="219.29115" inkscape:document-units="mm" inkscape:current-layer="layer1" showgrid="false" inkscape:snap-global="false" fit-margin-top="0" fit-margin-left="0" fit-margin-right="0" fit-margin-bottom="0" inkscape:window-width="1394" inkscape:window-height="678" inkscape:window-x="64" inkscape:window-y="93" inkscape:window-maximized="0" />
  <metadata id="metadata5">
    <rdf:RDF>
      <cc:Work rdf:about="">
        <dc:format>image/svg+xml</dc:format>
        <dc:type rdf:resource="http://purl.org/dc/dcmitype/StillImage" />
        <dc:title></dc:title>
      </cc:Work>
    </rdf:RDF>
  </metadata>
  <g inkscape:label="Layer 1" inkscape:groupmode="layer" id="layer1" transform="translate(0.83333588,-82.354164)">
    <rect style="opacity:1;vector-effect:none;fill:#004b60;fill-opacity:1;stroke:none;stroke-width:7;stroke-linecap:butt;stroke-linejoin:round;stroke-miterlimit:4;stroke-dasharray:none;stroke-dashoffset:0;stroke-opacity:1" id="rect4776" width="211.66667" height="132.29167" x="-0.83333588" y="82.354164" />
    <g id="layer1-6" inkscape:label="Layer 1" transform="matrix(0.21163738,0,0,0.21163738,52.735843,29.088498)" clip-path="url(#clipPath4772)">
      <rect ry="7.6283779" rx="19.364426" y="293.67365" x="49.641563" height="341.69943" width="444.29199" id="rect7982" style="fill:#847ee0;fill-opacity:1;stroke:none;stroke-width:3;stroke-linecap:round;stroke-linejoin:round;stroke-miterlimit:4;stroke-dasharray:none;stroke-opacity:1" />
      <path sodipodi:nodetypes="css" id="path5050" d="M 444.63512,582.81521 C 334.05229,559.00919 278.76088,624.28377 218.09391,620.44409 157.42694,616.60441 100.59966,591.26251 63.738713,588.9587 38.058531,621.49574 5.7915156,674.44674 47.986844,705.8864 90.182172,737.32605 436.84575,727.39774 465.80333,700.92224 494.76091,674.44674 472.4222,599.9844 444.63512,582.81521 Z" style="fill:#bcb3f5;fill-opacity:1;fill-rule:evenodd;stroke:none;stroke-width:1px;stroke-linecap:butt;stroke-linejoin:miter;stroke-opacity:1" inkscape:connector-curvature="0" />
      <path sodipodi:nodetypes="ccssscssscss" id="path7191" d="m 142.76766,550.12665 c -6.61264,24.13966 -11.8087,80.44668 -15.07017,102.76314 -0.79833,-0.26403 -1.66218,-0.42708 -2.55084,-0.38784 -4.07635,0.18001 -7.21627,3.75729 -7.03003,7.97419 0.18623,4.21688 3.6279,7.47222 7.70424,7.29218 2.81933,-0.12453 5.11271,-1.91401 6.25061,-4.37379 1.21915,2.64877 3.9186,4.45646 7.00993,4.31993 4.07632,-0.18004 7.25229,-3.64945 7.07227,-7.7258 -0.18003,-4.07636 -3.64809,-7.22109 -7.72443,-7.04106 -0.0107,4.8e-4 -0.0205,8.6e-4 -0.0312,0.001 0.50714,-3.63566 10.59742,-70.7038 11.8144,-77.44174 1.25515,-6.94924 0.52045,-54.4578 -7.44476,-25.38059 z" style="fill:#9af286;fill-opacity:1;fill-rule:evenodd;stroke:#3e7e42;stroke-width:2.98300004;stroke-linecap:butt;stroke-linejoin:miter;stroke-miterlimit:4;stroke-dasharray:none;stroke-opacity:1" inkscape:connector-curvature="0" />
      <path sodipodi:nodetypes="cssssc" id="path6528" d="m 451.73822,644.15714 c -33.92174,14.0651 -144.7879,22.3387 -206.83985,23.16606 C 182.84642,668.15056 97.628406,663.18641 60.397234,651.60337 41.37128,645.68419 23.04852,885.44927 31.322113,906.96061 39.595707,928.47195 384.07723,961.2663 456.0575,884.32188 c 71.98026,-76.94442 0.64488,-227.75435 -4.31928,-240.16474 z" style="fill:#847ee0;fill-opacity:1;fill-rule:evenodd;stroke:#000000;stroke-width:4.19999981;stroke-linecap:butt;stroke-linejoin:miter;stroke-miterlimit:4;stroke-dasharray:none;stroke-opacity:1" inkscape:connector-curvature="0" />
      <path sodipodi:nodetypes="cc" id="path3574" d="m 70.112026,725.23378 c 126.667394,20.84959 246.471524,18.7376 368.230284,-2.58097" style="fill:none;fill-opacity:0.75;fill-rule:evenodd;stroke:none;stroke-width:1px;stroke-linecap:butt;stroke-linejoin:miter;stroke-opacity:1" inkscape:connector-curvature="0" />
      <ellipse transform="matrix(1.209432,0,0,1.129349,-77.09974,-97.35213)" id="path4320" style="fill:#bcb3f5;fill-opacity:1;stroke:none;stroke-width:3;stroke-linecap:round;stroke-linejoin:round;stroke-miterlimit:4;stroke-dasharray:none;stroke-opacity:1" cx="339.04388" cy="407.67966" rx="78.71347" ry="75.641724" />
      <path sodipodi:nodetypes="cssssc" id="path3571" d="m 457.99722,417.70211 c -33.92174,-14.0651 -144.7879,-22.3387 -206.83984,-23.16606 -62.05195,-0.82736 -147.26997,4.13679 -184.501141,15.71983 -19.02595,5.91918 -37.34871,-233.8459 -29.07512,-255.35724 8.27359,-21.51134 352.755111,-54.30569 424.735381,22.63873 71.98027,76.94442 0.64488,227.75435 -4.31928,240.16474 z" style="fill:#847ee0;fill-opacity:1;fill-rule:evenodd;stroke:#000000;stroke-width:4.19999981;stroke-linecap:butt;stroke-linejoin:miter;stroke-miterlimit:4;stroke-dasharray:none;stroke-opacity:1" inkscape:connector-curvature="0" />
      <path sodipodi:nodetypes="cssscccccccccc" d="M 135.44492,353.99933 C 96.12916,389.20748 25.58968,730.47827 62.14911,761.13458 98.708538,791.79088 400.21822,795.35909 431.90555,758.97734 463.59288,722.59558 402.45644,387.16187 366.07469,355.47454 329.69293,323.78719 174.7607,318.79117 135.44492,353.99933 Z M -14.836285,231.54517 629.7647,233.1054 c 10.7279,0 19.36443,3.40225 19.36443,7.62837 l -7.1988,758.76805 c 0,4.22608 -8.63653,7.62838 -19.36443,7.62838 L -22.03509,1005.57 c -10.727891,0 -19.364425,-3.4023 -19.364425,-7.62841 l 7.198805,-758.76805 c 0,-4.22612 8.636534,-7.62837 19.364425,-7.62837 z" style="fill:#004b60;fill-opacity:1;fill-rule:evenodd;stroke:#000000;stroke-width:5.9000001;stroke-linecap:butt;stroke-linejoin:miter;stroke-miterlimit:4;stroke-dasharray:none;stroke-opacity:1" id="path1336" inkscape:connector-curvature="0" />
      <path sodipodi:nodetypes="csscsscc" id="path3572" d="m 456.66621,444.89871 c 18.61497,5.73515 36.84516,-6.01726 47.55693,0.7377 10.71176,6.75496 20.06188,16.41948 36.91404,14.87535 16.66794,-1.52725 37.95634,-9.5575 37.95634,-9.5575 0,0 -20.92313,-9.0258 -29.94912,-19.29193 -9.02601,-10.26612 -13.30975,-20.88639 -29.15219,-26.55472 -21.51435,-7.69771 -40.3773,-3.62749 -49.29134,-8.677 -11.2374,9.78098 -14.03466,48.4681 -14.03466,48.4681 z" style="color:#000000;display:inline;overflow:visible;visibility:visible;opacity:1;fill:#847ee0;fill-opacity:1;fill-rule:nonzero;stroke:none;stroke-width:3;stroke-linecap:round;stroke-linejoin:round;stroke-miterlimit:4;stroke-dasharray:none;stroke-dashoffset:0;stroke-opacity:1;marker:none;marker-start:none;marker-mid:none;marker-end:none" inkscape:connector-curvature="0" />
      <path sodipodi:nodetypes="ccc" id="path3586" d="m 476.70033,405.01034 -9.25388,33.26329 16.661,-1.93247" style="fill:none;fill-opacity:0.75;fill-rule:evenodd;stroke:#ffffff;stroke-width:4.86299992;stroke-linecap:round;stroke-linejoin:round;stroke-miterlimit:4;stroke-dasharray:none;stroke-opacity:1" inkscape:connector-curvature="0" />
      <path sodipodi:nodetypes="cc" id="path3588" d="m 498.25829,406.72852 -5.64134,29.35932" style="fill:none;fill-opacity:0.75;fill-rule:evenodd;stroke:#ffffff;stroke-width:4.86299992;stroke-linecap:round;stroke-linejoin:round;stroke-miterlimit:4;stroke-dasharray:none;stroke-opacity:1" inkscape:connector-curvature="0" />
      <path sodipodi:nodetypes="cssc" id="path3590" d="m 523.32646,417.67134 c -3.5083,-5.14666 -16.64173,-13.01009 -17.99567,-1.93966 -1.35395,11.07046 20.0816,8.37001 14.77974,21.67162 -4.32011,10.83854 -18.21289,-3.72345 -18.21289,-3.72345" style="fill:none;fill-opacity:0.75;fill-rule:evenodd;stroke:#ffffff;stroke-width:4.86299992;stroke-linecap:round;stroke-linejoin:round;stroke-miterlimit:4;stroke-dasharray:none;stroke-opacity:1" inkscape:connector-curvature="0" />
      <path sodipodi:nodetypes="ccsc" id="path3592" d="m 525.3614,451.003 5.99935,-27.93352 c 0,0 13.78364,10.04304 10.93077,16.70719 -3.87714,9.05678 -13.34011,-3.50266 -13.34011,-3.50266" style="fill:none;fill-opacity:0.75;fill-rule:evenodd;stroke:#ffffff;stroke-width:4.86299992;stroke-linecap:round;stroke-linejoin:round;stroke-miterlimit:4;stroke-dasharray:none;stroke-opacity:1" inkscape:connector-curvature="0" />
      <g aria-label="Made with secret" transform="rotate(-1.0878661,-1025.495,633.39063)" style="font-style:normal;font-variant:normal;font-weight:normal;font-stretch:normal;font-size:48px;line-height:0%;font-family:'Franklin Gothic Medium';text-align:start;writing-mode:lr-tb;text-anchor:start;fill:#ffffff;fill-opacity:1;stroke:#ffffff;stroke-width:1.82500005;stroke-linecap:round;stroke-linejoin:round;stroke-miterlimit:4;stroke-dasharray:none;stroke-opacity:1" id="text2788">
        <path d="m 104.61389,730.47925 -5.820072,-0.85691 4.079722,-27.70909 -12.844604,26.4186 -2.99119,-0.44041 -4.731533,-29.0064 -4.079724,27.70909 -4.660692,-0.68622 4.660104,-31.65096 8.927195,1.31439 3.630728,21.35823 9.516596,-19.4225 8.97357,1.32122 z" style="font-style:normal;font-variant:normal;font-weight:normal;font-stretch:normal;font-size:48px;line-height:125%;font-family:'Franklin Gothic Medium';text-align:start;writing-mode:lr-tb;text-anchor:start;fill:#ffffff;fill-opacity:1;stroke:#ffffff;stroke-width:1.82500005;stroke-linecap:round;stroke-linejoin:round;stroke-miterlimit:4;stroke-dasharray:none;stroke-opacity:1" id="path912" />
        <path d="m 131.42861,733.65306 -5.05102,-0.59493 q -0.42279,-2.22096 -0.25539,-4.84439 -2.73504,4.98775 -8.57746,4.2996 -3.51477,-0.41398 -5.41495,-2.71455 -1.87417,-2.32111 -1.50679,-5.44017 0.95409,-8.10026 15.17609,-6.42512 0.55863,0.0658 1.51023,0.20148 l 0.20837,-1.76902 q 0.43043,-3.65443 -4.55076,-4.24114 -4.84153,-0.57026 -5.92371,3.0074 l -4.43615,-1.20689 q 0.71787,-2.88899 3.59347,-4.46185 2.87835,-1.59613 7.90609,-1.00394 2.72336,0.32077 4.391,0.98918 1.67037,0.64514 2.72862,1.87896 1.061,1.21055 1.35246,2.54285 0.31749,1.31177 -0.0389,4.33773 l -1.25019,10.61412 q -0.27142,2.30439 0.13901,4.83068 z M 126.9721,720.998 q -10.28825,-1.2118 -10.86673,3.69956 -0.17273,1.46643 0.72807,2.63451 0.92682,1.14754 3.02171,1.39429 3.02596,0.35641 4.78703,-1.37133 1.78708,-1.74827 2.07495,-4.19231 z" style="font-style:normal;font-variant:normal;font-weight:normal;font-stretch:normal;font-size:48px;line-height:125%;font-family:'Franklin Gothic Medium';text-align:start;writing-mode:lr-tb;text-anchor:start;fill:#ffffff;fill-opacity:1;stroke:#ffffff;stroke-width:1.82500005;stroke-linecap:round;stroke-linejoin:round;stroke-miterlimit:4;stroke-dasharray:none;stroke-opacity:1" id="path914" />
        <path d="m 156.48539,736.06176 -4.97041,-0.46576 0.44607,-4.7604 q -2.5455,5.05802 -7.4459,4.59882 -4.34036,-0.40672 -6.31163,-4.24016 -1.97126,-3.83345 -1.46833,-9.20056 0.46795,-4.99375 3.21916,-8.47883 2.75121,-3.48509 7.18491,-3.06962 4.55038,0.42639 5.93463,4.74626 l 1.07583,-11.48096 5.32045,0.49856 z m -4.0172,-14.40638 q 0.26896,-2.87024 -0.95913,-4.58605 -1.20257,-1.73696 -3.37275,-1.94032 -2.35686,-0.22085 -3.8794,1.70801 -1.52253,1.92887 -1.90519,6.01254 -0.73909,7.88732 4.20799,8.35089 1.96016,0.18368 3.61105,-1.35651 1.67642,-1.56135 1.92351,-4.19823 z" style="font-style:normal;font-variant:normal;font-weight:normal;font-stretch:normal;font-size:48px;line-height:125%;font-family:'Franklin Gothic Medium';text-align:start;writing-mode:lr-tb;text-anchor:start;fill:#ffffff;fill-opacity:1;stroke:#ffffff;stroke-width:1.82500005;stroke-linecap:round;stroke-linejoin:round;stroke-miterlimit:4;stroke-dasharray:none;stroke-opacity:1" id="path916" />
        <path d="m 178.42243,730.10014 4.77076,0.99057 q -1.15862,3.13793 -4.01591,5.02966 -2.85729,1.89173 -6.94891,1.60637 -4.90995,-0.34244 -7.67276,-3.84784 -2.76281,-3.5054 -2.36983,-9.14015 0.37342,-5.35418 3.63412,-8.65094 3.26071,-3.29675 8.42785,-2.93638 5.05023,0.35222 7.56782,4.00498 2.51759,3.65276 2.13928,9.07708 l -0.0658,0.60627 -16.20283,-1.13003 q -0.16795,2.40821 0.17518,3.8888 0.36652,1.48221 1.64759,2.6523 1.28107,1.17009 3.31519,1.31196 3.95134,0.27558 5.59823,-3.46265 z m 0.16512,-7.08381 q 0.15436,-2.55012 -1.25287,-4.26938 -1.38386,-1.71763 -3.60502,-1.87254 -2.19779,-0.15328 -3.77677,1.26373 -1.57734,1.39364 -2.02694,4.13462 z" style="font-style:normal;font-variant:normal;font-weight:normal;font-stretch:normal;font-size:48px;line-height:125%;font-family:'Franklin Gothic Medium';text-align:start;writing-mode:lr-tb;text-anchor:start;fill:#ffffff;fill-opacity:1;stroke:#ffffff;stroke-width:1.82500005;stroke-linecap:round;stroke-linejoin:round;stroke-miterlimit:4;stroke-dasharray:none;stroke-opacity:1" id="path918" />
        <path d="m 230.48824,716.14564 -7.65965,23.44817 -4.80243,-0.14724 -3.75512,-16.71668 -4.7487,16.45596 -4.94299,-0.15155 -6.56023,-23.88412 5.66921,0.17381 4.1742,16.04952 4.56389,-15.78162 4.84928,0.14867 3.65881,16.03372 5.05584,-15.76654 z" style="font-style:normal;font-variant:normal;font-weight:normal;font-stretch:normal;font-size:48px;line-height:125%;font-family:'Franklin Gothic Medium';text-align:start;writing-mode:lr-tb;text-anchor:start;fill:#ffffff;fill-opacity:1;stroke:#ffffff;stroke-width:1.82500005;stroke-linecap:round;stroke-linejoin:round;stroke-miterlimit:4;stroke-dasharray:none;stroke-opacity:1" id="path920" />
        <path d="m 239.05667,713.34845 -5.34353,-0.0494 0.0514,-5.55445 5.34352,0.0494 z m -0.24447,26.43637 -5.34353,-0.0494 0.2189,-23.67087 5.34352,0.0494 z" style="font-style:normal;font-variant:normal;font-weight:normal;font-stretch:normal;font-size:48px;line-height:125%;font-family:'Franklin Gothic Medium';text-align:start;writing-mode:lr-tb;text-anchor:start;fill:#ffffff;fill-opacity:1;stroke:#ffffff;stroke-width:1.82500005;stroke-linecap:round;stroke-linejoin:round;stroke-miterlimit:4;stroke-dasharray:none;stroke-opacity:1" id="path922" />
        <path d="m 256.16425,735.60312 0.0151,4.17184 q -2.38875,0.52429 -3.70124,0.52905 -2.15623,0.008 -3.70616,-0.83033 -1.55,-0.86157 -2.28191,-2.33549 -0.70856,-1.49744 -0.71977,-4.59117 l -0.0444,-12.25774 -2.9531,0.0107 -0.015,-4.14841 3.25779,-0.0118 0.46985,-6.16581 4.38134,-0.41432 0.0238,6.56246 4.75778,-0.0172 0.015,4.14841 -4.75778,0.0172 0.0419,11.55461 q 0.008,2.22655 0.80792,3.04397 0.82319,0.7939 3.07318,0.78574 0.6328,-0.002 1.33576,-0.0517 z" style="font-style:normal;font-variant:normal;font-weight:normal;font-stretch:normal;font-size:48px;line-height:125%;font-family:'Franklin Gothic Medium';text-align:start;writing-mode:lr-tb;text-anchor:start;fill:#ffffff;fill-opacity:1;stroke:#ffffff;stroke-width:1.82500005;stroke-linecap:round;stroke-linejoin:round;stroke-miterlimit:4;stroke-dasharray:none;stroke-opacity:1" id="path924" />
        <path d="m 280.26826,739.29229 -5.34231,0.1241 -0.35978,-15.488 q -0.0582,-2.50714 -1.15948,-3.48964 -1.07835,-1.00648 -2.50765,-0.97328 -2.27283,0.0528 -3.77737,1.89292 -1.50455,1.84013 -1.40821,5.98745 l 0.28522,12.27793 -5.34231,0.1241 -0.74297,-31.98355 5.3423,-0.12411 0.28957,12.46539 q 1.873,-5.15426 6.86384,-5.2702 7.28709,-0.16927 7.48141,8.19566 z" style="font-style:normal;font-variant:normal;font-weight:normal;font-stretch:normal;font-size:48px;line-height:125%;font-family:'Franklin Gothic Medium';text-align:start;writing-mode:lr-tb;text-anchor:start;fill:#ffffff;fill-opacity:1;stroke:#ffffff;stroke-width:1.82500005;stroke-linecap:round;stroke-linejoin:round;stroke-miterlimit:4;stroke-dasharray:none;stroke-opacity:1" id="path926" />
        <path d="m 295.53441,733.25155 4.95292,-1.24437 q 1.31038,2.8129 5.21812,2.59049 4.96073,-0.28233 4.79426,-3.20728 -0.0533,-0.93598 -0.86009,-1.50043 -0.80681,-0.56444 -1.87178,-0.71511 l -4.35214,-0.57395 q -7.23886,-0.97306 -7.55848,-6.58897 -0.17845,-3.13555 1.96746,-5.4409 2.14458,-2.32874 6.63731,-2.58444 7.48788,-0.42616 9.46221,4.9782 l -4.69552,1.22973 q -0.90061,-2.62494 -4.41055,-2.42518 -4.25873,0.24238 -4.10692,2.90994 0.10521,1.84857 3.58491,2.35479 l 5.13765,0.764 q 5.98936,0.87985 6.30631,6.44896 0.2224,3.90774 -2.70901,6.02303 -2.93275,2.0919 -7.12129,2.33028 -3.62694,0.20642 -6.49407,-1.08588 -2.86845,-1.3157 -3.8813,-4.26291 z" style="font-style:normal;font-variant:normal;font-weight:normal;font-stretch:normal;font-size:48px;line-height:125%;font-family:'Franklin Gothic Medium';text-align:start;writing-mode:lr-tb;text-anchor:start;fill:#ffffff;fill-opacity:1;stroke:#ffffff;stroke-width:1.82500005;stroke-linecap:round;stroke-linejoin:round;stroke-miterlimit:4;stroke-dasharray:none;stroke-opacity:1" id="path928" />
        <path d="m 334.93595,728.51936 4.86472,0.27555 q -0.68277,3.27457 -3.22954,5.56732 -2.54677,2.29275 -6.6357,2.61444 -4.90671,0.38603 -8.15667,-2.67318 -3.24995,-3.05921 -3.69296,-8.69025 -0.42096,-5.35065 2.31743,-9.09258 2.73838,-3.74193 7.90211,-4.14818 5.04691,-0.39706 8.07607,2.84409 3.02917,3.24115 3.45564,8.6619 l 0.0244,0.60934 -16.19215,1.2739 q 0.18934,2.40663 0.74725,3.82035 0.58128,1.41188 2.02102,2.38007 1.43975,0.96818 3.47253,0.80825 3.94874,-0.31066 5.02582,-4.25102 z m -0.88227,-7.03059 q -0.22373,-2.54498 -1.86931,-4.0377 -1.62222,-1.49456 -3.84193,-1.31992 -2.19633,0.17279 -3.54886,1.80735 -1.35437,1.61118 -1.39447,4.38851 z" style="font-style:normal;font-variant:normal;font-weight:normal;font-stretch:normal;font-size:48px;line-height:125%;font-family:'Franklin Gothic Medium';text-align:start;writing-mode:lr-tb;text-anchor:start;fill:#ffffff;fill-opacity:1;stroke:#ffffff;stroke-width:1.82500005;stroke-linecap:round;stroke-linejoin:round;stroke-miterlimit:4;stroke-dasharray:none;stroke-opacity:1" id="path930" />
        <path d="m 358.3887,725.14294 4.6176,0.007 q -0.44129,4.51982 -2.77013,6.89718 -2.32884,2.37736 -5.92016,2.73794 -4.87393,0.48936 -7.86502,-2.79074 -2.9701,-3.30575 -3.48756,-8.45953 -0.53385,-5.31702 1.98567,-9.07973 2.51951,-3.76271 7.30017,-4.24271 7.69568,-0.77267 9.97967,7.19526 l -4.50755,1.08857 q -1.04651,-4.32333 -4.75443,-3.95104 -2.70515,0.27161 -3.7023,2.77437 -0.97617,2.4771 -0.639,5.83522 0.35824,3.56799 1.81187,5.37714 1.47696,1.8068 3.76234,1.57734 3.49804,-0.35122 4.18883,-4.96676 z" style="font-style:normal;font-variant:normal;font-weight:normal;font-stretch:normal;font-size:48px;line-height:125%;font-family:'Franklin Gothic Medium';text-align:start;writing-mode:lr-tb;text-anchor:start;fill:#ffffff;fill-opacity:1;stroke:#ffffff;stroke-width:1.82500005;stroke-linecap:round;stroke-linejoin:round;stroke-miterlimit:4;stroke-dasharray:none;stroke-opacity:1" id="path932" />
        <path d="m 373.25449,732.21448 -5.30715,0.62435 -2.76578,-23.50975 4.79506,-0.5641 0.65995,5.60975 q 0.63808,-3.40255 2.25241,-5.12641 1.61433,-1.72385 3.49977,-1.94566 0.25604,-0.0301 0.70104,-0.0589 l 0.67091,5.70286 q -4.05019,0.47648 -5.07302,3.21631 -0.99955,2.7371 -0.71476,5.1579 z" style="font-style:normal;font-variant:normal;font-weight:normal;font-stretch:normal;font-size:48px;line-height:125%;font-family:'Franklin Gothic Medium';text-align:start;writing-mode:lr-tb;text-anchor:start;fill:#ffffff;fill-opacity:1;stroke:#ffffff;stroke-width:1.82500005;stroke-linecap:round;stroke-linejoin:round;stroke-miterlimit:4;stroke-dasharray:none;stroke-opacity:1" id="path934" />
        <path d="m 397.66928,721.45702 4.87252,0.001 q -0.49721,3.30784 -2.91076,5.74042 -2.41356,2.43259 -6.47787,2.98413 -4.87717,0.66185 -8.29431,-2.20941 -3.41714,-2.87126 -4.17669,-8.46839 -0.72174,-5.31844 1.80149,-9.2087 2.52323,-3.89026 7.65587,-4.58678 5.01652,-0.68076 8.22347,2.38459 3.20696,3.06534 3.93814,8.45346 l 0.0587,0.60699 -16.09466,2.18411 q 0.32462,2.39214 0.96129,3.77218 0.6599,1.37689 2.1519,2.26243 1.49201,0.88554 3.51255,0.61134 3.92496,-0.53263 4.77834,-4.52742 z m -1.27695,-6.96971 q -0.36676,-2.52834 -2.09382,-3.92598 -1.70384,-1.40079 -3.91018,-1.10138 -2.18312,0.29626 -3.44141,2.00441 -1.26145,1.68493 -1.14502,4.46011 z" style="font-style:normal;font-variant:normal;font-weight:normal;font-stretch:normal;font-size:48px;line-height:125%;font-family:'Franklin Gothic Medium';text-align:start;writing-mode:lr-tb;text-anchor:start;fill:#ffffff;fill-opacity:1;stroke:#ffffff;stroke-width:1.82500005;stroke-linecap:round;stroke-linejoin:round;stroke-miterlimit:4;stroke-dasharray:none;stroke-opacity:1" id="path936" />
        <path d="m 418.68169,721.72388 0.63199,4.12372 q -2.28493,0.87183 -3.58228,1.07066 -2.13136,0.32665 -3.7882,-0.27303 -1.6604,-0.62285 -2.60226,-1.9723 -0.92224,-1.37617 -1.39091,-4.43422 l -1.85692,-12.11634 -2.91904,0.44736 -0.62844,-4.10056 3.22021,-0.49352 -0.44728,-6.16749 4.27187,-1.05778 0.99415,6.48676 4.7029,-0.72075 0.62844,4.10056 -4.7029,0.72075 1.75041,11.42134 q 0.33729,2.20086 1.24924,2.89099 0.93156,0.66341 3.1556,0.32256 0.62551,-0.0959 1.31342,-0.24871 z" style="font-style:normal;font-variant:normal;font-weight:normal;font-stretch:normal;font-size:48px;line-height:125%;font-family:'Franklin Gothic Medium';text-align:start;writing-mode:lr-tb;text-anchor:start;fill:#ffffff;fill-opacity:1;stroke:#ffffff;stroke-width:1.82500005;stroke-linecap:round;stroke-linejoin:round;stroke-miterlimit:4;stroke-dasharray:none;stroke-opacity:1" id="path938" />
      </g>
      <path sodipodi:nodetypes="cscssscssscsscssscssscsscsscsscssssssscccscc" id="path1306" d="m 270.51899,473.63452 c -84.48716,-0.30568 -153.18488,34.98882 -162.42524,63.68629 -7.67125,23.8244 -18.247313,91.41314 -22.490216,113.56397 -0.785899,-0.29899 -1.641718,-0.5 -2.53125,-0.5 -4.080315,-2e-5 -7.375003,3.43524 -7.375,7.65625 -2e-6,4.22099 3.294687,7.62501 7.375,7.625 2.822088,-2e-5 5.192182,-1.68657 6.4375,-4.09375 1.101096,2.69997 3.718166,4.62501 6.8125,4.625 4.080306,-2e-5 7.406246,-3.32592 7.406246,-7.40625 0,-4.08033 -3.32594,-7.37501 -7.406246,-7.375 -0.01072,0 -0.02054,-5e-5 -0.03125,0 0.667053,-3.60975 10.758396,-60.59529 15.325656,-70.32716 3.00016,-6.39269 127.22495,-12.23076 129.13331,-6.36181 2.75651,8.47741 -4.47186,62.38166 -6.11522,83.94307 -0.3885,-0.0524 -0.75118,-0.1696 -1.15625,-0.15625 -4.0781,0.13438 -7.264,3.68753 -7.125,7.90625 0.139,4.21873 3.54691,7.50937 7.625,7.375 2.82055,-0.093 5.11588,-1.86562 6.28125,-4.3125 1.18942,2.66225 3.8761,4.50816 6.96875,4.40625 4.0781,-0.13436 7.29062,-3.57813 7.15625,-7.65625 -0.13436,-4.0781 -3.54689,-7.25938 -7.625,-7.125 -0.34978,0.0115 -0.66792,0.12804 -1,0.1875 1.16455,-16.54846 9.33895,-82.75082 13.66414,-87.65204 2.95554,-3.34917 27.68438,-4.86044 28.46466,0.49621 0.68474,4.70097 11.45474,75.28627 10.14516,82.6735 -7.93678,-0.25954 -11.10001,11.85267 -6.88858,11.56849 l 24.40026,-1.64647 c 4.07105,-0.2747 1.2576,-9.18711 -8.51168,-10.29702 3.84381,-16.68234 -3.91755,-90.47097 -2.56499,-92.46074 1.56055,-2.29572 9.37599,-15.31716 10.15625,-24.5 0.1078,-1.2687 0.0949,-3.55331 -0.0625,-6.3125 24.40538,4.68285 40.79401,7.82437 51.5779,1.9003 15.26167,-8.38392 18.13662,-14.58872 33.6721,-24.80655 19.34658,-12.72443 33.86428,-5.09763 43.1346,-6.99773 9.27033,-1.90005 4.98098,-14.29243 10.57688,-23.75778 6.0758,-10.27709 -21.48155,-17.51528 -27.80412,-9.41405 -7.86826,10.08175 -6.45784,17.11332 -13.54677,19.57532 -9.29566,3.22839 -29.48169,15.55796 -36.08607,20.2185 -11.18799,7.89507 -21.22561,14.49785 -41.24327,6.87574 -14.80382,-7.38448 -11.61477,-23.91178 -31.03125,-32.125 -9.42266,-4.84362 -18.54124,-8.66535 -25.875,-9.9375 -0.38196,-0.0865 -0.76654,-0.14265 -1.15625,-0.21875 -0.45413,-0.063 -0.90584,-0.11608 -1.34375,-0.15625 -1.7146,-0.27746 -3.05479,1.38268 -4.91851,1.31371 z" style="fill:#9af286;fill-opacity:1;fill-rule:evenodd;stroke:#3e7e42;stroke-width:2.98300004;stroke-linecap:butt;stroke-linejoin:miter;stroke-miterlimit:4;stroke-dasharray:none;stroke-opacity:1" inkscape:connector-curvature="0" />
      <path sodipodi:nodetypes="cccsccc" id="rect2844" d="m 560.34112,321.05953 c 2.26531,0 4.27992,1.62816 4.27992,5.82085 l -0.62543,114.7305 c 0,4.19269 -1.40199,5.44195 -3.6673,5.44195 -2.2653,0 -4.5107,-1.24926 -4.5107,-5.44195 l 0.62543,-114.7305 c 0,-4.19269 1.63278,-5.82085 3.89808,-5.82085 z" style="fill:#e0773e;fill-opacity:1;stroke:#000000;stroke-width:2.73355603;stroke-miterlimit:4;stroke-opacity:1" transform="matrix(0.989097,0.147266,-0.270564,0.962702,0,0)" inkscape:connector-curvature="0" />
      <path sodipodi:nodetypes="ccscc" id="path9395" d="m 246.1431,509.1111 c -5.12191,17.72966 8.86483,23.24556 8.86483,23.24556 0,0 5.5159,3.54593 9.84981,4.72791 4.33392,1.18198 21.81734,6.20538 23.24556,-13.19875 -6.64862,-1.87146 -41.9602,-14.77472 -41.9602,-14.77472 z" style="fill:#ffffff;fill-opacity:1;fill-rule:evenodd;stroke:none;stroke-width:1px;stroke-linecap:butt;stroke-linejoin:miter;stroke-opacity:1" inkscape:connector-curvature="0" />
      <path id="path7193" d="m 327.79129,662.887 -46.90016,3.56849" style="color:#000000;display:inline;overflow:visible;visibility:visible;opacity:1;fill:#a3a3a3;fill-opacity:1;fill-rule:evenodd;stroke:#000000;stroke-width:4.19999981;stroke-linecap:butt;stroke-linejoin:miter;stroke-miterlimit:4;stroke-dasharray:none;stroke-dashoffset:0;stroke-opacity:1;marker:none;marker-start:none;marker-mid:none;marker-end:none" inkscape:connector-curvature="0" />
      <path id="path10849" d="m 281.99642,521.91586 -3.74293,16.54768" style="fill:none;fill-opacity:0.75;fill-rule:evenodd;stroke:#000000;stroke-width:1px;stroke-linecap:butt;stroke-linejoin:miter;stroke-opacity:1" inkscape:connector-curvature="0" />
      <path id="path10851" d="m 275.88954,520.33989 -4.13693,18.12365" style="fill:none;fill-opacity:0.75;fill-rule:evenodd;stroke:#000000;stroke-width:1px;stroke-linecap:butt;stroke-linejoin:miter;stroke-opacity:1" inkscape:connector-curvature="0" />
      <path id="path10853" d="m 270.17664,517.97593 -4.13692,18.71465" style="fill:none;fill-opacity:0.75;fill-rule:evenodd;stroke:#000000;stroke-width:1px;stroke-linecap:butt;stroke-linejoin:miter;stroke-opacity:1" inkscape:connector-curvature="0" />
      <path id="path10855" d="m 264.66075,516.00597 -4.13692,18.71464 z" style="fill:none;fill-opacity:0.75;fill-rule:evenodd;stroke:#000000;stroke-width:1px;stroke-linecap:butt;stroke-linejoin:miter;stroke-opacity:1" inkscape:connector-curvature="0" />
      <path id="path10857" d="m 258.94785,514.03601 -3.93992,18.32065" style="fill:none;fill-opacity:0.75;fill-rule:evenodd;stroke:#000000;stroke-width:1px;stroke-linecap:butt;stroke-linejoin:miter;stroke-opacity:1" inkscape:connector-curvature="0" />
      <path id="path10859" d="m 254.02295,512.26304 -3.74293,15.9567" style="fill:none;fill-opacity:0.75;fill-rule:evenodd;stroke:#000000;stroke-width:1px;stroke-linecap:butt;stroke-linejoin:miter;stroke-opacity:1" inkscape:connector-curvature="0" />
      <path id="path10861" d="m 249.49203,510.09608 -2.95494,12.21377" style="fill:none;fill-opacity:0.75;fill-rule:evenodd;stroke:#000000;stroke-width:1px;stroke-linecap:butt;stroke-linejoin:miter;stroke-opacity:1" inkscape:connector-curvature="0" />
      <path sodipodi:nodetypes="cs" id="path10863" d="m 286.52734,531.37168 c -12.60777,-0.39399 -33.09538,-7.28886 -41.56622,-14.18373" style="fill:none;fill-opacity:0.75;fill-rule:evenodd;stroke:#000000;stroke-width:1px;stroke-linecap:butt;stroke-linejoin:miter;stroke-opacity:1" inkscape:connector-curvature="0" />
      <path sodipodi:nodetypes="ccsc" id="path1334" d="M 314.73918,531.21038 C 287.29383,524.26287 246.5086,508.8887 246.5086,508.8887 c 0,0 -9.85664,22.22523 22.81659,29.2595 18.24929,3.9289 18.79631,-13.89076 18.79631,-13.89076" style="color:#000000;display:inline;overflow:visible;visibility:visible;opacity:1;fill:none;fill-opacity:1;fill-rule:evenodd;stroke:#3e7e42;stroke-width:2.98300004;stroke-linecap:butt;stroke-linejoin:miter;stroke-miterlimit:4;stroke-dasharray:none;stroke-dashoffset:0;stroke-opacity:1;marker:none;marker-start:none;marker-mid:none;marker-end:none" inkscape:connector-curvature="0" />
      <path sodipodi:nodetypes="csss" id="path1319" d="m 448.05225,488.20443 c 9.49254,1.22673 12.30691,-9.45061 9.03192,-14.51678 -2.98426,-4.61643 -13.23681,-9.63863 -15.84524,-3.274 -1.95575,4.77208 3.21281,7.4826 7.52625,7.03783" style="color:#000000;display:inline;overflow:visible;visibility:visible;opacity:1;fill:#9af286;fill-opacity:1;fill-rule:evenodd;stroke:#3e7e42;stroke-width:2.98300004;stroke-linecap:round;stroke-linejoin:miter;stroke-miterlimit:4;stroke-dasharray:none;stroke-dashoffset:0;stroke-opacity:1;marker:none;marker-start:none;marker-mid:none;marker-end:none" inkscape:connector-curvature="0" />
      <path sodipodi:nodetypes="csss" id="path1317" d="m 444.43069,493.83066 c -3.87281,-2.0276 -9.26866,-1.59952 -6.84526,-8.26922 1.7913,-4.93005 7.69086,-1.14693 15.59606,4.26081 7.90521,5.40773 -0.29336,12.10016 -9.89445,11.27085" style="color:#000000;display:inline;overflow:visible;visibility:visible;opacity:1;fill:#9af286;fill-opacity:1;fill-rule:evenodd;stroke:#3e7e42;stroke-width:2.98300004;stroke-linecap:round;stroke-linejoin:miter;stroke-miterlimit:4;stroke-dasharray:none;stroke-dashoffset:0;stroke-opacity:1;marker:none;marker-start:none;marker-mid:none;marker-end:none" inkscape:connector-curvature="0" />
      <path sodipodi:nodetypes="csssz" id="path1315" d="m 419.57651,478.78648 c 3.24366,-5.76566 4.19563,-11.58586 7.71095,-12.79303 3.39406,-1.16551 11.51772,-7.10401 14.43778,-5.53476 2.92001,1.56926 5.25102,7.17499 -4.13314,11.68676 -4.47504,2.15154 -4.66421,7.82618 -8.30039,10.07632" style="color:#000000;display:inline;overflow:visible;visibility:visible;opacity:1;fill:#9af286;fill-opacity:1;fill-rule:evenodd;stroke:#3e7e42;stroke-width:2.98300004;stroke-linecap:round;stroke-linejoin:miter;stroke-miterlimit:4;stroke-dasharray:none;stroke-dashoffset:0;stroke-opacity:1;marker:none;marker-start:none;marker-mid:none;marker-end:none" inkscape:connector-curvature="0" />
      <path sodipodi:nodetypes="csccc" id="path15231" d="m 204.67588,506.38984 c 0,0 19.71233,-3.21079 18.04934,-14.46353 -1.39777,-9.45814 -15.59487,-7.34933 -22.73259,-5.55203 0.45256,5.73548 1.21771,8.8887 -5.33953,11.64678 6.59465,-0.13557 8.10559,1.82627 10.02278,8.36878 z" style="fill:#62e06e;fill-opacity:1;fill-rule:evenodd;stroke:none;stroke-width:0.20767665px;stroke-linecap:butt;stroke-linejoin:miter;stroke-opacity:1" inkscape:connector-curvature="0" />
      <path style="fill:#62e06e;fill-opacity:1;fill-rule:evenodd;stroke:none;stroke-width:0.20767665px;stroke-linecap:butt;stroke-linejoin:miter;stroke-opacity:1" d="m 206.84427,528.80171 c 0,0 19.96989,-0.29796 19.96785,-11.67292 -0.002,-9.56087 -14.35456,-9.54773 -21.67822,-8.81195 -0.38979,5.74009 -0.0933,8.97124 -6.98297,10.74226 6.54376,0.82884 7.75204,2.99028 8.69334,9.74261 z" id="path15959" sodipodi:nodetypes="csccc" inkscape:connector-curvature="0" />
      <path sodipodi:nodetypes="csccc" id="path15961" d="m 207.00459,552.07477 c 0,0 19.93283,1.25188 20.8131,-10.08896 0.73989,-9.5322 -13.57075,-10.63238 -20.92942,-10.46687 -0.83384,5.69256 -0.78884,8.93698 -7.79515,10.16827 6.45976,1.33391 7.49675,3.58256 7.91147,10.38756 z" style="fill:#62e06e;fill-opacity:1;fill-rule:evenodd;stroke:none;stroke-width:0.20767665px;stroke-linecap:butt;stroke-linejoin:miter;stroke-opacity:1" inkscape:connector-curvature="0" />
      <path id="path15963" d="m 206.34375,554.53125 c -1.20474,5.62574 -1.3656,8.88632 -8.4375,9.65625 5.39806,1.48903 6.79673,3.54147 7.09375,8.25 6.46987,-0.0967 12.37346,-0.0898 17.5,0.0312 2.08495,-1.34381 3.62602,-3.31029 4.03125,-6.125 1.36241,-9.46328 -12.83377,-11.49586 -20.1875,-11.8125 z" style="fill:#62e06e;fill-opacity:1;fill-rule:evenodd;stroke:none;stroke-width:0.20767665px;stroke-linecap:butt;stroke-linejoin:miter;stroke-opacity:1" inkscape:connector-curvature="0" />
      <path id="path15965" d="m 196.03125,482.84375 c -8.50678,2.19908 -16.60526,4.72212 -24.15625,7.5 4.49225,0.94642 5.69246,3.11174 6.5,8.625 0,-10e-6 19.75065,-0.57018 19.75,-11.28125 -1.2e-4,-2.09028 -0.82895,-3.63898 -2.09375,-4.84375 z" style="fill:#62e06e;fill-opacity:1;fill-rule:evenodd;stroke:none;stroke-width:0.20767665px;stroke-linecap:butt;stroke-linejoin:miter;stroke-opacity:1" inkscape:connector-curvature="0" />
      <path style="fill:#62e06e;fill-opacity:1;fill-rule:evenodd;stroke:none;stroke-width:0.20767665px;stroke-linecap:butt;stroke-linejoin:miter;stroke-opacity:1" d="m 182.5581,519.59489 c 0,0 19.73583,-0.50615 19.76401,-11.21718 0.0237,-9.00286 -14.16044,-8.82837 -21.39994,-8.0528 -0.40042,5.40947 -0.11595,8.44869 -6.92934,10.19419 6.46462,0.70653 7.65295,2.72819 8.56527,9.07579 z" id="path15967" sodipodi:nodetypes="csccc" inkscape:connector-curvature="0" />
      <path sodipodi:nodetypes="csccc" id="path15971" d="m 184.40776,541.79081 c 0,0 19.73583,-0.50615 19.76401,-11.21718 0.0237,-9.00286 -14.16044,-8.82837 -21.39994,-8.0528 -0.40042,5.40947 -0.11595,8.44869 -6.92934,10.19419 6.46462,0.70653 7.65295,2.72819 8.56527,9.07579 z" style="fill:#62e06e;fill-opacity:1;fill-rule:evenodd;stroke:none;stroke-width:0.20767665px;stroke-linecap:butt;stroke-linejoin:miter;stroke-opacity:1" inkscape:connector-curvature="0" />
      <path style="fill:#62e06e;fill-opacity:1;fill-rule:evenodd;stroke:none;stroke-width:0.20767665px;stroke-linecap:butt;stroke-linejoin:miter;stroke-opacity:1" d="m 184.54511,562.8763 c 0,0 19.71057,1.11917 20.61982,-9.55324 0.76424,-8.97039 -13.38616,-9.96338 -20.66492,-9.78601 -0.84409,5.3582 -0.81061,8.41052 -7.7445,9.58958 6.38458,1.23596 7.40257,3.34853 7.7896,9.74967 z" id="path15973" sodipodi:nodetypes="csccc" inkscape:connector-curvature="0" />
      <path id="path15975" d="m 182.96875,564.8125 c -0.64452,4.09133 -0.85507,6.81112 -3.96875,8.40625 8.45278,-0.38594 16.60321,-0.64579 24.34375,-0.78125 -1.58487,-6.90857 -13.75063,-7.78642 -20.375,-7.625 z" style="fill:#62e06e;fill-opacity:1;fill-rule:evenodd;stroke:none;stroke-width:0.20767665px;stroke-linecap:butt;stroke-linejoin:miter;stroke-opacity:1" inkscape:connector-curvature="0" />
      <path style="fill:#62e06e;fill-opacity:1;fill-rule:evenodd;stroke:none;stroke-width:0.20767665px;stroke-linecap:butt;stroke-linejoin:miter;stroke-opacity:1" d="m 159.98437,513.0556 c 0,0 19.56461,-2.64291 18.43134,-13.29386 -0.95253,-8.95236 -14.33938,-5.75232 -21.45211,-4.19642 0.18842,5.42101 0.10598,6.92272 -6.47801,9.39662 6.50312,10e-4 7.90363,1.88239 9.49878,8.09366 z" id="path15977" sodipodi:nodetypes="csccc" inkscape:connector-curvature="0" />
      <path sodipodi:nodetypes="csccc" id="path15979" d="m 162.14231,533.71013 c 0,0 19.56461,-2.64291 18.43134,-13.29386 -0.95253,-8.95236 -15.03413,-7.24107 -22.14686,-5.68517 0.18842,5.42101 0.80073,8.41147 -5.78326,10.88537 6.50312,10e-4 7.90363,1.88239 9.49878,8.09366 z" style="fill:#62e06e;fill-opacity:1;fill-rule:evenodd;stroke:none;stroke-width:0.20767665px;stroke-linecap:butt;stroke-linejoin:miter;stroke-opacity:1" inkscape:connector-curvature="0" />
      <path style="fill:#62e06e;fill-opacity:1;fill-rule:evenodd;stroke:none;stroke-width:0.20767665px;stroke-linecap:butt;stroke-linejoin:miter;stroke-opacity:1" d="m 161.73793,553.35464 c 0,0 19.74229,0.0327 20.06281,-10.67356 0.26941,-8.99886 -13.9142,-9.21158 -21.17216,-8.6339 -0.54793,5.39654 -0.34651,8.44239 -7.20501,10.00126 6.44293,0.88272 7.57563,2.93607 8.31436,9.3062 z" id="path15981" sodipodi:nodetypes="csccc" inkscape:connector-curvature="0" />
      <path sodipodi:nodetypes="csccc" id="path15983" d="m 160.85077,573.63589 c 0,0 19.70416,1.22681 20.67169,-9.44047 0.81323,-8.96609 -13.33154,-10.03634 -20.61116,-9.89874 -0.87334,5.35351 -0.85653,8.40597 -7.79676,9.54713 6.37774,1.27083 7.38416,3.38894 7.73623,9.79208 z" style="fill:#62e06e;fill-opacity:1;fill-rule:evenodd;stroke:none;stroke-width:0.20767665px;stroke-linecap:butt;stroke-linejoin:miter;stroke-opacity:1" inkscape:connector-curvature="0" />
      <path style="fill:#62e06e;fill-opacity:1;fill-rule:evenodd;stroke:none;stroke-width:0.20767665px;stroke-linecap:butt;stroke-linejoin:miter;stroke-opacity:1" d="m 141.03633,527.19872 c 0,0 18.22519,-4.06432 16.27702,-14.07624 -1.63748,-8.41524 -14.77082,-5.67105 -21.34745,-3.62907 0.62545,5.12667 1.4497,7.9143 -4.55265,10.78489 6.1306,-0.5163 7.60624,1.1562 9.62308,6.92042 z" id="path15987" sodipodi:nodetypes="csccc" inkscape:connector-curvature="0" />
      <path sodipodi:nodetypes="csccc" id="path15989" d="m 141.31895,546.24122 c 0,0 18.53475,-2.26703 17.57255,-12.42125 -0.80875,-8.53484 -14.14715,-7.08492 -20.89161,-5.69424 0.12235,5.16323 0.67073,8.01798 -5.58302,10.28934 6.15172,0.0842 7.45717,1.89268 8.90208,7.82615 z" style="fill:#62e06e;fill-opacity:1;fill-rule:evenodd;stroke:none;stroke-width:0.20767665px;stroke-linecap:butt;stroke-linejoin:miter;stroke-opacity:1" inkscape:connector-curvature="0" />
      <path style="fill:#62e06e;fill-opacity:1;fill-rule:evenodd;stroke:none;stroke-width:0.20767665px;stroke-linecap:butt;stroke-linejoin:miter;stroke-opacity:1" d="m 140.64248,564.70916 c 0,0 18.64962,-0.93181 18.4182,-11.12889 -0.19452,-8.57087 -13.60256,-8.08136 -20.4294,-7.178 -0.24829,5.15871 0.0939,8.04544 -6.30663,9.8624 6.12984,0.52522 7.30222,2.42267 8.31783,8.44449 z" id="path15991" sodipodi:nodetypes="csccc" inkscape:connector-curvature="0" />
      <path id="path15995" d="m 139.8125,565.5 c -0.74141,5.11119 -0.67355,8.02338 -7.21875,9.21875 1.91659,0.35158 3.20636,0.83676 4.25,1.46875 6.8258,-0.69893 14.41597,-1.29968 22.59375,-1.84375 0.31862,-8.28861 -12.81857,-9.08618 -19.625,-8.84375 z" style="fill:#62e06e;fill-opacity:1;fill-rule:evenodd;stroke:none;stroke-width:0.20767665px;stroke-linecap:butt;stroke-linejoin:miter;stroke-opacity:1" inkscape:connector-curvature="0" />
      <path style="fill:#62e06e;fill-opacity:1;fill-rule:evenodd;stroke:none;stroke-width:0.20767665px;stroke-linecap:butt;stroke-linejoin:miter;stroke-opacity:1" d="m 120.55759,539.29735 c 0,0 18.01551,-2.7125 16.73877,-12.1848 -1.07316,-7.9617 -14.04393,-6.17953 -20.58065,-4.66305 0.29109,4.82819 0.92126,7.48238 -5.10722,9.80741 6.00721,-0.1173 7.34151,1.53358 8.9491,7.04044 z" id="path15997" sodipodi:nodetypes="csccc" inkscape:connector-curvature="0" />
      <path sodipodi:nodetypes="csccc" id="path15999" d="m 120.0033,557.06167 c 0,0 18.19371,-0.95128 17.84229,-10.50277 -0.2954,-8.02827 -13.3779,-7.51333 -20.03094,-6.6384 -0.17886,4.83364 0.19074,7.53646 -6.03493,9.26545 5.99024,0.46626 7.15802,2.23884 8.22358,7.87572 z" style="fill:#62e06e;fill-opacity:1;fill-rule:evenodd;stroke:none;stroke-width:0.20767665px;stroke-linecap:butt;stroke-linejoin:miter;stroke-opacity:1" inkscape:connector-curvature="0" />
      <path style="fill:#62e06e;fill-opacity:1;fill-rule:evenodd;stroke:none;stroke-width:0.20767665px;stroke-linecap:butt;stroke-linejoin:miter;stroke-opacity:1" d="m 120.31158,575.55827 c 0,0 18.19371,-0.95128 17.84229,-10.50277 -0.2954,-8.02827 -13.3779,-7.51333 -20.03094,-6.6384 -0.17886,4.83364 0.19074,7.53646 -6.03493,9.26545 5.99024,0.46626 7.15802,2.23884 8.22358,7.87572 z" id="path16003" sodipodi:nodetypes="csccc" inkscape:connector-curvature="0" />
      <path style="fill:#62e06e;fill-opacity:1;fill-rule:evenodd;stroke:none;stroke-width:0.20767665px;stroke-linecap:butt;stroke-linejoin:miter;stroke-opacity:1" d="m 196.03125,482.84375 c -8.50678,2.19908 -16.60526,4.72212 -24.15625,7.5 4.49225,0.94642 5.69246,3.11174 6.5,8.625 0,-10e-6 19.75065,-0.57018 19.75,-11.28125 -1.2e-4,-2.09028 -0.82895,-3.63898 -2.09375,-4.84375 z" id="path16013" inkscape:connector-curvature="0" />
      <path style="fill:#62e06e;fill-opacity:1;fill-rule:evenodd;stroke:none;stroke-width:0.20767665px;stroke-linecap:butt;stroke-linejoin:miter;stroke-opacity:1" d="m 139.8125,565.5 c -0.74141,5.11119 -0.67355,8.02338 -7.21875,9.21875 1.91659,0.35158 3.20636,0.83676 4.25,1.46875 6.8258,-0.69893 14.41597,-1.29968 22.59375,-1.84375 0.31862,-8.28861 -12.81857,-9.08618 -19.625,-8.84375 z" id="path16018" inkscape:connector-curvature="0" />
      <path style="fill:#62e06e;fill-opacity:1;fill-rule:evenodd;stroke:none;stroke-width:0.20767665px;stroke-linecap:butt;stroke-linejoin:miter;stroke-opacity:1" d="m 182.96875,564.8125 c -0.64452,4.09133 -0.85507,6.81112 -3.96875,8.40625 8.45278,-0.38594 16.60321,-0.64579 24.34375,-0.78125 -1.58487,-6.90857 -13.75063,-7.78642 -20.375,-7.625 z" id="path16023" inkscape:connector-curvature="0" />
      <path style="fill:none;fill-opacity:1;fill-rule:evenodd;stroke:#3e7e42;stroke-width:2.98300004;stroke-linecap:butt;stroke-linejoin:miter;stroke-miterlimit:4;stroke-dasharray:none;stroke-opacity:1" d="m 277.9375,472.69581 c -0.38196,-0.0865 -0.76654,-0.14265 -1.15625,-0.21875 -0.45413,-0.063 -0.90584,-0.11608 -1.34375,-0.15625 -1.7146,-0.27746 -3.05479,1.38268 -4.91851,1.31371 -84.48716,-0.30568 -153.18488,34.98882 -162.42524,63.68629 -7.67125,23.8244 -18.247313,91.41314 -22.490216,113.56397 -0.785899,-0.29899 -1.641718,-0.5 -2.53125,-0.5 -4.080315,-2e-5 -7.375003,3.43524 -7.375,7.65625 -2e-6,4.22099 3.294687,7.62501 7.375,7.625 2.822088,-2e-5 5.192182,-1.68657 6.4375,-4.09375 1.101096,2.69997 3.718166,4.62501 6.8125,4.625 4.080306,-2e-5 7.406246,-3.32592 7.406246,-7.40625 0,-4.08033 -3.32594,-7.37501 -7.406246,-7.375 -0.01072,0 -0.02054,-5e-5 -0.03125,0 0.667053,-3.60975 10.758396,-60.59529 15.325656,-70.32716 3.00016,-6.39269 127.22495,-12.23076 129.13331,-6.36181" id="path16026" sodipodi:nodetypes="csccscssscssscss" inkscape:connector-curvature="0" />
      <path sodipodi:nodetypes="cssc" id="path7197" d="m 264.369,453.69048 c -10.2438,0.19699 -16.15369,8.86482 -11.42578,15.95669 4.72791,7.09187 22.85157,6.10688 25.21553,-1.18198 2.36395,-7.28886 -7.68286,-15.5627 -13.78975,-14.77471 z" style="fill:#ffffff;fill-opacity:1;fill-rule:evenodd;stroke:#000000;stroke-width:1.43499994;stroke-linecap:butt;stroke-linejoin:miter;stroke-miterlimit:4;stroke-dasharray:none;stroke-opacity:1" inkscape:connector-curvature="0" />
      <path style="fill:#000000;fill-opacity:1;fill-rule:evenodd;stroke:none;stroke-width:1px;stroke-linecap:butt;stroke-linejoin:miter;stroke-opacity:1" d="m 267.08631,465.4898 c 5.65305,-1.14065 4.41836,-4.67407 2.19782,-7.44565 -2.22053,-2.77159 -7.49266,-1.13802 -7.38277,2.16241 0.10988,3.30043 1.06667,4.84419 5.18495,5.28324 z" id="path7933" inkscape:connector-curvature="0" />
      <path id="path1323" d="m 297.07874,475.12108 c 2.17084,-10.60036 -3.61811,-15.14337 -13.02513,-15.90053 -9.40703,-0.75718 -20.9849,3.78584 -16.6432,11.35751 4.3417,7.5717 23.15575,18.17205 29.66833,4.54302 z" style="fill:#ffffff;fill-opacity:1;fill-rule:evenodd;stroke:#000000;stroke-width:1.43499994;stroke-linecap:butt;stroke-linejoin:miter;stroke-miterlimit:4;stroke-dasharray:none;stroke-opacity:1" inkscape:connector-curvature="0" />
      <path sodipodi:nodetypes="cssc" id="path7199" d="m 242.3953,460.52578 c -8.78622,5.27034 -9.59683,15.72983 -1.96596,19.52689 7.63087,3.79705 22.8589,-6.0794 21.28064,-13.57772 -1.57827,-7.49832 -14.41054,-9.67267 -19.31468,-5.94917 z" style="fill:#ffffff;fill-opacity:1;fill-rule:evenodd;stroke:#000000;stroke-width:1.43499994;stroke-linecap:butt;stroke-linejoin:miter;stroke-miterlimit:4;stroke-dasharray:none;stroke-opacity:1" inkscape:connector-curvature="0" />
      <path id="path7935" d="m 243.68431,469.83581 c 1.59818,5.5411 5.01906,4.02218 7.60017,1.58286 2.58113,-2.43931 0.52275,-7.56055 -2.7577,-7.18168 -3.28045,0.37887 -4.74098,1.45845 -4.84247,5.59882 z" style="fill:#000000;fill-opacity:1;fill-rule:evenodd;stroke:none;stroke-width:1px;stroke-linecap:butt;stroke-linejoin:miter;stroke-opacity:1" inkscape:connector-curvature="0" />
      <path sodipodi:nodetypes="czzz" id="path1321" d="m 271.68386,472.17278 c -6.15076,-5.67878 -18.81405,-9.08603 -22.43214,-2.27152 -3.61808,6.8145 -1.44724,20.44356 11.57787,19.68638 13.02512,-0.75717 17.005,-11.73609 10.85427,-17.41486 z" style="fill:#ffffff;fill-opacity:1;fill-rule:evenodd;stroke:#000000;stroke-width:1.43499994;stroke-linecap:butt;stroke-linejoin:miter;stroke-miterlimit:4;stroke-dasharray:none;stroke-opacity:1" inkscape:connector-curvature="0" />
      <path id="path7195" d="m 277.96176,469.45019 c -7.68285,0.59099 -12.60776,9.45583 -6.89487,13.39575 5.71289,3.93993 17.53267,3.93993 18.51765,-3.54593 0.98498,-7.48586 -5.3189,-10.04681 -11.62278,-9.84982 z" style="fill:#ffffff;fill-opacity:1;fill-rule:evenodd;stroke:#000000;stroke-width:1.43499994;stroke-linecap:butt;stroke-linejoin:miter;stroke-miterlimit:4;stroke-dasharray:none;stroke-opacity:1" inkscape:connector-curvature="0" />
      <path id="path7927" d="m 262.20205,471.61714 c -5.71289,-0.78798 -5.71289,2.95495 -4.53091,6.30388 1.18197,3.34894 6.69787,3.54594 7.68285,0.394 0.98498,-3.15194 0.59099,-4.92491 -3.15194,-6.69788 z" style="fill:#000000;fill-opacity:1;fill-rule:evenodd;stroke:none;stroke-width:1px;stroke-linecap:butt;stroke-linejoin:miter;stroke-opacity:1" inkscape:connector-curvature="0" />
      <path style="fill:#000000;fill-opacity:1;fill-rule:evenodd;stroke:none;stroke-width:0.7454837px;stroke-linecap:butt;stroke-linejoin:miter;stroke-opacity:1" d="m 283.40203,472.86341 c -4.42216,-0.56573 -4.42216,2.12154 -3.50722,4.52592 0.91491,2.40439 5.18459,2.54583 5.94703,0.28287 0.76243,-2.26295 0.45747,-3.53587 -2.43981,-4.80879 z" id="path7929" inkscape:connector-curvature="0" />
      <path id="path7931" d="m 287.01749,462.95586 c -5.07169,2.74518 -2.85694,5.76253 0.0775,7.76286 2.93446,2.00035 7.49765,-1.10468 6.42664,-4.22844 -1.07102,-3.12375 -2.43773,-4.3199 -6.50417,-3.53442 z" style="fill:#000000;fill-opacity:1;fill-rule:evenodd;stroke:none;stroke-width:1px;stroke-linecap:butt;stroke-linejoin:miter;stroke-opacity:1" inkscape:connector-curvature="0" />
      <g aria-label="alien technology " transform="rotate(-1.1541401,1209.156,319.47091)" style="font-style:normal;font-variant:normal;font-weight:normal;font-stretch:normal;font-size:48px;line-height:0%;font-family:'Franklin Gothic Medium';text-align:start;writing-mode:lr-tb;text-anchor:start;fill:#ffffff;fill-opacity:1;stroke:#ffffff;stroke-width:1.82500005;stroke-linecap:round;stroke-linejoin:round;stroke-miterlimit:4;stroke-dasharray:none;stroke-opacity:1" id="text3555">
        <path d="m 93.292305,728.85333 -5.027508,-0.76871 q -0.345971,-2.23421 -0.08822,-4.85031 -2.905368,4.89049 -8.720596,4.00132 -3.498403,-0.53491 -5.318143,-2.89962 -1.793029,-2.38434 -1.318337,-5.48889 1.232783,-8.06254 15.388576,-5.89809 0.556038,0.085 1.502393,0.25343 l 0.269229,-1.76078 q 0.556169,-3.63742 -4.401834,-4.39551 -4.818993,-0.73683 -6.023873,2.80139 l -4.391907,-1.35912 q 0.817045,-2.86252 3.745165,-4.3353 2.931662,-1.49596 7.936001,-0.73078 2.710684,0.41447 4.354284,1.13998 1.647143,0.70234 2.662226,1.97191 1.018626,1.24641 1.263987,2.58797 0.27207,1.32193 -0.188452,4.3338 l -1.61537,10.56472 q -0.350706,2.29365 -0.02762,4.83259 z m -4.017562,-12.80118 q -10.240361,-1.56577 -10.987824,3.32273 -0.223176,1.4596 0.636815,2.65804 0.886701,1.17881 2.971843,1.49763 3.011871,0.46053 4.831458,-1.20547 1.846297,-1.68561 2.218258,-4.11828 z" style="font-style:normal;font-variant:normal;font-weight:normal;font-stretch:normal;font-size:48px;line-height:125%;font-family:'Franklin Gothic Medium';text-align:start;writing-mode:lr-tb;text-anchor:start;fill:#ffffff;fill-opacity:1;stroke:#ffffff;stroke-width:1.82500005;stroke-linecap:round;stroke-linejoin:round;stroke-miterlimit:4;stroke-dasharray:none;stroke-opacity:1" id="path941" />
        <path d="m 104.23381,730.32209 -5.295142,-0.71909 4.305052,-31.70121 5.29515,0.71909 z" style="font-style:normal;font-variant:normal;font-weight:normal;font-stretch:normal;font-size:48px;line-height:125%;font-family:'Franklin Gothic Medium';text-align:start;writing-mode:lr-tb;text-anchor:start;fill:#ffffff;fill-opacity:1;stroke:#ffffff;stroke-width:1.82500005;stroke-linecap:round;stroke-linejoin:round;stroke-miterlimit:4;stroke-dasharray:none;stroke-opacity:1" id="path943" />
        <path d="m 119.13837,705.57665 -5.30245,-0.66311 0.68929,-5.51176 5.30244,0.66311 z m -3.28065,26.23316 -5.30245,-0.66311 2.93746,-23.48891 5.30245,0.66311 z" style="font-style:normal;font-variant:normal;font-weight:normal;font-stretch:normal;font-size:48px;line-height:125%;font-family:'Franklin Gothic Medium';text-align:start;writing-mode:lr-tb;text-anchor:start;fill:#ffffff;fill-opacity:1;stroke:#ffffff;stroke-width:1.82500005;stroke-linecap:round;stroke-linejoin:round;stroke-miterlimit:4;stroke-dasharray:none;stroke-opacity:1" id="path945" />
        <path d="m 137.97666,726.71919 4.72977,1.17077 q -1.27679,3.09174 -4.20376,4.87375 -2.92697,1.78202 -7.00483,1.34169 -4.89343,-0.52838 -7.52132,-4.13603 -2.62789,-3.60765 -2.02151,-9.22345 0.5762,-5.33617 3.95958,-8.5069 3.38338,-3.17072 8.53313,-2.61466 5.03325,0.54348 7.4105,4.28908 2.37726,3.74561 1.79352,9.15169 l -0.0887,0.60333 -16.14832,-1.74367 q -0.25916,2.40011 0.0276,3.89265 0.31004,1.49505 1.54582,2.71288 1.23577,1.21782 3.26305,1.43673 3.93805,0.42522 5.72551,-3.24786 z m 0.43364,-7.07245 q 0.25096,-2.54244 -1.09006,-4.31383 -1.31772,-1.76887 -3.53142,-2.0079 -2.19039,-0.23652 -3.82197,1.1196 -1.62906,1.33282 -2.18228,4.05478 z" style="font-style:normal;font-variant:normal;font-weight:normal;font-stretch:normal;font-size:48px;line-height:125%;font-family:'Franklin Gothic Medium';text-align:start;writing-mode:lr-tb;text-anchor:start;fill:#ffffff;fill-opacity:1;stroke:#ffffff;stroke-width:1.82500005;stroke-linecap:round;stroke-linejoin:round;stroke-miterlimit:4;stroke-dasharray:none;stroke-opacity:1" id="path947" />
        <path d="m 166.81243,736.88653 -5.32495,-0.44782 1.23939,-14.73704 q 0.19641,-2.33551 -0.77971,-3.59361 -0.97416,-1.28146 -2.49224,-1.40913 -2.0786,-0.17481 -3.79659,1.51528 -1.71799,1.6901 -2.02637,5.35684 l -1.0194,12.12127 -5.32495,-0.44783 1.98381,-23.5886 4.85785,0.40855 -0.45962,5.46508 q 3.04656,-5.74145 7.64751,-5.3545 3.10622,0.26123 5.13661,2.40768 2.05374,2.14842 1.6393,7.07634 z" style="font-style:normal;font-variant:normal;font-weight:normal;font-stretch:normal;font-size:48px;line-height:125%;font-family:'Franklin Gothic Medium';text-align:start;writing-mode:lr-tb;text-anchor:start;fill:#ffffff;fill-opacity:1;stroke:#ffffff;stroke-width:1.82500005;stroke-linecap:round;stroke-linejoin:round;stroke-miterlimit:4;stroke-dasharray:none;stroke-opacity:1" id="path949" />
        <path d="m 196.32643,734.48576 -0.22332,4.1659 q -2.41479,0.38691 -3.72541,0.31666 -2.15316,-0.11542 -3.65265,-1.04076 -1.49824,-0.94875 -2.14472,-2.46209 -0.62183,-1.53548 -0.45622,-4.6248 l 0.65614,-12.24024 -2.94889,-0.15807 0.22205,-4.14249 3.25315,0.17438 0.82143,-6.12888 4.39786,-0.16326 -0.35128,6.55309 4.75099,0.25468 -0.22206,4.14249 -4.75099,-0.25468 -0.61851,11.53813 q -0.11918,2.22337 0.63264,3.08516 0.77648,0.83964 3.02326,0.96008 0.6319,0.0339 1.33653,0.0247 z" style="font-style:normal;font-variant:normal;font-weight:normal;font-stretch:normal;font-size:48px;line-height:125%;font-family:'Franklin Gothic Medium';text-align:start;writing-mode:lr-tb;text-anchor:start;fill:#ffffff;fill-opacity:1;stroke:#ffffff;stroke-width:1.82500005;stroke-linecap:round;stroke-linejoin:round;stroke-miterlimit:4;stroke-dasharray:none;stroke-opacity:1" id="path951" />
        <path d="m 215.24171,731.82492 4.80249,0.82309 q -1.04815,3.17654 -3.83752,5.16705 -2.78937,1.99052 -6.88848,1.84845 -4.91892,-0.17048 -7.80265,-3.5771 -2.88373,-3.40661 -2.68809,-9.05166 0.18591,-5.36397 3.3293,-8.77276 3.1434,-3.40879 8.31998,-3.22938 5.05946,0.17535 7.70328,3.73781 2.64381,3.56247 2.45547,8.9967 l -0.0445,0.6082 -16.23244,-0.56259 q -0.0836,2.41262 0.3111,3.8803 0.41813,1.46849 1.73935,2.59305 1.32122,1.12456 3.35905,1.19519 3.95856,0.1372 5.47369,-3.65635 z m -0.0828,-7.08524 q 0.0651,-2.55397 -1.40145,-4.22295 -1.44308,-1.66818 -3.66831,-1.7453 -2.2018,-0.0763 -3.73025,1.39507 -1.52763,1.44795 -1.88108,4.20299 z" style="font-style:normal;font-variant:normal;font-weight:normal;font-stretch:normal;font-size:48px;line-height:125%;font-family:'Franklin Gothic Medium';text-align:start;writing-mode:lr-tb;text-anchor:start;fill:#ffffff;fill-opacity:1;stroke:#ffffff;stroke-width:1.82500005;stroke-linecap:round;stroke-linejoin:round;stroke-miterlimit:4;stroke-dasharray:none;stroke-opacity:1" id="path953" />
        <path d="m 238.91604,731.10126 4.58782,0.52364 q -0.94381,4.44216 -3.52382,6.54427 -2.58,2.10211 -6.18912,2.05896 -4.89809,-0.0586 -7.50374,-3.65248 -2.58194,-3.61707 -2.52,-8.79639 0.0639,-5.34337 2.98825,-8.80083 2.92436,-3.45747 7.72871,-3.40003 7.73382,0.0925 9.11275,8.2658 l -4.60098,0.57785 q -0.55665,-4.41323 -4.28295,-4.45778 -2.71855,-0.0325 -3.98924,2.34309 -1.24696,2.35245 -1.28732,5.72721 -0.0429,3.58568 1.1994,5.54598 1.26571,1.96059 3.56242,1.98805 3.51538,0.042 4.71782,-4.46734 z" style="font-style:normal;font-variant:normal;font-weight:normal;font-stretch:normal;font-size:48px;line-height:125%;font-family:'Franklin Gothic Medium';text-align:start;writing-mode:lr-tb;text-anchor:start;fill:#ffffff;fill-opacity:1;stroke:#ffffff;stroke-width:1.82500005;stroke-linecap:round;stroke-linejoin:round;stroke-miterlimit:4;stroke-dasharray:none;stroke-opacity:1" id="path955" />
        <path d="m 267.4286,739.63133 -5.34342,0.0594 -0.17213,-15.49123 q -0.0279,-2.50766 -1.11712,-3.50343 -1.06608,-1.01947 -2.49568,-1.00358 -2.27329,0.0253 -3.80002,1.84702 -1.52673,1.82176 -1.48064,5.96995 l 0.13645,12.28049 -5.34342,0.0594 -0.35545,-31.99021 5.34342,-0.0594 0.13854,12.46799 q 1.93529,-5.1312 6.92717,-5.18666 7.28862,-0.081 7.38158,8.28568 z" style="font-style:normal;font-variant:normal;font-weight:normal;font-stretch:normal;font-size:48px;line-height:125%;font-family:'Franklin Gothic Medium';text-align:start;writing-mode:lr-tb;text-anchor:start;fill:#ffffff;fill-opacity:1;stroke:#ffffff;stroke-width:1.82500005;stroke-linecap:round;stroke-linejoin:round;stroke-miterlimit:4;stroke-dasharray:none;stroke-opacity:1" id="path957" />
        <path d="m 293.47768,738.78216 -5.34037,0.1902 -0.5264,-14.77969 q -0.0834,-2.34226 -1.20258,-3.47502 -1.11999,-1.15618 -2.64246,-1.10195 -2.08462,0.0742 -3.58886,1.9571 -1.50425,1.88286 -1.37327,5.56022 l 0.43297,12.15635 -5.34037,0.19021 -0.84258,-23.65687 4.87191,-0.17353 0.19521,5.4809 q 2.34034,-6.0637 6.9546,-6.22805 3.11521,-0.11095 5.38702,1.77813 2.29523,1.88825 2.47125,6.83043 z" style="font-style:normal;font-variant:normal;font-weight:normal;font-stretch:normal;font-size:48px;line-height:125%;font-family:'Franklin Gothic Medium';text-align:start;writing-mode:lr-tb;text-anchor:start;fill:#ffffff;fill-opacity:1;stroke:#ffffff;stroke-width:1.82500005;stroke-linecap:round;stroke-linejoin:round;stroke-miterlimit:4;stroke-dasharray:none;stroke-opacity:1" id="path959" />
        <path d="m 309.11666,738.41452 q -5.2407,0.3124 -8.22596,-3.28978 -2.98527,-3.60218 -3.27536,-8.46854 -0.3124,-5.2407 2.52127,-8.908 2.85707,-3.6687 7.8638,-3.96716 4.74938,-0.28312 7.99309,2.92799 3.26709,3.20971 3.59066,8.63758 0.33332,5.59164 -2.64491,9.19712 -2.95623,3.5807 -7.82259,3.87079 z m -0.075,-4.4096 q 5.38107,-0.32078 4.9027,-8.34559 -0.21617,-3.62638 -1.62707,-5.63191 -1.4123,-2.02893 -4.07944,-1.86994 -2.76073,0.16457 -3.96459,2.41989 -1.20526,2.23192 -0.99188,5.81151 0.23012,3.86033 1.75521,5.8121 1.54849,1.95038 4.00507,1.80394 z" style="font-style:normal;font-variant:normal;font-weight:normal;font-stretch:normal;font-size:48px;line-height:125%;font-family:'Franklin Gothic Medium';text-align:start;writing-mode:lr-tb;text-anchor:start;fill:#ffffff;fill-opacity:1;stroke:#ffffff;stroke-width:1.82500005;stroke-linecap:round;stroke-linejoin:round;stroke-miterlimit:4;stroke-dasharray:none;stroke-opacity:1" id="path961" />
        <path d="m 330.50456,736.44128 -5.32806,0.40915 -2.4495,-31.89828 5.32806,-0.40914 z" style="font-style:normal;font-variant:normal;font-weight:normal;font-stretch:normal;font-size:48px;line-height:125%;font-family:'Franklin Gothic Medium';text-align:start;writing-mode:lr-tb;text-anchor:start;fill:#ffffff;fill-opacity:1;stroke:#ffffff;stroke-width:1.82500005;stroke-linecap:round;stroke-linejoin:round;stroke-miterlimit:4;stroke-dasharray:none;stroke-opacity:1" id="path963" />
        <path d="m 346.1482,735.58006 q -5.22707,0.49011 -8.33288,-3.00867 -3.10581,-3.49878 -3.56091,-8.35249 -0.49011,-5.22707 2.21745,-8.98844 2.7309,-3.76357 7.72462,-4.23179 4.73703,-0.44416 8.08786,2.655 3.37416,3.09697 3.88177,8.51072 0.52293,5.5771 -2.33121,9.2816 -2.83298,3.67897 -7.6867,4.13407 z m -0.22465,-4.40451 q 5.36708,-0.50324 4.6166,-8.50719 -0.33913,-3.61695 -1.8173,-5.57344 -1.48035,-1.97982 -4.14056,-1.73039 -2.75354,0.25818 -3.88016,2.55306 -1.12881,2.27155 -0.79405,5.84183 0.36101,3.8503 1.95148,5.74918 1.61379,1.89669 4.06399,1.66695 z" style="font-style:normal;font-variant:normal;font-weight:normal;font-stretch:normal;font-size:48px;line-height:125%;font-family:'Franklin Gothic Medium';text-align:start;writing-mode:lr-tb;text-anchor:start;fill:#ffffff;fill-opacity:1;stroke:#ffffff;stroke-width:1.82500005;stroke-linecap:round;stroke-linejoin:round;stroke-miterlimit:4;stroke-dasharray:none;stroke-opacity:1" id="path965" />
        <path d="m 380.35391,703.00381 0.47429,4.07404 -1.62962,0.18972 q -1.07089,0.12467 -1.85589,0.47561 -0.76172,0.34823 -1.36736,1.83448 3.05924,1.95624 3.38446,4.74988 0.36317,3.11955 -2.029,5.47447 -2.36889,2.35221 -6.67574,2.8536 -1.86243,0.21682 -4.42388,-0.0985 -1.54289,0.93469 -1.36131,2.49446 0.10028,0.86137 0.97583,1.49092 0.87554,0.62954 2.48188,0.44253 l 6.98408,-0.81306 q 3.58516,-0.41737 5.82737,1.20926 2.26277,1.60064 2.58257,4.34771 0.38756,3.32908 -2.45395,5.87789 -2.81824,2.54609 -8.87111,3.25075 -11.38406,1.32529 -12.12394,-5.03022 -0.36588,-3.14284 2.8666,-5.17086 -2.40516,-1.60766 -2.64095,-3.63305 -0.35775,-3.07299 3.17898,-5.3252 -3.48961,-1.59939 -3.89343,-5.06815 -0.34148,-2.93332 1.81518,-5.28441 2.15666,-2.3511 7.04551,-2.92025 2.23491,-0.26018 4.59657,-0.0396 0.54782,-4.61776 5.13404,-5.15168 z m -10.29754,16.53606 q 4.33013,-0.50409 3.85584,-4.57814 -0.18158,-1.55978 -1.40043,-2.50329 -1.19556,-0.94623 -3.2675,-0.70502 -2.09523,0.24392 -3.12915,1.49688 -1.01065,1.25026 -0.81551,2.92644 0.20056,1.72274 1.46596,2.66083 1.2654,0.93809 3.29079,0.7023 z m -4.47039,12.27113 q -1.01877,1.18042 -0.90494,2.15819 0.187,1.60634 2.23692,2.59467 2.05262,1.01162 6.21979,0.52649 6.12271,-0.71278 5.75683,-3.85562 -0.13551,-1.16401 -1.27416,-1.62135 -1.14135,-0.48062 -2.51489,-0.32072 l -5.63383,0.65588 q -1.60634,0.187 -3.88572,-0.13754 z" style="font-style:normal;font-variant:normal;font-weight:normal;font-stretch:normal;font-size:48px;line-height:125%;font-family:'Franklin Gothic Medium';text-align:start;writing-mode:lr-tb;text-anchor:start;fill:#ffffff;fill-opacity:1;stroke:#ffffff;stroke-width:1.82500005;stroke-linecap:round;stroke-linejoin:round;stroke-miterlimit:4;stroke-dasharray:none;stroke-opacity:1" id="path967" />
        <path d="m 401.14132,704.70139 -5.47336,27.95272 q -0.4993,2.5758 -1.77802,4.12273 -1.25232,1.56698 -3.89955,1.92906 -1.04496,0.14293 -3.06422,0.25353 l -0.57489,-4.20305 2.53747,-0.29976 q 1.67193,-0.22869 2.38523,-0.89399 0.73969,-0.64525 1.01355,-2.10205 0.27385,-1.4568 0.24209,-1.68902 -0.0191,-0.13932 -0.68457,-1.37302 l -11.0688,-20.91165 5.54988,-0.7591 7.80456,14.68721 2.78435,-16.13555 z" style="font-style:normal;font-variant:normal;font-weight:normal;font-stretch:normal;font-size:48px;line-height:125%;font-family:'Franklin Gothic Medium';text-align:start;writing-mode:lr-tb;text-anchor:start;fill:#ffffff;fill-opacity:1;stroke:#ffffff;stroke-width:1.82500005;stroke-linecap:round;stroke-linejoin:round;stroke-miterlimit:4;stroke-dasharray:none;stroke-opacity:1" id="path969" />
      </g>
      <path sodipodi:nodetypes="cs" id="path3573" d="m 157.32993,388.01687 c 82.73221,-4.31928 129.99374,-0.82426 188.21271,2.05526" style="fill:none;fill-opacity:0.75;fill-rule:evenodd;stroke:none;stroke-width:1px;stroke-linecap:butt;stroke-linejoin:miter;stroke-opacity:1" inkscape:connector-curvature="0" />
      <g aria-label="CAUTION:" transform="translate(-1.648516,-3.495025)" style="font-style:normal;font-variant:normal;font-weight:normal;font-stretch:normal;font-size:48px;line-height:0%;font-family:'Franklin Gothic Medium';text-align:start;writing-mode:lr-tb;text-anchor:start;fill:#ffffff;fill-opacity:1;stroke:#ffffff;stroke-width:1.82500005;stroke-linecap:round;stroke-linejoin:round;stroke-miterlimit:4;stroke-dasharray:none;stroke-opacity:1" id="text3575">
        <path d="m 178.22556,375.9232 5.36424,0.35203 q -0.30532,4.82262 -3.37708,8.07704 -3.04936,3.22999 -8.24752,3.4572 -4.37863,0.19139 -7.21441,-1.88989 -2.81236,-2.0823 -4.45229,-5.78766 -1.63993,-3.70536 -1.83848,-8.2479 -0.31932,-7.30553 2.94654,-12.02295 3.26485,-4.74084 9.32937,-5.00592 4.75327,-0.20776 8.04225,2.58097 3.28898,2.78872 4.34697,8.20863 l -5.31409,0.79531 q -1.7914,-7.1708 -6.82566,-6.95076 -3.23129,0.14124 -4.90223,3.2406 -1.64854,3.07492 -1.39882,8.78822 0.25382,5.80695 2.30384,8.69675 2.049,2.86639 5.21004,2.72822 2.52884,-0.11053 4.22139,-2.1786 1.69256,-2.06807 1.80594,-4.84129 z" style="" id="path895" />
        <path d="m 213.57084,386.03047 -6.16218,0.15229 -2.74211,-7.55174 -12.30093,0.30402 -2.31885,7.67682 -4.92037,0.1216 9.82351,-32.24474 7.09939,-0.17546 z m -10.56477,-11.97701 -5.0153,-14.15384 -4.30998,14.38431 z" style="" id="path897" />
        <path d="m 238.27426,353.97058 0.0599,20.5546 q 0.0122,4.17186 -0.91877,6.42458 -0.93094,2.25272 -3.62146,3.9012 -2.66715,1.62497 -6.53432,1.63624 -3.91405,0.0114 -6.44939,-1.38746 -2.5119,-1.39893 -3.62056,-3.83321 -1.10873,-2.45771 -1.1198,-6.25457 l -0.0611,-20.97648 5.88279,-0.0171 0.0599,20.5546 q 0.0123,4.21873 1.774,5.54954 1.78506,1.3073 4.1288,1.30047 2.6953,-0.008 4.30839,-1.41882 1.61301,-1.43439 1.60126,-5.46563 l -0.0599,-20.5546 z" style="" id="path899" />
        <path d="m 256.17689,386.2436 -6.18653,-0.10975 0.47974,-27.04262 -8.50648,-0.15091 0.0877,-4.94453 23.19947,0.41156 -0.0877,4.94453 -8.50648,-0.1509 z" style="" id="path901" />
        <path d="m 274.00505,386.7219 -5.76285,-0.17898 0.99317,-31.97677 5.76285,0.17899 z" style="" id="path903" />
        <path d="m 292.83621,387.94575 q -6.36903,-0.27577 -9.72137,-5.20666 -3.32892,-4.92987 -3.02475,-11.95454 0.30213,-6.97783 4.27481,-11.49771 3.9737,-4.54329 10.15541,-4.27563 6.22854,0.26969 9.63074,5.13236 3.42664,4.84026 3.12146,11.88834 -0.32039,7.39932 -4.288,11.80212 -3.94318,4.3804 -10.1483,4.11172 z m 0.24758,-4.63425 q 3.11427,0.13484 5.38002,-2.34759 2.26576,-2.48244 2.55877,-9.24953 0.23827,-5.50266 -1.40647,-8.69398 -1.64372,-3.21474 -5.39021,-3.37696 -7.39932,-0.32039 -7.91539,11.59813 -0.25042,5.78364 1.49305,8.86195 1.76789,3.0559 5.28023,3.20798 z" style="" id="path905" />
        <path d="m 336.11637,389.59189 -5.59427,-0.28572 -11.08236,-21.03016 q -0.25697,-0.48248 -0.83516,-1.56808 -0.25698,-0.48248 -0.79075,-1.51887 l -1.19548,23.40699 -4.63458,-0.2367 1.63183,-31.95055 6.3667,0.32517 10.22737,19.39067 q 0.12849,0.24124 1.86068,3.54483 l 1.1369,-22.26005 4.54096,0.23193 z" style="" id="path907" />
        <path d="m 349.40375,368.13459 -0.28847,5.82881 -5.78199,-0.28616 0.28847,-5.8288 z m -0.80285,16.22234 -0.28963,5.85221 -5.78199,-0.28616 0.28963,-5.85221 z" style="" id="path909" />
      </g>
    </g>
  </g>
</svg>
