<?xml version="1.0" encoding="UTF-8" standalone="no"?>
<svg xmlns:dc="http://purl.org/dc/elements/1.1/" xmlns:cc="http://creativecommons.org/ns#" xmlns:rdf="http://www.w3.org/1999/02/22-rdf-syntax-ns#" xmlns:svg="http://www.w3.org/2000/svg" xmlns="http://www.w3.org/2000/svg" id="svg8" version="1.1" viewBox="0 0 211.96667 132.59167" height="132.59167mm" width="211.96667mm">
  <defs id="defs2">
    <marker style="overflow:visible" id="marker2896" refX="0" refY="0" orient="auto">
      <path transform="scale(-0.6)" d="M 8.7185878,4.0337352 -2.2072895,0.01601326 8.7185884,-4.0017078 c -1.7454984,2.3720609 -1.7354408,5.6174519 -6e-7,8.035443 z" style="fill:#000000;fill-opacity:1;fill-rule:evenodd;stroke:#000000;stroke-width:0.625;stroke-linejoin:round;stroke-opacity:1" id="path2894" />
    </marker>
    <marker style="overflow:visible" id="marker2468" refX="0" refY="0" orient="auto">
      <path transform="scale(-0.6)" d="M 8.7185878,4.0337352 -2.2072895,0.01601326 8.7185884,-4.0017078 c -1.7454984,2.3720609 -1.7354408,5.6174519 -6e-7,8.035443 z" style="fill:#000000;fill-opacity:1;fill-rule:evenodd;stroke:#000000;stroke-width:0.625;stroke-linejoin:round;stroke-opacity:1" id="path2466" />
    </marker>
    <marker style="overflow:visible" id="marker2404" refX="0" refY="0" orient="auto">
      <path transform="scale(-0.6)" d="M 8.7185878,4.0337352 -2.2072895,0.01601326 8.7185884,-4.0017078 c -1.7454984,2.3720609 -1.7354408,5.6174519 -6e-7,8.035443 z" style="fill:#000000;fill-opacity:1;fill-rule:evenodd;stroke:#000000;stroke-width:0.625;stroke-linejoin:round;stroke-opacity:1" id="path2402" />
    </marker>
    <marker orient="auto" refY="0" refX="0" id="marker1981" style="overflow:visible">
      <path id="path1979" style="fill:#000000;fill-opacity:1;fill-rule:evenodd;stroke:#000000;stroke-width:0.625;stroke-linejoin:round;stroke-opacity:1" d="M 8.7185878,4.0337352 -2.2072895,0.01601326 8.7185884,-4.0017078 c -1.7454984,2.3720609 -1.7354408,5.6174519 -6e-7,8.035443 z" transform="scale(-0.6)" />
    </marker>
    <marker orient="auto" refY="0" refX="0" id="marker1499" style="overflow:visible">
      <path id="path1497" style="fill:#000000;fill-opacity:1;fill-rule:evenodd;stroke:#000000;stroke-width:0.625;stroke-linejoin:round;stroke-opacity:1" d="M 8.7185878,4.0337352 -2.2072895,0.01601326 8.7185884,-4.0017078 c -1.7454984,2.3720609 -1.7354408,5.6174519 -6e-7,8.035443 z" transform="scale(-0.6)" />
    </marker>
    <marker style="overflow:visible" id="Arrow2Lend" refX="0" refY="0" orient="auto">
      <path transform="matrix(-1.1,0,0,-1.1,-1.1,0)" d="M 8.7185878,4.0337352 -2.2072895,0.01601326 8.7185884,-4.0017078 c -1.7454984,2.3720609 -1.7354408,5.6174519 -6e-7,8.035443 z" style="fill:#000000;fill-opacity:1;fill-rule:evenodd;stroke:#000000;stroke-width:0.625;stroke-linejoin:round;stroke-opacity:1" id="path887" />
    </marker>
    <marker style="overflow:visible" id="Arrow1Lend" refX="0" refY="0" orient="auto">
      <path transform="matrix(-0.8,0,0,-0.8,-10,0)" style="fill:#000000;fill-opacity:1;fill-rule:evenodd;stroke:#000000;stroke-width:1.00000003pt;stroke-opacity:1" d="M 0,0 5,-5 -12.5,0 5,5 Z" id="path869" />
    </marker>
  </defs>
  <metadata id="metadata5">
    <rdf:RDF>
      <cc:Work rdf:about="">
        <dc:format>image/svg+xml</dc:format>
        <dc:type rdf:resource="http://purl.org/dc/dcmitype/StillImage" />
        <dc:title></dc:title>
      </cc:Work>
    </rdf:RDF>
  </metadata>
  <g id="g3014" transform="matrix(1.4306243,0,0,1.4306243,67.682841,-64.996718)">
    <text id="text825" y="62.203716" x="12.294397" style="font-style:normal;font-variant:normal;font-weight:bold;font-stretch:normal;font-size:4.23333311px;line-height:1.25;font-family:'Courier New';-inkscape-font-specification:'Courier New Bold';letter-spacing:0px;word-spacing:0px;fill:#000000;fill-opacity:1;stroke:none;stroke-width:0.26458332" xml:space="preserve"><tspan style="font-style:normal;font-variant:normal;font-weight:bold;font-stretch:normal;font-family:'Courier New';-inkscape-font-specification:'Courier New Bold';stroke-width:0.26458332" y="62.203716" x="12.294397" id="tspan823">(* (+ 1 2) 3)</tspan></text>
    <rect y="71.023613" x="19.510675" height="7.4835467" width="7.4835467" id="rect831" style="opacity:1;vector-effect:none;fill:none;fill-opacity:1;stroke:#000000;stroke-width:0.30000001;stroke-linecap:butt;stroke-linejoin:round;stroke-miterlimit:4;stroke-dasharray:none;stroke-dashoffset:0;stroke-opacity:1" />
    <rect style="opacity:1;vector-effect:none;fill:none;fill-opacity:1;stroke:#000000;stroke-width:0.30000001;stroke-linecap:butt;stroke-linejoin:round;stroke-miterlimit:4;stroke-dasharray:none;stroke-dashoffset:0;stroke-opacity:1" id="rect833" width="7.4835467" height="7.4835467" x="26.994223" y="71.023613" />
    <circle r="0.8504464" cy="74.765388" cx="23.252449" id="path835" style="opacity:1;vector-effect:none;fill:#000000;fill-opacity:1;stroke:none;stroke-width:0.30000001;stroke-linecap:butt;stroke-linejoin:round;stroke-miterlimit:4;stroke-dasharray:none;stroke-dashoffset:0;stroke-opacity:1" />
    <circle style="opacity:1;vector-effect:none;fill:#000000;fill-opacity:1;stroke:none;stroke-width:0.30000001;stroke-linecap:butt;stroke-linejoin:round;stroke-miterlimit:4;stroke-dasharray:none;stroke-dashoffset:0;stroke-opacity:1" id="circle856" cx="30.735996" cy="74.765388" r="0.8504464" />
    <g transform="translate(0,-1.6217071)" id="g2230">
      <rect y="84.921631" x="19.510675" height="7.4835467" width="7.4835467" id="rect858" style="opacity:1;vector-effect:none;fill:none;fill-opacity:1;stroke:#000000;stroke-width:0.30000001;stroke-linecap:butt;stroke-linejoin:round;stroke-miterlimit:4;stroke-dasharray:none;stroke-dashoffset:0;stroke-opacity:1" />
      <text xml:space="preserve" style="font-style:normal;font-variant:normal;font-weight:bold;font-stretch:normal;font-size:4.23333311px;line-height:1.25;font-family:'Courier New';-inkscape-font-specification:'Courier New Bold';letter-spacing:0px;word-spacing:0px;fill:#000000;fill-opacity:1;stroke:none;stroke-width:0.26458332" x="21.986376" y="90.449341" id="text862"><tspan id="tspan860" x="21.986376" y="90.449341" style="font-style:normal;font-variant:normal;font-weight:bold;font-stretch:normal;font-family:'Courier New';-inkscape-font-specification:'Courier New Bold';stroke-width:0.26458332">*</tspan></text>
    </g>
    <path id="path864" d="m 30.778527,74.76856 h 7.913087" style="fill:none;stroke:#000000;stroke-width:0.2837083px;stroke-linecap:butt;stroke-linejoin:miter;stroke-opacity:1;marker-end:url(#marker1981)" />
    <path style="fill:none;stroke:#000000;stroke-width:0.31417567px;stroke-linecap:butt;stroke-linejoin:miter;stroke-opacity:1;marker-end:url(#marker1499)" d="m 23.249276,74.67192 v 8.003021" id="path1495" />
    <g id="g2367">
      <rect y="71.023613" x="39.120537" height="7.4835467" width="7.4835467" id="rect2346" style="opacity:1;vector-effect:none;fill:none;fill-opacity:1;stroke:#000000;stroke-width:0.30000001;stroke-linecap:butt;stroke-linejoin:round;stroke-miterlimit:4;stroke-dasharray:none;stroke-dashoffset:0;stroke-opacity:1" />
      <rect style="opacity:1;vector-effect:none;fill:none;fill-opacity:1;stroke:#000000;stroke-width:0.30000001;stroke-linecap:butt;stroke-linejoin:round;stroke-miterlimit:4;stroke-dasharray:none;stroke-dashoffset:0;stroke-opacity:1" id="rect2348" width="7.4835467" height="7.4835467" x="46.604084" y="71.023613" />
      <circle r="0.8504464" cy="74.765388" cx="42.862312" id="circle2350" style="opacity:1;vector-effect:none;fill:#000000;fill-opacity:1;stroke:none;stroke-width:0.30000001;stroke-linecap:butt;stroke-linejoin:round;stroke-miterlimit:4;stroke-dasharray:none;stroke-dashoffset:0;stroke-opacity:1" />
      <circle style="opacity:1;vector-effect:none;fill:#000000;fill-opacity:1;stroke:none;stroke-width:0.30000001;stroke-linecap:butt;stroke-linejoin:round;stroke-miterlimit:4;stroke-dasharray:none;stroke-dashoffset:0;stroke-opacity:1" id="circle2352" cx="50.345856" cy="74.765388" r="0.8504464" />
      <path id="path2354" d="m 50.388388,74.76856 h 7.913087" style="fill:none;stroke:#000000;stroke-width:0.2837083px;stroke-linecap:butt;stroke-linejoin:miter;stroke-opacity:1;marker-end:url(#marker1981)" />
      <path style="fill:none;stroke:#000000;stroke-width:0.31417567px;stroke-linecap:butt;stroke-linejoin:miter;stroke-opacity:1;marker-end:url(#marker2468)" d="M 42.859137,74.67192 V 95.100908" id="path2356" />
    </g>
    <rect y="71.023613" x="58.7304" height="7.4835467" width="7.4835467" id="rect2369" style="opacity:1;vector-effect:none;fill:none;fill-opacity:1;stroke:#000000;stroke-width:0.30000001;stroke-linecap:butt;stroke-linejoin:round;stroke-miterlimit:4;stroke-dasharray:none;stroke-dashoffset:0;stroke-opacity:1" />
    <rect style="opacity:1;vector-effect:none;fill:none;fill-opacity:1;stroke:#000000;stroke-width:0.30000001;stroke-linecap:butt;stroke-linejoin:round;stroke-miterlimit:4;stroke-dasharray:none;stroke-dashoffset:0;stroke-opacity:1" id="rect2371" width="7.4835467" height="7.4835467" x="66.213943" y="71.023613" />
    <circle r="0.8504464" cy="74.765388" cx="62.472176" id="circle2373" style="opacity:1;vector-effect:none;fill:#000000;fill-opacity:1;stroke:none;stroke-width:0.30000001;stroke-linecap:butt;stroke-linejoin:round;stroke-miterlimit:4;stroke-dasharray:none;stroke-dashoffset:0;stroke-opacity:1" />
    <path style="fill:none;stroke:#000000;stroke-width:0.31417567px;stroke-linecap:butt;stroke-linejoin:miter;stroke-opacity:1;marker-end:url(#marker1499)" d="m 62.469,74.67192 v 8.003021" id="path2379" />
    <g id="g2391" transform="translate(39.219724,-1.6217071)">
      <rect style="opacity:1;vector-effect:none;fill:none;fill-opacity:1;stroke:#000000;stroke-width:0.30000001;stroke-linecap:butt;stroke-linejoin:round;stroke-miterlimit:4;stroke-dasharray:none;stroke-dashoffset:0;stroke-opacity:1" id="rect2385" width="7.4835467" height="7.4835467" x="19.510675" y="84.921631" />
      <text id="text2389" y="90.034897" x="22.059757" style="font-style:normal;font-variant:normal;font-weight:bold;font-stretch:normal;font-size:4.23333311px;line-height:1.25;font-family:'Courier New';-inkscape-font-specification:'Courier New Bold';letter-spacing:0px;word-spacing:0px;fill:#000000;fill-opacity:1;stroke:none;stroke-width:0.26458332" xml:space="preserve"><tspan style="font-style:normal;font-variant:normal;font-weight:bold;font-stretch:normal;font-family:'Courier New';-inkscape-font-specification:'Courier New Bold';stroke-width:0.26458332" y="90.034897" x="22.059757" id="tspan2387">3</tspan></text>
    </g>
    <path id="path2393" d="m 66.213947,78.507155 7.483546,-7.483544" style="fill:none;stroke:#000000;stroke-width:0.26458332px;stroke-linecap:butt;stroke-linejoin:miter;stroke-opacity:1" />
    <g transform="translate(0,24.702626)" id="g2462">
      <rect style="opacity:1;vector-effect:none;fill:none;fill-opacity:1;stroke:#000000;stroke-width:0.30000001;stroke-linecap:butt;stroke-linejoin:round;stroke-miterlimit:4;stroke-dasharray:none;stroke-dashoffset:0;stroke-opacity:1" id="rect2448" width="7.4835467" height="7.4835467" x="39.120537" y="71.023613" />
      <rect y="71.023613" x="46.604084" height="7.4835467" width="7.4835467" id="rect2450" style="opacity:1;vector-effect:none;fill:none;fill-opacity:1;stroke:#000000;stroke-width:0.30000001;stroke-linecap:butt;stroke-linejoin:round;stroke-miterlimit:4;stroke-dasharray:none;stroke-dashoffset:0;stroke-opacity:1" />
      <circle style="opacity:1;vector-effect:none;fill:#000000;fill-opacity:1;stroke:none;stroke-width:0.30000001;stroke-linecap:butt;stroke-linejoin:round;stroke-miterlimit:4;stroke-dasharray:none;stroke-dashoffset:0;stroke-opacity:1" id="circle2452" cx="42.862312" cy="74.765388" r="0.8504464" />
      <circle r="0.8504464" cy="74.765388" cx="50.345856" id="circle2454" style="opacity:1;vector-effect:none;fill:#000000;fill-opacity:1;stroke:none;stroke-width:0.30000001;stroke-linecap:butt;stroke-linejoin:round;stroke-miterlimit:4;stroke-dasharray:none;stroke-dashoffset:0;stroke-opacity:1" />
      <path style="fill:none;stroke:#000000;stroke-width:0.2837083px;stroke-linecap:butt;stroke-linejoin:miter;stroke-opacity:1;marker-end:url(#marker1981)" d="m 50.388388,74.76856 h 7.913087" id="path2456" />
      <path id="path2458" d="m 42.859137,74.67192 v 8.003021" style="fill:none;stroke:#000000;stroke-width:0.31417567px;stroke-linecap:butt;stroke-linejoin:miter;stroke-opacity:1;marker-end:url(#marker1499)" />
    </g>
    <g id="g2842" transform="translate(19.609861,23.080919)">
      <rect style="opacity:1;vector-effect:none;fill:none;fill-opacity:1;stroke:#000000;stroke-width:0.30000001;stroke-linecap:butt;stroke-linejoin:round;stroke-miterlimit:4;stroke-dasharray:none;stroke-dashoffset:0;stroke-opacity:1" id="rect2836" width="7.4835467" height="7.4835467" x="19.510675" y="84.921631" />
      <text id="text2840" y="89.866432" x="21.982243" style="font-style:normal;font-variant:normal;font-weight:bold;font-stretch:normal;font-size:4.23333311px;line-height:1.25;font-family:'Courier New';-inkscape-font-specification:'Courier New Bold';letter-spacing:0px;word-spacing:0px;fill:#000000;fill-opacity:1;stroke:none;stroke-width:0.26458332" xml:space="preserve"><tspan style="font-style:normal;font-variant:normal;font-weight:bold;font-stretch:normal;font-family:'Courier New';-inkscape-font-specification:'Courier New Bold';stroke-width:0.26458332" y="89.866432" x="21.982243" id="tspan2838">+</tspan></text>
    </g>
    <g id="g2858" transform="translate(19.759862,24.702626)">
      <rect y="71.023613" x="39.120537" height="7.4835467" width="7.4835467" id="rect2844" style="opacity:1;vector-effect:none;fill:none;fill-opacity:1;stroke:#000000;stroke-width:0.30000001;stroke-linecap:butt;stroke-linejoin:round;stroke-miterlimit:4;stroke-dasharray:none;stroke-dashoffset:0;stroke-opacity:1" />
      <rect style="opacity:1;vector-effect:none;fill:none;fill-opacity:1;stroke:#000000;stroke-width:0.30000001;stroke-linecap:butt;stroke-linejoin:round;stroke-miterlimit:4;stroke-dasharray:none;stroke-dashoffset:0;stroke-opacity:1" id="rect2846" width="7.4835467" height="7.4835467" x="46.604084" y="71.023613" />
      <circle r="0.8504464" cy="74.765388" cx="42.862312" id="circle2848" style="opacity:1;vector-effect:none;fill:#000000;fill-opacity:1;stroke:none;stroke-width:0.30000001;stroke-linecap:butt;stroke-linejoin:round;stroke-miterlimit:4;stroke-dasharray:none;stroke-dashoffset:0;stroke-opacity:1" />
      <circle style="opacity:1;vector-effect:none;fill:#000000;fill-opacity:1;stroke:none;stroke-width:0.30000001;stroke-linecap:butt;stroke-linejoin:round;stroke-miterlimit:4;stroke-dasharray:none;stroke-dashoffset:0;stroke-opacity:1" id="circle2850" cx="50.345856" cy="74.765388" r="0.8504464" />
      <path id="path2852" d="m 50.388388,74.76856 h 7.913087" style="fill:none;stroke:#000000;stroke-width:0.2837083px;stroke-linecap:butt;stroke-linejoin:miter;stroke-opacity:1;marker-end:url(#marker1981)" />
      <path style="fill:none;stroke:#000000;stroke-width:0.31417567px;stroke-linecap:butt;stroke-linejoin:miter;stroke-opacity:1;marker-end:url(#marker1499)" d="m 42.859137,74.67192 v 8.003021" id="path2854" />
    </g>
    <g transform="translate(39.369723,23.080919)" id="g2866">
      <rect y="84.921631" x="19.510675" height="7.4835467" width="7.4835467" id="rect2860" style="opacity:1;vector-effect:none;fill:none;fill-opacity:1;stroke:#000000;stroke-width:0.30000001;stroke-linecap:butt;stroke-linejoin:round;stroke-miterlimit:4;stroke-dasharray:none;stroke-dashoffset:0;stroke-opacity:1" />
      <text xml:space="preserve" style="font-style:normal;font-variant:normal;font-weight:bold;font-stretch:normal;font-size:4.23333311px;line-height:1.25;font-family:'Courier New';-inkscape-font-specification:'Courier New Bold';letter-spacing:0px;word-spacing:0px;fill:#000000;fill-opacity:1;stroke:none;stroke-width:0.26458332" x="21.979141" y="90.034897" id="text2864"><tspan id="tspan2862" x="21.979141" y="90.034897" style="font-style:normal;font-variant:normal;font-weight:bold;font-stretch:normal;font-family:'Courier New';-inkscape-font-specification:'Courier New Bold';stroke-width:0.26458332">1</tspan></text>
    </g>
    <g transform="translate(39.369725,24.702626)" id="g2882">
      <rect style="opacity:1;vector-effect:none;fill:none;fill-opacity:1;stroke:#000000;stroke-width:0.30000001;stroke-linecap:butt;stroke-linejoin:round;stroke-miterlimit:4;stroke-dasharray:none;stroke-dashoffset:0;stroke-opacity:1" id="rect2868" width="7.4835467" height="7.4835467" x="39.120537" y="71.023613" />
      <rect y="71.023613" x="46.604084" height="7.4835467" width="7.4835467" id="rect2870" style="opacity:1;vector-effect:none;fill:none;fill-opacity:1;stroke:#000000;stroke-width:0.30000001;stroke-linecap:butt;stroke-linejoin:round;stroke-miterlimit:4;stroke-dasharray:none;stroke-dashoffset:0;stroke-opacity:1" />
      <circle style="opacity:1;vector-effect:none;fill:#000000;fill-opacity:1;stroke:none;stroke-width:0.30000001;stroke-linecap:butt;stroke-linejoin:round;stroke-miterlimit:4;stroke-dasharray:none;stroke-dashoffset:0;stroke-opacity:1" id="circle2872" cx="42.862312" cy="74.765388" r="0.8504464" />
      <path id="path2878" d="m 42.859137,74.67192 v 8.003021" style="fill:none;stroke:#000000;stroke-width:0.31417567px;stroke-linecap:butt;stroke-linejoin:miter;stroke-opacity:1;marker-end:url(#marker1499)" />
    </g>
    <g id="g2890" transform="translate(58.979586,23.080919)">
      <rect style="opacity:1;vector-effect:none;fill:none;fill-opacity:1;stroke:#000000;stroke-width:0.30000001;stroke-linecap:butt;stroke-linejoin:round;stroke-miterlimit:4;stroke-dasharray:none;stroke-dashoffset:0;stroke-opacity:1" id="rect2884" width="7.4835467" height="7.4835467" x="19.510675" y="84.921631" />
      <text id="text2888" y="90.034897" x="21.979141" style="font-style:normal;font-variant:normal;font-weight:bold;font-stretch:normal;font-size:4.23333311px;line-height:1.25;font-family:'Courier New';-inkscape-font-specification:'Courier New Bold';letter-spacing:0px;word-spacing:0px;fill:#000000;fill-opacity:1;stroke:none;stroke-width:0.26458332" xml:space="preserve"><tspan style="font-style:normal;font-variant:normal;font-weight:bold;font-stretch:normal;font-family:'Courier New';-inkscape-font-specification:'Courier New Bold';stroke-width:0.26458332" y="90.034897" x="21.979141" id="tspan2886">2</tspan></text>
    </g>
    <path style="fill:none;stroke:#000000;stroke-width:0.26458332px;stroke-linecap:butt;stroke-linejoin:miter;stroke-opacity:1" d="m 86.030265,103.26624 7.483546,-7.483543" id="path2892" />
  </g>
  <g id="text953" style="font-style:normal;font-variant:normal;font-weight:bold;font-stretch:normal;font-size:13.94215393px;line-height:1.25;font-family:'Alte Haas Grotesk';-inkscape-font-specification:'Alte Haas Grotesk Bold';letter-spacing:0px;word-spacing:0px;fill:#000000;fill-opacity:1;stroke:none;stroke-width:0.87138462" aria-label="PARSER
LISP-a
W JAVASCRIPT">
    <path id="path1001" style="font-style:normal;font-variant:normal;font-weight:bold;font-stretch:normal;font-family:'Alte Haas Grotesk';-inkscape-font-specification:'Alte Haas Grotesk Bold';stroke-width:0.87138462" d="m 18.318105,66.911996 q 0.32067,0.446149 0.460091,0.989893 0.153364,0.543744 0.111537,1.310563 -0.02788,0.306727 -0.09759,0.571628 -0.06971,0.250959 -0.167306,0.474033 -0.02788,0.05577 -0.05577,0.111537 -0.01394,0.04183 -0.04183,0.0976 -0.05577,0.09759 -0.111537,0.19519 -0.04183,0.08365 -0.111537,0.167306 -0.278843,0.39038 -0.683166,0.641339 -0.39038,0.237016 -0.892297,0.404322 -0.153364,0.05577 -0.32067,0.06971 -0.167306,0.01394 -0.334612,0.05577 -0.08365,0.01394 -0.167306,0.01394 -0.08365,0 -0.167305,0.01394 h -0.571629 -1.171141 q -0.181248,0 -0.39038,0 -0.19519,0 -0.306727,0.08365 -0.139422,0.09759 -0.139422,0.348554 0,0.237016 0,0.474033 v 1.840364 q 0,0.167306 0,0.362496 0.01394,0.19519 -0.05577,0.306727 -0.05577,0.0976 -0.250959,0.153364 -0.0976,0.02788 -0.209133,0.01394 -0.111537,-0.01394 -0.223074,-0.01394 h -0.808645 q -0.153364,0 -0.292785,0 -0.12548,-0.01394 -0.209133,-0.08365 -0.08365,-0.06971 -0.0976,-0.209132 -0.01394,-0.153364 -0.01394,-0.306727 v -8.337408 q 0,-0.195191 -0.01394,-0.460092 0,-0.2649 0.06971,-0.376438 0.05577,-0.08365 0.209132,-0.139421 0.02788,-0.01394 0.05577,0 0.04183,0 0.06971,-0.01394 h 4.029282 q 0.125479,0 0.250959,0 0.125479,-0.01394 0.237016,0.01394 h 0.06971 q 0.06971,0.02788 0.153364,0.02788 0.08365,0 0.153364,0.02788 0.06971,0.01394 0.125479,0.01394 0.05577,0 0.125479,0.02788 0.223075,0.06971 0.446149,0.139421 0.223075,0.05577 0.418265,0.167306 0.06971,0.05577 0.153364,0.09759 0.08365,0.04183 0.167305,0.111538 0.06971,0.04183 0.111538,0.09759 0.05577,0.04183 0.125479,0.09759 l 0.08365,0.08365 q 0.167306,0.167305 0.278843,0.334611 z m -1.533637,2.286514 q 0.02788,-0.153364 0.01394,-0.376439 0,-0.237016 -0.04183,-0.39038 -0.08365,-0.306727 -0.209132,-0.487975 -0.12548,-0.181248 -0.376439,-0.334612 -0.209132,-0.125479 -0.515859,-0.181248 -0.306728,-0.06971 -0.669224,-0.08365 -0.348554,-0.01394 -0.724992,0 -0.376438,0 -0.71105,0 -0.04183,0.01394 -0.08365,0.02788 -0.02788,0 -0.06971,0 -0.139422,0.05577 -0.181248,0.167306 -0.05577,0.111537 -0.05577,0.306728 0,0.181248 0,0.334611 v 1.324505 q 0,0.167306 0,0.376438 0,0.19519 0.06971,0.306727 0.05577,0.08365 0.167306,0.12548 0.111537,0.04183 0.250959,0.05577 0.139421,0 0.292785,0 0.167306,-0.01394 0.306727,-0.01394 0.738934,0 1.352389,-0.06971 0.613455,-0.06971 0.934124,-0.487976 0.08365,-0.125479 0.139422,-0.264901 0.05577,-0.153363 0.111537,-0.334611 z" />
    <path id="path1003" style="font-style:normal;font-variant:normal;font-weight:bold;font-stretch:normal;font-family:'Alte Haas Grotesk';-inkscape-font-specification:'Alte Haas Grotesk Bold';stroke-width:0.87138462" d="m 27.69769,74.942677 q 0.01394,0.05577 0.04183,0.139421 0.04183,0.08365 0.05577,0.181248 0.02788,0.08365 0.01394,0.167306 -0.01394,0.08365 -0.09759,0.12548 -0.111537,0.06971 -0.376438,0.05577 -0.250959,-0.01394 -0.418265,-0.01394 h -0.655281 q -0.111537,0 -0.209133,0.01394 -0.08365,0 -0.167305,-0.02788 -0.153364,-0.04183 -0.223075,-0.167306 -0.06971,-0.111537 -0.111537,-0.237016 -0.02788,-0.12548 -0.08365,-0.250959 -0.06971,-0.223075 -0.153364,-0.446149 -0.06971,-0.223075 -0.153363,-0.432207 -0.04183,-0.125479 -0.08365,-0.223074 -0.02788,-0.111538 -0.06971,-0.195191 -0.04183,-0.08365 -0.125479,-0.139421 -0.08365,-0.06971 -0.223075,-0.09759 -0.06971,0 -0.139421,0 -0.05577,-0.01394 -0.12548,-0.01394 h -2.20286 q -0.237017,0 -0.51586,0 -0.264901,-0.01394 -0.418265,0.09759 -0.111537,0.08365 -0.153363,0.223074 -0.04183,0.139422 -0.0976,0.278843 -0.111538,0.237017 -0.19519,0.501918 -0.06971,0.250959 -0.167306,0.501917 -0.05577,0.139422 -0.111538,0.292786 -0.04183,0.153363 -0.153363,0.237016 -0.06971,0.05577 -0.209133,0.08365 -0.125479,0.01394 -0.292785,0.01394 -0.153363,0 -0.320669,0 -0.167306,-0.01394 -0.292786,-0.01394 -0.181248,0 -0.446148,0.01394 -0.250959,0 -0.362496,-0.06971 -0.06971,-0.04183 -0.08365,-0.12548 0,-0.08365 0.01394,-0.167306 0.02788,-0.09759 0.05577,-0.181248 0.02789,-0.08365 0.05577,-0.139421 0.139422,-0.32067 0.250959,-0.655281 0.125479,-0.334612 0.250959,-0.655282 0.05577,-0.111537 0.08365,-0.223074 0.02789,-0.111537 0.08365,-0.223075 0.111538,-0.292785 0.223075,-0.599512 0.111537,-0.306728 0.223074,-0.599513 0.111538,-0.278843 0.209133,-0.543744 0.09759,-0.278843 0.209132,-0.557686 0.320669,-0.766818 0.58557,-1.547579 0.278843,-0.780761 0.599513,-1.547579 0.02788,-0.06971 0.04183,-0.12548 0.01394,-0.05577 0.04183,-0.125479 0.111537,-0.292785 0.223074,-0.599513 0.111538,-0.306727 0.237017,-0.599512 0.06971,-0.153364 0.111537,-0.306728 0.05577,-0.167305 0.181248,-0.2649 0.06971,-0.04183 0.181248,-0.06971 0.02788,-0.01394 0.05577,0 0.02788,0 0.05577,-0.01394 h 1.226909 q 0.153364,0 0.306727,0 0.167306,-0.01394 0.264901,0.05577 0.153364,0.08365 0.195191,0.250959 0.05577,0.153364 0.125479,0.32067 0.09759,0.237016 0.181248,0.474033 0.08365,0.223074 0.181248,0.460091 0.02788,0.08365 0.05577,0.167306 0.02788,0.08365 0.05577,0.167306 0.111537,0.278843 0.209132,0.557686 0.0976,0.264901 0.209133,0.543744 0.278843,0.697107 0.515859,1.408157 0.250959,0.71105 0.543744,1.408158 0.02789,0.05577 0.02789,0.111537 0.01394,0.04183 0.04183,0.09759 0.08365,0.223075 0.167306,0.446149 0.08365,0.223074 0.167306,0.446149 0.05577,0.111537 0.08365,0.223074 0.02788,0.09759 0.06971,0.209133 0.181248,0.446149 0.334611,0.892298 0.153364,0.446148 0.334612,0.878355 0.02788,0.04183 0.02788,0.08365 0,0.02788 0.02789,0.06971 z m -3.611018,-3.192753 q 0.181248,-0.06971 0.167306,-0.237017 -0.01394,-0.167306 -0.08365,-0.320669 -0.02788,-0.05577 -0.02788,-0.0976 0,-0.05577 -0.02788,-0.111537 -0.181248,-0.474033 -0.334612,-0.962008 -0.153363,-0.487976 -0.348553,-0.975951 -0.02789,-0.06971 -0.05577,-0.167306 -0.02788,-0.111537 -0.06971,-0.19519 -0.04183,-0.09759 -0.09759,-0.167306 -0.05577,-0.06971 -0.139421,-0.06971 -0.02789,0.02788 -0.05577,0.04183 -0.02788,0.01394 -0.05577,0.04183 -0.111537,0.139422 -0.167306,0.334612 -0.04183,0.19519 -0.111537,0.376438 -0.167306,0.39038 -0.306727,0.794703 -0.12548,0.404322 -0.278843,0.808645 -0.05577,0.139421 -0.09759,0.278843 -0.04183,0.125479 -0.08365,0.278843 -0.04183,0.111537 0.01394,0.250959 0.06971,0.09759 0.223074,0.111537 0.167306,0.01394 0.334612,0.01394 h 1.059604 q 0.125479,0 0.278843,0 0.153364,0 0.264901,-0.02788 z" />
    <path id="path1005" style="font-style:normal;font-variant:normal;font-weight:bold;font-stretch:normal;font-family:'Alte Haas Grotesk';-inkscape-font-specification:'Alte Haas Grotesk Bold';stroke-width:0.87138462" d="m 37.213864,75.291231 q 0.02788,0.08365 -0.01394,0.153363 -0.02788,0.06971 -0.06971,0.0976 -0.08365,0.06971 -0.237017,0.06971 -0.139421,-0.01394 -0.292785,-0.01394 H 35.83359 q -0.223074,0 -0.39038,-0.01394 -0.167306,-0.02788 -0.250959,-0.167306 -0.111537,-0.181248 -0.125479,-0.446149 -0.01394,-0.264901 -0.06971,-0.501917 0,-0.05577 -0.01394,-0.09759 0,-0.05577 0,-0.09759 -0.04183,-0.167306 -0.04183,-0.348554 0,-0.19519 -0.02789,-0.348554 -0.01394,-0.04183 -0.01394,-0.12548 -0.02788,-0.153363 -0.05577,-0.306727 -0.01394,-0.167306 -0.05577,-0.320669 -0.111537,-0.32067 -0.264901,-0.571629 -0.153364,-0.250959 -0.432207,-0.376438 -0.06971,-0.02788 -0.139421,-0.04183 -0.06971,-0.01394 -0.153364,-0.04183 -0.250959,-0.08365 -0.58557,-0.08365 -0.32067,0 -0.64134,0 H 31.42787 q -0.111537,0.02789 -0.19519,0.04183 -0.08365,0.01394 -0.139422,0.08365 -0.111537,0.139421 -0.09759,0.432206 0.01394,0.292786 0.01394,0.529802 v 1.784596 q 0,0.111537 -0.01394,0.237017 0,0.111537 0,0.223074 0,0.111537 0,0.209132 0,0.08365 -0.02788,0.153364 -0.04183,0.125479 -0.167306,0.167306 -0.06971,0.02788 -0.167306,0.02788 -0.0976,0 -0.209132,0 h -0.627397 q -0.223075,0 -0.474033,0.01394 -0.250959,0 -0.376439,-0.0976 -0.111537,-0.06971 -0.111537,-0.250959 0,-0.19519 0,-0.376438 v -8.476829 q 0,-0.153364 -0.01394,-0.32067 0,-0.167306 0.06971,-0.264901 0.05577,-0.08365 0.209132,-0.139421 0.02788,-0.01394 0.05577,0 0.04183,0 0.06971,-0.01394 h 4.740332 q 0.223074,0 0.418264,0.01394 0.209133,0 0.390381,0.04183 0.06971,0.02788 0.139421,0.02788 0.08365,0 0.153364,0.02788 0.09759,0.02788 0.19519,0.05577 0.0976,0.02789 0.19519,0.06971 0.348554,0.153364 0.641339,0.376438 0.292786,0.223075 0.487976,0.51586 0.05577,0.06971 0.08365,0.153364 0.04183,0.06971 0.0976,0.139421 0.111537,0.19519 0.167306,0.404323 0.05577,0.209132 0.125479,0.460091 0.01394,0.05577 0,0.111537 0,0.05577 0.02788,0.111537 v 0.12548 q 0.02789,0.111537 0.01394,0.278843 -0.01394,0.153363 -0.04183,0.250959 -0.02788,0.111537 -0.02788,0.209132 0,0.08365 -0.02788,0.181248 -0.06971,0.209132 -0.139421,0.404322 -0.06971,0.181248 -0.181248,0.348554 -0.02788,0.04183 -0.06971,0.09759 -0.04183,0.04183 -0.06971,0.08365 -0.04183,0.05577 -0.09759,0.111537 -0.04183,0.05577 -0.0976,0.09759 -0.08365,0.06971 -0.167306,0.139422 -0.08365,0.06971 -0.181248,0.139422 -0.05577,0.04183 -0.111537,0.09759 -0.05577,0.04183 -0.08365,0.111537 -0.02788,0.08365 0.02788,0.139421 0.05577,0.05577 0.0976,0.08365 0.139421,0.111538 0.278843,0.223075 0.139421,0.111537 0.237016,0.264901 0.167306,0.237016 0.264901,0.487975 0.0976,0.250959 0.181248,0.571628 0.02788,0.12548 0.02788,0.264901 0.01394,0.139422 0.04183,0.264901 0,0.08365 0,0.167306 0.01394,0.06971 0.01394,0.153364 0.01394,0.05577 0,0.125479 0,0.05577 0.01394,0.12548 0.01394,0.05577 0,0.111537 0,0.05577 0.01394,0.125479 0.02788,0.139422 0.02788,0.292785 0,0.153364 0.02788,0.292786 l 0.04183,0.250958 q 0.02789,0.12548 0.05577,0.250959 0.02788,0.12548 0.05577,0.237017 z m -2.300456,-6.287912 q 0.02789,-0.153363 0,-0.376438 -0.01394,-0.223074 -0.04183,-0.334611 -0.02788,-0.05577 -0.02788,-0.0976 0,-0.04183 -0.02789,-0.08365 -0.167306,-0.432207 -0.613455,-0.627397 -0.237016,-0.111538 -0.543744,-0.12548 -0.306727,-0.01394 -0.641339,-0.01394 h -1.617289 q -0.02788,0.02788 -0.05577,0.02788 -0.02788,-0.01394 -0.05577,-0.01394 -0.167306,0.04183 -0.223074,0.139422 -0.06971,0.111537 -0.06971,0.292785 0.01394,0.167306 0.01394,0.334612 v 1.29662 q 0,0.167306 0,0.334612 0,0.167306 0.06971,0.264901 0.05577,0.08365 0.181248,0.111537 0.125479,0.02788 0.278843,0.04183 0.153364,0.01394 0.32067,0.01394 0.167305,-0.01394 0.292785,-0.01394 h 0.822587 q 0.0976,0 0.209132,0.01394 0.111537,0 0.19519,-0.02788 h 0.181248 q 0.111538,-0.02788 0.209133,-0.02788 0.111537,0 0.209132,-0.02788 0.237017,-0.06971 0.418265,-0.181248 0.181248,-0.111538 0.306727,-0.292786 0.08365,-0.125479 0.125479,-0.278843 0.04183,-0.153363 0.08365,-0.348554 z" />
    <path id="path1007" style="font-style:normal;font-variant:normal;font-weight:bold;font-stretch:normal;font-family:'Alte Haas Grotesk';-inkscape-font-specification:'Alte Haas Grotesk Bold';stroke-width:0.87138462" d="m 42.18642,65.462012 q 2.704777,-0.04183 3.722555,1.603348 0.139421,0.223074 0.209132,0.460091 0.08365,0.237017 0.153364,0.51586 0.02788,0.111537 0.01394,0.264901 0,0.139421 -0.05577,0.209132 -0.06971,0.08365 -0.19519,0.111537 -0.125479,0.01394 -0.278843,0.01394 h -0.878356 q -0.125479,0 -0.250959,0 -0.125479,0 -0.209132,-0.02788 -0.167306,-0.06971 -0.209132,-0.223074 -0.04183,-0.153364 -0.111537,-0.306728 -0.05577,-0.139421 -0.153364,-0.292785 -0.09759,-0.153364 -0.209132,-0.237017 -0.195191,-0.139421 -0.376439,-0.237016 -0.167305,-0.06971 -0.418264,-0.111537 -0.237017,-0.05577 -0.501918,-0.06971 -0.250958,-0.01394 -0.501917,0.01394 -0.250959,0.02788 -0.446149,0.111537 -0.32067,0.139422 -0.501918,0.334612 -0.167306,0.181248 -0.237016,0.557686 -0.02788,0.09759 -0.01394,0.223074 0.01394,0.111538 0.04183,0.181248 0.111537,0.292786 0.306727,0.418265 0.209133,0.111537 0.487976,0.223075 0.153363,0.06971 0.306727,0.111537 0.167306,0.02788 0.334612,0.08365 0.376438,0.125479 0.766818,0.223074 0.404323,0.08365 0.794703,0.19519 0.06971,0.02788 0.139422,0.02788 0.06971,0 0.139421,0.02788 0.278843,0.09759 0.571628,0.181248 0.306728,0.08365 0.543744,0.237017 0.376439,0.237016 0.64134,0.474033 0.278843,0.237016 0.515859,0.613455 0.06971,0.111537 0.111537,0.250958 0.05577,0.139422 0.111538,0.278843 0.01394,0.04183 0.01394,0.08365 0,0.02788 0.01394,0.05577 0.05577,0.223074 0.05577,0.557686 0.02788,0.06971 0,0.139422 v 0.250958 q -0.02788,0.153364 -0.05577,0.292786 -0.01394,0.139421 -0.05577,0.278843 -0.08365,0.250958 -0.181248,0.460091 -0.09759,0.209132 -0.237016,0.404322 -0.05577,0.06971 -0.111537,0.12548 -0.05577,0.04183 -0.0976,0.111537 -0.06971,0.08365 -0.153363,0.167306 -0.08365,0.06971 -0.181248,0.139421 -0.06971,0.05577 -0.153364,0.111537 -0.06971,0.05577 -0.153364,0.111538 -0.237016,0.153363 -0.501917,0.250958 -0.250959,0.0976 -0.529802,0.195191 -0.19519,0.06971 -0.404322,0.08365 -0.209133,0.02788 -0.418265,0.06971 -0.09759,0.02788 -0.19519,0.01394 -0.08365,0 -0.167306,0.02788 h -0.111537 q -0.02788,0 -0.08365,-0.01394 -0.04183,0 -0.06971,0.01394 -0.06971,0.01394 -0.237017,0.01394 -0.167305,0 -0.237016,-0.01394 h -0.139422 q -0.09759,-0.02788 -0.209132,-0.02788 -0.09759,0.01394 -0.181248,-0.01394 -0.06971,0 -0.125479,-0.01394 -0.05577,0 -0.12548,-0.01394 -0.167306,-0.04183 -0.348554,-0.06971 -0.181248,-0.02788 -0.334611,-0.08365 -0.683166,-0.223074 -1.199026,-0.557686 -0.515859,-0.348554 -0.864413,-0.90624 -0.223075,-0.334612 -0.348554,-0.794703 -0.02788,-0.08365 -0.04183,-0.167305 0,-0.08365 -0.02788,-0.181248 -0.02788,-0.111538 -0.04183,-0.264901 -0.01394,-0.167306 0.05577,-0.250959 0.06971,-0.111537 0.19519,-0.12548 0.139422,-0.02788 0.306728,-0.02788 h 0.878356 q 0.111537,0 0.237016,0 0.12548,0 0.223075,0.04183 0.153363,0.06971 0.181248,0.237016 0.02788,0.153364 0.0976,0.32067 0.05577,0.167306 0.139421,0.306727 0.08365,0.139422 0.181248,0.264901 0.06971,0.08365 0.153364,0.153364 0.08365,0.06971 0.167306,0.125479 0.306727,0.19519 0.752876,0.32067 0.09759,0.02788 0.181248,0.02788 0.09759,0 0.209132,0.02788 h 0.06971 q 0.111537,0.02788 0.306728,0.02788 0.19519,0 0.306727,-0.02788 0.04183,-0.01394 0.139422,-0.01394 0.06971,-0.01394 0.139421,-0.01394 0.08365,-0.01394 0.153364,-0.04183 0.474033,-0.12548 0.752876,-0.334612 0.278843,-0.209132 0.39038,-0.697108 0.02789,-0.09759 0,-0.223074 -0.01394,-0.12548 -0.04183,-0.19519 -0.139422,-0.376439 -0.474033,-0.585571 -0.04183,-0.02788 -0.153364,-0.08365 -0.209132,-0.125479 -0.474033,-0.19519 -0.250959,-0.08365 -0.501918,-0.167306 -0.09759,-0.02788 -0.19519,-0.04183 -0.08365,-0.02788 -0.19519,-0.05577 -0.223075,-0.06971 -0.460091,-0.111537 -0.223075,-0.05577 -0.432207,-0.12548 -0.06971,-0.02788 -0.111537,-0.02788 -0.04183,0 -0.09759,-0.02788 -0.111537,-0.02788 -0.209133,-0.05577 -0.08365,-0.02788 -0.19519,-0.05577 -0.320669,-0.111538 -0.613454,-0.223075 -0.292786,-0.125479 -0.543744,-0.278843 -0.32067,-0.209132 -0.585571,-0.487975 -0.264901,-0.278843 -0.418265,-0.641339 -0.05577,-0.12548 -0.08365,-0.250959 -0.02788,-0.139422 -0.06971,-0.292785 -0.02789,-0.12548 -0.04183,-0.362496 -0.01394,-0.237017 0.01394,-0.390381 0.01394,-0.05577 0.01394,-0.167306 0.04183,-0.153363 0.06971,-0.292785 0.02788,-0.139421 0.08365,-0.278843 0.209133,-0.487975 0.529802,-0.822587 0.334612,-0.348554 0.766819,-0.627397 0.278843,-0.167306 0.599512,-0.264901 0.32067,-0.09759 0.683166,-0.181248 0.139421,-0.02788 0.264901,-0.02788 0.139421,-0.01394 0.278843,-0.04183 0.04183,-0.01394 0.125479,0 0.09759,0.01394 0.12548,-0.01394 z" />
    <path id="path1009" style="font-style:normal;font-variant:normal;font-weight:bold;font-stretch:normal;font-family:'Alte Haas Grotesk';-inkscape-font-specification:'Alte Haas Grotesk Bold';stroke-width:0.87138462" d="m 48.327068,65.671145 h 5.214366 1.212967 q 0.167306,0 0.32067,0.01394 0.153364,0.01394 0.223074,0.111537 0.02789,0.04183 0.02789,0.0976 0.01394,0.05577 0.04183,0.111537 v 0.153364 q 0.01394,0.09759 0,0.209132 0,0.111538 0,0.209133 0,0.111537 0,0.223074 0.01394,0.09759 0,0.19519 -0.01394,0.06971 -0.01394,0.209133 -0.04183,0.167305 -0.139421,0.223074 -0.08365,0.05577 -0.209133,0.05577 -0.125479,0 -0.264901,0 h -0.962008 -2.52353 q -0.111537,0 -0.264901,0 -0.139422,-0.01394 -0.292785,0 -0.139422,0 -0.264901,0.02788 -0.12548,0.01394 -0.181248,0.05577 -0.09759,0.06971 -0.12548,0.209132 -0.01394,0.125479 -0.01394,0.292785 v 0.794703 0.404322 q 0.02789,0.111538 0.05577,0.19519 0.02788,0.06971 0.09759,0.111538 0.08365,0.05577 0.19519,0.06971 0.111537,0 0.237017,0 h 0.752876 2.39805 q 0.0976,0 0.237017,0 0.153364,-0.01394 0.292785,0 0.139422,0 0.250959,0.01394 0.125479,0.01394 0.181248,0.05577 0.06971,0.04183 0.09759,0.167306 0.02788,0.125479 0.02788,0.278843 0.01394,0.139422 0,0.292785 0,0.153364 0,0.264901 0,0.09759 0,0.19519 0,0.0976 -0.02788,0.167306 -0.02788,0.111538 -0.111537,0.181248 -0.06971,0.04183 -0.19519,0.05577 -0.111537,0.01394 -0.264901,0.01394 -0.139422,0 -0.292785,0 -0.139422,-0.01394 -0.237017,-0.01394 h -2.71872 q -0.167306,0 -0.32067,0 -0.153363,-0.01394 -0.292785,0.01394 -0.125479,0.01394 -0.223074,0.08365 -0.08365,0.05577 -0.12548,0.181248 -0.01394,0.06971 -0.01394,0.153364 0,0.06971 0,0.139421 v 0.529802 0.780761 q 0,0.167306 0.01394,0.306727 0.02789,0.125479 0.12548,0.19519 0.04183,0.04183 0.09759,0.05577 0.06971,0 0.139421,0.02788 h 0.139422 q 0.06971,0.01394 0.153364,0.01394 0.08365,-0.01394 0.153363,-0.01394 h 0.585571 2.621125 0.738934 q 0.111537,0 0.209132,0 0.111537,0 0.19519,0.04183 0.111538,0.04183 0.153364,0.153363 0.02788,0.06971 0.02788,0.167306 0.01394,0.09759 0.01394,0.209132 v 0.64134 q 0,0.167305 -0.01394,0.320669 -0.01394,0.139422 -0.125479,0.209132 -0.08365,0.06971 -0.223075,0.06971 -0.125479,0 -0.278843,0 h -1.045661 -4.126878 -1.10143 q -0.19519,0 -0.348554,-0.01394 -0.139421,-0.02788 -0.209132,-0.139422 -0.05577,-0.08365 -0.05577,-0.209132 0,-0.139421 0,-0.264901 V 73.966726 70.17446 67.135071 66.270657 q 0,-0.125479 0,-0.250959 0,-0.125479 0.05577,-0.19519 0.05577,-0.09759 0.209132,-0.139421 0.02789,-0.01394 0.05577,0 0.02788,0 0.05577,-0.01394 z" />
    <path id="path1011" style="font-style:normal;font-variant:normal;font-weight:bold;font-stretch:normal;font-family:'Alte Haas Grotesk';-inkscape-font-specification:'Alte Haas Grotesk Bold';stroke-width:0.87138462" d="m 65.370476,75.291231 q 0.02788,0.08365 -0.01394,0.153363 -0.02788,0.06971 -0.06971,0.0976 -0.08365,0.06971 -0.237016,0.06971 -0.139422,-0.01394 -0.292786,-0.01394 h -0.766818 q -0.223075,0 -0.39038,-0.01394 -0.167306,-0.02788 -0.250959,-0.167306 -0.111537,-0.181248 -0.12548,-0.446149 -0.01394,-0.264901 -0.06971,-0.501917 0,-0.05577 -0.01394,-0.09759 0,-0.05577 0,-0.09759 -0.04183,-0.167306 -0.04183,-0.348554 0,-0.19519 -0.02788,-0.348554 -0.01394,-0.04183 -0.01394,-0.12548 -0.02788,-0.153363 -0.05577,-0.306727 -0.01394,-0.167306 -0.05577,-0.320669 -0.111537,-0.32067 -0.264901,-0.571629 -0.153363,-0.250959 -0.432206,-0.376438 -0.06971,-0.02788 -0.139422,-0.04183 -0.06971,-0.01394 -0.153364,-0.04183 -0.250958,-0.08365 -0.58557,-0.08365 -0.32067,0 -0.641339,0 h -1.143257 q -0.111537,0.02789 -0.19519,0.04183 -0.08365,0.01394 -0.139421,0.08365 -0.111538,0.139421 -0.0976,0.432206 0.01394,0.292786 0.01394,0.529802 v 1.784596 q 0,0.111537 -0.01394,0.237017 0,0.111537 0,0.223074 0,0.111537 0,0.209132 0,0.08365 -0.02788,0.153364 -0.04183,0.125479 -0.167306,0.167306 -0.06971,0.02788 -0.167306,0.02788 -0.0976,0 -0.209132,0 H 57.95325 q -0.223074,0 -0.474033,0.01394 -0.250959,0 -0.376438,-0.0976 -0.111537,-0.06971 -0.111537,-0.250959 0,-0.19519 0,-0.376438 v -8.476829 q 0,-0.153364 -0.01394,-0.32067 0,-0.167306 0.06971,-0.264901 0.05577,-0.08365 0.209133,-0.139421 0.02788,-0.01394 0.05577,0 0.04183,0 0.06971,-0.01394 h 4.740332 q 0.223075,0 0.418265,0.01394 0.209132,0 0.39038,0.04183 0.06971,0.02788 0.139422,0.02788 0.08365,0 0.153363,0.02788 0.09759,0.02788 0.195191,0.05577 0.0976,0.02789 0.19519,0.06971 0.348554,0.153364 0.641339,0.376438 0.292785,0.223075 0.487975,0.51586 0.05577,0.06971 0.08365,0.153364 0.04183,0.06971 0.09759,0.139421 0.111537,0.19519 0.167306,0.404323 0.05577,0.209132 0.125479,0.460091 0.01394,0.05577 0,0.111537 0,0.05577 0.02788,0.111537 v 0.12548 q 0.02788,0.111537 0.01394,0.278843 -0.01394,0.153363 -0.04183,0.250959 -0.02788,0.111537 -0.02788,0.209132 0,0.08365 -0.02788,0.181248 -0.06971,0.209132 -0.139422,0.404322 -0.06971,0.181248 -0.181248,0.348554 -0.02788,0.04183 -0.06971,0.09759 -0.04183,0.04183 -0.06971,0.08365 -0.04183,0.05577 -0.09759,0.111537 -0.04183,0.05577 -0.09759,0.09759 -0.08365,0.06971 -0.167306,0.139422 -0.08365,0.06971 -0.181248,0.139422 -0.05577,0.04183 -0.111538,0.09759 -0.05577,0.04183 -0.08365,0.111537 -0.02788,0.08365 0.02788,0.139421 0.05577,0.05577 0.0976,0.08365 0.139421,0.111538 0.278843,0.223075 0.139422,0.111537 0.237017,0.264901 0.167305,0.237016 0.264901,0.487975 0.09759,0.250959 0.181248,0.571628 0.02788,0.12548 0.02788,0.264901 0.01394,0.139422 0.04183,0.264901 0,0.08365 0,0.167306 0.01394,0.06971 0.01394,0.153364 0.01394,0.05577 0,0.125479 0,0.05577 0.01394,0.12548 0.01394,0.05577 0,0.111537 0,0.05577 0.01394,0.125479 0.02788,0.139422 0.02788,0.292785 0,0.153364 0.02788,0.292786 l 0.04183,0.250958 q 0.02788,0.12548 0.05577,0.250959 0.02788,0.12548 0.05577,0.237017 z m -2.300455,-6.287912 q 0.02788,-0.153363 0,-0.376438 -0.01394,-0.223074 -0.04183,-0.334611 -0.02788,-0.05577 -0.02788,-0.0976 0,-0.04183 -0.02788,-0.08365 -0.167306,-0.432207 -0.613455,-0.627397 -0.237017,-0.111538 -0.543744,-0.12548 -0.306728,-0.01394 -0.641339,-0.01394 h -1.61729 q -0.02788,0.02788 -0.05577,0.02788 -0.02788,-0.01394 -0.05577,-0.01394 -0.167306,0.04183 -0.223075,0.139422 -0.06971,0.111537 -0.06971,0.292785 0.01394,0.167306 0.01394,0.334612 v 1.29662 q 0,0.167306 0,0.334612 0,0.167306 0.06971,0.264901 0.05577,0.08365 0.181248,0.111537 0.12548,0.02788 0.278843,0.04183 0.153364,0.01394 0.32067,0.01394 0.167306,-0.01394 0.292785,-0.01394 h 0.822587 q 0.09759,0 0.209133,0.01394 0.111537,0 0.19519,-0.02788 h 0.181248 q 0.111537,-0.02788 0.209132,-0.02788 0.111537,0 0.209132,-0.02788 0.237017,-0.06971 0.418265,-0.181248 0.181248,-0.111538 0.306727,-0.292786 0.08365,-0.125479 0.12548,-0.278843 0.04183,-0.153363 0.08365,-0.348554 z" />
    <path id="path1013" style="font-style:normal;font-variant:normal;font-weight:bold;font-stretch:normal;font-family:'Alte Haas Grotesk';-inkscape-font-specification:'Alte Haas Grotesk Bold';stroke-width:0.87138462" d="m 11.388855,83.098837 h 1.185083 q 0.153363,0 0.292785,0.01394 0.153364,0 0.223074,0.09759 0.06971,0.09759 0.06971,0.264901 0,0.153364 0,0.334612 v 1.268736 4.224472 0.822588 q 0,0.111537 -0.01394,0.223074 0,0.09759 0.02788,0.19519 v 0.139422 q 0,0.09759 0,0.19519 0.01394,0.08365 0.04183,0.153364 0.0976,0.181248 0.39038,0.181248 0.292785,0 0.571628,0 h 2.704778 q 0.111537,0 0.278843,0 0.167306,-0.01394 0.32067,0 0.153364,0 0.278843,0.02788 0.139421,0.02788 0.181248,0.08365 0.06971,0.08365 0.06971,0.209132 0,0.12548 0,0.264901 v 0.641339 q 0,0.111537 0,0.209132 0.01394,0.0976 -0.01394,0.167306 -0.05577,0.111538 -0.139422,0.153364 -0.06971,0.05577 -0.209132,0.05577 -0.139422,0 -0.264901,0 h -0.989893 -3.778324 -1.003835 q -0.19519,0 -0.348554,-0.01394 -0.139421,-0.02788 -0.209132,-0.139421 -0.05577,-0.08365 -0.05577,-0.209132 0,-0.139422 0,-0.264901 V 91.422303 87.727632 84.576705 83.69835 q 0,-0.12548 0,-0.250959 0.01394,-0.12548 0.05577,-0.19519 0.05577,-0.09759 0.223074,-0.139422 0.02788,-0.01394 0.05577,0 0.02788,0 0.05577,-0.01394 z" />
    <path id="path1015" style="font-style:normal;font-variant:normal;font-weight:bold;font-stretch:normal;font-family:'Alte Haas Grotesk';-inkscape-font-specification:'Alte Haas Grotesk Bold';stroke-width:0.87138462" d="m 19.639125,83.112779 h 1.199025 q 0.153364,0 0.292785,0.01394 0.139422,0 0.209132,0.09759 0.06971,0.09759 0.06971,0.250959 0.01394,0.153364 0.01394,0.334612 v 1.212967 4.837928 2.286513 q 0,0.181248 0,0.404322 0.01394,0.223075 -0.05577,0.334612 -0.05577,0.09759 -0.250959,0.153364 -0.0976,0.02788 -0.209132,0.01394 -0.111538,-0.01394 -0.223075,-0.01394 h -0.822587 q -0.153364,0 -0.292785,-0.01394 -0.12548,-0.01394 -0.209132,-0.08365 -0.06971,-0.06971 -0.08365,-0.209133 -0.01394,-0.139421 -0.01394,-0.292785 v -1.212967 -5.088886 -2.035555 q 0,-0.19519 -0.01394,-0.460091 0,-0.264901 0.06971,-0.376438 0.05577,-0.08365 0.181248,-0.139422 0.04183,0 0.06971,0 0.04183,-0.01394 0.06971,-0.01394 z" />
    <path id="path1017" style="font-style:normal;font-variant:normal;font-weight:bold;font-stretch:normal;font-family:'Alte Haas Grotesk';-inkscape-font-specification:'Alte Haas Grotesk Bold';stroke-width:0.87138462" d="m 26.664881,82.889705 q 2.704778,-0.04183 3.722555,1.603347 0.139421,0.223075 0.209132,0.460091 0.08365,0.237017 0.153364,0.51586 0.02788,0.111537 0.01394,0.264901 0,0.139422 -0.05577,0.209132 -0.06971,0.08365 -0.19519,0.111538 -0.125479,0.01394 -0.278843,0.01394 h -0.878356 q -0.125479,0 -0.250958,0 -0.12548,0 -0.209133,-0.02788 -0.167305,-0.06971 -0.209132,-0.223074 -0.04183,-0.153364 -0.111537,-0.306727 -0.05577,-0.139422 -0.153364,-0.292786 -0.0976,-0.153363 -0.209132,-0.237016 -0.19519,-0.139422 -0.376438,-0.237017 -0.167306,-0.06971 -0.418265,-0.111537 -0.237017,-0.05577 -0.501917,-0.06971 -0.250959,-0.01394 -0.501918,0.01394 -0.250959,0.02788 -0.446149,0.111538 -0.320669,0.139421 -0.501917,0.334611 -0.167306,0.181248 -0.237017,0.557686 -0.02788,0.09759 -0.01394,0.223075 0.01394,0.111537 0.04183,0.181248 0.111537,0.292785 0.306728,0.418264 0.209132,0.111538 0.487975,0.223075 0.153364,0.06971 0.306727,0.111537 0.167306,0.02788 0.334612,0.08365 0.376438,0.125479 0.766819,0.223075 0.404322,0.08365 0.794702,0.19519 0.06971,0.02788 0.139422,0.02788 0.06971,0 0.139421,0.02788 0.278843,0.0976 0.571629,0.181248 0.306727,0.08365 0.543744,0.237017 0.376438,0.237017 0.641339,0.474033 0.278843,0.237017 0.51586,0.613455 0.06971,0.111537 0.111537,0.250959 0.05577,0.139421 0.111537,0.278843 0.01394,0.04183 0.01394,0.08365 0,0.02788 0.01394,0.05577 0.05577,0.223075 0.05577,0.557686 0.02788,0.06971 0,0.139422 v 0.250959 q -0.02788,0.153363 -0.05577,0.292785 -0.01394,0.139422 -0.05577,0.278843 -0.08365,0.250959 -0.181248,0.460091 -0.09759,0.209133 -0.237017,0.404323 -0.05577,0.06971 -0.111537,0.125479 -0.05577,0.04183 -0.09759,0.111537 -0.06971,0.08365 -0.153364,0.167306 -0.08365,0.06971 -0.181248,0.139422 -0.06971,0.05577 -0.153364,0.111537 -0.06971,0.05577 -0.153363,0.111537 -0.237017,0.153364 -0.501918,0.250959 -0.250959,0.09759 -0.529802,0.19519 -0.19519,0.06971 -0.404322,0.08365 -0.209133,0.02788 -0.418265,0.06971 -0.0976,0.02788 -0.19519,0.01394 -0.08365,0 -0.167306,0.02788 h -0.111537 q -0.02788,0 -0.08365,-0.01394 -0.04183,0 -0.06971,0.01394 -0.06971,0.01394 -0.237016,0.01394 -0.167306,0 -0.237017,-0.01394 h -0.139422 q -0.09759,-0.02788 -0.209132,-0.02788 -0.09759,0.01394 -0.181248,-0.01394 -0.06971,0 -0.125479,-0.01394 -0.05577,0 -0.12548,-0.01394 -0.167305,-0.04183 -0.348553,-0.06971 -0.181248,-0.02788 -0.334612,-0.08365 -0.683166,-0.223075 -1.199025,-0.557686 -0.51586,-0.348554 -0.864414,-0.90624 -0.223074,-0.334612 -0.348554,-0.794703 -0.02788,-0.08365 -0.04183,-0.167306 0,-0.08365 -0.02789,-0.181248 -0.02788,-0.111537 -0.04183,-0.264901 -0.01394,-0.167306 0.05577,-0.250959 0.06971,-0.111537 0.19519,-0.125479 0.139421,-0.02788 0.306727,-0.02788 h 0.878356 q 0.111537,0 0.237016,0 0.12548,0 0.223075,0.04183 0.153364,0.06971 0.181248,0.237017 0.02788,0.153363 0.09759,0.320669 0.05577,0.167306 0.139422,0.306728 0.08365,0.139421 0.181248,0.2649 0.06971,0.08365 0.153363,0.153364 0.08365,0.06971 0.167306,0.12548 0.306727,0.19519 0.752876,0.320669 0.09759,0.02788 0.181248,0.02788 0.09759,0 0.209133,0.02788 h 0.06971 q 0.111538,0.02788 0.306728,0.02788 0.19519,0 0.306727,-0.02788 0.04183,-0.01394 0.139422,-0.01394 0.06971,-0.01394 0.139421,-0.01394 0.08365,-0.01394 0.153364,-0.04183 0.474033,-0.125479 0.752876,-0.334612 0.278843,-0.209132 0.390381,-0.697107 0.02788,-0.0976 0,-0.223075 -0.01394,-0.125479 -0.04183,-0.19519 -0.139421,-0.376438 -0.474033,-0.585571 -0.04183,-0.02788 -0.153364,-0.08365 -0.209132,-0.12548 -0.474033,-0.195191 -0.250959,-0.08365 -0.501918,-0.167305 -0.0976,-0.02788 -0.19519,-0.04183 -0.08365,-0.02788 -0.19519,-0.05577 -0.223074,-0.06971 -0.460091,-0.111537 -0.223074,-0.05577 -0.432207,-0.125479 -0.06971,-0.02788 -0.111537,-0.02788 -0.04183,0 -0.0976,-0.02788 -0.111537,-0.02788 -0.209132,-0.05577 -0.08365,-0.02788 -0.19519,-0.05577 -0.32067,-0.111537 -0.613455,-0.223074 -0.292785,-0.12548 -0.543744,-0.278844 -0.32067,-0.209132 -0.585571,-0.487975 -0.264901,-0.278843 -0.418264,-0.641339 -0.05577,-0.125479 -0.08365,-0.250959 -0.02789,-0.139421 -0.06971,-0.292785 -0.02788,-0.125479 -0.04183,-0.362496 -0.01394,-0.237017 0.01394,-0.39038 0.01394,-0.05577 0.01394,-0.167306 0.04183,-0.153364 0.06971,-0.292785 0.02788,-0.139422 0.08365,-0.278843 0.209132,-0.487976 0.529801,-0.822588 0.334612,-0.348553 0.766819,-0.627396 0.278843,-0.167306 0.599512,-0.264901 0.32067,-0.09759 0.683166,-0.181248 0.139422,-0.02788 0.264901,-0.02788 0.139421,-0.01394 0.278843,-0.04183 0.04183,-0.01394 0.125479,0 0.09759,0.01394 0.12548,-0.01394 z" />
    <path id="path1019" style="font-style:normal;font-variant:normal;font-weight:bold;font-stretch:normal;font-family:'Alte Haas Grotesk';-inkscape-font-specification:'Alte Haas Grotesk Bold';stroke-width:0.87138462" d="m 39.74872,84.339689 q 0.320669,0.446149 0.460091,0.989893 0.153363,0.543744 0.111537,1.310562 -0.02788,0.306727 -0.0976,0.571628 -0.06971,0.250959 -0.167306,0.474034 -0.02788,0.05577 -0.05577,0.111537 -0.01394,0.04183 -0.04183,0.09759 -0.05577,0.09759 -0.111537,0.19519 -0.04183,0.08365 -0.111538,0.167306 -0.278843,0.39038 -0.683165,0.641339 -0.39038,0.237017 -0.892298,0.404322 -0.153364,0.05577 -0.32067,0.06971 -0.167305,0.01394 -0.334611,0.05577 -0.08365,0.01394 -0.167306,0.01394 -0.08365,0 -0.167306,0.01394 h -0.571628 -1.171141 q -0.181248,0 -0.39038,0 -0.195191,0 -0.306728,0.08365 -0.139421,0.0976 -0.139421,0.348554 0,0.237017 0,0.474033 v 1.840365 q 0,0.167305 0,0.362496 0.01394,0.19519 -0.05577,0.306727 -0.05577,0.09759 -0.250959,0.153364 -0.09759,0.02788 -0.209132,0.01394 -0.111537,-0.01394 -0.223075,-0.01394 h -0.808644 q -0.153364,0 -0.292786,0 -0.125479,-0.01394 -0.209132,-0.08365 -0.08365,-0.06971 -0.0976,-0.209133 -0.01394,-0.153363 -0.01394,-0.306727 V 84.08873 q 0,-0.19519 -0.01394,-0.460091 0,-0.264901 0.06971,-0.376438 0.05577,-0.08365 0.209133,-0.139422 0.02788,-0.01394 0.05577,0 0.04183,0 0.06971,-0.01394 h 4.029283 q 0.125479,0 0.250958,0 0.12548,-0.01394 0.237017,0.01394 h 0.06971 q 0.06971,0.02788 0.153363,0.02788 0.08365,0 0.153364,0.02788 0.06971,0.01394 0.125479,0.01394 0.05577,0 0.12548,0.02788 0.223074,0.06971 0.446149,0.139422 0.223074,0.05577 0.418264,0.167306 0.06971,0.05577 0.153364,0.0976 0.08365,0.04183 0.167306,0.111537 0.06971,0.04183 0.111537,0.09759 0.05577,0.04183 0.12548,0.09759 l 0.08365,0.08365 q 0.167306,0.167306 0.278844,0.334612 z m -1.533637,2.286513 q 0.02788,-0.153364 0.01394,-0.376438 0,-0.237017 -0.04183,-0.390381 -0.08365,-0.306727 -0.209132,-0.487975 -0.125479,-0.181248 -0.376438,-0.334612 -0.209132,-0.125479 -0.51586,-0.181248 -0.306727,-0.06971 -0.669223,-0.08365 -0.348554,-0.01394 -0.724992,0 -0.376438,0 -0.71105,0 -0.04183,0.01394 -0.08365,0.02788 -0.02788,0 -0.06971,0 -0.139421,0.05577 -0.181248,0.167306 -0.05577,0.111537 -0.05577,0.306727 0,0.181248 0,0.334612 v 1.324504 q 0,0.167306 0,0.376438 0,0.195191 0.06971,0.306728 0.05577,0.08365 0.167306,0.125479 0.111537,0.04183 0.250959,0.05577 0.139422,0 0.292785,0 0.167306,-0.01394 0.306728,-0.01394 0.738934,0 1.352389,-0.06971 0.613454,-0.06971 0.934124,-0.487975 0.08365,-0.12548 0.139421,-0.264901 0.05577,-0.153364 0.111538,-0.334612 z" />
    <path id="path1021" style="font-style:normal;font-variant:normal;font-weight:bold;font-stretch:normal;font-family:'Alte Haas Grotesk';-inkscape-font-specification:'Alte Haas Grotesk Bold';stroke-width:0.87138462" d="m 45.576104,88.452624 q 0.06971,0.05577 0.0976,0.181248 0.02788,0.111537 0.02788,0.264901 0.01394,0.139422 0,0.292785 0,0.153364 0,0.278843 0,0.111538 0,0.223075 0,0.09759 -0.02788,0.181248 -0.06971,0.153363 -0.223075,0.181248 -0.153364,0.01394 -0.362496,0.01394 h -2.607183 q -0.181248,0 -0.432206,0.01394 -0.250959,0 -0.362496,-0.06971 -0.08365,-0.05577 -0.12548,-0.167306 -0.02788,-0.125479 -0.04183,-0.2649 0,-0.153364 0,-0.306728 0.01394,-0.167306 0.01394,-0.292785 0,-0.125479 0,-0.250959 0.01394,-0.125479 0.05577,-0.19519 0.05577,-0.06971 0.181248,-0.125479 0.02788,0 0.05577,0 0.04183,-0.01394 0.06971,-0.01394 h 3.276406 q 0.125479,0 0.223074,0.01394 0.111538,0 0.181248,0.04183 z" />
    <path id="path1023" style="font-style:normal;font-variant:normal;font-weight:bold;font-stretch:normal;font-family:'Alte Haas Grotesk';-inkscape-font-specification:'Alte Haas Grotesk Bold';stroke-width:0.87138462" d="m 53.721809,92.481907 q 0.02788,0.153363 0.02788,0.306727 0.01394,0.153364 -0.139422,0.209132 -0.08365,0.04183 -0.19519,0.04183 -0.111537,0 -0.223074,0 h -0.752877 q -0.125479,0 -0.250959,0 -0.111537,-0.01394 -0.181248,-0.06971 -0.09759,-0.05577 -0.153363,-0.153364 -0.04183,-0.111537 -0.12548,-0.181248 -0.02788,-0.02788 -0.06971,-0.04183 -0.04183,-0.02788 -0.111538,-0.01394 -0.06971,0.02788 -0.139421,0.06971 -0.05577,0.04183 -0.12548,0.06971 -0.06971,0.05577 -0.153363,0.09759 -0.08365,0.04183 -0.167306,0.08365 -0.181248,0.08365 -0.376438,0.139422 -0.19519,0.04183 -0.404323,0.09759 -0.09759,0.02788 -0.19519,0.02788 -0.08365,0.01394 -0.181248,0.02788 -0.04183,0 -0.08365,0 -0.04183,0.01394 -0.08365,0.01394 h -0.153363 q -0.139422,0.02788 -0.278844,0 h -0.125479 q -0.09759,-0.02789 -0.19519,-0.02789 -0.08365,0.01394 -0.167306,-0.01394 -0.139421,-0.02788 -0.264901,-0.05577 -0.125479,-0.01394 -0.237016,-0.06971 -0.404323,-0.153364 -0.697108,-0.390381 -0.278843,-0.250958 -0.446149,-0.655281 -0.04183,-0.09759 -0.08365,-0.209132 -0.02788,-0.111537 -0.05577,-0.237017 -0.02788,-0.06971 -0.02788,-0.139421 0.01394,-0.06971 0,-0.139422 -0.01394,-0.04183 -0.02788,-0.167306 0,-0.139421 0.01394,-0.19519 0.02788,-0.139421 0.02788,-0.237016 0.04183,-0.153364 0.08365,-0.306728 0.04183,-0.167306 0.111537,-0.292785 0.237017,-0.404323 0.543744,-0.613455 0.306728,-0.209132 0.780761,-0.362496 0.181248,-0.06971 0.376438,-0.09759 0.19519,-0.02788 0.39038,-0.06971 0.111538,-0.02788 0.237017,-0.02788 0.125479,-0.01394 0.250959,-0.04183 0.09759,-0.02789 0.19519,-0.01394 0.09759,0 0.209132,-0.02788 0.09759,-0.02788 0.19519,-0.02788 0.0976,0 0.209133,-0.02788 0.292785,-0.06971 0.529802,-0.111537 0.250958,-0.05577 0.446149,-0.250959 0.125479,-0.125479 0.167305,-0.278843 0.01394,-0.04183 0,-0.06971 0,-0.02789 0.01394,-0.05577 0.01394,-0.02788 0.01394,-0.08365 0,-0.05577 0,-0.08365 -0.01394,-0.05577 -0.02789,-0.111537 0,-0.05577 -0.01394,-0.09759 -0.139421,-0.418265 -0.58557,-0.571628 -0.12548,-0.04183 -0.306728,-0.05577 -0.167305,-0.02788 -0.348553,-0.01394 -0.181248,0 -0.348554,0.02788 -0.167306,0.02788 -0.292786,0.06971 -0.08365,0.02788 -0.167305,0.08365 -0.06971,0.04183 -0.139422,0.09759 -0.06971,0.05577 -0.153364,0.153364 -0.06971,0.09759 -0.09759,0.181248 -0.06971,0.139421 -0.125479,0.2649 -0.04183,0.12548 -0.19519,0.167306 -0.111537,0.02789 -0.237017,0.02789 -0.125479,0 -0.250959,0 h -0.529801 q -0.06971,0 -0.139422,0.01394 -0.06971,0 -0.125479,-0.01394 h -0.12548 q -0.02788,-0.01394 -0.06971,-0.01394 -0.04183,0 -0.06971,-0.02788 -0.111538,-0.02788 -0.153364,-0.181248 -0.01394,-0.06971 0,-0.139421 0.01394,-0.06971 0.02788,-0.12548 0.04183,-0.153363 0.08365,-0.278843 0.05577,-0.139421 0.12548,-0.250959 0.04183,-0.06971 0.08365,-0.139421 0.04183,-0.06971 0.08365,-0.139422 0.111538,-0.153363 0.278844,-0.292785 0.02788,-0.01394 0.08365,-0.06971 0.06971,-0.05577 0.12548,-0.09759 0.05577,-0.04183 0.125479,-0.08365 0.237017,-0.153363 0.501918,-0.237016 0.264901,-0.09759 0.543744,-0.181248 0.167306,-0.04183 0.348554,-0.05577 0.181248,-0.01394 0.362496,-0.05577 0.05577,-0.01394 0.167305,0 0.12548,0.01394 0.153364,-0.01394 0.571629,-0.01394 1.087488,0.04183 0.529802,0.05577 0.948067,0.209132 0.432206,0.153364 0.738934,0.418265 0.306727,0.250958 0.474033,0.655281 0.0976,0.237017 0.111537,0.543744 0.01394,0.306727 0.01394,0.627397 v 3.1091 q 0,0.264901 0,0.543744 0,0.264901 0.05577,0.487976 0.01394,0.04183 0.01394,0.09759 0,0.04183 0.01394,0.08365 z m -2.049496,-2.147092 q 0.01394,-0.06971 0.01394,-0.153364 0,-0.09759 -0.01394,-0.167306 -0.02789,-0.08365 -0.02789,-0.153363 0,-0.06971 -0.05577,-0.111538 -0.06971,-0.05577 -0.209132,-0.05577 -0.05577,0.01394 -0.0976,0.02788 -0.04183,0 -0.09759,0.01394 -0.09759,0.02788 -0.209132,0.04183 -0.111537,0.01394 -0.223074,0.04183 -0.04183,0.01394 -0.12548,0.01394 -0.181248,0.04183 -0.362496,0.05577 -0.181248,0.01394 -0.348554,0.06971 -0.111537,0.02788 -0.209132,0.05577 -0.09759,0.01394 -0.19519,0.05577 -0.292785,0.125479 -0.501918,0.376438 -0.19519,0.250959 -0.139421,0.697108 0.02788,0.237016 0.153363,0.39038 0.0976,0.153364 0.292786,0.250959 0.19519,0.08365 0.418264,0.125479 0.237017,0.04183 0.487976,0.02788 0.264901,-0.02788 0.487975,-0.09759 0.362496,-0.111538 0.571628,-0.348554 0.209133,-0.250959 0.32067,-0.613455 0.02788,-0.09759 0.02788,-0.19519 0.01394,-0.111538 0.04183,-0.223075 z" />
    <path id="path1025" style="font-style:normal;font-variant:normal;font-weight:bold;font-stretch:normal;font-family:'Alte Haas Grotesk';-inkscape-font-specification:'Alte Haas Grotesk Bold';stroke-width:0.87138462" d="m 10.496557,100.52653 h 1.10143 q 0.153364,0 0.306727,0 0.153364,0 0.237017,0.0697 0.111537,0.0837 0.139421,0.23702 0.04183,0.13942 0.08365,0.29278 0.05577,0.19519 0.0976,0.40432 0.04183,0.19519 0.0976,0.39038 0.02788,0.0697 0.02788,0.12548 0,0.0418 0.01394,0.11154 0.05577,0.19519 0.08365,0.39038 0.04183,0.19519 0.0976,0.39038 0.05577,0.15337 0.08365,0.32067 0.02788,0.16731 0.06971,0.33461 0.139421,0.46009 0.223074,0.93413 0.0976,0.47403 0.223075,0.93412 0.06971,0.20913 0.0976,0.41827 0.04183,0.20913 0.0976,0.41826 0.05577,0.16731 0.08365,0.29279 0.02788,0.11153 0.139421,0.22307 0.02789,0 0.02789,0.0139 0.01394,0 0.04183,-0.0139 0.08365,-0.0279 0.125479,-0.15336 0.04183,-0.12548 0.06971,-0.20914 0.05577,-0.18124 0.08365,-0.36249 0.04183,-0.19519 0.111537,-0.37644 0.01394,-0.0697 0.02789,-0.12548 0.01394,-0.0697 0.02788,-0.13942 0.06971,-0.18125 0.0976,-0.3625 0.04183,-0.19519 0.0976,-0.37643 0.01394,-0.0558 0.02788,-0.11154 0.01394,-0.0558 0.02788,-0.12548 0.04183,-0.12548 0.06971,-0.25096 0.02788,-0.13942 0.06971,-0.2649 0.02789,-0.11154 0.02789,-0.16731 0.02788,-0.0976 0.05577,-0.19519 0.02788,-0.0976 0.05577,-0.19519 0.125479,-0.39038 0.209132,-0.78076 0.08365,-0.40432 0.19519,-0.7947 0.06971,-0.19519 0.0976,-0.39038 0.04183,-0.19519 0.0976,-0.39038 0.05577,-0.15336 0.0976,-0.27884 0.04183,-0.13943 0.195191,-0.20914 0.0976,-0.0279 0.223074,-0.0279 0.125479,0 0.250959,0 h 0.822587 q 0.153364,0 0.278843,0.0139 0.139422,0 0.237017,0.0697 0.0976,0.0697 0.125479,0.20913 0.02788,0.12548 0.06971,0.26491 0.06971,0.25095 0.125479,0.51586 0.05577,0.25095 0.12548,0.50191 0.05577,0.18125 0.08365,0.3625 0.04183,0.18125 0.0976,0.36249 0.04183,0.15337 0.06971,0.30673 0.02788,0.13942 0.08365,0.29279 0.153364,0.51586 0.264901,1.0596 0.111537,0.5298 0.264901,1.04566 0.06971,0.20913 0.0976,0.43221 0.04183,0.22307 0.111537,0.41826 0.04183,0.13943 0.06971,0.2649 0.02788,0.11154 0.09759,0.20914 0.01394,0.0139 0.06971,0.0418 h 0.05577 q 0.01394,-0.0139 0.02788,-0.0139 0.01394,-0.0139 0.02788,-0.0279 0.08365,-0.11154 0.111537,-0.23702 0.02788,-0.13942 0.06971,-0.27884 0.06971,-0.22308 0.0976,-0.44615 0.04183,-0.22308 0.111538,-0.44615 0.181248,-0.61346 0.292785,-1.22691 0.125479,-0.61345 0.306727,-1.22691 0.06971,-0.22307 0.0976,-0.44615 0.04183,-0.22307 0.111537,-0.44615 0.02789,-0.0697 0.02789,-0.11153 0,-0.0558 0.01394,-0.12548 0.05577,-0.19519 0.09759,-0.39038 0.04183,-0.19519 0.0976,-0.39038 0.02788,-0.11154 0.05577,-0.25096 0.04183,-0.13942 0.125479,-0.20914 0.09759,-0.0697 0.237017,-0.0837 0.139421,-0.0139 0.320669,-0.0139 h 0.794703 q 0.139422,0 0.264901,0 0.139421,0 0.237017,0.0418 0.139421,0.0697 0.125479,0.23701 -0.01394,0.16731 -0.05577,0.30673 -0.111537,0.32067 -0.19519,0.68317 -0.06971,0.34855 -0.181248,0.68316 -0.02788,0.0836 -0.04183,0.16731 -0.01394,0.0697 -0.04183,0.15336 -0.06971,0.23702 -0.139421,0.50192 -0.05577,0.25096 -0.12548,0.48797 -0.02788,0.0697 -0.04183,0.13942 0,0.0697 -0.02788,0.13943 -0.06971,0.18124 -0.111538,0.36249 -0.02788,0.18125 -0.09759,0.3625 -0.02788,0.0697 -0.02788,0.12548 0,0.0558 -0.02788,0.12548 -0.06971,0.19519 -0.111538,0.40432 -0.02788,0.19519 -0.0976,0.39038 -0.04183,0.13942 -0.08365,0.27884 -0.02788,0.12548 -0.06971,0.2649 -0.167306,0.52981 -0.292786,1.07355 -0.111537,0.54374 -0.292785,1.0596 -0.02788,0.0976 -0.04183,0.18125 -0.01394,0.0837 -0.04183,0.18125 -0.06971,0.23702 -0.139421,0.50192 -0.05577,0.25096 -0.139422,0.48797 -0.05577,0.18125 -0.09759,0.33461 -0.04183,0.15337 -0.209132,0.22308 -0.09759,0.0279 -0.237017,0.0279 -0.139421,0 -0.264901,0 h -0.90624 q -0.153363,0 -0.292785,0 -0.139422,-0.0139 -0.237017,-0.0836 -0.08365,-0.0697 -0.111537,-0.16731 -0.02788,-0.11153 -0.06971,-0.22307 -0.08365,-0.27884 -0.139421,-0.54374 -0.05577,-0.27885 -0.12548,-0.55769 -0.05577,-0.16731 -0.0976,-0.33461 -0.02788,-0.18125 -0.08365,-0.3625 -0.04183,-0.12548 -0.06971,-0.25096 -0.01394,-0.13942 -0.05577,-0.2649 -0.111537,-0.33461 -0.181248,-0.68316 -0.06971,-0.3625 -0.167306,-0.71105 -0.06971,-0.19519 -0.111537,-0.37644 -0.02788,-0.18125 -0.08365,-0.37644 -0.06971,-0.23702 -0.111537,-0.46009 -0.04183,-0.22308 -0.111537,-0.44615 -0.04183,-0.11154 -0.06971,-0.20913 -0.01394,-0.0976 -0.06971,-0.18125 -0.02788,-0.0279 -0.08365,-0.0558 -0.04183,-0.0139 -0.05577,0 -0.0976,0.0279 -0.139422,0.16731 -0.04183,0.13942 -0.06971,0.23701 -0.09759,0.29279 -0.153363,0.61346 -0.05577,0.30673 -0.139422,0.61345 -0.181248,0.6274 -0.32067,1.2548 -0.125479,0.62739 -0.306727,1.25479 -0.06971,0.22308 -0.111537,0.44615 -0.02788,0.20913 -0.0976,0.43221 -0.06971,0.19519 -0.111537,0.39038 -0.02788,0.19519 -0.08365,0.39038 -0.04183,0.13942 -0.08365,0.25096 -0.02788,0.11153 -0.139422,0.18124 -0.0976,0.0558 -0.237016,0.0558 -0.139422,0 -0.292786,0 h -1.212967 q -0.0976,-0.0279 -0.167306,-0.0279 -0.06971,-0.0139 -0.139421,-0.0697 -0.111538,-0.0697 -0.139422,-0.22308 -0.02788,-0.1673 -0.06971,-0.32067 -0.06971,-0.22307 -0.139421,-0.46009 -0.05577,-0.23701 -0.12548,-0.47403 -0.02788,-0.0837 -0.04183,-0.15336 0,-0.0837 -0.02788,-0.18125 -0.08365,-0.23702 -0.139422,-0.47404 -0.05577,-0.23701 -0.125479,-0.47403 -0.02788,-0.0558 -0.02788,-0.0976 0,-0.0558 -0.01394,-0.11154 -0.06971,-0.19519 -0.125479,-0.40432 -0.04183,-0.22308 -0.111537,-0.43221 -0.01394,-0.0418 -0.01394,-0.0836 0,-0.0418 -0.02788,-0.0976 -0.06971,-0.19519 -0.111537,-0.39038 -0.02788,-0.20913 -0.0976,-0.41826 -0.04183,-0.13942 -0.08365,-0.27885 -0.02788,-0.15336 -0.06971,-0.29278 -0.04183,-0.13942 -0.06971,-0.27884 -0.02788,-0.13943 -0.08365,-0.27885 -0.125479,-0.40432 -0.223074,-0.82258 -0.08365,-0.41827 -0.209132,-0.82259 -0.02788,-0.0837 -0.04183,-0.16731 -0.01394,-0.0837 -0.04183,-0.1673 -0.0976,-0.29279 -0.167306,-0.59952 -0.06971,-0.30672 -0.167306,-0.61345 -0.02788,-0.0976 -0.08365,-0.29279 -0.04183,-0.19519 0.02788,-0.29278 0.06971,-0.0837 0.19519,-0.11154 0.02788,-0.0139 0.05577,0 0.02788,0 0.05577,-0.0139 z" />
    <path id="path1027" style="font-style:normal;font-variant:normal;font-weight:bold;font-stretch:normal;font-family:'Alte Haas Grotesk';-inkscape-font-specification:'Alte Haas Grotesk Bold';stroke-width:0.87138462" d="m 32.046989,100.52653 h 1.185083 q 0.153363,0 0.292785,0.0139 0.139421,0.0139 0.209132,0.0837 0.05577,0.0697 0.06971,0.20914 0.02788,0.12548 0.02788,0.27884 0.01394,0.15336 0,0.30673 0,0.15336 0,0.27884 v 2.80237 2.37017 q 0,0.32067 0,0.66922 0.01394,0.33461 -0.05577,0.61346 -0.02788,0.0697 -0.02788,0.13942 0.01394,0.0558 -0.01394,0.12548 -0.04183,0.12548 -0.06971,0.2649 -0.02788,0.12548 -0.08365,0.25096 -0.306727,0.76682 -0.878355,1.17114 -0.19519,0.13942 -0.432207,0.23702 -0.223074,0.0976 -0.474033,0.18124 -0.111537,0.0279 -0.223075,0.0418 -0.0976,0.0279 -0.209132,0.0558 -0.111537,0.0279 -0.250959,0.0279 -0.125479,0 -0.250959,0.0279 h -0.153363 q -0.08365,0.0279 -0.237017,0.0139 -0.139421,0 -0.223074,-0.0279 -0.153364,0 -0.223075,-0.014 -0.139421,-0.0279 -0.278843,-0.0418 -0.125479,-0.014 -0.237016,-0.0418 -0.153364,-0.0558 -0.306728,-0.0976 -0.153364,-0.0418 -0.292785,-0.11154 -0.446149,-0.19519 -0.808645,-0.5298 -0.362496,-0.34856 -0.557686,-0.79471 -0.05577,-0.13942 -0.09759,-0.27884 -0.04183,-0.13942 -0.08365,-0.29279 -0.02788,-0.11153 -0.02788,-0.1673 -0.02789,-0.0697 -0.02789,-0.12548 0.01394,-0.0558 -0.01394,-0.12548 -0.01394,-0.0279 -0.01394,-0.0697 0,-0.0558 0,-0.0836 v -0.13942 q -0.01394,-0.0697 -0.01394,-0.13943 0,-0.0836 0,-0.15336 0,-0.19519 0.01394,-0.3625 0.01394,-0.18124 0.125479,-0.25095 0.111538,-0.0697 0.292786,-0.0697 0.19519,0 0.362496,0 0.125479,0 0.292785,0 0.167306,-0.0139 0.320669,0 0.167306,0 0.292786,0.0279 0.139421,0.0279 0.181248,0.0976 0.0976,0.13943 0.06971,0.3625 -0.01394,0.22307 0.02789,0.41826 0.02788,0.0837 0.02788,0.16731 0.01394,0.0697 0.04183,0.15336 0.05577,0.19519 0.139422,0.3625 0.08365,0.15336 0.237017,0.2649 0.167305,0.12548 0.460091,0.20913 0.292785,0.0837 0.599512,0.0139 0.06971,-0.0279 0.12548,-0.0279 0.05577,0 0.111537,-0.0279 0.418264,-0.16731 0.557686,-0.57163 0.05577,-0.12548 0.06971,-0.25096 0.01394,-0.13942 0.04183,-0.29279 0,-0.0836 0,-0.15336 0,-0.0837 0.01394,-0.16731 0.01394,-0.0697 0,-0.15336 0,-0.0976 0,-0.18125 v -0.66922 -3.7365 -1.33844 q 0,-0.15337 -0.01394,-0.32067 0,-0.16731 0.06971,-0.27885 0.05577,-0.0837 0.209132,-0.13942 0.08365,0 0.111538,-0.0139 z" />
    <path id="path1029" style="font-style:normal;font-variant:normal;font-weight:bold;font-stretch:normal;font-family:'Alte Haas Grotesk';-inkscape-font-specification:'Alte Haas Grotesk Bold';stroke-width:0.87138462" d="m 44.199536,109.79806 q 0.01394,0.0558 0.04183,0.13942 0.04183,0.0837 0.05577,0.18125 0.02788,0.0837 0.01394,0.16731 -0.01394,0.0837 -0.09759,0.12548 -0.111537,0.0697 -0.376438,0.0558 -0.250959,-0.014 -0.418265,-0.014 h -0.655281 q -0.111537,0 -0.209132,0.014 -0.08365,0 -0.167306,-0.0279 -0.153364,-0.0418 -0.223075,-0.1673 -0.06971,-0.11154 -0.111537,-0.23702 -0.02788,-0.12548 -0.08365,-0.25096 -0.06971,-0.22307 -0.153363,-0.44615 -0.06971,-0.22307 -0.153364,-0.43221 -0.04183,-0.12548 -0.08365,-0.22307 -0.02788,-0.11154 -0.06971,-0.19519 -0.04183,-0.0836 -0.125479,-0.13942 -0.08365,-0.0697 -0.223075,-0.0976 -0.06971,0 -0.139421,0 -0.05577,-0.0139 -0.12548,-0.0139 h -2.20286 q -0.237016,0 -0.51586,0 -0.2649,-0.0139 -0.418264,0.0976 -0.111537,0.0836 -0.153364,0.22307 -0.04183,0.13942 -0.09759,0.27884 -0.111537,0.23702 -0.19519,0.50192 -0.06971,0.25096 -0.167306,0.50192 -0.05577,0.13942 -0.111537,0.29278 -0.04183,0.15337 -0.153364,0.23702 -0.06971,0.0558 -0.209132,0.0836 -0.12548,0.014 -0.292785,0.014 -0.153364,0 -0.32067,0 -0.167306,-0.014 -0.292785,-0.014 -0.181248,0 -0.446149,0.014 -0.250959,0 -0.362496,-0.0697 -0.06971,-0.0418 -0.08365,-0.12547 0,-0.0837 0.01394,-0.16731 0.02788,-0.0976 0.05577,-0.18125 0.02788,-0.0837 0.05577,-0.13942 0.139422,-0.32067 0.250959,-0.65528 0.125479,-0.33461 0.250959,-0.65528 0.05577,-0.11154 0.08365,-0.22308 0.02788,-0.11153 0.08365,-0.22307 0.111537,-0.29279 0.223074,-0.59951 0.111537,-0.30673 0.223075,-0.59952 0.111537,-0.27884 0.209132,-0.54374 0.0976,-0.27884 0.209132,-0.55769 0.32067,-0.76682 0.585571,-1.54758 0.278843,-0.78076 0.599512,-1.54758 0.02788,-0.0697 0.04183,-0.12547 0.01394,-0.0558 0.04183,-0.12548 0.111538,-0.29279 0.223075,-0.59952 0.111537,-0.30672 0.237016,-0.59951 0.06971,-0.15336 0.111538,-0.30673 0.05577,-0.1673 0.181248,-0.2649 0.06971,-0.0418 0.181248,-0.0697 0.02788,-0.0139 0.05577,0 0.02788,0 0.05577,-0.0139 h 1.226909 q 0.153364,0 0.306728,0 0.167306,-0.0139 0.264901,0.0558 0.153363,0.0836 0.19519,0.25096 0.05577,0.15336 0.125479,0.32067 0.09759,0.23701 0.181248,0.47403 0.08365,0.22307 0.181248,0.46009 0.02788,0.0837 0.05577,0.16731 0.02788,0.0837 0.05577,0.1673 0.111538,0.27885 0.209133,0.55769 0.09759,0.2649 0.209132,0.54374 0.278843,0.69711 0.51586,1.40816 0.250959,0.71105 0.543744,1.40816 0.02788,0.0558 0.02788,0.11153 0.01394,0.0418 0.04183,0.0976 0.08365,0.22307 0.167305,0.44615 0.08365,0.22307 0.167306,0.44615 0.05577,0.11153 0.08365,0.22307 0.02788,0.0976 0.06971,0.20913 0.181248,0.44615 0.334612,0.8923 0.153363,0.44615 0.334611,0.87836 0.02789,0.0418 0.02789,0.0837 0,0.0279 0.02788,0.0697 z m -3.611018,-3.19275 q 0.181248,-0.0697 0.167306,-0.23702 -0.01394,-0.1673 -0.08365,-0.32067 -0.02788,-0.0558 -0.02788,-0.0976 0,-0.0558 -0.02788,-0.11154 -0.181248,-0.47403 -0.334611,-0.96201 -0.153364,-0.48797 -0.348554,-0.97595 -0.02788,-0.0697 -0.05577,-0.16731 -0.02788,-0.11153 -0.06971,-0.19519 -0.04183,-0.0976 -0.0976,-0.1673 -0.05577,-0.0697 -0.139421,-0.0697 -0.02788,0.0279 -0.05577,0.0418 -0.02788,0.014 -0.05577,0.0418 -0.111538,0.13942 -0.167306,0.33461 -0.04183,0.19519 -0.111537,0.37644 -0.167306,0.39038 -0.306728,0.7947 -0.125479,0.40433 -0.278843,0.80865 -0.05577,0.13942 -0.0976,0.27884 -0.04183,0.12548 -0.08365,0.27884 -0.04183,0.11154 0.01394,0.25096 0.06971,0.0976 0.223075,0.11154 0.167306,0.0139 0.334611,0.0139 h 1.059604 q 0.125479,0 0.278843,0 0.153364,0 0.264901,-0.0279 z" />
    <path id="path1031" style="font-style:normal;font-variant:normal;font-weight:bold;font-stretch:normal;font-family:'Alte Haas Grotesk';-inkscape-font-specification:'Alte Haas Grotesk Bold';stroke-width:0.87138462" d="m 44.083425,100.52653 h 1.129315 q 0.153363,0 0.306727,0 0.167306,0 0.264901,0.0697 0.125479,0.0697 0.167306,0.22307 0.04183,0.15337 0.0976,0.30673 0.09759,0.2649 0.167306,0.5298 0.08365,0.2649 0.181248,0.54375 0.278843,0.86441 0.543744,1.72882 0.278843,0.86442 0.557686,1.72883 0.06971,0.23702 0.139421,0.47404 0.08365,0.23701 0.153364,0.47403 0.04183,0.12548 0.08365,0.25096 0.04183,0.12548 0.111537,0.22307 0.01394,0.0279 0.02788,0.0418 0.02788,0 0.05577,0.0279 0.153364,0 0.19519,-0.12548 0.05577,-0.13942 0.0976,-0.25096 0.111538,-0.29278 0.195191,-0.59951 0.08365,-0.30673 0.19519,-0.6274 0.306727,-0.92018 0.58557,-1.82642 0.292785,-0.92018 0.599513,-1.84036 0.06971,-0.22308 0.139421,-0.43221 0.06971,-0.22307 0.139422,-0.44615 0.05577,-0.11153 0.08365,-0.22307 0.04183,-0.11154 0.153363,-0.18125 0.0976,-0.0697 0.223075,-0.0697 0.139421,0 0.278843,0 h 0.934124 q 0.139422,0 0.278843,0 0.139422,0 0.223075,0.0558 0.139421,0.0697 0.09759,0.2649 -0.04183,0.18125 -0.08365,0.30673 -0.125479,0.32067 -0.237017,0.66922 -0.09759,0.33461 -0.209132,0.66922 -0.04183,0.0837 -0.06971,0.16731 -0.01394,0.0837 -0.04183,0.1673 -0.111537,0.29279 -0.209132,0.59952 -0.08365,0.30672 -0.195191,0.61345 -0.376438,1.12932 -0.752876,2.27257 -0.376438,1.12932 -0.752876,2.25863 -0.12548,0.32067 -0.223075,0.65528 -0.09759,0.32067 -0.209132,0.64134 -0.06971,0.19519 -0.139422,0.3625 -0.06971,0.15336 -0.278843,0.20913 -0.111537,0.0279 -0.250958,0.0279 -0.139422,-0.014 -0.264901,-0.014 h -1.003835 q -0.153364,0 -0.334612,0.014 -0.167306,0 -0.278843,-0.0697 -0.153364,-0.0837 -0.209132,-0.25095 -0.04183,-0.18125 -0.0976,-0.34856 -0.09759,-0.29278 -0.19519,-0.58557 -0.08365,-0.30673 -0.181248,-0.59951 -0.306727,-0.87836 -0.58557,-1.77065 -0.278843,-0.8923 -0.585571,-1.7846 -0.125479,-0.40432 -0.250958,-0.7947 -0.111538,-0.40433 -0.250959,-0.79471 -0.05577,-0.12548 -0.08365,-0.25095 -0.02788,-0.12548 -0.08365,-0.25096 -0.125479,-0.39038 -0.250959,-0.76682 -0.111537,-0.39038 -0.250959,-0.78076 -0.02788,-0.12548 -0.06971,-0.23702 -0.04183,-0.12548 -0.08365,-0.25096 -0.01394,-0.0697 -0.02789,-0.13942 0,-0.0697 0.02789,-0.12548 0.04183,-0.0976 0.181248,-0.12548 0.02788,-0.0139 0.05577,0 0.04183,0 0.06971,-0.0139 z" />
    <path id="path1033" style="font-style:normal;font-variant:normal;font-weight:bold;font-stretch:normal;font-family:'Alte Haas Grotesk';-inkscape-font-specification:'Alte Haas Grotesk Bold';stroke-width:0.87138462" d="m 61.245997,109.79806 q 0.01394,0.0558 0.04183,0.13942 0.04183,0.0837 0.05577,0.18125 0.02788,0.0837 0.01394,0.16731 -0.01394,0.0837 -0.09759,0.12548 -0.111537,0.0697 -0.376438,0.0558 -0.250959,-0.014 -0.418265,-0.014 h -0.655281 q -0.111537,0 -0.209132,0.014 -0.08365,0 -0.167306,-0.0279 -0.153364,-0.0418 -0.223074,-0.1673 -0.06971,-0.11154 -0.111538,-0.23702 -0.02788,-0.12548 -0.08365,-0.25096 -0.06971,-0.22307 -0.153363,-0.44615 -0.06971,-0.22307 -0.153364,-0.43221 -0.04183,-0.12548 -0.08365,-0.22307 -0.02788,-0.11154 -0.06971,-0.19519 -0.04183,-0.0836 -0.125479,-0.13942 -0.08365,-0.0697 -0.223075,-0.0976 -0.06971,0 -0.139421,0 -0.05577,-0.0139 -0.125479,-0.0139 h -2.202861 q -0.237016,0 -0.515859,0 -0.264901,-0.0139 -0.418265,0.0976 -0.111537,0.0836 -0.153364,0.22307 -0.04183,0.13942 -0.0976,0.27884 -0.111537,0.23702 -0.19519,0.50192 -0.06971,0.25096 -0.167306,0.50192 -0.05577,0.13942 -0.111537,0.29278 -0.04183,0.15337 -0.153364,0.23702 -0.06971,0.0558 -0.209132,0.0836 -0.125479,0.014 -0.292785,0.014 -0.153364,0 -0.32067,0 -0.167306,-0.014 -0.292785,-0.014 -0.181248,0 -0.446149,0.014 -0.250959,0 -0.362496,-0.0697 -0.06971,-0.0418 -0.08365,-0.12547 0,-0.0837 0.01394,-0.16731 0.02789,-0.0976 0.05577,-0.18125 0.02788,-0.0837 0.05577,-0.13942 0.139422,-0.32067 0.250959,-0.65528 0.12548,-0.33461 0.250959,-0.65528 0.05577,-0.11154 0.08365,-0.22308 0.02788,-0.11153 0.08365,-0.22307 0.111537,-0.29279 0.223074,-0.59951 0.111538,-0.30673 0.223075,-0.59952 0.111537,-0.27884 0.209132,-0.54374 0.0976,-0.27884 0.209132,-0.55769 0.32067,-0.76682 0.585571,-1.54758 0.278843,-0.78076 0.599512,-1.54758 0.02788,-0.0697 0.04183,-0.12547 0.01394,-0.0558 0.04183,-0.12548 0.111538,-0.29279 0.223075,-0.59952 0.111537,-0.30672 0.237016,-0.59951 0.06971,-0.15336 0.111538,-0.30673 0.05577,-0.1673 0.181248,-0.2649 0.06971,-0.0418 0.181248,-0.0697 0.02788,-0.0139 0.05577,0 0.02788,0 0.05577,-0.0139 h 1.226909 q 0.153364,0 0.306728,0 0.167306,-0.0139 0.264901,0.0558 0.153363,0.0836 0.19519,0.25096 0.05577,0.15336 0.125479,0.32067 0.09759,0.23701 0.181248,0.47403 0.08365,0.22307 0.181248,0.46009 0.02788,0.0837 0.05577,0.16731 0.02788,0.0837 0.05577,0.1673 0.111537,0.27885 0.209132,0.55769 0.09759,0.2649 0.209132,0.54374 0.278843,0.69711 0.51586,1.40816 0.250959,0.71105 0.543744,1.40816 0.02788,0.0558 0.02788,0.11153 0.01394,0.0418 0.04183,0.0976 0.08365,0.22307 0.167305,0.44615 0.08365,0.22307 0.167306,0.44615 0.05577,0.11153 0.08365,0.22307 0.02789,0.0976 0.06971,0.20913 0.181248,0.44615 0.334612,0.8923 0.153363,0.44615 0.334611,0.87836 0.02789,0.0418 0.02789,0.0837 0,0.0279 0.02788,0.0697 z m -3.611018,-3.19275 q 0.181248,-0.0697 0.167306,-0.23702 -0.01394,-0.1673 -0.08365,-0.32067 -0.02788,-0.0558 -0.02788,-0.0976 0,-0.0558 -0.02788,-0.11154 -0.181248,-0.47403 -0.334611,-0.96201 -0.153364,-0.48797 -0.348554,-0.97595 -0.02788,-0.0697 -0.05577,-0.16731 -0.02788,-0.11153 -0.06971,-0.19519 -0.04183,-0.0976 -0.0976,-0.1673 -0.05577,-0.0697 -0.139421,-0.0697 -0.02788,0.0279 -0.05577,0.0418 -0.02788,0.014 -0.05577,0.0418 -0.111538,0.13942 -0.167306,0.33461 -0.04183,0.19519 -0.111537,0.37644 -0.167306,0.39038 -0.306728,0.7947 -0.125479,0.40433 -0.278843,0.80865 -0.05577,0.13942 -0.09759,0.27884 -0.04183,0.12548 -0.08365,0.27884 -0.04183,0.11154 0.01394,0.25096 0.06971,0.0976 0.223075,0.11154 0.167306,0.0139 0.334611,0.0139 h 1.059604 q 0.12548,0 0.278843,0 0.153364,0 0.264901,-0.0279 z" />
    <path id="path1035" style="font-style:normal;font-variant:normal;font-weight:bold;font-stretch:normal;font-family:'Alte Haas Grotesk';-inkscape-font-specification:'Alte Haas Grotesk Bold';stroke-width:0.87138462" d="m 65.659341,100.3174 q 2.704778,-0.0418 3.722555,1.60334 0.139422,0.22308 0.209132,0.4601 0.08365,0.23701 0.153364,0.51586 0.02788,0.11153 0.01394,0.2649 0,0.13942 -0.05577,0.20913 -0.06971,0.0837 -0.195191,0.11154 -0.125479,0.0139 -0.278843,0.0139 h -0.878355 q -0.12548,0 -0.250959,0 -0.12548,0 -0.209132,-0.0279 -0.167306,-0.0697 -0.209133,-0.22307 -0.04183,-0.15336 -0.111537,-0.30673 -0.05577,-0.13942 -0.153364,-0.29278 -0.09759,-0.15337 -0.209132,-0.23702 -0.19519,-0.13942 -0.376438,-0.23702 -0.167306,-0.0697 -0.418265,-0.11153 -0.237016,-0.0558 -0.501917,-0.0697 -0.250959,-0.0139 -0.501918,0.0139 -0.250959,0.0279 -0.446149,0.11153 -0.320669,0.13943 -0.501917,0.33462 -0.167306,0.18124 -0.237017,0.55768 -0.02788,0.0976 -0.01394,0.22308 0.01394,0.11153 0.04183,0.18125 0.111538,0.29278 0.306728,0.41826 0.209132,0.11154 0.487975,0.22307 0.153364,0.0697 0.306728,0.11154 0.167305,0.0279 0.334611,0.0837 0.376438,0.12548 0.766819,0.22308 0.404322,0.0836 0.794702,0.19519 0.06971,0.0279 0.139422,0.0279 0.06971,0 0.139422,0.0279 0.278843,0.0976 0.571628,0.18125 0.306727,0.0837 0.543744,0.23701 0.376438,0.23702 0.641339,0.47404 0.278843,0.23701 0.51586,0.61345 0.06971,0.11154 0.111537,0.25096 0.05577,0.13942 0.111537,0.27884 0.01394,0.0418 0.01394,0.0837 0,0.0279 0.01394,0.0558 0.05577,0.22308 0.05577,0.55769 0.02788,0.0697 0,0.13942 v 0.25096 q -0.02788,0.15336 -0.05577,0.29279 -0.01394,0.13942 -0.05577,0.27884 -0.08365,0.25096 -0.181248,0.46009 -0.09759,0.20913 -0.237017,0.40432 -0.05577,0.0697 -0.111537,0.12548 -0.05577,0.0418 -0.09759,0.11154 -0.06971,0.0836 -0.153364,0.1673 -0.08365,0.0697 -0.181248,0.13943 -0.06971,0.0558 -0.153364,0.11153 -0.06971,0.0558 -0.153363,0.11154 -0.237017,0.15336 -0.501918,0.25096 -0.250959,0.0976 -0.529802,0.19519 -0.19519,0.0697 -0.404322,0.0836 -0.209132,0.0279 -0.418265,0.0697 -0.09759,0.0279 -0.19519,0.014 -0.08365,0 -0.167306,0.0279 h -0.111537 q -0.02788,0 -0.08365,-0.0139 -0.04183,0 -0.06971,0.0139 -0.06971,0.0139 -0.237016,0.0139 -0.167306,0 -0.237017,-0.0139 h -0.139421 q -0.09759,-0.0279 -0.209133,-0.0279 -0.09759,0.0139 -0.181248,-0.014 -0.06971,0 -0.125479,-0.0139 -0.05577,0 -0.125479,-0.0139 -0.167306,-0.0418 -0.348554,-0.0697 -0.181248,-0.0279 -0.334612,-0.0836 -0.683166,-0.22308 -1.199025,-0.55769 -0.51586,-0.34855 -0.864414,-0.90624 -0.223074,-0.33461 -0.348554,-0.7947 -0.02788,-0.0837 -0.04183,-0.16731 0,-0.0836 -0.02788,-0.18125 -0.02788,-0.11153 -0.04183,-0.2649 -0.01394,-0.1673 0.05577,-0.25096 0.06971,-0.11153 0.19519,-0.12548 0.139421,-0.0279 0.306727,-0.0279 h 0.878356 q 0.111537,0 0.237017,0 0.125479,0 0.223074,0.0418 0.153364,0.0697 0.181248,0.23701 0.02788,0.15337 0.0976,0.32067 0.05577,0.16731 0.139422,0.30673 0.08365,0.13942 0.181248,0.2649 0.06971,0.0837 0.153363,0.15336 0.08365,0.0697 0.167306,0.12548 0.306728,0.19519 0.752877,0.32067 0.09759,0.0279 0.181248,0.0279 0.09759,0 0.209132,0.0279 h 0.06971 q 0.111537,0.0279 0.306727,0.0279 0.19519,0 0.306727,-0.0279 0.04183,-0.0139 0.139422,-0.0139 0.06971,-0.0139 0.139421,-0.0139 0.08365,-0.0139 0.153364,-0.0418 0.474033,-0.12548 0.752876,-0.33461 0.278844,-0.20913 0.390381,-0.69711 0.02788,-0.0976 0,-0.22307 -0.01394,-0.12548 -0.04183,-0.19519 -0.139421,-0.37644 -0.474033,-0.58557 -0.04183,-0.0279 -0.153364,-0.0837 -0.209132,-0.12548 -0.474033,-0.19519 -0.250959,-0.0837 -0.501917,-0.1673 -0.09759,-0.0279 -0.195191,-0.0418 -0.08365,-0.0279 -0.19519,-0.0558 -0.223074,-0.0697 -0.460091,-0.11154 -0.223074,-0.0558 -0.432207,-0.12547 -0.06971,-0.0279 -0.111537,-0.0279 -0.04183,0 -0.09759,-0.0279 -0.111537,-0.0279 -0.209132,-0.0558 -0.08365,-0.0279 -0.19519,-0.0558 -0.32067,-0.11154 -0.613455,-0.22308 -0.292785,-0.12547 -0.543744,-0.27884 -0.32067,-0.20913 -0.585571,-0.48797 -0.264901,-0.27885 -0.418264,-0.64134 -0.05577,-0.12548 -0.08365,-0.25096 -0.02788,-0.13942 -0.06971,-0.29279 -0.02788,-0.12548 -0.04183,-0.36249 -0.01394,-0.23702 0.01394,-0.39038 0.01394,-0.0558 0.01394,-0.16731 0.04183,-0.15336 0.06971,-0.29278 0.02788,-0.13943 0.08365,-0.27885 0.209132,-0.48797 0.529801,-0.82258 0.334612,-0.34856 0.766819,-0.6274 0.278843,-0.16731 0.599513,-0.2649 0.320669,-0.0976 0.683165,-0.18125 0.139422,-0.0279 0.264901,-0.0279 0.139422,-0.014 0.278843,-0.0418 0.04183,-0.0139 0.12548,0 0.09759,0.0139 0.125479,-0.0139 z" />
    <path id="path1037" style="font-style:normal;font-variant:normal;font-weight:bold;font-stretch:normal;font-family:'Alte Haas Grotesk';-inkscape-font-specification:'Alte Haas Grotesk Bold';stroke-width:0.87138462" d="m 75.689853,100.28951 q 1.463926,-0.0279 2.411992,0.50192 0.948067,0.5298 1.505753,1.40816 0.153364,0.23701 0.250959,0.48797 0.09759,0.23702 0.181248,0.52981 0.02788,0.0976 0.05577,0.22307 0.02788,0.12548 -0.01394,0.23702 -0.02788,0.0837 -0.111537,0.11153 -0.06971,0.014 -0.167306,0.0418 h -0.111537 q -0.08365,0.0279 -0.19519,0.0279 -0.09759,-0.0139 -0.19519,-0.0139 -0.12548,0 -0.306728,0.0139 -0.167306,0 -0.334611,0 -0.167306,-0.0139 -0.306728,-0.0279 -0.139421,-0.0279 -0.209132,-0.0697 -0.111537,-0.0976 -0.167306,-0.2649 -0.05577,-0.16731 -0.139422,-0.29279 -0.264901,-0.46009 -0.697107,-0.72499 -0.292786,-0.18125 -0.655282,-0.29278 -0.237016,-0.0837 -0.599512,-0.0837 -0.348554,0 -0.613455,0.0697 -0.111537,0.0279 -0.209132,0.0558 -0.08365,0.0139 -0.181248,0.0558 -0.948067,0.40432 -1.338447,1.33845 -0.06971,0.1673 -0.125479,0.34855 -0.05577,0.18125 -0.12548,0.37644 -0.01394,0.0976 -0.02788,0.18125 -0.01394,0.0837 -0.02788,0.18125 -0.02788,0.0836 -0.02788,0.18124 0.01394,0.0837 -0.01394,0.18125 -0.02788,0.11154 -0.02788,0.23702 0.01394,0.11154 0.01394,0.22307 0,0.0558 -0.01394,0.11154 0,0.0558 0.01394,0.11154 v 0.12548 q 0.02788,0.0697 0.01394,0.13942 0,0.0697 0.02788,0.13942 0,0.0837 0.02788,0.22307 0.02788,0.15337 0.05577,0.29279 0.02788,0.12548 0.06971,0.25096 0.19519,0.58557 0.501918,1.00383 0.306727,0.40433 0.808645,0.66923 0.153363,0.0697 0.320669,0.12548 0.167306,0.0418 0.362496,0.0976 0.06971,0.0139 0.12548,0.0279 0.06971,0 0.139421,0 h 0.111537 q 0.06971,0.0279 0.181248,0.0279 0.111538,-0.0139 0.181248,-0.0279 0.08365,0 0.12548,-0.0139 0.167306,-0.0279 0.306727,-0.0558 0.153364,-0.0279 0.292785,-0.0976 0.32067,-0.13942 0.543744,-0.3625 0.237017,-0.23701 0.418265,-0.5298 0.08365,-0.13942 0.139421,-0.30673 0.05577,-0.1673 0.12548,-0.33461 0.04183,-0.15336 0.08365,-0.27884 0.04183,-0.12548 0.181248,-0.19519 0.08365,-0.0279 0.209132,-0.0279 0.12548,0 0.237017,0 h 0.850471 q 0.12548,0 0.250959,0 0.139421,0 0.223074,0.0558 0.09759,0.0697 0.09759,0.22308 0.01394,0.15336 -0.02788,0.29278 l -0.08365,0.37644 q -0.06971,0.20913 -0.139421,0.40432 -0.05577,0.19519 -0.153364,0.37644 -0.06971,0.11154 -0.111537,0.22308 -0.04183,0.0976 -0.111537,0.19519 -0.766819,1.19902 -2.230745,1.67306 -0.153364,0.0558 -0.306728,0.0836 -0.153363,0.0279 -0.306727,0.0558 -0.06971,0.0279 -0.139421,0.0139 -0.05577,0 -0.12548,0.0279 -0.09759,0 -0.19519,0 -0.08365,0.014 -0.181248,0.0279 h -0.223074 q -0.12548,0 -0.250959,0 -0.12548,0 -0.237017,-0.0279 -0.04183,-0.0139 -0.139421,-0.0139 -0.09759,-0.0139 -0.195191,-0.0279 -0.09759,-0.014 -0.209132,-0.0279 -0.139421,-0.0418 -0.278843,-0.0697 -0.125479,-0.0279 -0.264901,-0.0697 -0.125479,-0.0418 -0.250959,-0.0837 -0.125479,-0.0558 -0.237016,-0.11154 -0.836529,-0.3625 -1.4221,-0.96201 -0.571628,-0.61345 -0.934124,-1.44998 -0.08365,-0.20913 -0.139422,-0.41827 -0.05577,-0.20913 -0.125479,-0.4322 -0.02788,-0.0697 -0.02788,-0.11154 0,-0.0558 -0.01394,-0.11154 -0.02788,-0.12548 -0.04183,-0.2649 -0.01394,-0.13942 -0.04183,-0.2649 -0.02788,-0.0697 -0.02788,-0.11154 0.01394,-0.0558 0,-0.11153 v -0.26491 q -0.02788,-0.0697 -0.02788,-0.20913 0,-0.13942 0.02788,-0.20913 0.01394,-0.0418 0,-0.0837 0,-0.0558 0,-0.0837 v -0.12547 q 0.02788,-0.11154 0.02788,-0.23702 0.01394,-0.12548 0.02788,-0.25096 0.02788,-0.11154 0.04183,-0.20913 0.01394,-0.11154 0.04183,-0.22308 0.05577,-0.19519 0.09759,-0.37644 0.04183,-0.19519 0.111537,-0.36249 0.06971,-0.18125 0.139422,-0.3625 0.08365,-0.18125 0.181248,-0.33461 0.223074,-0.39038 0.460091,-0.69711 0.06971,-0.0976 0.153363,-0.18124 0.08365,-0.0837 0.167306,-0.16731 0.348554,-0.34855 0.724992,-0.58557 0.39038,-0.25096 0.878356,-0.44615 0.167306,-0.0697 0.348554,-0.11154 0.181248,-0.0558 0.376438,-0.0976 0.08365,-0.0279 0.167306,-0.0279 0.08365,0 0.153363,-0.0279 0.111538,-0.0139 0.209133,-0.0139 0.111537,-0.014 0.223074,-0.0279 0.02788,-0.0139 0.06971,0 0.04183,0.0139 0.06971,0 z" />
    <path id="path1039" style="font-style:normal;font-variant:normal;font-weight:bold;font-stretch:normal;font-family:'Alte Haas Grotesk';-inkscape-font-specification:'Alte Haas Grotesk Bold';stroke-width:0.87138462" d="m 90.123246,110.14662 q 0.02788,0.0837 -0.01394,0.15336 -0.02788,0.0697 -0.06971,0.0976 -0.08365,0.0697 -0.237017,0.0697 -0.139421,-0.014 -0.292785,-0.014 h -0.766819 q -0.223074,0 -0.39038,-0.0139 -0.167306,-0.0279 -0.250959,-0.1673 -0.111537,-0.18125 -0.125479,-0.44615 -0.01394,-0.2649 -0.06971,-0.50192 0,-0.0558 -0.01394,-0.0976 0,-0.0558 0,-0.0976 -0.04183,-0.16731 -0.04183,-0.34856 0,-0.19519 -0.02788,-0.34855 -0.01394,-0.0418 -0.01394,-0.12548 -0.02788,-0.15336 -0.05577,-0.30673 -0.01394,-0.1673 -0.05577,-0.32067 -0.111537,-0.32067 -0.264901,-0.57162 -0.153364,-0.25096 -0.432207,-0.37644 -0.06971,-0.0279 -0.139421,-0.0418 -0.06971,-0.0139 -0.153364,-0.0418 -0.250959,-0.0837 -0.585571,-0.0837 -0.320669,0 -0.641339,0 h -1.143256 q -0.111538,0.0279 -0.19519,0.0418 -0.08365,0.0139 -0.139422,0.0836 -0.111537,0.13942 -0.09759,0.43221 0.01394,0.29278 0.01394,0.5298 v 1.7846 q 0,0.11153 -0.01394,0.23701 0,0.11154 0,0.22308 0,0.11153 0,0.20913 0,0.0837 -0.02788,0.15336 -0.04183,0.12548 -0.167306,0.16731 -0.06971,0.0279 -0.167306,0.0279 -0.09759,0 -0.209132,0 H 82.70602 q -0.223075,0 -0.474034,0.014 -0.250958,0 -0.376438,-0.0976 -0.111537,-0.0697 -0.111537,-0.25096 0,-0.19519 0,-0.37644 v -8.47683 q 0,-0.15336 -0.01394,-0.32067 0,-0.1673 0.06971,-0.2649 0.05577,-0.0837 0.209132,-0.13942 0.02788,-0.0139 0.05577,0 0.04183,0 0.06971,-0.0139 h 4.740333 q 0.223074,0 0.418264,0.0139 0.209133,0 0.390381,0.0418 0.06971,0.0279 0.139421,0.0279 0.08365,0 0.153364,0.0279 0.0976,0.0279 0.19519,0.0558 0.09759,0.0279 0.19519,0.0697 0.348554,0.15336 0.641339,0.37643 0.292786,0.22308 0.487976,0.51586 0.05577,0.0697 0.08365,0.15337 0.04183,0.0697 0.09759,0.13942 0.111537,0.19519 0.167306,0.40432 0.05577,0.20913 0.125479,0.46009 0.01394,0.0558 0,0.11154 0,0.0558 0.02788,0.11154 v 0.12548 q 0.02788,0.11153 0.01394,0.27884 -0.01394,0.15336 -0.04183,0.25096 -0.02788,0.11154 -0.02788,0.20913 0,0.0836 -0.02788,0.18125 -0.06971,0.20913 -0.139421,0.40432 -0.06971,0.18125 -0.181248,0.34855 -0.02789,0.0418 -0.06971,0.0976 -0.04183,0.0418 -0.06971,0.0837 -0.04183,0.0558 -0.09759,0.11154 -0.04183,0.0558 -0.09759,0.0976 -0.08365,0.0697 -0.167306,0.13942 -0.08365,0.0697 -0.181248,0.13942 -0.05577,0.0418 -0.111537,0.0976 -0.05577,0.0418 -0.08365,0.11154 -0.02788,0.0837 0.02788,0.13942 0.05577,0.0558 0.09759,0.0837 0.139422,0.11153 0.278843,0.22307 0.139422,0.11154 0.237017,0.2649 0.167306,0.23702 0.264901,0.48798 0.09759,0.25095 0.181248,0.57162 0.02788,0.12548 0.02788,0.26491 0.01394,0.13942 0.04183,0.2649 0,0.0837 0,0.1673 0.01394,0.0697 0.01394,0.15337 0.01394,0.0558 0,0.12547 0,0.0558 0.01394,0.12548 0.01394,0.0558 0,0.11154 0,0.0558 0.01394,0.12548 0.02788,0.13942 0.02788,0.29279 0,0.15336 0.02788,0.29278 l 0.04183,0.25096 q 0.02788,0.12548 0.05577,0.25096 0.02788,0.12548 0.05577,0.23702 z M 87.82279,103.8587 q 0.02788,-0.15336 0,-0.37643 -0.01394,-0.22308 -0.04183,-0.33462 -0.02788,-0.0558 -0.02788,-0.0976 0,-0.0418 -0.02788,-0.0837 -0.167306,-0.43221 -0.613455,-0.6274 -0.237016,-0.11154 -0.543744,-0.12548 -0.306727,-0.0139 -0.641339,-0.0139 h -1.61729 q -0.02788,0.0279 -0.05577,0.0279 -0.02788,-0.0139 -0.05577,-0.0139 -0.167306,0.0418 -0.223074,0.13942 -0.06971,0.11154 -0.06971,0.29279 0.01394,0.1673 0.01394,0.33461 v 1.29662 q 0,0.1673 0,0.33461 0,0.16731 0.06971,0.2649 0.05577,0.0837 0.181248,0.11154 0.125479,0.0279 0.278843,0.0418 0.153364,0.0139 0.320669,0.0139 0.167306,-0.0139 0.292786,-0.0139 h 0.822587 q 0.09759,0 0.209132,0.0139 0.111537,0 0.19519,-0.0279 h 0.181248 q 0.111537,-0.0279 0.209133,-0.0279 0.111537,0 0.209132,-0.0279 0.237016,-0.0697 0.418264,-0.18124 0.181248,-0.11154 0.306728,-0.29279 0.08365,-0.12548 0.125479,-0.27884 0.04183,-0.15337 0.08365,-0.34856 z" />
    <path id="path1041" style="font-style:normal;font-variant:normal;font-weight:bold;font-stretch:normal;font-family:'Alte Haas Grotesk';-inkscape-font-specification:'Alte Haas Grotesk Bold';stroke-width:0.87138462" d="m 92.181893,100.54047 h 1.199025 q 0.153364,0 0.292786,0.0139 0.139421,0 0.209132,0.0976 0.06971,0.0976 0.06971,0.25096 0.01394,0.15336 0.01394,0.33461 v 1.21297 4.83792 2.28652 q 0,0.18125 0,0.40432 0.01394,0.22307 -0.05577,0.33461 -0.05577,0.0976 -0.250959,0.15337 -0.09759,0.0279 -0.209132,0.0139 -0.111537,-0.0139 -0.223074,-0.0139 h -0.822587 q -0.153364,0 -0.292786,-0.014 -0.125479,-0.0139 -0.209132,-0.0836 -0.06971,-0.0697 -0.08365,-0.20913 -0.01394,-0.13942 -0.01394,-0.29279 v -1.21296 -5.08889 -2.03556 q 0,-0.19519 -0.01394,-0.46009 0,-0.2649 0.06971,-0.37643 0.05577,-0.0837 0.181248,-0.13943 0.04183,0 0.06971,0 0.04183,-0.0139 0.06971,-0.0139 z" />
    <path id="path1043" style="font-style:normal;font-variant:normal;font-weight:bold;font-stretch:normal;font-family:'Alte Haas Grotesk';-inkscape-font-specification:'Alte Haas Grotesk Bold';stroke-width:0.87138462" d="m 103.25087,101.76738 q 0.32067,0.44615 0.4601,0.98989 0.15336,0.54375 0.11153,1.31057 -0.0279,0.30672 -0.0976,0.57162 -0.0697,0.25096 -0.16731,0.47404 -0.0279,0.0558 -0.0558,0.11154 -0.0139,0.0418 -0.0418,0.0976 -0.0558,0.0976 -0.11154,0.19519 -0.0418,0.0837 -0.11154,0.16731 -0.27884,0.39038 -0.68316,0.64134 -0.39038,0.23701 -0.8923,0.40432 -0.15336,0.0558 -0.32067,0.0697 -0.16731,0.0139 -0.33461,0.0558 -0.0837,0.0139 -0.16731,0.0139 -0.0837,0 -0.1673,0.0139 h -0.57163 -1.171143 q -0.181248,0 -0.39038,0 -0.19519,0 -0.306728,0.0836 -0.139421,0.0976 -0.139421,0.34856 0,0.23701 0,0.47403 v 1.84037 q 0,0.1673 0,0.36249 0.01394,0.19519 -0.05577,0.30673 -0.05577,0.0976 -0.250958,0.15336 -0.0976,0.0279 -0.209133,0.014 -0.111537,-0.014 -0.223074,-0.014 h -0.808645 q -0.153364,0 -0.292785,0 -0.12548,-0.0139 -0.209133,-0.0836 -0.08365,-0.0697 -0.09759,-0.20913 -0.01394,-0.15337 -0.01394,-0.30673 v -8.33741 q 0,-0.19519 -0.01394,-0.46009 0,-0.2649 0.06971,-0.37644 0.05577,-0.0837 0.209132,-0.13942 0.02788,-0.0139 0.05577,0 0.04183,0 0.06971,-0.0139 h 4.029286 q 0.12548,0 0.25096,0 0.12547,-0.0139 0.23701,0.0139 h 0.0697 q 0.0697,0.0279 0.15337,0.0279 0.0837,0 0.15336,0.0279 0.0697,0.0139 0.12548,0.0139 0.0558,0 0.12548,0.0279 0.22307,0.0697 0.44615,0.13942 0.22307,0.0558 0.41826,0.1673 0.0697,0.0558 0.15337,0.0976 0.0837,0.0418 0.1673,0.11154 0.0697,0.0418 0.11154,0.0976 0.0558,0.0418 0.12548,0.0976 l 0.0837,0.0837 q 0.16731,0.16731 0.27884,0.33461 z m -1.53363,2.28651 q 0.0279,-0.15336 0.0139,-0.37643 0,-0.23702 -0.0418,-0.39038 -0.0837,-0.30673 -0.20913,-0.48798 -0.12548,-0.18125 -0.37644,-0.33461 -0.20913,-0.12548 -0.51586,-0.18125 -0.30672,-0.0697 -0.66922,-0.0837 -0.348554,-0.0139 -0.724992,0 -0.376438,0 -0.71105,0 -0.04183,0.0139 -0.08365,0.0279 -0.02788,0 -0.06971,0 -0.139422,0.0558 -0.181248,0.16731 -0.05577,0.11154 -0.05577,0.30673 0,0.18124 0,0.33461 v 1.3245 q 0,0.16731 0,0.37644 0,0.19519 0.06971,0.30673 0.05577,0.0837 0.167306,0.12548 0.111537,0.0418 0.250958,0.0558 0.139422,0 0.292786,0 0.167305,-0.014 0.306727,-0.014 0.738934,0 1.352384,-0.0697 0.61346,-0.0697 0.93413,-0.48797 0.0837,-0.12548 0.13942,-0.2649 0.0558,-0.15337 0.11154,-0.33462 z" />
    <path id="path1045" style="font-style:normal;font-variant:normal;font-weight:bold;font-stretch:normal;font-family:'Alte Haas Grotesk';-inkscape-font-specification:'Alte Haas Grotesk Bold';stroke-width:0.87138462" d="m 104.85379,100.52653 h 5.57686 1.4221 q 0.18125,0 0.34856,0.0139 0.18124,0 0.29278,0.0697 0.0418,0.0279 0.0558,0.0976 0.0279,0.0558 0.0418,0.12548 v 0.0697 q 0.0139,0.0558 0.0139,0.12548 0,0.0697 0,0.13942 v 0.54374 q 0,0.0976 0,0.19519 0.0139,0.0837 -0.0139,0.16731 -0.0697,0.23702 -0.27885,0.25096 -0.20913,0.0139 -0.50191,0.0139 h -1.4221 q -0.27885,0 -0.48798,0.0279 -0.19519,0.014 -0.2649,0.25096 -0.0139,0.0697 0,0.12548 0.0139,0.0558 -0.0139,0.12548 -0.0139,0.0837 -0.0139,0.19519 0.0139,0.0976 0.0139,0.18125 v 1.24085 4.01534 1.31056 q 0,0.22308 -0.0279,0.39038 -0.0139,0.15337 -0.1673,0.22308 -0.0976,0.0279 -0.22308,0.0279 -0.12548,0 -0.23701,0 h -0.94807 q -0.15336,0 -0.29279,-0.0139 -0.12547,-0.0139 -0.19519,-0.0976 -0.0697,-0.11154 -0.0697,-0.27885 0,-0.18125 0,-0.36249 v -1.39422 -3.87592 -1.18508 q 0,-0.0976 0,-0.19519 0.0139,-0.11154 -0.0139,-0.19519 -0.0139,-0.0697 0,-0.12548 0.0139,-0.0558 -0.0139,-0.11154 -0.0697,-0.23701 -0.29279,-0.25096 -0.20913,-0.0279 -0.50191,-0.0279 h -1.29662 q -0.15337,0 -0.34856,0.0139 -0.18125,0 -0.29278,-0.0279 -0.11154,-0.0418 -0.16731,-0.12548 -0.0418,-0.0697 -0.0558,-0.18125 0,-0.11154 0,-0.22307 v -0.68317 q 0,-0.18125 0.0139,-0.32067 0.0279,-0.13942 0.13943,-0.20913 0.0418,-0.0279 0.15336,-0.0558 0.0697,0 0.0697,0 z" />
  </g>
</svg>
