<?xml version="1.0" encoding="UTF-8" standalone="no"?>
<svg xmlns:dc="http://purl.org/dc/elements/1.1/" xmlns:cc="http://creativecommons.org/ns#" xmlns:rdf="http://www.w3.org/1999/02/22-rdf-syntax-ns#" xmlns:svg="http://www.w3.org/2000/svg" xmlns="http://www.w3.org/2000/svg" id="svg8" version="1.1" viewBox="0 0 135.02896 43.279221" height="43.279221mm" width="135.02896mm">
  <defs id="defs2" />
  <metadata id="metadata5">
    <rdf:RDF>
      <cc:Work rdf:about="">
        <dc:format>image/svg+xml</dc:format>
        <dc:type rdf:resource="http://purl.org/dc/dcmitype/StillImage" />
        <dc:title></dc:title>
      </cc:Work>
    </rdf:RDF>
  </metadata>
  <g transform="translate(-27.198374,-30.729208)" id="layer1">
    <g transform="matrix(0.16740133,0,0,0.16740133,103.63302,47.321868)" id="g850">
      <circle style="opacity:1;vector-effect:none;fill:#ac0000;fill-opacity:1;stroke:none;stroke-width:0.43000683;stroke-linecap:butt;stroke-linejoin:miter;stroke-miterlimit:4;stroke-dasharray:none;stroke-dashoffset:0;stroke-opacity:1" id="path832" cx="-327.32736" cy="30.148809" r="129.26785" />
      <g id="g819" transform="matrix(0.20255681,0,0,0.20255681,-408.35009,-102.03236)" style="fill:#ffffff">
        <path id="path815" d="M 359.46,341.17 C 224.89,344.6251 176.42,472.69 169.35,541.61 142.04,888.64 88.395,901.4 23.3,904.92 c -17.863,0 -17.609,29.706 0,29.706 h 753.4 c 17.609,0 17.863,-29.706 0,-29.706 -65.096,-3.5224 -118.8,-21.45 -146.11,-368.48 -5.7731,-65.039 -55.477,-191.82 -190.05,-195.27 0,-119.38 -79.898,-116.36 -81.082,0 z" style="fill:#ffffff;fill-rule:evenodd" />
        <path id="path817" style="color:#000000;isolation:auto;mix-blend-mode:normal;solid-color:#000000;fill:#ffffff;color-rendering:auto;image-rendering:auto;shape-rendering:auto" d="m 323.14,950.41 a 79.994,79.994 0 0 0 -3.1361,21.951 79.994,79.994 0 0 0 80,80.002 79.994,79.994 0 0 0 80,-80.002 79.994,79.994 0 0 0 -3.0791,-21.951 h -153.78 z" />
      </g>
      <path style="opacity:1;vector-effect:none;fill:#000000;fill-opacity:1;stroke:none;stroke-width:0.43000683;stroke-linecap:butt;stroke-linejoin:miter;stroke-miterlimit:4;stroke-dasharray:none;stroke-dashoffset:0;stroke-opacity:1" id="path834" d="m -123.76151,25.114821 -82.07219,-10e-7 41.03609,-71.076604 z" transform="matrix(0,-0.36185549,0.36185549,0,-180.82927,-29.48411)" />
      <rect style="opacity:1;vector-effect:none;fill:#000000;fill-opacity:1;stroke:none;stroke-width:0.43000683;stroke-linecap:butt;stroke-linejoin:miter;stroke-miterlimit:4;stroke-dasharray:none;stroke-dashoffset:0;stroke-opacity:1" id="rect836" width="522.36304" height="108.85724" x="-172.34006" y="-24.27981" rx="23.434525" ry="23.434525" />
      <g id="text840" style="font-style:normal;font-weight:normal;font-size:37.10733795px;line-height:1.25;font-family:sans-serif;letter-spacing:0px;word-spacing:0px;fill:#ffffff;fill-opacity:1;stroke:none;stroke-width:0.92768341" aria-label="Notifications are turn on">
        <path id="path821" style="fill:#ffffff;stroke-width:0.92768341" d="m -135.87716,17.003606 h 4.92832 l 11.99465,22.630403 V 17.003606 h 3.55129 V 44.055 h -4.92832 L -132.32587,21.424597 V 44.055 h -3.55129 z" />
        <path id="path823" style="fill:#ffffff;stroke-width:0.92768341" d="m -100.40052,26.099252 q -2.68158,0 -4.2398,2.101783 -1.55822,2.083664 -1.55822,5.725546 0,3.641883 1.5401,5.743666 1.55822,2.083664 4.25792,2.083664 2.66347,0 4.221688,-2.101783 1.558218,-2.101783 1.558218,-5.725547 0,-3.605644 -1.558218,-5.707427 -1.558218,-2.119902 -4.221688,-2.119902 z m 0,-2.826535 q 4.34852,0 6.830798,2.826535 2.482278,2.826536 2.482278,7.827329 0,4.982675 -2.482278,7.82733 -2.482278,2.826535 -6.830798,2.826535 -4.36663,0 -6.84891,-2.826535 -2.46416,-2.844655 -2.46416,-7.82733 0,-5.000793 2.46416,-7.827329 2.48228,-2.826535 6.84891,-2.826535 z" />
        <path id="path825" style="fill:#ffffff;stroke-width:0.92768341" d="m -82.281699,18.000141 v 5.761784 h 6.867031 v 2.590991 h -6.867031 v 11.016241 q 0,2.482278 0.670396,3.188912 0.688515,0.706633 2.772179,0.706633 h 3.424456 V 44.055 h -3.424456 q -3.859308,0 -5.326932,-1.431386 -1.467625,-1.449506 -1.467625,-5.254457 V 26.352916 h -2.44604 v -2.590991 h 2.44604 v -5.761784 z" />
        <path id="path827" style="fill:#ffffff;stroke-width:0.92768341" d="m -71.011796,23.761925 h 3.333862 V 44.055 h -3.333862 z m 0,-7.899805 h 3.333862 v 4.221685 h -3.333862 z" />
        <path id="path829" style="fill:#ffffff;stroke-width:0.92768341" d="M -44.322778,23.761925 V 44.055 h -3.351981 V 26.352916 h -9.150003 V 44.055 h -3.351981 V 26.352916 h -3.188912 v -2.590991 h 3.188912 v -1.413268 q 0,-3.315743 1.558218,-4.892081 1.576337,-1.594456 4.819606,-1.594456 h 3.351981 v 2.77218 h -3.188912 q -1.793763,0 -2.500397,0.724752 -0.688515,0.724753 -0.688515,2.60911 v 1.793763 z m -3.351981,-7.863567 h 3.351981 v 4.221685 h -3.351981 z" />
        <path id="path831" style="fill:#ffffff;stroke-width:0.92768341" d="m -22.707025,24.541034 v 3.116437 q -1.413268,-0.77911 -2.844655,-1.159605 -1.413268,-0.398614 -2.862773,-0.398614 -3.243268,0 -5.037031,2.065545 -1.793763,2.047427 -1.793763,5.761784 0,3.714358 1.793763,5.779903 1.793763,2.047427 5.037031,2.047427 1.449505,0 2.862773,-0.380496 1.431387,-0.398614 2.844655,-1.177723 v 3.080199 q -1.395149,0.652278 -2.899011,0.978416 -1.485743,0.326139 -3.170793,0.326139 -4.584061,0 -7.283765,-2.880892 -2.699704,-2.880892 -2.699704,-7.772973 0,-4.964556 2.717823,-7.80921 2.735941,-2.844654 7.483072,-2.844654 1.540099,0 3.007723,0.326139 1.467624,0.308019 2.844655,0.942178 z" />
        <path id="path833" style="fill:#ffffff;stroke-width:0.92768341" d="m -7.6502878,33.854106 q -4.0404962,0 -5.5987142,0.92406 -1.558219,0.92406 -1.558219,3.152674 0,1.775644 1.159605,2.826536 1.177723,1.032772 3.188912,1.032772 2.7721786,0 4.4391098,-1.956832 1.68505,-1.974951 1.68505,-5.236338 v -0.742872 z m 6.649606,-1.37703 V 44.055 h -3.3338624 v -3.080199 q -1.1414855,1.84812 -2.8446543,2.735942 -1.7031689,0.869703 -4.1673285,0.869703 -3.116436,0 -4.964555,-1.739406 -1.830001,-1.757526 -1.830001,-4.692774 0,-3.424457 2.282971,-5.163863 2.30109,-1.739407 6.8489129,-1.739407 h 4.6746549 v -0.326138 q 0,-2.30109 -1.5219807,-3.551288 -1.5038618,-1.268318 -4.2398031,-1.268318 -1.739407,0 -3.388219,0.416733 -1.648812,0.416733 -3.170793,1.250198 v -3.080198 q 1.830001,-0.706634 3.551288,-1.050892 1.721288,-0.362376 3.3519814,-0.362376 4.4028726,0 6.5771307,2.282971 2.1742581,2.282971 2.1742581,6.921388 z" />
        <path id="path835" style="fill:#ffffff;stroke-width:0.92768341" d="m 9.182084,18.000141 v 5.761784 h 6.867032 v 2.590991 H 9.182084 v 11.016241 q 0,2.482278 0.6703962,3.188912 0.6885148,0.706633 2.7721788,0.706633 h 3.424457 V 44.055 h -3.424457 q -3.8593078,0 -5.326932,-1.431386 Q 5.8301028,41.174108 5.8301028,37.369157 V 26.352916 H 3.3840624 v -2.590991 h 2.4460404 v -5.761784 z" />
        <path id="path837" style="fill:#ffffff;stroke-width:0.92768341" d="m 20.451995,23.761925 h 3.333862 V 44.055 h -3.333862 z m 0,-7.899805 h 3.333862 v 4.221685 h -3.333862 z" />
        <path id="path839" style="fill:#ffffff;stroke-width:0.92768341" d="m 38.60705,26.099252 q -2.681585,0 -4.239803,2.101783 -1.558219,2.083664 -1.558219,5.725546 0,3.641883 1.5401,5.743666 1.558218,2.083664 4.257922,2.083664 2.663466,0 4.221684,-2.101783 1.558219,-2.101783 1.558219,-5.725547 0,-3.605644 -1.558219,-5.707427 -1.558218,-2.119902 -4.221684,-2.119902 z m 0,-2.826535 q 4.348516,0 6.830794,2.826535 2.482278,2.826536 2.482278,7.827329 0,4.982675 -2.482278,7.82733 -2.482278,2.826535 -6.830794,2.826535 -4.366635,0 -6.848913,-2.826535 -2.464159,-2.844655 -2.464159,-7.82733 0,-5.000793 2.464159,-7.827329 2.482278,-2.826535 6.848913,-2.826535 z" />
        <path id="path841" style="fill:#ffffff;stroke-width:0.92768341" d="M 70.296856,31.80668 V 44.055 H 66.962993 V 31.915393 q 0,-2.880892 -1.123366,-4.312279 -1.123367,-1.431386 -3.3701,-1.431386 -2.699704,0 -4.257923,1.721287 -1.558218,1.721288 -1.558218,4.692774 V 44.055 H 53.301405 V 23.761925 h 3.351981 v 3.152674 q 1.195842,-1.83 2.808417,-2.735941 1.630693,-0.905941 3.750595,-0.905941 3.496932,0 5.290695,2.174258 1.793763,2.156139 1.793763,6.359705 z" />
        <path id="path843" style="fill:#ffffff;stroke-width:0.92768341" d="m 89.919546,24.359846 v 3.152674 q -1.413268,-0.724753 -2.935248,-1.087129 -1.521981,-0.362376 -3.152674,-0.362376 -2.482278,0 -3.732477,0.76099 -1.232079,0.76099 -1.232079,2.282971 0,1.159604 0.887822,1.830001 0.887822,0.652277 3.569407,1.250198 l 1.141485,0.253663 q 3.551288,0.760991 5.037031,2.15614 1.503862,1.37703 1.503862,3.859308 0,2.826535 -2.246733,4.475348 -2.228615,1.648812 -6.142279,1.648812 -1.630694,0 -3.406338,-0.326139 -1.757525,-0.30802 -3.714357,-0.942178 v -3.442576 q 1.848119,0.960298 3.641882,1.449506 1.793763,0.471089 3.551288,0.471089 2.355446,0 3.623763,-0.797228 1.268318,-0.815347 1.268318,-2.282971 0,-1.358911 -0.92406,-2.083664 -0.905941,-0.724753 -4.004259,-1.395149 l -1.159604,-0.271782 q -3.098318,-0.652277 -4.475348,-1.99307 -1.37703,-1.358911 -1.37703,-3.714357 0,-2.862774 2.029308,-4.420992 2.029307,-1.558218 5.761784,-1.558218 1.848119,0 3.478812,0.271782 1.630694,0.271782 3.007724,0.815347 z" />
        <path id="path845" style="fill:#ffffff;stroke-width:0.92768341" d="m 117.36956,33.854106 q -4.0405,0 -5.59872,0.92406 -1.55822,0.92406 -1.55822,3.152674 0,1.775644 1.15961,2.826536 1.17772,1.032772 3.18891,1.032772 2.77218,0 4.43911,-1.956832 1.68505,-1.974951 1.68505,-5.236338 v -0.742872 z m 6.6496,-1.37703 V 44.055 h -3.33386 v -3.080199 q -1.14149,1.84812 -2.84465,2.735942 -1.70317,0.869703 -4.16733,0.869703 -3.11644,0 -4.96456,-1.739406 -1.83,-1.757526 -1.83,-4.692774 0,-3.424457 2.28297,-5.163863 2.30109,-1.739407 6.84891,-1.739407 h 4.67466 v -0.326138 q 0,-2.30109 -1.52198,-3.551288 -1.50386,-1.268318 -4.2398,-1.268318 -1.73941,0 -3.38822,0.416733 -1.64882,0.416733 -3.1708,1.250198 v -3.080198 q 1.83,-0.706634 3.55129,-1.050892 1.72129,-0.362376 3.35198,-0.362376 4.40288,0 6.57713,2.282971 2.17426,2.282971 2.17426,6.921388 z" />
        <path id="path847" style="fill:#ffffff;stroke-width:0.92768341" d="m 142.66342,26.878361 q -0.56168,-0.326138 -1.23208,-0.471089 -0.65227,-0.163069 -1.4495,-0.163069 -2.82654,0 -4.34852,1.848119 -1.50386,1.830001 -1.50386,5.272576 V 44.055 h -3.35198 V 23.761925 h 3.35198 v 3.152674 q 1.05089,-1.848119 2.73594,-2.735941 1.68505,-0.905941 4.09485,-0.905941 0.34426,0 0.76099,0.05436 0.41674,0.03624 0.92406,0.126832 z" />
        <path id="path849" style="fill:#ffffff;stroke-width:0.92768341" d="m 162.75719,33.074997 v 1.630694 h -15.32852 q 0.21743,3.442575 2.06555,5.254457 1.86624,1.793763 5.18198,1.793763 1.9206,0 3.71436,-0.47109 1.81188,-0.471089 3.58752,-1.413268 v 3.152675 q -1.79376,0.76099 -3.67811,1.159604 -1.88436,0.398614 -3.82308,0.398614 -4.85584,0 -7.70049,-2.826535 -2.82654,-2.826536 -2.82654,-7.646141 0,-4.982675 2.68159,-7.899805 2.6997,-2.935248 7.26564,-2.935248 4.09486,0 6.46842,2.645347 2.39168,2.627229 2.39168,7.156933 z m -3.33386,-0.978416 q -0.0362,-2.735942 -1.5401,-4.366635 -1.48574,-1.630694 -3.9499,-1.630694 -2.7903,0 -4.47535,1.576337 -1.66693,1.576338 -1.92059,4.439111 z" />
        <path id="path851" style="fill:#ffffff;stroke-width:0.92768341" d="m 183.34015,18.000141 v 5.761784 h 6.86703 v 2.590991 h -6.86703 v 11.016241 q 0,2.482278 0.6704,3.188912 0.68851,0.706633 2.77218,0.706633 h 3.42445 V 44.055 h -3.42445 q -3.85931,0 -5.32694,-1.431386 -1.46762,-1.449506 -1.46762,-5.254457 V 26.352916 h -2.44604 v -2.590991 h 2.44604 v -5.761784 z" />
        <path id="path853" style="fill:#ffffff;stroke-width:0.92768341" d="M 194.2658,36.046483 V 23.761925 h 3.33387 v 12.157726 q 0,2.880892 1.12336,4.330398 1.12337,1.431386 3.3701,1.431386 2.69971,0 4.25792,-1.721287 1.57634,-1.721288 1.57634,-4.692774 V 23.761925 h 3.33386 V 44.055 h -3.33386 v -3.116436 q -1.21396,1.848119 -2.82653,2.75406 -1.59446,0.887822 -3.71436,0.887822 -3.49693,0 -5.30882,-2.174258 -1.81188,-2.174258 -1.81188,-6.359705 z m 8.38902,-12.773766 z" />
        <path id="path855" style="fill:#ffffff;stroke-width:0.92768341" d="m 229.92365,26.878361 q -0.56169,-0.326138 -1.23208,-0.471089 -0.65228,-0.163069 -1.44951,-0.163069 -2.82653,0 -4.34851,1.848119 -1.50387,1.830001 -1.50387,5.272576 V 44.055 H 218.0377 V 23.761925 h 3.35198 v 3.152674 q 1.0509,-1.848119 2.73595,-2.735941 1.68505,-0.905941 4.09485,-0.905941 0.34426,0 0.76099,0.05436 0.41673,0.03624 0.92406,0.126832 z" />
        <path id="path857" style="fill:#ffffff;stroke-width:0.92768341" d="M 249.67317,31.80668 V 44.055 h -3.33386 V 31.915393 q 0,-2.880892 -1.12337,-4.312279 -1.12337,-1.431386 -3.3701,-1.431386 -2.6997,0 -4.25792,1.721287 -1.55822,1.721288 -1.55822,4.692774 V 44.055 h -3.35198 V 23.761925 h 3.35198 v 3.152674 q 1.19584,-1.83 2.80842,-2.735941 1.63069,-0.905941 3.75059,-0.905941 3.49693,0 5.29069,2.174258 1.79377,2.156139 1.79377,6.359705 z" />
        <path id="path859" style="fill:#ffffff;stroke-width:0.92768341" d="m 276.03604,26.099252 q -2.68159,0 -4.23981,2.101783 -1.55822,2.083664 -1.55822,5.725546 0,3.641883 1.5401,5.743666 1.55822,2.083664 4.25793,2.083664 2.66346,0 4.22168,-2.101783 1.55822,-2.101783 1.55822,-5.725547 0,-3.605644 -1.55822,-5.707427 -1.55822,-2.119902 -4.22168,-2.119902 z m 0,-2.826535 q 4.34851,0 6.83079,2.826535 2.48228,2.826536 2.48228,7.827329 0,4.982675 -2.48228,7.82733 -2.48228,2.826535 -6.83079,2.826535 -4.36664,0 -6.84892,-2.826535 -2.46416,-2.844655 -2.46416,-7.82733 0,-5.000793 2.46416,-7.827329 2.48228,-2.826535 6.84892,-2.826535 z" />
        <path id="path861" style="fill:#ffffff;stroke-width:0.92768341" d="M 307.72584,31.80668 V 44.055 h -3.33386 V 31.915393 q 0,-2.880892 -1.12337,-4.312279 -1.12336,-1.431386 -3.3701,-1.431386 -2.6997,0 -4.25792,1.721287 -1.55822,1.721288 -1.55822,4.692774 V 44.055 h -3.35198 V 23.761925 h 3.35198 v 3.152674 q 1.19584,-1.83 2.80842,-2.735941 1.63069,-0.905941 3.75059,-0.905941 3.49694,0 5.2907,2.174258 1.79376,2.156139 1.79376,6.359705 z" />
      </g>
    </g>
  </g>
</svg>
