<?xml version="1.0" encoding="UTF-8" standalone="no"?>
<!-- Created with Inkscape (http://www.inkscape.org/) -->

<svg
   xmlns:dc="http://purl.org/dc/elements/1.1/"
   xmlns:cc="http://creativecommons.org/ns#"
   xmlns:rdf="http://www.w3.org/1999/02/22-rdf-syntax-ns#"
   xmlns:svg="http://www.w3.org/2000/svg"
   xmlns="http://www.w3.org/2000/svg"
   xmlns:xlink="http://www.w3.org/1999/xlink"
   xmlns:sodipodi="http://sodipodi.sourceforge.net/DTD/sodipodi-0.dtd"
   xmlns:inkscape="http://www.inkscape.org/namespaces/inkscape"
   width="211.66667mm"
   height="137.58333mm"
   viewBox="0 0 211.66667 137.58333"
   version="1.1"
   id="svg8"
   inkscape:version="0.92.4 (5da689c313, 2019-01-14)"
   sodipodi:docname="open_source.svg">
  <defs
     id="defs2"><linearGradient
   inkscape:collect="always"
   id="linearGradient1572">
  <stop
     style="stop-color:#a8a8a8;stop-opacity:1"
     offset="0"
     id="stop1568" />
  <stop
     style="stop-color:#ffffff;stop-opacity:1"
     offset="1"
     id="stop1570" />
</linearGradient>
<linearGradient
   id="linearGradient1204"
   inkscape:collect="always">
  <stop
     id="stop1200"
     offset="0"
     style="stop-color:#b3b3b3;stop-opacity:1;" />
  <stop
     id="stop1202"
     offset="1"
     style="stop-color:#ffffff;stop-opacity:1" />
</linearGradient>
<linearGradient
   inkscape:collect="always"
   id="linearGradient1173">
  <stop
     style="stop-color:#b3b3b3;stop-opacity:1;"
     offset="0"
     id="stop1169" />
  <stop
     style="stop-color:#b3b3b3;stop-opacity:0;"
     offset="1"
     id="stop1171" />
</linearGradient>

	
	
	
		
<linearGradient
   gradientTransform="matrix(3.7795276,0,0,3.7795276,1579.8785,792.72956)"
   inkscape:collect="always"
   xlink:href="#linearGradient1173"
   id="linearGradient1175-6"
   x1="-415.87137"
   y1="-204.39763"
   x2="722.69678"
   y2="551.44061"
   gradientUnits="userSpaceOnUse" />
<linearGradient
   gradientTransform="matrix(3.7795276,0,0,3.7795276,1579.8785,792.72956)"
   inkscape:collect="always"
   xlink:href="#linearGradient1204"
   id="linearGradient1175-3"
   x1="-415.87137"
   y1="-204.39763"
   x2="722.69678"
   y2="551.44061"
   gradientUnits="userSpaceOnUse" />
<linearGradient
   inkscape:collect="always"
   xlink:href="#linearGradient1572"
   id="linearGradient1238"
   gradientUnits="userSpaceOnUse"
   x1="-415.87137"
   y1="-204.39763"
   x2="722.69678"
   y2="551.44061"
   gradientTransform="matrix(0.1850373,0,0,0.17973944,-419.83706,493.80388)" />
<linearGradient
   inkscape:collect="always"
   xlink:href="#linearGradient1204"
   id="linearGradient1238-2"
   gradientUnits="userSpaceOnUse"
   x1="-415.87137"
   y1="-204.39763"
   x2="722.69678"
   y2="551.44061"
   gradientTransform="matrix(4.0442831,0,0,3.9704266,1690.5488,832.76929)" />
</defs>
  <sodipodi:namedview
     id="base"
     pagecolor="#ffffff"
     bordercolor="#666666"
     borderopacity="1.0"
     inkscape:pageopacity="0.0"
     inkscape:pageshadow="2"
     inkscape:zoom="0.98994949"
     inkscape:cx="345.21507"
     inkscape:cy="330.53097"
     inkscape:document-units="mm"
     inkscape:current-layer="layer1"
     showgrid="false"
     inkscape:snap-global="false"
     inkscape:window-width="1920"
     inkscape:window-height="1017"
     inkscape:window-x="-8"
     inkscape:window-y="-8"
     inkscape:window-maximized="1"
     fit-margin-top="0"
     fit-margin-left="0"
     fit-margin-right="0"
     fit-margin-bottom="0" />
  <metadata
     id="metadata5">
    <rdf:RDF>
      <cc:Work
         rdf:about="">
        <dc:format>image/svg+xml</dc:format>
        <dc:type
           rdf:resource="http://purl.org/dc/dcmitype/StillImage" />
        <dc:title></dc:title>
      </cc:Work>
    </rdf:RDF>
  </metadata>
  <g
     inkscape:label="Layer 1"
     inkscape:groupmode="layer"
     id="layer1"
     transform="translate(496.99542,-455.72681)">
    <rect
       style="fill:url(#linearGradient1238);fill-opacity:1;stroke:none;stroke-width:1.82369137;stroke-miterlimit:4;stroke-dasharray:none"
       id="rect1165"
       width="211.66667"
       height="137.58333"
       x="-497.18442"
       y="456.1048" />
    <g
       id="g1566"
       transform="matrix(0.17292399,0,0,0.17292399,-411.05299,491.44693)">
      <g
         transform="matrix(1.1593748,0,0,1.1593748,-12.619296,-3.9008344)"
         id="g1266">
        <path
           sodipodi:type="star"
           style="fill:none;fill-opacity:1;stroke:#000000;stroke-width:7.57564354;stroke-miterlimit:4;stroke-dasharray:none"
           id="path989"
           sodipodi:sides="5"
           sodipodi:cx="-216.20239"
           sodipodi:cy="154.88095"
           sodipodi:r1="83.312668"
           sodipodi:r2="41.656338"
           sodipodi:arg1="1.0471976"
           sodipodi:arg2="1.6755161"
           inkscape:flatsided="true"
           inkscape:rounded="0"
           inkscape:randomized="0"
           d="m -174.54606,227.03184 -97.40339,-10.23751 -20.36285,-95.7997 84.81846,-48.969951 72.78353,65.534601 z"
           inkscape:transform-center-x="0.22606757"
           inkscape:transform-center-y="-7.7403436"
           transform="rotate(-6.5031286,283.74879,-2653.4365)" />
        <g
           id="g1010"
           transform="translate(0,-1.889881)">
          <circle
             style="fill:#f9f9f9;fill-opacity:1;stroke-width:0.30443451"
             id="circle997"
             cx="101.26894"
             cy="197.5448"
             r="28.599854" />
          <g
             transform="matrix(0.78998926,0,0,0.78998926,75.989282,172.26474)"
             id="g856">
            <path
               inkscape:connector-curvature="0"
               d="m 31.950523,-4.4620347 c -9.989671,0 -18.780397,3.69693777 -25.5736498,10.5891435 C -0.61658698,13.219522 -4.4124779,22.410664 -4.4124779,31.99992 c 0,9.69051 3.6957871,18.681444 10.6892473,25.673754 6.9934606,6.99346 16.0833476,10.789351 25.6737536,10.789351 9.589256,0 18.880502,-3.795891 26.073019,-10.888304 6.793253,-6.693149 10.388936,-15.583979 10.388936,-25.574801 0,-9.889567 -3.595683,-18.879351 -10.48904,-25.7727074 C 50.931129,-0.76624755 41.940195,-4.4620347 31.950523,-4.4620347 Z m 0.09895,6.5930449 c 8.192404,0 15.485025,3.0963148 21.178287,8.7918768 5.594307,5.593158 8.590518,12.985882 8.590518,21.077033 0,8.191254 -2.897257,15.384922 -8.490415,20.879126 -5.894619,5.793365 -13.486401,8.89083 -21.27839,8.89083 -7.890943,0 -15.283668,-3.096315 -20.97808,-8.791877 -5.6944114,-5.694412 -8.89083,-13.18609 -8.89083,-20.978079 0,-7.890943 3.1964186,-15.382621 8.89083,-21.178287 5.594308,-5.6932612 12.786825,-8.6906228 20.97808,-8.6906228 z"
               id="path840"
               style="stroke-width:1.15061867" />
            <path
               inkscape:connector-curvature="0"
               id="c"
               d="m 31.580024,25.940762 c -2.059607,-3.755619 -5.573597,-5.250273 -9.65254,-5.250273 -5.937192,0 -10.662783,4.199758 -10.662783,11.30828 0,7.229337 4.442539,11.309431 10.864142,11.309431 4.120365,0 7.634354,-2.262116 9.571996,-5.694412 L 27.177757,35.3114 c -1.010243,2.422053 -2.545168,3.150394 -4.48281,3.150394 -3.352903,0 -4.887828,-2.786798 -4.887828,-6.463025 0,-3.673925 1.293295,-6.461874 4.887828,-6.461874 0.968821,0 2.907613,0.524682 4.038671,2.949035 z"
               style="stroke-width:1.15061867" />
            <use
               height="100%"
               width="100%"
               y="0"
               x="0"
               xlink:href="#c"
               transform="translate(21.03446)"
               id="use843" />
          </g>
        </g>
        <g
           id="g909"
           transform="matrix(0.78125,0,0,0.78125,158.08145,145.56405)">
	<circle
   id="circle903"
   r="28.275999"
   cy="28.806"
   cx="37.637001"
   style="fill:#ffffff" />

	<g
   id="g907">
		<path
   id="path905"
   d="m 37.443,-3.5 c 8.988,0 16.57,3.085 22.742,9.257 6.208,6.21 9.315,13.791 9.315,22.743 0,8.991 -3.049,16.476 -9.145,22.456 C 53.879,57.319 46.242,60.5 37.443,60.5 28.794,60.5 21.29,57.356 14.929,51.07 8.644,44.784 5.5,37.262 5.5,28.5 5.5,19.739 8.644,12.158 14.929,5.758 21.101,-0.415 28.604,-3.5 37.443,-3.5 Z m 0.114,5.772 c -7.276,0 -13.428,2.553 -18.457,7.657 -5.22,5.334 -7.829,11.525 -7.829,18.572 0,7.086 2.59,13.22 7.77,18.398 5.181,5.182 11.352,7.771 18.514,7.771 7.123,0 13.334,-2.607 18.629,-7.828 5.029,-4.838 7.543,-10.952 7.543,-18.343 0,-7.276 -2.553,-13.465 -7.656,-18.571 C 50.967,4.824 44.795,2.272 37.557,2.272 Z m 8.572,18.285 V 33.642 H 42.473 V 49.184 H 32.529 V 33.643 H 28.873 V 20.557 c 0,-0.572 0.2,-1.057 0.599,-1.457 0.401,-0.399 0.887,-0.6 1.457,-0.6 h 13.144 c 0.533,0 1.01,0.2 1.428,0.6 0.417,0.4 0.628,0.886 0.628,1.457 z M 33.042,12.329 c 0,-3.008 1.485,-4.514 4.458,-4.514 2.973,0 4.457,1.504 4.457,4.514 0,2.971 -1.486,4.457 -4.457,4.457 -2.971,0 -4.458,-1.486 -4.458,-4.457 z"
   inkscape:connector-curvature="0" />

	</g>

</g>
        <g
           id="g928"
           transform="matrix(0.78125,0,0,0.78125,125.74698,235.91533)">
	<circle
   id="circle922"
   r="29.471001"
   cy="28.736"
   cx="37.470001"
   style="fill:#ffffff" />

	<g
   id="g926">
		<path
   id="path924"
   d="m 37.442,-3.5 c 8.99,0 16.571,3.085 22.743,9.256 6.208,6.172 9.315,13.753 9.315,22.744 0,8.992 -3.048,16.476 -9.145,22.458 C 53.88,57.32 46.241,60.5 37.442,60.5 28.756,60.5 21.252,57.338 14.929,51.015 8.644,44.728 5.5,37.225 5.5,28.5 5.5,19.738 8.644,12.157 14.929,5.757 21.1,-0.414 28.604,-3.5 37.442,-3.5 Z M 12.7,19.872 c -0.952,2.628 -1.429,5.505 -1.429,8.629 0,7.086 2.59,13.22 7.77,18.4 5.219,5.144 11.391,7.715 18.514,7.715 7.201,0 13.409,-2.608 18.63,-7.829 1.867,-1.79 3.332,-3.657 4.398,-5.602 L 48.527,35.814 c -0.421,2.02 -1.439,3.667 -3.057,4.942 -1.622,1.276 -3.535,2.011 -5.744,2.2 v 4.915 H 36.012 V 42.956 C 32.469,42.92 29.23,41.644 26.298,39.129 l 4.4,-4.457 c 2.094,1.942 4.476,2.913 7.143,2.913 1.104,0 2.048,-0.246 2.83,-0.743 0.78,-0.494 1.172,-1.312 1.172,-2.457 0,-0.801 -0.287,-1.448 -0.858,-1.943 L 37.9,31.127 34.129,29.412 29.043,27.183 Z M 37.557,2.214 c -7.276,0 -13.428,2.571 -18.457,7.714 -1.258,1.258 -2.439,2.686 -3.543,4.287 L 27.786,19.7 c 0.533,-1.676 1.542,-3.019 3.029,-4.028 1.484,-1.009 3.218,-1.571 5.2,-1.686 V 9.071 h 3.715 v 4.915 c 2.934,0.153 5.6,1.143 8,2.971 l -4.172,4.286 c -1.793,-1.257 -3.619,-1.885 -5.486,-1.885 -0.991,0 -1.876,0.191 -2.656,0.571 -0.781,0.381 -1.172,1.029 -1.172,1.943 0,0.267 0.095,0.533 0.285,0.8 l 4.057,1.83 2.8,1.257 5.144,2.285 16.397,7.314 c 0.535,-2.248 0.801,-4.533 0.801,-6.857 0,-7.353 -2.552,-13.543 -7.656,-18.573 C 51.005,4.785 44.831,2.214 37.557,2.214 Z"
   inkscape:connector-curvature="0" />

	</g>

</g>
        <g
           id="g947"
           transform="matrix(0.78123807,0,0,0.78123807,76.955827,85.378141)">
	<circle
   id="circle941"
   r="29.012695"
   cy="31.788086"
   cx="32.064453"
   style="fill:#ffffff" />

	<g
   id="g945">
		<path
   id="path943"
   d="M 31.943848,0 C 40.896484,0 48.476562,3.105469 54.6875,9.314453 60.894531,15.486328 64.000977,23.045898 64.000977,32 c 0,8.954102 -3.048828,16.457031 -9.145508,22.513672 C 48.417969,60.837891 40.779297,64 31.942871,64 23.293945,64 15.790039,60.857422 9.429199,54.570312 3.144043,48.286133 0,40.761719 0,32.000977 0,23.277344 3.144043,15.715821 9.429199,9.316407 15.640137,3.105469 23.14502,0 31.943848,0 Z m 0.116699,5.771484 c -7.275391,0 -13.429688,2.570312 -18.458496,7.714844 C 8.381836,18.783203 5.772949,24.954102 5.772949,32 c 0,7.125 2.589844,13.256836 7.77002,18.400391 5.181152,5.181641 11.352051,7.770508 18.515625,7.770508 7.123047,0 13.332031,-2.608398 18.626953,-7.828125 C 55.713867,45.466797 58.228516,39.353516 58.228516,32 c 0,-7.3125 -2.553711,-13.484375 -7.65625,-18.513672 C 45.504883,8.341797 39.333984,5.771484 32.060547,5.771484 Z m 12.056641,18.684571 v 5.485352 H 20.859863 v -5.485352 z m 0,10.287109 v 5.481445 H 20.859863 v -5.481445 z"
   inkscape:connector-curvature="0" />

	</g>

</g>
        <g
           id="g995">
          <circle
             r="24.856066"
             cy="166.87218"
             cx="27.25075"
             id="path991"
             style="fill:#f9f9f9;fill-opacity:1;stroke-width:0.26458332" />
          <path
             style="stroke-width:0.13020833"
             inkscape:connector-curvature="0"
             d="m 27.25075,141.87218 c -13.806771,0 -24.9999998,11.19323 -24.9999998,25 0,13.80521 11.1932288,25 24.9999998,25 13.806767,0 25,-11.19479 25,-25 0,-13.8069 -11.193233,-25 -25,-25 z m 0,45.31223 c -11.200915,0 -20.3130213,-9.11288 -20.3130213,-20.31223 0,-2.34467 0.404036,-4.59623 1.1388,-6.69193 l 7.9444033,3.53763 c -0.213932,1.06315 -0.329951,2.17213 -0.329951,3.31758 0,9.98047 7.449479,12.79258 12.136462,12.79258 2.763932,0 5.155989,-0.89219 7.028514,-2.20105 0.355861,-0.25508 0.678253,-0.51171 0.974478,-0.77291 l -3.644532,-4.42826 c -0.1069,0.12214 -0.21849,0.23828 -0.332943,0.34219 -1.417579,1.34414 -2.97565,1.34414 -3.323829,1.34414 -3.813278,0 -5.409503,-4.02331 -5.430855,-7.24622 l 21.895442,9.7483 c 0.02593,0.004 0.04724,0.004 0.06862,0.009 -3.454946,6.29023 -10.143617,10.56106 -17.811585,10.56106 z m 19.574478,-15.122 -22.582815,-10.07969 c 0.814843,-1.47552 2.111718,-2.5845 4.052343,-2.5845 1.125,0 2.017062,0.37266 2.719665,0.84323 0.291664,0.2108 0.54531,0.42148 0.759114,0.63385 l 4.070704,-4.18984 c -2.734114,-2.35078 -5.842579,-2.77083 -7.875521,-2.77083 -4.777087,0 -8.157422,2.0651 -10.15,5.20103 l -7.551825,-3.36809 c 3.634636,-5.52943 9.888803,-9.18919 16.983857,-9.18919 11.200778,0 20.313799,9.11145 20.313799,20.3138 0,1.81315 -0.242839,3.5681 -0.690492,5.24231 -0.01836,-0.0184 -0.03046,-0.0337 -0.04882,-0.0521 z"
             id="path960" />
        </g>
        <g
           id="g976"
           transform="matrix(0.78125,0,0,0.78125,28.624529,236.5377)">
	<circle
   id="circle970"
   r="29.105"
   cy="28.631001"
   cx="36.944"
   style="fill:#ffffff" />

	<g
   id="g974">
		<path
   id="path972"
   d="m 37.443,-3.5 c 8.951,0 16.531,3.105 22.742,9.315 6.208,6.172 9.315,13.733 9.315,22.685 0,8.954 -3.049,16.457 -9.145,22.514 C 53.918,57.338 46.279,60.5 37.443,60.5 28.794,60.5 21.29,57.357 14.929,51.071 8.644,44.786 5.5,37.264 5.5,28.501 5.5,19.778 8.644,12.216 14.929,5.816 21.138,-0.395 28.643,-3.5 37.443,-3.5 Z m 0.114,5.772 c -7.276,0 -13.428,2.572 -18.457,7.715 -5.22,5.296 -7.829,11.467 -7.829,18.513 0,7.125 2.59,13.257 7.77,18.4 5.181,5.182 11.352,7.771 18.514,7.771 7.123,0 13.334,-2.609 18.629,-7.828 5.029,-4.876 7.543,-10.99 7.543,-18.343 0,-7.313 -2.553,-13.485 -7.656,-18.513 C 51.004,4.842 44.832,2.272 37.557,2.272 Z M 23.271,23.985 c 0.609,-3.924 2.189,-6.962 4.742,-9.114 2.552,-2.152 5.656,-3.228 9.314,-3.228 5.027,0 9.029,1.62 12,4.856 2.971,3.238 4.457,7.391 4.457,12.457 0,4.915 -1.543,9 -4.627,12.256 -3.088,3.256 -7.086,4.886 -12.002,4.886 -3.619,0 -6.743,-1.085 -9.371,-3.257 -2.629,-2.172 -4.209,-5.257 -4.743,-9.257 H 31.1 c 0.19,3.886 2.533,5.829 7.029,5.829 2.246,0 4.057,-0.972 5.428,-2.914 1.373,-1.942 2.059,-4.534 2.059,-7.771 0,-3.391 -0.629,-5.971 -1.885,-7.743 -1.258,-1.771 -3.066,-2.657 -5.43,-2.657 -4.268,0 -6.667,1.885 -7.2,5.656 h 2.343 l -6.342,6.343 -6.343,-6.343 z"
   inkscape:connector-curvature="0" />

	</g>

</g>
      </g>
      <path
         id="path1115"
         d="M 40.40852,-9.3699886 C -61.366009,21.306538 -135.59986,115.83973 -135.59986,227.54681 c 0,31.44234 5.88513,61.52232 16.60623,89.20282 a 78.638931,78.638931 0 0 1 16.01142,-11.14453 c -8.83737,-24.34966 -13.6586,-50.63475 -13.6586,-78.05829 0,-102.81542 67.7298,-189.641652 161.056836,-218.3561748 A 72.300874,72.300874 0 0 1 40.40852,-9.3699886 Z m 144.0527,0.3875723 A 72.300874,72.300874 0 0 1 180.3607,9.5570196 C 273.07822,38.637924 340.23775,125.16513 340.23775,227.54681 c 0,31.13597 -6.21517,60.80406 -17.46766,87.83805 a 72.300872,72.300872 0 0 1 16.66049,9.13071 c 12.7207,-29.78484 19.76623,-62.56165 19.76623,-96.96876 0,-111.24077 -73.61571,-205.450628 -174.73559,-236.5292263 z M 234.87727,420.087 c -35.50947,22.72824 -77.73967,35.89909 -123.07879,35.89909 -42.688807,0 -82.620044,-11.67863 -116.782021,-32.01458 a 78.638931,78.638931 0 0 1 -13.815177,13.67514 c 37.915409,23.63626 82.675919,37.2985 130.597198,37.2985 49.76136,0 96.11314,-14.73364 134.93284,-40.06733 A 72.300872,72.300872 0 0 1 234.87727,420.087 Z"
         style="color:#000000;font-style:normal;font-variant:normal;font-weight:normal;font-stretch:normal;font-size:medium;line-height:normal;font-family:sans-serif;font-variant-ligatures:normal;font-variant-position:normal;font-variant-caps:normal;font-variant-numeric:normal;font-variant-alternates:normal;font-feature-settings:normal;text-indent:0;text-align:start;text-decoration:none;text-decoration-line:none;text-decoration-style:solid;text-decoration-color:#000000;letter-spacing:normal;word-spacing:normal;text-transform:none;writing-mode:lr-tb;direction:ltr;text-orientation:mixed;dominant-baseline:auto;baseline-shift:baseline;text-anchor:start;white-space:normal;shape-padding:0;clip-rule:nonzero;display:inline;overflow:visible;visibility:visible;opacity:1;isolation:auto;mix-blend-mode:normal;color-interpolation:sRGB;color-interpolation-filters:linearRGB;solid-color:#000000;solid-opacity:1;vector-effect:none;fill:#000000;fill-opacity:1;fill-rule:nonzero;stroke:none;stroke-width:18.95947456;stroke-linecap:butt;stroke-linejoin:miter;stroke-miterlimit:4;stroke-dasharray:none;stroke-dashoffset:0;stroke-opacity:1;color-rendering:auto;image-rendering:auto;shape-rendering:auto;text-rendering:auto;enable-background:accumulate"
         inkscape:connector-curvature="0" />
      <g
         transform="matrix(0.87830102,0,0,0.87830102,13.533348,55.434221)"
         id="g1134">
        <g
           id="g872"
           transform="matrix(0.18367347,0,0,0.18367347,20.788693,-168.37203)">
          <circle
             id="circle858"
             r="440"
             cy="490"
             cx="490"
             style="fill:none;stroke:#000000;stroke-width:100" />
          <path
             id="path860"
             d="m 219,428 h 131 a 150,150 0 1 1 0,125 H 219 a 275,275 0 1 0 0,-125 z"
             inkscape:connector-curvature="0" />
        </g>
      </g>
      <path
         inkscape:connector-curvature="0"
         id="circle815"
         d="m 296.70165,303.69312 a 79.047091,79.047091 0 0 0 -79.04681,79.04726 79.047091,79.047091 0 0 0 79.04681,79.04679 79.047091,79.047091 0 0 0 79.04725,-79.04679 79.047091,79.047091 0 0 0 -79.04725,-79.04726 z m 0,16.13207 a 62.91503,62.91503 0 0 1 62.91519,62.91519 62.91503,62.91503 0 0 1 -62.91519,62.91474 62.91503,62.91503 0 0 1 -62.91474,-62.91474 62.91503,62.91503 0 0 1 62.91474,-62.91519 z m 0,18.55212 a 44.363163,44.363163 0 0 0 -44.36307,44.36307 44.363163,44.363163 0 0 0 44.36307,44.36307 44.363163,44.363163 0 0 0 43.23747,-34.68375 h -21.07296 a 24.198089,24.198089 0 0 1 -22.16451,14.51855 24.198089,24.198089 0 0 1 -24.19787,-24.19787 24.198089,24.198089 0 0 1 24.19787,-24.19833 24.198089,24.198089 0 0 1 21.78554,13.71245 h 21.26628 a 44.363163,44.363163 0 0 0 -43.05182,-33.87719 z"
         style="fill:#000000;stroke-width:0.80660295" />
      <path
         inkscape:export-ydpi="48.18"
         inkscape:export-xdpi="48.18"
         inkscape:export-filename="/home/rafael/workspace/logo-osi/3/png/logo396x412.png"
         id="path3773"
         d="m -66.648089,374.99615 m 9.442833,24.59775 a 26.347205,26.347205 0 1 0 -18.88568,0 l -17.747478,46.24461 a 75.879949,75.879949 0 1 1 54.380638,0 z"
         inkscape:connector-curvature="0"
         style="text-anchor:middle;fill:#3fa652;stroke:#21552a;stroke-width:6.32332897;stroke-linejoin:round" />
    </g>
  </g>
  <style
     id="style874"
     type="text/css">
	.st0{fill:#3FA648;stroke:#23552A;stroke-width:19.2122;stroke-linecap:round;stroke-linejoin:round;}
	.st1{fill:#010101;}
	.st2{fill:none;stroke:#010101;stroke-width:7.5241;stroke-linecap:round;stroke-linejoin:round;}
</style>
</svg>
