<?xml version="1.0" encoding="UTF-8" standalone="no"?>
<!-- Created with Inkscape (http://www.inkscape.org/) -->

<svg xmlns:dc="http://purl.org/dc/elements/1.1/" xmlns:cc="http://creativecommons.org/ns#" xmlns:rdf="http://www.w3.org/1999/02/22-rdf-syntax-ns#" xmlns:svg="http://www.w3.org/2000/svg" xmlns="http://www.w3.org/2000/svg" xmlns:sodipodi="http://sodipodi.sourceforge.net/DTD/sodipodi-0.dtd" xmlns:inkscape="http://www.inkscape.org/namespaces/inkscape" width="158.75mm" height="15.875mm" viewBox="0 0 158.75 15.875" version="1.1" id="svg8" sodipodi:docname="publisher-logo.svg" inkscape:export-filename="/home/kuba/projects/jcubic/www/blog/repo/img/logo-glownie-javascript.png" inkscape:export-xdpi="96" inkscape:export-ydpi="96" inkscape:version="0.92.3 (2405546, 2018-03-11)">
  <defs id="defs2" />
  <sodipodi:namedview id="base" pagecolor="#ffffff" bordercolor="#666666" borderopacity="1.0" inkscape:pageopacity="0.0" inkscape:pageshadow="2" inkscape:zoom="0.98994949" inkscape:cx="281.55008" inkscape:cy="-53.314391" inkscape:document-units="mm" inkscape:current-layer="layer1" showgrid="false" fit-margin-top="0" fit-margin-left="0" fit-margin-right="0" fit-margin-bottom="0" inkscape:window-width="1389" inkscape:window-height="736" inkscape:window-x="105" inkscape:window-y="49" inkscape:window-maximized="0" />
  <metadata id="metadata5">
    <rdf:RDF>
      <cc:Work rdf:about="">
        <dc:format>image/svg+xml</dc:format>
        <dc:type rdf:resource="http://purl.org/dc/dcmitype/StillImage" />
        <dc:title></dc:title>
      </cc:Work>
    </rdf:RDF>
  </metadata>
  <g inkscape:label="Layer 1" inkscape:groupmode="layer" id="layer1" transform="translate(22.962053,-46.023808)">
    <g id="g945" transform="matrix(0.8768576,0,0,0.8768576,-33.410873,6.6449245)">
      <path d="m 24.836146,54.591558 h 0.529167 v 1.36525 c 0,0.529167 -0.232833,0.719667 -0.60325,0.719667 -0.370417,0 -0.60325,-0.1905 -0.60325,-0.719667 v -4.0005 c 0,-0.529167 0.232833,-0.73025 0.60325,-0.73025 0.370417,0 0.60325,0.201083 0.60325,0.73025 v 0.79375 h 1.100667 v -0.719667 c 0,-1.185333 -0.592667,-1.862666 -1.735667,-1.862666 -1.143,0 -1.735667,0.677333 -1.735667,1.862666 v 3.852334 c 0,1.185333 0.592667,1.862666 1.735667,1.862666 1.143,0 1.735667,-0.677333 1.735667,-1.862666 v -2.3495 h -1.629834 z" style="font-style:normal;font-variant:normal;font-weight:normal;font-stretch:normal;font-size:medium;line-height:1.25;font-family:'Bebas Neue';-inkscape-font-specification:'Bebas Neue';letter-spacing:0px;word-spacing:0px;fill:#2c3e50;fill-opacity:1;stroke:none;stroke-width:0.26458332" id="path869" inkscape:connector-curvature="0" />
      <path d="m 26.800677,56.655308 0.518584,-0.550333 v 1.55575 h 3.07975 v -1.058334 h -1.915584 v -1.74625 l 1.280584,-1.375833 v -1.058333 l -1.280584,1.375833 v -3.545416 h -1.164166 v 4.794249 l -0.518584,0.550334 z" style="font-style:normal;font-variant:normal;font-weight:normal;font-stretch:normal;font-size:medium;line-height:1.25;font-family:'Bebas Neue';-inkscape-font-specification:'Bebas Neue';letter-spacing:0px;word-spacing:0px;fill:#2c3e50;fill-opacity:1;stroke:none;stroke-width:0.26458332" id="path871" inkscape:connector-curvature="0" />
      <path d="m 31.992959,51.956308 c 0,-0.529167 0.232834,-0.73025 0.60325,-0.73025 0.370417,0 0.60325,0.201083 0.60325,0.73025 v 4.0005 c 0,0.529167 -0.232833,0.73025 -0.60325,0.73025 -0.370416,0 -0.60325,-0.201083 -0.60325,-0.73025 z m -1.164166,3.926417 c 0,1.185333 0.624417,1.862666 1.767416,1.862666 1.143,0 1.767417,-0.677333 1.767417,-1.862666 v -3.852334 c 0,-1.185333 -0.624417,-1.862666 -1.767417,-1.862666 -1.142999,0 -1.767416,0.677333 -1.767416,1.862666 z m 1.9685,-7.228417 -0.762,1.23825 h 0.8255 l 1.143,-1.23825 z" style="font-style:normal;font-variant:normal;font-weight:normal;font-stretch:normal;font-size:medium;line-height:1.25;font-family:'Bebas Neue';-inkscape-font-specification:'Bebas Neue';letter-spacing:0px;word-spacing:0px;fill:#2c3e50;fill-opacity:1;stroke:none;stroke-width:0.26458332" id="path873" inkscape:connector-curvature="0" />
      <path d="m 38.125835,57.660725 h 1.545167 l 0.8255,-7.408333 h -1.016 l -0.60325,5.884333 -0.582083,-5.884333 h -1.121834 l -0.560916,5.841999 -0.624417,-5.841999 h -1.132416 l 0.825499,7.408333 h 1.598084 l 0.423333,-3.947584 z" style="font-style:normal;font-variant:normal;font-weight:normal;font-stretch:normal;font-size:medium;line-height:1.25;font-family:'Bebas Neue';-inkscape-font-specification:'Bebas Neue';letter-spacing:0px;word-spacing:0px;fill:#2c3e50;fill-opacity:1;stroke:none;stroke-width:0.26458332" id="path875" inkscape:connector-curvature="0" />
      <path d="m 43.560378,57.660725 h 1.195917 v -7.408333 h -1.037167 v 4.434416 l -1.195917,-4.434416 h -1.4605 v 7.408333 h 1.04775 v -5.36575 z" style="font-style:normal;font-variant:normal;font-weight:normal;font-stretch:normal;font-size:medium;line-height:1.25;font-family:'Bebas Neue';-inkscape-font-specification:'Bebas Neue';letter-spacing:0px;word-spacing:0px;fill:#2c3e50;fill-opacity:1;stroke:none;stroke-width:0.26458332" id="path877" inkscape:connector-curvature="0" />
      <path d="m 45.60015,57.660725 h 1.164167 V 50.252392 H 45.60015 Z" style="font-style:normal;font-variant:normal;font-weight:normal;font-stretch:normal;font-size:medium;line-height:1.25;font-family:'Bebas Neue';-inkscape-font-specification:'Bebas Neue';letter-spacing:0px;word-spacing:0px;fill:#2c3e50;fill-opacity:1;stroke:none;stroke-width:0.26458332" id="path879" inkscape:connector-curvature="0" />
      <path d="m 48.769362,51.310725 h 2.010833 v -1.058333 h -3.175 v 7.408333 h 3.175 v -1.058334 h -2.010833 v -2.169583 h 1.598083 v -1.058333 h -1.598083 z" style="font-style:normal;font-variant:normal;font-weight:normal;font-stretch:normal;font-size:medium;line-height:1.25;font-family:'Bebas Neue';-inkscape-font-specification:'Bebas Neue';letter-spacing:0px;word-spacing:0px;fill:#2c3e50;fill-opacity:1;stroke:none;stroke-width:0.26458332" id="path881" inkscape:connector-curvature="0" />
      <path d="m 52.806738,57.660725 c 0.1905,0.02117 0.34925,0.02117 0.560917,0.02117 0.878416,0 1.672166,-0.381 1.672166,-1.862666 v -5.566833 h -1.164166 v 5.651499 c 0,0.5715 -0.296334,0.709084 -0.66675,0.709084 -0.127,0 -0.275167,0 -0.402167,-0.01058 z" style="font-style:normal;font-variant:normal;font-weight:normal;font-stretch:normal;font-size:medium;line-height:1.25;font-family:'Bebas Neue';-inkscape-font-specification:'Bebas Neue';letter-spacing:0px;word-spacing:0px;fill:#2c3e50;fill-opacity:1;stroke:none;stroke-width:0.26458332" id="path883" inkscape:connector-curvature="0" />
      <path d="M 58.414417,50.252392 H 56.7105 l -1.185333,7.408333 h 1.068917 l 0.201083,-1.344084 h 1.42875 L 58.425,57.660725 h 1.17475 z m -0.910167,1.312333 0.560917,3.7465 h -1.121833 z" style="font-style:normal;font-variant:normal;font-weight:normal;font-stretch:normal;font-size:medium;line-height:1.25;font-family:'Bebas Neue';-inkscape-font-specification:'Bebas Neue';letter-spacing:0px;word-spacing:0px;fill:#2c3e50;fill-opacity:1;stroke:none;stroke-width:0.26458332" id="path885" inkscape:connector-curvature="0" />
      <path d="m 60.730679,50.252392 h -1.17475 l 1.143,7.408333 h 1.735666 l 1.143,-7.408333 h -1.068916 l -0.889,6.043083 z" style="font-style:normal;font-variant:normal;font-weight:normal;font-stretch:normal;font-size:medium;line-height:1.25;font-family:'Bebas Neue';-inkscape-font-specification:'Bebas Neue';letter-spacing:0px;word-spacing:0px;fill:#2c3e50;fill-opacity:1;stroke:none;stroke-width:0.26458332" id="path887" inkscape:connector-curvature="0" />
      <path d="M 66.434597,50.252392 H 64.73068 l -1.185333,7.408333 h 1.068917 l 0.201083,-1.344084 h 1.42875 l 0.201083,1.344084 h 1.17475 z m -0.910167,1.312333 0.560917,3.7465 h -1.121833 z" style="font-style:normal;font-variant:normal;font-weight:normal;font-stretch:normal;font-size:medium;line-height:1.25;font-family:'Bebas Neue';-inkscape-font-specification:'Bebas Neue';letter-spacing:0px;word-spacing:0px;fill:#2c3e50;fill-opacity:1;stroke:none;stroke-width:0.26458332" id="path889" inkscape:connector-curvature="0" />
      <path d="m 68.003577,52.030391 c 0,2.116667 2.275417,2.402417 2.275417,3.926417 0,0.529167 -0.232833,0.719667 -0.60325,0.719667 -0.370417,0 -0.60325,-0.1905 -0.60325,-0.719667 v -0.79375 h -1.100667 v 0.719667 c 0,1.185333 0.592667,1.862666 1.735667,1.862666 1.143,0 1.735667,-0.677333 1.735667,-1.862666 0,-2.116667 -2.275417,-2.402417 -2.275417,-3.926417 0,-0.529167 0.211667,-0.73025 0.582083,-0.73025 0.370417,0 0.582084,0.201083 0.582084,0.73025 v 0.465667 h 1.100666 v -0.391584 c 0,-1.185333 -0.582083,-1.862666 -1.7145,-1.862666 -1.132416,0 -1.7145,0.677333 -1.7145,1.862666 z" style="font-style:normal;font-variant:normal;font-weight:normal;font-stretch:normal;font-size:medium;line-height:1.25;font-family:'Bebas Neue';-inkscape-font-specification:'Bebas Neue';letter-spacing:0px;word-spacing:0px;fill:#2c3e50;fill-opacity:1;stroke:none;stroke-width:0.26458332" id="path891" inkscape:connector-curvature="0" />
      <path d="m 74.375239,54.898475 v 1.058333 c 0,0.529167 -0.232834,0.719667 -0.60325,0.719667 -0.370417,0 -0.60325,-0.1905 -0.60325,-0.719667 v -4.0005 c 0,-0.529167 0.232833,-0.73025 0.60325,-0.73025 0.370416,0 0.60325,0.201083 0.60325,0.73025 v 0.79375 h 1.100666 v -0.719667 c 0,-1.185333 -0.592666,-1.862666 -1.735666,-1.862666 -1.143,0 -1.735667,0.677333 -1.735667,1.862666 v 3.852334 c 0,1.185333 0.592667,1.862666 1.735667,1.862666 1.143,0 1.735666,-0.677333 1.735666,-1.862666 v -0.98425 z" style="font-style:normal;font-variant:normal;font-weight:normal;font-stretch:normal;font-size:medium;line-height:1.25;font-family:'Bebas Neue';-inkscape-font-specification:'Bebas Neue';letter-spacing:0px;word-spacing:0px;fill:#2c3e50;fill-opacity:1;stroke:none;stroke-width:0.26458332" id="path893" inkscape:connector-curvature="0" />
      <path d="m 79.812096,57.660725 c -0.116417,-0.275167 -0.127,-0.53975 -0.127,-0.899584 v -1.143 c 0,-0.772583 -0.1905,-1.3335 -0.772584,-1.576916 0.518584,-0.243417 0.762,-0.740834 0.762,-1.502834 v -0.582083 c 0,-1.143 -0.518583,-1.703916 -1.725083,-1.703916 h -1.756833 v 7.408333 h 1.164166 v -3.01625 h 0.402167 c 0.529167,0 0.762,0.254 0.762,0.941916 v 1.164167 c 0,0.60325 0.04233,0.719667 0.105833,0.910167 z m -1.894417,-6.35 c 0.41275,0 0.592667,0.232833 0.592667,0.762 v 0.73025 c 0,0.592666 -0.264584,0.783166 -0.6985,0.783166 h -0.455084 v -2.275416 z" style="font-style:normal;font-variant:normal;font-weight:normal;font-stretch:normal;font-size:medium;line-height:1.25;font-family:'Bebas Neue';-inkscape-font-specification:'Bebas Neue';letter-spacing:0px;word-spacing:0px;fill:#2c3e50;fill-opacity:1;stroke:none;stroke-width:0.26458332" id="path895" inkscape:connector-curvature="0" />
      <path d="m 80.450736,57.660725 h 1.164167 v -7.408333 h -1.164167 z" style="font-style:normal;font-variant:normal;font-weight:normal;font-stretch:normal;font-size:medium;line-height:1.25;font-family:'Bebas Neue';-inkscape-font-specification:'Bebas Neue';letter-spacing:0px;word-spacing:0px;fill:#2c3e50;fill-opacity:1;stroke:none;stroke-width:0.26458332" id="path897" inkscape:connector-curvature="0" />
      <path d="m 84.170279,50.252392 h -1.7145 v 7.408333 h 1.164167 v -2.783417 h 0.550333 c 1.164167,0 1.735667,-0.645583 1.735667,-1.830917 v -0.963083 c 0,-1.185333 -0.5715,-1.830916 -1.735667,-1.830916 z m 0,1.058333 c 0.370417,0 0.5715,0.169333 0.5715,0.6985 v 1.11125 c 0,0.529166 -0.201083,0.6985 -0.5715,0.6985 h -0.550333 v -2.50825 z" style="font-style:normal;font-variant:normal;font-weight:normal;font-stretch:normal;font-size:medium;line-height:1.25;font-family:'Bebas Neue';-inkscape-font-specification:'Bebas Neue';letter-spacing:0px;word-spacing:0px;fill:#2c3e50;fill-opacity:1;stroke:none;stroke-width:0.26458332" id="path899" inkscape:connector-curvature="0" />
      <path d="m 86.127701,51.310725 h 1.217083 v 6.35 h 1.164167 v -6.35 h 1.217083 v -1.058333 h -3.598333 z" style="font-style:normal;font-variant:normal;font-weight:normal;font-stretch:normal;font-size:medium;line-height:1.25;font-family:'Bebas Neue';-inkscape-font-specification:'Bebas Neue';letter-spacing:0px;word-spacing:0px;fill:#2c3e50;fill-opacity:1;stroke:none;stroke-width:0.26458332" id="path901" inkscape:connector-curvature="0" />
      <path d="m 22.816568,59.480351 v 0.992188 h -0.427192 q -1.715657,0 -2.301324,-0.509874 -0.578776,-0.509874 -0.578776,-2.032607 v -1.646755 q 0,-1.040419 -0.37207,-1.44005 -0.37207,-0.399631 -1.350477,-0.399631 h -0.420302 v -0.985297 h 0.420302 q 0.985297,0 1.350477,-0.392741 0.37207,-0.399631 0.37207,-1.42627 v -1.653646 q 0,-1.522732 0.578776,-2.025716 0.585667,-0.509874 2.301324,-0.509874 h 0.427192 v 0.985298 h -0.468533 q -0.971517,0 -1.267795,0.303168 -0.296278,0.303168 -0.296278,1.274685 v 1.708768 q 0,1.081759 -0.316949,1.570963 -0.310059,0.489204 -1.06798,0.661458 0.764811,0.186035 1.07487,0.675239 0.310059,0.489204 0.310059,1.564073 v 1.708768 q 0,0.971517 0.296278,1.274685 0.296278,0.303168 1.267795,0.303168 z" style="font-style:normal;font-variant:normal;font-weight:normal;font-stretch:normal;font-size:14.11111069px;line-height:1.25;font-family:sans-serif;-inkscape-font-specification:sans-serif;letter-spacing:0px;word-spacing:0px;fill:#2c3e50;fill-opacity:1;stroke:none;stroke-width:0.35317597" id="path866" inkscape:connector-curvature="0" />
      <path d="m 90.009326,59.480351 h 0.482314 q 0.964627,0 1.254015,-0.296278 0.296278,-0.296278 0.296278,-1.281575 V 56.19373 q 0,-1.074869 0.310058,-1.564073 0.310059,-0.489204 1.07487,-0.675239 -0.764811,-0.172254 -1.07487,-0.661458 -0.310058,-0.489204 -0.310058,-1.570963 v -1.708768 q 0,-0.978407 -0.296278,-1.274685 -0.289388,-0.303168 -1.254015,-0.303168 h -0.482314 v -0.985298 h 0.434082 q 1.715658,0 2.287544,0.509874 0.578776,0.502984 0.578776,2.025716 v 1.653646 q 0,1.026639 0.37207,1.42627 0.37207,0.392741 1.350478,0.392741 h 0.427191 v 0.985297 h -0.427191 q -0.978408,0 -1.350478,0.399631 -0.37207,0.399631 -0.37207,1.44005 v 1.646755 q 0,1.522733 -0.578776,2.032607 -0.571886,0.509874 -2.287544,0.509874 h -0.434082 z" style="font-style:normal;font-variant:normal;font-weight:normal;font-stretch:normal;font-size:14.11111069px;line-height:1.25;font-family:sans-serif;-inkscape-font-specification:sans-serif;letter-spacing:0px;word-spacing:0px;fill:#2c3e50;fill-opacity:1;stroke:none;stroke-width:0.26458332" id="path904" inkscape:connector-curvature="0" />
    </g>
  </g>
</svg>
