<?xml version="1.0" encoding="UTF-8" standalone="no"?>
<!-- Created with Inkscape (http://www.inkscape.org/) -->

<svg width="32" height="32" id="svg2" version="1.0" xmlns:xlink="http://www.w3.org/1999/xlink" xmlns="http://www.w3.org/2000/svg" xmlns:svg="http://www.w3.org/2000/svg" xmlns:rdf="http://www.w3.org/1999/02/22-rdf-syntax-ns#" xmlns:cc="http://creativecommons.org/ns#" xmlns:dc="http://purl.org/dc/elements/1.1/">
  <defs id="defs4">
    <linearGradient id="linearGradient2555">
      <stop style="stop-color: rgb(255, 255, 255); stop-opacity: 1;" offset="0" id="stop2557" />
      <stop style="stop-color: rgb(255, 255, 255); stop-opacity: 0;" offset="1" id="stop2559" />
    </linearGradient>
    <linearGradient xlink:href="#linearGradient2555" id="linearGradient2449" gradientUnits="userSpaceOnUse" gradientTransform="matrix(-0.5914583,0,0,0.5914584,210.0216,142.2324)" x1="-344.15295" y1="274.711" x2="-395.84943" y2="425.39993" />
  </defs>
  <metadata id="metadata7">
    <rdf:RDF>
      <cc:Work rdf:about="">
        <dc:format>image/svg+xml</dc:format>
        <dc:type rdf:resource="http://purl.org/dc/dcmitype/StillImage" />
        <dc:creator>
          <cc:Agent>
            <dc:title />
          </cc:Agent>
        </dc:creator>
        <dc:subject>
          <rdf:Bag />
        </dc:subject>
        <cc:license rdf:resource="http://creativecommons.org/publicdomain/zero/1.0/" />
        <dc:description />
        <dc:contributor>
          <cc:Agent>
            <dc:title />
          </cc:Agent>
        </dc:contributor>
      </cc:Work>
      <cc:License rdf:about="http://creativecommons.org/publicdomain/zero/1.0/">
        <cc:permits rdf:resource="http://creativecommons.org/ns#Reproduction" />
        <cc:permits rdf:resource="http://creativecommons.org/ns#Distribution" />
        <cc:permits rdf:resource="http://creativecommons.org/ns#DerivativeWorks" />
      </cc:License>
    </rdf:RDF>
  </metadata>
  <g id="layer1" transform="translate(-384.13803,-531.83876)">
    <g id="g4142" transform="matrix(0.13616567,0,0,0.13617627,331.83162,487.0573)">
      <rect style="fill:#e15a00;fill-opacity:1;fill-rule:evenodd;stroke:none;stroke-width:0.875;stroke-linecap:square;stroke-linejoin:miter;stroke-miterlimit:4;stroke-dasharray:0.875, 1.75;stroke-dashoffset:0;stroke-opacity:1" id="rect1942" width="235.00784" height="234.98955" x="-619.14587" y="328.84921" rx="35.487503" ry="35.487503" transform="scale(-1,1)" />
      <path style="opacity:0.60747663;fill:url(#linearGradient2449);fill-opacity:1;fill-rule:evenodd;stroke:none;stroke-width:0.875;stroke-linecap:square;stroke-linejoin:miter;stroke-miterlimit:4;stroke-dasharray:0.875, 1.75;stroke-dashoffset:0;stroke-opacity:1" d="m 557.05665,338.89518 -110.82944,0 c -29.33688,0 -52.95465,23.80974 -52.95465,53.38507 l 0,108.12736 c 0.9496,23.08605 4.60229,8.49154 11.55502,-17.07471 8.08056,-29.71315 34.39648,-55.68287 66.44461,-75.1457 24.46133,-14.85525 51.84109,-24.34125 101.67955,-25.24367 28.26482,-0.51176 25.7695,-36.68291 -15.89509,-44.04835 z" id="path1950" />
      <ellipse transform="matrix(0.8699574,0,0,0.8699574,135.15631,330.52863)" id="path5270" style="opacity:1;fill:#ffffff;fill-opacity:1;fill-rule:nonzero;stroke:none;stroke-width:12;stroke-linecap:round;stroke-miterlimit:4;stroke-dasharray:none;stroke-opacity:1" cx="360.35715" cy="200.64285" rx="24.642859" ry="23.928572" />
      <path id="path5805" d="m 427.83482,455.05681 -0.0728,-30.27316 c 64.70607,3.37545 100.61878,49.67317 101.50021,101.93961 l -30.31824,0 c -0.50301,-45.94077 -31.74065,-69.99522 -71.10918,-71.66645 z" style="fill:#ffffff;fill-opacity:1;fill-rule:evenodd;stroke:none;stroke-width:1px;stroke-linecap:butt;stroke-linejoin:miter;stroke-opacity:1" />
      <path id="path5807" d="m 428.20143,404.57149 -0.87879,-30.75764 c 99.4284,4.61626 152.67764,76.76812 153.34879,152.90941 l -31.19703,-0.4394 C 550.83932,477.58037 514.80871,406.01731 428.20143,404.57149 Z" style="fill:#ffffff;fill-opacity:1;fill-rule:evenodd;stroke:none;stroke-width:1px;stroke-linecap:butt;stroke-linejoin:miter;stroke-opacity:1" />
    </g>
  </g>
</svg>
